<svg width="33" height="63" fill="none" xmlns="http://www.w3.org/2000/svg"><path d="M32.128 7.296L19.84 48.768c.17.427.47 1.152.896 2.176.427.939.981 1.621 1.664 2.048-.683.683-.939 1.493-.768 2.432.256.853.299 1.707.128 2.56-.256 1.11-1.024 2.176-2.304 3.2-1.28 1.024-2.048 1.536-2.304 1.536-.597 0-1.536-.213-2.816-.64-1.28-.427-2.261-.64-2.944-.64-.427-.427-.896-1.11-1.408-2.048a25.782 25.782 0 00-1.536-3.072 20.381 20.381 0 01-1.408-3.2c-.341-1.11-.512-2.005-.512-2.688 0-1.536.299-3.499.896-5.888.683-2.39 1.536-4.565 2.56-6.528 0-.341-.128-.725-.384-1.152-.17-.427-.128-.768.128-1.024.512-1.11 1.067-2.39 1.664-3.84.597-1.536 1.024-2.859 1.28-3.968a76.79 76.79 0 001.152-4.736c.341-1.621.81-3.285 1.408-4.992.085-.427.128-1.28.128-2.56-1.621 1.11-2.603 1.75-2.944 1.92-.341.085-.853.384-1.536.896-.597.427-1.28.896-2.048 1.408-.683.512-1.664.981-2.944 1.408l-3.072.128c0-.341.043-.512.128-.512s-.128-.128-.64-.384c0-.427-.299-.896-.896-1.408A27.522 27.522 0 000 17.664v-1.92c.939-.341 1.493-1.11 1.664-2.304.17-1.28.597-2.347 1.28-3.2.427-.597 1.024-1.024 1.792-1.28a16.589 16.589 0 002.176-.896c.597-.512.896-.981.896-1.408 1.45-1.11 3.797-2.475 7.04-4.096C18.176.853 21.547 0 24.96 0c.427 0 1.152.299 2.176.896 1.024.512 1.75.981 2.176 1.408.597.683 1.11 1.536 1.536 2.56.427.939.853 1.75 1.28 2.432z" fill="#C2E76B"/></svg>