<svg width="50" height="66" fill="none" xmlns="http://www.w3.org/2000/svg"><path d="M49.08 54.656a2.686 2.686 0 00-.383 1.408c.085.512.085.981 0 1.408a9.05 9.05 0 01-1.28 1.28c-.427.427-.81.896-1.152 1.408-.085 0-.427.17-1.024.512-3.67.256-7.381.555-11.136.896-3.67.341-7.21.81-10.624 1.408-1.536.256-3.627.768-6.272 1.536-2.56.768-4.181 1.152-4.864 1.152-.427 0-1.365-.128-2.816-.384a88.742 88.742 0 00-3.584-.384c-.256 0-.555-.17-.896-.512-.256-.256-.64-.512-1.152-.768 0-.853-.341-1.621-1.024-2.304-.597.256-.597.939 0 2.048-.17-.17-.256-.512-.256-1.024 0-.597-.043-1.195-.128-1.792-.085-.683-.256-1.195-.512-1.536-.256-.427-.683-.64-1.28-.64h-.64c.17 0 .256.128.256.384.427-.853.64-2.133.64-3.84 0-1.707.341-3.115 1.024-4.224.597-1.11 1.493-2.56 2.688-4.352a402.09 402.09 0 014.096-5.888 399.708 399.708 0 004.608-6.272 142.255 142.255 0 003.968-6.016c.17-.17.47-.427.896-.768.427-.341.981-1.024 1.664-2.048.853-1.45 2.133-3.243 3.84-5.376 1.707-2.133 2.048-4.053 1.024-5.76-2.901 2.475-4.992 4.65-6.272 6.528-1.28 1.792-2.859 2.688-4.736 2.688-.853 0-1.45-.085-1.792-.256a2.33 2.33 0 01-.768-1.024c-.085-.427-.256-.896-.512-1.408-.17-.597-.555-1.152-1.152-1.664-.427-.597-.64-1.75-.64-3.456-.085-.256-.256-.512-.512-.768-.17-.341-.256-.64-.256-.896.256 0 .512.085.768.256.341.085.64.128.896.128.597-2.048 1.92-4.096 3.968-6.144 2.133-2.048 3.84-3.627 5.12-4.736.597-.427 1.195-1.11 1.792-2.048C21.262.469 22.2 0 23.48 0c.597 0 1.323.085 2.176.256.853.085 1.536.128 2.048.128h1.28c1.28 1.195 2.432 1.707 3.456 1.536 1.11-.256 2.09-.128 2.944.384.939.768 2.09 1.877 3.456 3.328 1.365 1.45 2.048 2.73 2.048 3.84-.853 2.56-2.005 5.419-3.456 8.576-1.365 3.072-3.072 6.272-5.12 9.6a167.971 167.971 0 01-6.272 9.6c-2.133 3.072-3.968 5.888-5.504 8.448-.256.683-.725 1.579-1.408 2.688-.683 1.024-1.152 1.877-1.408 2.56l.64.896c1.11-.427 2.688-.768 4.736-1.024a81.238 81.238 0 016.144-.512c1.963-.17 3.968-.299 6.016-.384 2.048-.085 3.925-.128 5.632-.128.427 0 .939.085 1.536.256.597.17 1.11.256 1.536.256.427.427.597.81.512 1.152.427.427 1.11.81 2.048 1.152.597.683 1.45 1.365 2.56 2.048z" fill="#C2E76B"/></svg>