<svg width="37" height="78" fill="none" xmlns="http://www.w3.org/2000/svg"><path d="M36.109 12.16c-.17 2.39-.939 4.181-2.304 5.376-1.365 1.195-2.944 2.901-4.736 5.12-1.366 1.792-3.2 3.755-5.504 5.888a1782.905 1782.905 0 00-7.168 6.656c.427.939 1.024 1.579 1.792 1.92a57.309 57.309 0 014.48 2.944c1.621 1.11 2.944 2.432 3.968 3.968.256.683.64 1.621 1.152 2.816a25.327 25.327 0 011.28 3.84 85.61 85.61 0 01.896 3.968c.256 1.28.341 2.39.256 3.328-.17 1.621-.768 3.541-1.792 5.76s-2.347 4.352-3.968 6.4a22.987 22.987 0 01-5.504 5.248c-2.134 1.45-4.31 2.09-6.528 1.92a12.66 12.66 0 00-1.792-.128c-.598.085-1.067-.043-1.408-.384-.427-.512-1.067-1.024-1.92-1.536-.768-.427-1.45-1.024-2.048-1.792-.17-.256-.299-.853-.384-1.792 0-.939-.17-1.792-.512-2.56.512-.768.426-1.493-.256-2.176-.598-.683-.982-1.408-1.152-2.176.597-.597 1.152-1.323 1.664-2.176.512-.768.981-1.493 1.408-2.176-.17.427.085 1.195.768 2.304.341-.768.554-1.493.64-2.176.17-.683.426-1.365.768-2.048.17.768.512 1.493 1.024 2.176s1.067 1.024 1.664 1.024l1.664.128c.426.085 1.237-.555 2.432-1.92a178.09 178.09 0 003.2-3.712 14.29 14.29 0 00.512-2.304c.17-2.048-.555-3.797-2.176-5.248-1.621-1.536-3.499-2.859-5.632-3.968-2.048-1.11-3.968-2.005-5.76-2.688-1.707-.768-2.646-1.45-2.816-2.048-.086-.939-.256-2.133-.512-3.584-.256-1.45-.342-2.475-.256-3.072.085-1.536.853-2.987 2.304-4.352a104.609 104.609 0 004.352-4.352 269.186 269.186 0 018.576-9.216c-.683-.085-1.621.043-2.816.384a50.511 50.511 0 00-3.84 1.28 474.82 474.82 0 00-3.712 1.408c-1.024.341-1.622.512-1.792.512-.427-.085-.939-.341-1.536-.768-.512-.512-1.152-1.024-1.92-1.536.682-.683.64-1.579-.128-2.688-.768-1.195-1.11-2.133-1.024-2.816 0-.597.384-1.11 1.152-1.536a11.964 11.964 0 012.56-1.28c.256-.17.426-.384.512-.64.17-.256.426-.427.768-.512.426-.17.896-.256 1.408-.256.512 0 .896-.17 1.152-.512 1.194-.256 1.578-.896 1.152-1.92h.256c.17.085.298.17.384.256 1.024.427 2.09.17 3.2-.768-.17 0-.256-.043-.256-.128-.17-.085-.256-.17-.256-.256 0-.085-.043-.128-.128-.128.427-.085 1.152-.299 2.176-.64a99.126 99.126 0 003.456-1.408C18.829.896 20.066.555 21.26.384 22.456.128 23.309 0 23.82 0c.597.085.938.299 1.024.64.085.341.299.64.64.896 1.536.768 3.072 1.237 4.608 1.408 1.621.085 3.115 1.024 4.48 2.816.256.256.512.683.768 1.28s.512 1.11.768 1.536c.17.427.213.981.128 1.664 0 .683-.043 1.323-.128 1.92z" fill="#C2E76B"/></svg>