<svg width="52" height="75" fill="none" xmlns="http://www.w3.org/2000/svg"><path d="M51.456 37.376c-.427.256-.81.768-1.152 1.536-.341.683-.853 1.152-1.536 1.408a25.076 25.076 0 01-7.424 1.92c-2.56.17-4.95.725-7.168 1.664-.256.17-.597 1.024-1.024 2.56-.427 1.536-.81 3.285-1.152 5.248-.341 1.877-.683 3.67-1.024 5.376-.256 1.621-.384 2.645-.384 3.072 0 .427.043 1.237.128 2.432.17 1.11.341 2.09.512 2.944.17.683.427 1.579.768 2.688.427 1.11.64 1.877.64 2.304 0 .597-.17 1.11-.512 1.536-.341.427-.64.981-.896 1.664 0-.597-.299-1.152-.896-1.664-.085.085-.128.341-.128.768v1.152c-.341 0-.555-.128-.64-.384 0-.17-.299-.256-.896-.256-.427 0-.47.128-.128.384.341.256.299.384-.128.384-.512 0-1.152-.299-1.92-.896-.683-.512-1.365-.768-2.048-.768.17-.427.128-.981-.128-1.664-.17-.597-.341-1.11-.512-1.536-.085-.256-.213-.341-.384-.256-.17.085-.299-.043-.384-.384a2.203 2.203 0 01-.512-1.408c0-.427-.128-.81-.384-1.152a83.704 83.704 0 00-.896-2.432c-.085-.427-.17-.725-.256-.896-.085-.17-.085-.299 0-.384.085-.17.128-.597.128-1.28 0-.427-.256-1.621-.768-3.584s-.64-3.712-.384-5.248c0-.597.085-1.152.256-1.664.17-.597.17-1.237 0-1.92-1.11-.427-2.304-.341-3.584.256-1.28.512-2.475.768-3.584.768-.597 0-1.877-.213-3.84-.64-1.963-.427-3.627-.981-4.992-1.664-.768-.341-1.408-1.024-1.92-2.048a40.114 40.114 0 01-1.024-2.688c-.341-.939-.64-2.09-.896-3.456C.128 37.718 0 36.778 0 36.352c0-1.11.256-2.688.768-4.736.597-2.048 1.195-3.627 1.792-4.736 1.792-4.096 3.755-7.893 5.888-11.392 2.219-3.584 4.523-7.85 6.912-12.8.256-.085.47-.17.64-.256.17-.17.512-.256 1.024-.256.597 0 .853.128.768.384-.085.256.17.384.768.384.597 0 .939-.043 1.024-.128l.64-.64c-.17.341.043.981.64 1.92s1.152 1.408 1.664 1.408c.597 0 .81-.043.64-.128-.085-.085-.128-.256-.128-.512 0 .256.085.597.256 1.024.256.341.384.683.384 1.024 0 1.707-.47 3.755-1.408 6.144a91.296 91.296 0 01-3.328 7.424l-3.712 7.424c-1.195 2.39-2.048 4.437-2.56 6.144l.128.64c1.707-.341 3.456-.725 5.248-1.152a90.235 90.235 0 015.12-1.024c1.963-4.523 3.67-9.387 5.12-14.592 1.536-5.205 4.01-10.283 7.424-15.232a7.192 7.192 0 011.408-.128h1.536A7.763 7.763 0 0140.192.768C40.789.256 41.302 0 41.728 0c.597 0 1.152.427 1.664 1.28l1.152 1.92c-.256.427-.256.853 0 1.28.17.427.384.64.64.64l.64.128c.085.17-.085.597-.512 1.28.341 1.024.341 2.304 0 3.84s-.725 2.816-1.152 3.84a46.277 46.277 0 00-3.456 8.832 140.038 140.038 0 01-2.944 9.088c.853.256 1.92.341 3.2.256a20.797 20.797 0 013.968-.128c.427.427.768.725 1.024.896.597.17 1.323.299 2.176.384.853 0 1.707.213 2.56.64-.17.341-.213.725-.128 1.152.085.427.043.768-.128 1.024.17.256.299.427.384.512.17.085.384.256.64.512z" fill="#C2E76B"/></svg>