<svg width="59" height="71" fill="none" xmlns="http://www.w3.org/2000/svg"><path d="M58.624 7.168c-1.28.256-2.133.768-2.56 1.536 0 .427.555.768 1.664 1.024a9.845 9.845 0 00-2.176 1.664v.512c.085.085.128.213.128.384v.512c-1.195 0-2.432.213-3.712.64.597.597.896.939.896 1.024-.853 0-1.92.299-3.2.896-1.195.512-2.048.768-2.56.768-.427 0-.768-.043-1.024-.128-.17-.17-.512-.256-1.024-.256-.256 0-.896.128-1.92.384-.939.17-1.92.384-2.944.64s-2.005.512-2.944.768c-.939.17-1.536.256-1.792.256s-.896.043-1.92.128c-1.024 0-2.176.128-3.456.384-1.195.17-2.475.47-3.84.896-1.365.427-2.475.896-3.328 1.408-1.45 1.11-2.475 2.645-3.072 4.608-.512 1.877-1.323 3.712-2.432 5.504 2.475.683 4.864 1.323 7.168 1.92 2.304.597 4.693 1.45 7.168 2.56.256.256.47.725.64 1.408.256.683.512 1.152.768 1.408 1.28 1.963 2.09 3.584 2.432 4.864a15.35 15.35 0 01.512 3.968v1.664c0 .768-.085 1.707-.256 2.816a45.719 45.719 0 01-.64 3.328c-.256 1.11-.597 2.048-1.024 2.816-.683 1.11-1.45 2.432-2.304 3.968a26.061 26.061 0 01-2.688 4.096c-1.024 1.365-2.133 2.475-3.328 3.328-1.11.853-2.219 1.28-3.328 1.28h-1.536c-.512 0-1.11.17-1.792.512-.683-1.024-1.621-2.048-2.816-3.072-1.11-1.024-1.579-2.048-1.408-3.072-.17 0-.256-.085-.256-.256 0-.17-.256-.256-.768-.256-.597 0-.896.043-.896.128v.512c0-.256.043-.512.128-.768s0-.555-.256-.896c1.11-.085 1.92-1.024 2.432-2.816.512-1.877.981-3.243 1.408-4.096.256 0 .47.128.64.384.17.256.384.555.64.896 2.56-2.219 4.565-4.779 6.016-7.68 1.536-2.987 2.176-5.76 1.92-8.32a8.959 8.959 0 00-1.28-.64c-.341-.256-.81-.384-1.408-.384-1.024 0-2.176.299-3.456.896A46.769 46.769 0 0016 43.392c-1.28.768-2.475 1.493-3.584 2.176-1.024.597-1.835.896-2.432.896-.512 0-1.195-.128-2.048-.384-.768-.341-1.493-.512-2.176-.512-.597 0-1.152-.597-1.664-1.792-.427-1.195-.683-2.005-.768-2.432-.341-.427-.768-1.195-1.28-2.304-.17-.085-.47-.256-.896-.512l-.896-.896c0-.17-.043-.256-.128-.256C.043 37.291 0 36.949 0 36.352c0-.085.17-.597.512-1.536a63.427 63.427 0 011.28-3.456l1.792-3.84a35.376 35.376 0 011.92-3.584c1.11-2.219 2.645-4.864 4.608-7.936A192.441 192.441 0 0116 7.296c.512-.768 1.28-1.621 2.304-2.56l2.56-2.56c.597-.512 1.365-.725 2.304-.64.939 0 1.621-.512 2.048-1.536.683.341 1.493.853 2.432 1.536.939.683 1.75 1.195 2.432 1.536.17.085.256.299.256.64.085.256.299.512.64.768h26.112c.341.256.47.512.384.768a2.837 2.837 0 00-.128.896c.256.256.512.427.768.512.341 0 .512.17.512.512z" fill="#C2E76B"/></svg>