<svg width="42" height="82" fill="none" xmlns="http://www.w3.org/2000/svg"><path d="M41.216 56.32c0 1.877-.939 4.395-2.816 7.552-1.792 3.157-3.84 5.632-6.144 7.424-.256.17-.512.597-.768 1.28-.17.683-.47 1.237-.896 1.664a11.455 11.455 0 01-2.432 2.048 33.232 33.232 0 00-2.56 1.792c-1.28.683-2.944 1.408-4.992 2.176-1.963.768-3.2 1.152-3.712 1.152h-2.944c-1.707 0-3.584-.597-5.632-1.792-2.048-1.195-3.627-2.773-4.736-4.736-.256.341-.384.768-.384 1.28a16.491 16.491 0 01-1.408-3.584c-.256-1.365-.853-2.432-1.792-3.2V58.88c0-.427.085-.939.256-1.536.256-.683.512-1.28.768-1.792.17-.768.256-1.707.256-2.816a13.3 13.3 0 01.64-3.2c.256-1.11.725-2.56 1.408-4.352a187.292 187.292 0 012.176-5.12c2.475-5.035 5.717-10.539 9.728-16.512 4.096-6.059 8.79-11.904 14.08-17.536.853-.427 1.92-1.067 3.2-1.92a55.005 55.005 0 013.84-2.432c.085-.17.256-.427.512-.768L37.76 0c.17.683.213 1.408.128 2.176a19.758 19.758 0 00-.128 2.176l.512.512c0 1.621-.043 2.73-.128 3.328-.085.597-.299 1.024-.64 1.28-.256.256-.597.683-1.024 1.28-.427.512-.896 1.707-1.408 3.584a812.66 812.66 0 01-7.552 12.928 713.927 713.927 0 00-7.424 13.184c.683.341 1.067.341 1.152 0 .17-.427.384-.64.64-.64.427 0 1.323.299 2.688.896 1.365.597 2.304.896 2.816.896.597 0 .768-.085.512-.256-.17-.17.043-.256.64-.256.427 0 .853.213 1.28.64.512.427 1.024.939 1.536 1.536a23.1 23.1 0 011.408 1.536c.427.512.683.853.768 1.024.341.256.853.512 1.536.768.683.17 1.237.384 1.664.64 1.11.683 1.92 1.536 2.432 2.56.597 1.024 1.067 1.92 1.408 2.688.427 1.28.64 2.56.64 3.84zm-10.368 0c0-.939-.768-1.877-2.304-2.816-1.45-.939-2.517-1.408-3.2-1.408-.597 0-1.536.213-2.816.64a19.814 19.814 0 00-3.328 1.536 28.936 28.936 0 00-3.584 2.816 30.644 30.644 0 01-3.328 2.688c-.341.256-.64.64-.896 1.152-.17.427-.256.853-.256 1.28v6.784c.17 0 .299.043.384.128.17.085.341.128.512.128l.256.128a75.994 75.994 0 015.12-1.152c1.792-.427 3.285-1.152 4.48-2.176 1.024-.683 2.048-1.536 3.072-2.56l2.944-2.944c.853-.939 1.536-1.792 2.048-2.56.597-.853.896-1.408.896-1.664z" fill="#C2E76B"/></svg>