<svg width="136" height="186" viewBox="0 0 136 186" fill="none" xmlns="http://www.w3.org/2000/svg">
<path fill-rule="evenodd" clip-rule="evenodd" d="M75.7917 134.848C76.3268 129.806 74.9044 124.194 71.9851 118.568C68.0937 111.084 62.5564 107.145 54.8618 105.997C48.7386 105.079 42.5273 104.378 36.5802 102.671C29.1904 100.544 23.6802 95.2373 21.3129 87.3564C18.9049 79.3366 18.844 71.3304 21.9936 63.0092C25.1839 54.5593 30.2979 47.2508 33.1766 38.6959C34.1147 35.8985 35.3407 33.223 35.3238 30.1716C35.2967 25.5893 33.0614 22.863 28.8213 22.3956C27.2837 22.2229 25.6885 22.1552 24.1713 22.4092C17.706 23.4929 11.9554 21.0816 6.24537 18.3858C2.53352 16.6314 0.758874 13.3836 0.589538 9.19418C0.471002 6.3087 3.75612 2.88474 7.47474 1.84161C15.2981 -0.349594 23.0943 -0.867752 30.816 2.47495C33.688 3.72125 36.7597 4.50359 39.5402 5.94632C47.1468 9.89186 53.3242 15.866 57.964 23.3405C61.1679 28.5019 60.5718 34.7335 59.8301 40.6535C59.0545 46.8038 55.8067 51.6772 52.0068 56.019C47.8919 60.7299 45.4094 66.3993 42.8118 72.0687C41.0575 75.8923 41.8093 79.7227 42.673 83.4515C43.4451 86.8077 46.5711 86.9263 49.0061 87.1836C52.2574 87.5291 55.4985 87.8712 58.7463 88.3148C69.3637 89.7677 78.071 95.0476 86.2601 102.329C94.5542 109.705 96.6336 119.361 97.2805 129.904C97.714 136.948 97.6327 143.989 96.5727 151.013C96.2645 153.052 95.455 155.833 97.5345 157.201C99.9357 158.782 101.798 156.229 103.451 154.928C106.912 152.202 110.397 149.421 113.232 145.869C113.906 145.022 114.59 144.175 115.345 143.413C121.855 136.874 127.656 138.127 133.569 145.151C136.445 148.571 136.221 150.404 133.319 153.865C130.078 157.736 126.355 161.146 122.383 163.998C115.521 168.926 109.263 174.774 101.937 179.018C97.9781 181.304 94.0191 183.549 89.7518 184.894C84.438 186.56 79.4392 185.426 75.426 181.097C71.0469 176.387 66.5968 171.72 62.6038 166.643C60.1146 163.476 56.9378 161.258 54.2623 158.373C50.8248 154.667 47.6785 150.78 45.1114 146.346C44.4747 145.246 43.6687 144.189 43.3198 142.98C42.3309 139.549 41.535 135.729 44.0581 132.942C46.1477 130.629 49.2161 131.926 51.9119 132.471C56.8227 133.47 59.847 137.527 63.376 140.674C66.2954 143.268 68.7677 146.428 71.5312 149.232C73.5429 151.274 74.0984 151.017 74.9078 148.263C76.0864 144.277 75.8696 140.189 75.7917 134.848Z" fill="#C4E86B"/>
</svg>
