<svg width="648" height="190" viewBox="0 0 648 190" fill="none" xmlns="http://www.w3.org/2000/svg">
<path d="M16.7824 69.4285C18.2882 69.4285 19.8244 69.2407 21.2954 69.4674C24.1227 69.8954 25.3066 72.2555 24.1325 74.8147C21.8517 79.8026 19.5635 84.7883 17.2652 89.7557C15.5557 93.4686 13.2513 93.9722 10.9122 90.756C7.28538 85.7749 3.88748 80.5993 0.65502 75.3504C-0.649585 73.2215 -0.0585155 71.3811 2.90747 71.0285C7.53127 70.4723 12.1443 69.8153 16.7618 69.195C16.7673 69.2728 16.7754 69.3483 16.7824 69.4285Z" fill="#0D0D0D"/>
<path d="M302.829 22.5757C304.335 22.5757 305.874 22.3834 307.339 22.6169C310.243 23.0839 311.425 25.3753 310.225 27.9917C307.888 33.0919 305.537 38.1851 303.136 43.2554C301.565 46.5815 299.134 46.9844 296.978 43.988C293.46 39.0962 290.115 34.0601 286.968 28.9234C285.514 26.5404 285.83 24.4665 289.36 24.098C293.858 23.6264 298.329 22.9397 302.808 22.356C302.813 22.4246 302.824 22.4979 302.829 22.5757Z" fill="#0D0D0D"/>
<path d="M41.9749 59.6153C46.03 59.819 49.4582 59.9473 52.8712 60.183C54.7572 60.3135 56.1064 60.8789 55.1255 63.2802C53.2244 67.9133 51.4405 72.6014 49.588 77.2551C48.928 78.9033 48.302 80.5743 47.4651 82.1264C46.9294 83.1358 46.19 84.2598 45.2476 84.7039C44.8021 84.9122 43.3348 83.8294 42.8859 83.0214C39.4775 76.9255 36.1663 70.7747 32.9203 64.5987C31.6613 62.1906 32.5717 60.6317 35.239 60.2792C37.6881 59.9518 40.1516 59.7916 41.9749 59.6153Z" fill="#0D0D0D"/>
<path d="M57.1924 83.0557C64.6132 83.0557 70.623 82.9481 76.623 83.09C80.7049 83.1862 82.2063 85.6905 80.6834 89.4835C78.7447 94.2952 76.7821 99.0886 74.7908 103.877C73.4791 107.062 71.3347 107.634 69.3979 105.077C65.9294 100.499 62.5601 95.822 59.5119 90.9508C58.3594 89.131 58.2074 86.6816 57.1924 83.0557Z" fill="#0D0D0D"/>
<path d="M242.784 83.0491C250.086 83.0491 255.96 82.9667 261.834 83.0743C266.344 83.1498 267.822 85.6541 266.078 89.9232C264.164 94.5953 262.283 99.2765 260.344 103.937C259.009 107.137 256.926 107.657 254.939 105.029C251.471 100.449 248.12 95.7559 245.073 90.8961C243.938 89.0808 243.785 86.6544 242.784 83.0491Z" fill="#0D0D0D"/>
<path d="M169.211 62.4861C168.475 64.0129 168.17 64.6104 167.887 65.2307C165.599 70.2004 163.317 75.1837 161.014 80.1625C159.396 83.6648 157.096 84.228 154.915 81.259C151.194 76.1772 147.732 70.8871 144.41 65.5191C143.243 63.6375 143.692 61.6574 146.446 61.3621C152.297 60.7258 158.153 59.936 164.023 59.7552C165.705 59.6957 167.442 61.5018 169.211 62.4861Z" fill="#0D0D0D"/>
<path d="M219.151 82.3616C223.314 82.5653 226.736 82.6958 230.158 82.9041C232.067 83.0117 233.384 83.5519 232.447 85.9738C231.328 88.8649 230.547 91.9003 229.389 94.7662C227.958 98.3121 226.244 101.737 224.738 105.248C223.57 107.981 221.84 108.496 220.448 106.088C216.815 99.8114 213.413 93.3974 210.07 86.9535C208.863 84.6301 210.22 83.3322 212.519 83.0117C214.961 82.6821 217.429 82.5287 219.151 82.3616Z" fill="#0D0D0D"/>
<path d="M137.778 29.6207C144.91 29.6207 151.19 29.4628 157.457 29.6826C160.784 29.8039 162.354 32.3242 161.169 35.4854C159.208 40.7229 157.109 45.9169 154.77 50.9964C153.712 53.2923 151.493 54.3705 149.646 51.8571C145.991 46.9126 142.526 41.8079 139.301 36.575C138.336 35.0024 138.427 32.7912 137.778 29.6207Z" fill="#0D0D0D"/>
<path d="M191.655 152.017C192.51 151.435 193.507 150.186 194.563 150.138C200.312 149.853 206.08 149.689 211.838 149.843C215.064 149.922 216.108 152.317 215.102 155.087C213.135 160.473 210.966 165.781 208.588 170.991C207.841 172.616 205.878 174.498 204.173 172.182C200.053 166.575 196.302 160.693 192.452 154.895C192.097 154.354 192.077 153.601 191.655 152.017Z" fill="#0D0D0D"/>
<path d="M152.53 145.291C152.048 146.402 151.362 147.883 150.752 149.394C149.268 153.061 147.946 156.785 146.282 160.361C145.656 161.716 144.457 163.12 143.16 163.714C142.555 163.991 140.781 162.605 140.063 161.597C136.592 156.696 132.981 151.852 130.04 146.635C127.673 142.442 128.775 140.94 133.512 140.748C138.301 140.549 143.095 140.54 147.891 140.464C150.826 140.421 152.589 141.648 152.53 145.291Z" fill="#0D0D0D"/>
<path d="M191.646 116.328C198.599 116.408 199.967 118.606 197.673 123.454C195.625 127.787 193.671 132.166 191.716 136.548C189.84 140.749 187.511 141.215 184.931 137.598C181.515 132.787 178.284 127.842 175.151 122.852C173.731 120.588 173.973 118.597 177.213 118.17C182.517 117.486 187.821 116.811 191.646 116.328ZM184.939 125.663C185.222 125.892 185.501 126.121 185.78 126.348C186.582 124.665 187.384 122.971 188.186 121.279C187.847 121.121 187.504 120.964 187.167 120.803C186.422 122.426 185.678 124.044 184.939 125.663Z" fill="#0D0D0D"/>
<path d="M115.185 95.1924C111.318 87.0615 106.036 79.5761 103.352 69.4606C110.771 69.971 117.104 70.2846 123.384 71.0034C124.138 71.0858 125.424 73.5833 125.14 74.5767C123.423 80.6268 121.358 86.5762 119.328 92.5255C118.85 93.9219 118.041 95.2038 117.387 96.5498C116.654 96.0943 115.921 95.641 115.185 95.1924Z" fill="#0D0D0D"/>
<path d="M290.1 69.6327C296.061 69.928 301.779 70.1157 307.474 70.546C310.496 70.7681 311.86 72.2102 310.649 75.5271C308.678 80.9111 307.103 86.4347 305.123 91.8095C304.608 93.2058 303.214 94.284 302.221 95.4995C298.041 92.146 289.704 74.5657 290.1 69.6327Z" fill="#0D0D0D"/>
<path d="M93.1416 145.885C99.5923 145.885 105.191 145.676 110.763 145.965C114.003 146.144 115.668 147.863 114.277 151.553C112.3 156.802 110.765 162.215 108.791 167.462C108.325 168.696 106.937 170.239 105.823 170.374C104.906 170.486 103.411 168.9 102.788 167.744C99.9357 162.434 97.2084 157.044 94.6261 151.597C93.8437 149.951 93.6729 148.017 93.1416 145.885Z" fill="#0D0D0D"/>
<path d="M196.026 45.2852C202.701 45.6423 208.673 45.8621 214.628 46.3245C217.098 46.5122 218.309 47.9841 217.435 50.6051C215.497 56.4377 213.66 62.3093 211.534 68.0824C211.14 69.1491 209.709 70.1105 208.554 70.5134C208.011 70.6943 206.629 69.5978 206.202 68.776C202.97 62.5977 199.836 56.3736 196.809 50.09C196.259 48.9501 196.36 47.4896 196.026 45.2852ZM203.414 53.1323C203.737 53.2627 204.061 53.3841 204.378 53.5008C205.034 52.1823 205.684 50.866 206.336 49.5452C205.934 49.3735 205.536 49.1904 205.138 49.0119C204.561 50.3899 203.989 51.768 203.414 53.1323Z" fill="#0D0D0D"/>
<path d="M72.73 43.6879C79.9738 43.2759 86.2151 42.8135 92.4781 42.6258C94.9853 42.5525 95.9286 43.8962 94.7063 46.4005C91.835 52.2743 89.1133 58.2283 86.1615 64.0609C85.6197 65.1322 84.2758 65.7938 82.8396 67.0459C79.432 59.1783 76.2772 51.8829 72.73 43.6879ZM80.9806 53.9499C81.3562 53.7004 81.7255 53.467 82.1002 53.2312C81.5485 52.5971 81.0021 51.9607 80.4612 51.3266C80.2689 51.4754 80.0837 51.6288 79.8933 51.7753C80.2581 52.4941 80.6175 53.2174 80.9806 53.9499Z" fill="#0D0D0D"/>
<path d="M259.702 30.603C256.327 22.7674 253.214 15.5522 249.705 7.40299C257.067 7.0436 263.678 6.64302 270.3 6.53086C270.861 6.51941 272.2 8.75356 271.919 9.37619C269.014 15.836 265.905 22.202 262.709 28.5154C262.284 29.3372 261.02 29.7286 259.702 30.603ZM257.747 17.7291C258.051 17.6307 258.362 17.53 258.674 17.4316C258.374 16.6098 258.072 15.7948 257.776 14.9685C257.474 15.0692 257.174 15.1722 256.87 15.2683C257.163 16.0855 257.451 16.9073 257.747 17.7291Z" fill="#0D0D0D"/>
<path d="M268.329 66.9653C264.909 58.9947 261.808 51.7748 258.335 43.6874C265.575 43.3029 272.054 42.8634 278.536 42.7558C279.209 42.7443 280.752 45.0769 280.477 45.6973C277.671 52.045 274.633 58.2919 271.493 64.4862C271.017 65.4179 269.687 65.9329 268.329 66.9653ZM266.434 53.9495C266.825 53.7641 267.228 53.5832 267.631 53.3932C267.127 52.6768 266.628 51.9603 266.129 51.2415C265.9 51.3651 265.676 51.4818 265.449 51.6054C265.777 52.386 266.097 53.1712 266.434 53.9495Z" fill="#0D0D0D"/>
<path d="M199.19 21.385C196.608 25.8534 194.303 29.8501 192.005 33.84C190.977 35.6255 189.933 37.3927 188.952 39.1965C186.998 42.7904 185.01 43.1842 183.097 39.691C180.419 34.7854 178.401 29.5022 176.336 24.2899C176.094 23.6787 177.263 21.7444 177.911 21.6689C184.038 21.0165 190.19 20.609 196.34 20.2176C196.941 20.1741 197.571 20.7006 199.19 21.385Z" fill="#0D0D0D"/>
<path d="M106.874 112.901C105.271 115.989 103.74 119.125 102.052 122.165C100.391 125.168 98.4838 128.019 96.8555 131.033C95.2907 133.919 93.0428 134.322 91.5942 131.628C88.8221 126.462 86.6539 120.968 84.4685 115.512C84.2485 114.956 85.554 113.038 86.2737 112.977C92.7727 112.315 99.2984 111.935 105.819 111.474C106.166 111.951 106.521 112.422 106.874 112.901Z" fill="#0D0D0D"/>
<path d="M43.7942 29.026C42.6469 31.4181 41.5651 34.0253 40.1987 36.4678C38.1948 40.0503 35.9728 43.5114 33.8661 47.0366C31.9275 50.2665 30.2178 50.4863 28.1665 47.1602C26.3121 44.1592 25.1282 40.7393 23.6876 37.4888C22.9098 35.7376 21.9708 34.0093 21.5666 32.1643C21.3727 31.2739 22.1819 29.2938 22.6486 29.2549C29.2969 28.7238 35.9602 28.44 42.6229 28.1286C42.8241 28.1172 43.0484 28.44 43.7942 29.026ZM28.6449 41.0804C28.8784 41.0346 29.1135 40.9842 29.3442 40.9339C29.2119 39.8946 29.0821 38.8553 28.9535 37.8161C28.5985 37.8802 28.2471 37.9535 27.8939 38.0267C28.1452 39.0431 28.3954 40.0617 28.6449 41.0804Z" fill="#0D0D0D"/>
<path d="M155.314 109.122C154.441 111.184 153.985 112.635 153.252 113.924C150.608 118.546 147.831 123.101 145.173 127.718C143.468 130.692 141.235 129.925 140.131 127.78C137.453 122.586 135.262 117.131 133.092 111.693C132.889 111.179 134.164 109.389 134.875 109.31C140.711 108.635 146.576 108.165 152.437 107.815C153.337 107.762 154.292 108.635 155.314 109.122ZM142.028 111.438C141.745 111.255 141.46 111.074 141.177 110.884C140.608 111.823 140.037 112.754 139.469 113.686C139.681 113.832 139.889 113.975 140.103 114.128C140.742 113.226 141.385 112.329 142.028 111.438Z" fill="#0D0D0D"/>
<path d="M180.042 168.67C177.55 172.983 175.176 177.084 172.809 181.184C171.856 182.844 170.86 184.478 169.945 186.159C167.833 190.071 165.812 190.32 163.676 186.317C161.173 181.635 159.282 176.615 157.359 171.643C157.108 170.991 158.178 169.034 158.784 168.965C164.897 168.255 171.035 167.78 177.182 167.36C177.867 167.315 178.6 167.984 180.042 168.67ZM170.043 176.995C169.89 176.92 169.734 176.839 169.579 176.757C169.118 177.655 168.662 178.543 168.205 179.431C168.365 179.507 168.524 179.577 168.678 179.651C169.134 178.769 169.59 177.884 170.043 176.995Z" fill="#0D0D0D"/>
<path d="M232.086 43.9988C238.764 44.3514 244.734 44.578 250.688 45.0358C253.155 45.2235 254.371 46.7045 253.499 49.3164C251.56 55.1559 249.722 61.0229 247.595 66.7937C247.204 67.8673 245.773 68.831 244.61 69.2225C244.07 69.4079 242.692 68.3091 242.264 67.4965C239.036 61.3136 235.896 55.0895 232.872 48.8105C232.32 47.6614 232.423 46.2124 232.086 43.9988ZM239.473 51.8482C239.796 51.9741 240.121 52.0931 240.444 52.2121C241.092 50.9005 241.74 49.5774 242.394 48.2566C241.996 48.0803 241.595 47.904 241.199 47.7278C240.62 49.1035 240.053 50.477 239.473 51.8482Z" fill="#0D0D0D"/>
<path d="M193.582 89.9233C191.464 93.6888 189.366 97.459 187.23 101.211C185.952 103.47 184.522 105.652 183.346 107.954C181.784 111.02 179.715 110.929 178.098 108.442C176.261 105.615 174.857 102.454 173.635 99.2926C170.127 90.1957 167.625 90.079 179.754 89.1725C184.024 88.8566 188.293 88.5727 192.564 88.266C192.906 88.8245 193.243 89.3762 193.582 89.9233Z" fill="#0D0D0D"/>
<path d="M52.1689 17.4244C59.4128 17.0146 65.6621 16.5614 71.9223 16.3668C74.4243 16.2913 75.3676 17.6373 74.148 20.1415C71.282 26.02 68.5585 31.9716 65.6057 37.7997C65.0639 38.871 63.7147 39.5371 62.284 40.7847C58.8762 32.9193 55.7225 25.6239 52.1689 17.4244ZM60.4232 27.6864C60.7952 27.4438 61.1697 27.208 61.5392 26.9654C60.9937 26.3404 60.4463 25.6972 59.9002 25.07C59.7131 25.2165 59.5254 25.3698 59.3368 25.5163C59.6971 26.2397 60.0611 26.9631 60.4232 27.6864Z" fill="#0D0D0D"/>
<path d="M221.391 -0.000137329C225.553 0.194435 228.98 0.327196 232.397 0.535503C234.307 0.647671 235.625 1.18562 234.687 3.60978C233.567 6.49863 232.787 9.52482 231.626 12.3999C230.198 15.9435 228.488 19.3656 226.977 22.8794C225.807 25.6195 224.081 26.1323 222.692 23.7264C219.053 17.4474 215.653 11.031 212.315 4.58494C211.108 2.26608 212.458 0.963564 214.763 0.647669C217.202 0.318037 219.67 0.162388 221.391 -0.000137329Z" fill="#0D0D0D"/>
<path d="M230.002 118.851C227.891 122.619 225.788 126.384 223.652 130.138C222.374 132.393 220.946 134.57 219.772 136.884C218.202 139.933 216.141 139.851 214.521 137.368C212.683 134.543 211.279 131.384 210.06 128.218C206.551 119.125 204.047 118.998 216.177 118.102C220.445 117.78 224.721 117.495 228.983 117.198C229.322 117.743 229.665 118.301 230.002 118.851Z" fill="#0D0D0D"/>
<path d="M340.324 5.33175C341.828 5.33175 343.359 5.13487 344.831 5.37294C347.738 5.83992 348.917 8.1313 347.713 10.7477C345.38 15.8479 343.025 20.9365 340.631 26.0023C339.058 29.3307 336.632 29.7358 334.468 26.744C330.95 21.8522 327.608 16.8185 324.46 11.6794C323 9.29418 323.33 7.22023 326.853 6.85169C331.351 6.38013 335.821 5.69798 340.301 5.1074C340.31 5.18065 340.319 5.25621 340.324 5.33175Z" fill="#0D0D0D"/>
<path d="M374.074 12.675C381.456 12.675 387.733 12.5307 393.993 12.7345C397.368 12.8466 399.016 15.3166 397.857 18.4618C395.919 23.7061 393.746 28.8703 391.478 33.9911C390.249 36.7632 387.795 37.0882 386.082 34.719C382.717 30.063 379.389 25.3589 376.388 20.4648C375.264 18.6335 375.083 16.2322 374.074 12.675Z" fill="#0D0D0D"/>
<path d="M422.839 59.6153C426.895 59.819 430.32 59.9473 433.733 60.183C435.624 60.3135 436.972 60.8789 435.988 63.2802C434.092 67.9133 432.302 72.6014 430.453 77.2551C429.796 78.9033 429.164 80.5743 428.333 82.1264C427.788 83.1358 427.053 84.2598 426.106 84.7039C425.661 84.9122 424.199 83.8294 423.752 83.0214C420.342 76.9255 417.034 70.7747 413.783 64.5987C412.527 62.1906 413.431 60.6317 416.104 60.2792C418.547 59.9518 421.015 59.7916 422.839 59.6153Z" fill="#0D0D0D"/>
<path d="M438.053 83.0557C445.469 83.0557 451.481 82.9481 457.487 83.09C461.564 83.1862 463.073 85.6905 461.546 89.4835C459.607 94.2952 457.643 99.0886 455.661 103.877C454.342 107.062 452.195 107.634 450.261 105.077C446.797 100.499 443.428 95.822 440.374 90.9508C439.232 89.131 439.074 86.6816 438.053 83.0557Z" fill="#0D0D0D"/>
<path d="M453.587 43.6879C460.832 43.2759 467.082 42.8135 473.333 42.6258C475.844 42.5525 476.785 43.8962 475.565 46.4005C472.699 52.2743 469.977 58.2283 467.022 64.0609C466.48 65.1322 465.134 65.7938 463.703 67.0459C460.299 59.1783 457.14 51.8829 453.587 43.6879ZM461.84 53.9499C462.215 53.7004 462.584 53.467 462.959 53.2312C462.412 52.5971 461.867 51.9607 461.318 51.3266C461.13 51.4754 460.942 51.6288 460.752 51.7753C461.121 52.4941 461.485 53.2174 461.84 53.9499Z" fill="#0D0D0D"/>
<path d="M635.216 28.3989C631.837 20.5656 628.735 13.3481 625.226 5.20118C632.586 4.84179 639.196 4.43892 645.817 4.32676C646.373 4.31531 647.714 6.55175 647.435 7.17209C644.53 13.6319 641.419 20.0002 638.221 26.3113C637.805 27.1331 636.537 27.5245 635.216 28.3989ZM633.261 15.5273C633.565 15.4289 633.877 15.3259 634.188 15.2297C633.89 14.4057 633.593 13.5907 633.291 12.7644C632.991 12.8651 632.693 12.9681 632.389 13.0642C632.675 13.8814 632.968 14.7032 633.261 15.5273Z" fill="#0D0D0D"/>
<path d="M580.053 21.385C577.471 25.8534 575.168 29.8501 572.865 33.84C571.844 35.6255 570.796 37.3927 569.812 39.1965C567.852 42.7904 565.87 43.1842 563.958 39.691C561.276 34.7854 559.259 29.5022 557.199 24.2899C556.958 23.6787 558.121 21.7444 558.776 21.6689C564.902 21.0165 571.05 20.609 577.205 20.2176C577.801 20.1741 578.435 20.7006 580.053 21.385Z" fill="#0D0D0D"/>
<path d="M487.73 112.901C486.127 115.989 484.601 119.125 482.913 122.165C481.254 125.168 479.338 128.019 477.71 131.033C476.149 133.919 473.899 134.322 472.455 131.628C469.682 126.462 467.515 120.968 465.333 115.512C465.107 114.956 466.414 113.038 467.13 112.977C473.629 112.315 480.162 111.935 486.679 111.474C487.032 111.951 487.384 112.422 487.73 112.901Z" fill="#0D0D0D"/>
<path d="M424.657 29.026C423.508 31.4181 422.43 34.0253 421.056 36.4678C419.056 40.0503 416.84 43.5114 414.729 47.0366C412.786 50.2665 411.085 50.4863 409.03 47.1602C407.173 44.1592 405.992 40.7393 404.547 37.4888C403.776 35.7376 402.833 34.0093 402.432 32.1643C402.235 31.2739 403.039 29.2938 403.506 29.2549C410.158 28.7238 416.826 28.44 423.485 28.1286C423.691 28.1172 423.909 28.44 424.657 29.026ZM409.506 41.0804C409.746 41.0346 409.975 40.9842 410.206 40.9339C410.076 39.8946 409.947 38.8553 409.815 37.8161C409.462 37.8802 409.112 37.9535 408.753 38.0267C409.007 39.0431 409.261 40.0617 409.506 41.0804Z" fill="#0D0D0D"/>
<path d="M536.174 109.122C535.306 111.184 534.848 112.635 534.113 113.924C531.472 118.546 528.688 123.101 526.037 127.718C524.328 130.692 522.1 129.925 520.995 127.78C518.312 122.586 516.123 117.131 513.956 111.693C513.756 111.179 515.02 109.389 515.739 109.31C521.576 108.635 527.434 108.165 533.305 107.815C534.2 107.762 535.155 108.635 536.174 109.122ZM522.888 111.438C522.604 111.255 522.32 111.074 522.038 110.884C521.466 111.823 520.901 112.754 520.333 113.686C520.541 113.832 520.752 113.975 520.962 114.128C521.606 113.226 522.247 112.329 522.888 111.438Z" fill="#0D0D0D"/>
<path d="M318.603 56.2204C324.57 56.5202 330.279 56.7125 335.975 57.1291C338.996 57.3558 340.367 58.7956 339.152 62.1171C337.181 67.4965 335.604 73.0201 333.626 78.3972C333.109 79.7912 331.715 80.8671 330.723 82.0918C326.539 78.7245 318.204 61.158 318.603 56.2204Z" fill="#0D0D0D"/>
<path d="M362.646 81.8429C361.14 84.7134 359.583 87.822 357.899 90.8551C356.17 93.9614 354.241 96.9509 352.526 100.069C351.164 102.545 349.008 102.974 347.804 100.733C344.931 95.3531 342.633 89.6487 340.261 84.0083C340.06 83.5459 341.023 81.9596 341.52 81.9276C348.159 81.4148 354.804 81.0874 361.449 80.7395C361.641 80.7281 361.847 81.0875 362.646 81.8429ZM349.319 83.9923C348.98 83.7932 348.648 83.5895 348.307 83.3903C347.76 84.3677 347.202 85.3475 346.645 86.3272C346.845 86.46 347.051 86.5904 347.248 86.7186C347.939 85.8076 348.632 84.8965 349.319 83.9923Z" fill="#0D0D0D"/>
<path d="M348.121 36.4891C355.51 36.4891 361.784 36.3426 368.045 36.5464C371.424 36.6608 373.07 39.1307 371.904 42.2805C369.97 47.5203 367.8 52.6891 365.536 57.7984C364.302 60.5728 361.844 60.9024 360.134 58.5332C356.769 53.8771 353.44 49.1708 350.444 44.2767C349.32 42.45 349.135 40.0418 348.121 36.4891Z" fill="#0D0D0D"/>
<path d="M433.033 17.4244C440.273 17.0146 446.52 16.5614 452.781 16.3668C455.287 16.2913 456.23 17.6373 455.008 20.1415C452.142 26.02 449.416 31.9716 446.463 37.7997C445.925 38.871 444.579 39.5371 443.139 40.7847C439.74 32.9193 436.581 25.6239 433.033 17.4244ZM441.283 27.6864C441.658 27.4438 442.029 27.208 442.404 26.9654C441.855 26.3404 441.31 25.6972 440.763 25.07C440.571 25.2165 440.383 25.3698 440.198 25.5163C440.562 26.2397 440.919 26.9631 441.283 27.6864Z" fill="#0D0D0D"/>
<path d="M602.254 -0.000137329C606.418 0.194435 609.84 0.327196 613.263 0.535503C615.169 0.647671 616.486 1.18562 615.554 3.60978C614.426 6.49863 613.647 9.52482 612.487 12.3999C611.061 15.9435 609.346 19.3656 607.842 22.8794C606.668 25.6195 604.944 26.1323 603.552 23.7264C599.917 17.4474 596.518 11.031 593.176 4.58494C591.972 2.26608 593.327 0.963564 595.621 0.647669C598.068 0.318037 600.535 0.162388 602.254 -0.000137329Z" fill="#0D0D0D"/>
</svg>
