<svg width="185" height="419" viewBox="0 0 185 419" fill="none" xmlns="http://www.w3.org/2000/svg">
<path d="M36.3729 77.2669H30.7288V74.7541H36.3729V77.2669ZM185 60.3059C185 73.2884 182.073 85.8521 176.22 97.997C170.785 109.723 163.678 121.449 154.898 133.175C146.119 144.902 136.503 156.628 126.051 168.354C115.599 180.08 105.565 192.015 95.9492 204.16C88.4237 213.793 80.6893 222.168 72.7458 229.288C65.2203 236.407 58.7401 246.458 53.3051 259.441C56.2316 261.116 58.7401 262.791 60.8305 264.466C63.339 265.723 65.4294 266.979 67.1017 268.235C67.1017 270.329 67.9379 273.051 69.6102 276.402C71.2825 279.333 72.1186 281.846 72.1186 283.94C72.1186 286.453 71.7006 287.919 70.8644 288.337C70.4463 288.756 70.2373 289.384 70.2373 290.222C70.2373 290.641 70.0282 291.269 69.6102 292.106C69.6102 292.944 69.6102 293.991 69.6102 295.247C66.6836 296.923 63.1299 299.645 58.9492 303.414C55.1864 306.764 52.4689 308.439 50.7966 308.439H42.6441C41.3898 308.439 39.5085 307.811 37 306.555C34.4915 305.298 31.565 303.623 28.2203 301.529C25.2938 299.435 22.3672 297.132 19.4407 294.619C16.9322 292.106 15.0508 290.013 13.7966 288.337C10.452 280.799 7.31638 271.795 4.38983 261.325C1.46328 250.856 0 241.852 0 234.313C0 228.031 3.76271 219.237 11.2881 207.93C19.2316 196.622 27.5932 185.524 36.3729 174.636C45.5706 163.328 54.1412 153.487 62.0847 145.111C70.0282 136.735 74.4181 131.919 75.2542 130.663C77.3446 128.15 79.6441 125.847 82.1525 123.753C85.0791 121.659 87.1695 119.355 88.4237 116.843C90.5141 114.33 92.8136 110.77 95.322 106.163C97.8305 101.557 100.757 97.5782 104.102 94.2279C105.356 92.9715 107.446 91.5057 110.373 89.8306C113.299 87.7366 115.181 85.8521 116.017 84.1769C118.943 81.2454 121.034 77.6857 122.288 73.4977C123.96 69.3098 125.842 65.5407 127.932 62.1904C128.768 60.934 129.186 60.3059 129.186 60.3059C129.186 60.3059 129.186 59.0495 129.186 56.5367C129.186 52.7676 126.887 48.9985 122.288 45.2294C117.689 41.4603 114.763 39.5757 113.508 39.5757C100.13 39.5757 85.4972 43.3448 69.6102 50.8831C65.8475 52.5582 61.6667 55.2803 57.0678 59.0495C52.887 62.8186 48.7062 64.2843 44.5254 63.4468C43.2712 64.7032 42.8531 66.1689 43.2712 67.8441C44.1073 69.5192 44.5254 69.7286 44.5254 68.4723C43.6893 68.4723 43.2712 68.8911 43.2712 69.7286V72.2414C41.5989 70.985 39.5085 70.1474 37 69.7286C34.4915 68.8911 32.6102 69.1005 31.3559 70.3568L27.5932 67.2159C26.339 69.3098 23.4124 70.3568 18.8136 70.3568L15.678 65.9595C14.8418 65.1219 15.2599 64.075 16.9322 62.8186C18.6045 61.1434 20.0678 59.4683 21.322 57.7931C20.904 56.1179 20.2768 54.4428 19.4407 52.7676C19.0226 51.0924 18.8136 48.9985 18.8136 46.4858C18.8136 43.1354 21.322 39.5757 26.339 35.8066C31.3559 31.6187 37 27.6402 43.2712 23.8711C49.9605 19.6832 56.0226 16.3328 61.4576 13.8201C66.8927 10.8886 70.2373 9.42278 71.4915 9.42278C75.2542 8.16642 79.8531 7.11945 85.2881 6.28185C91.1412 5.0255 96.5763 3.97852 101.593 3.14093C106.61 2.30336 111 1.67517 114.763 1.25636C118.943 0.418785 121.661 0 122.915 0C126.26 0 130.441 0.837583 135.458 2.51275C140.475 3.76913 145.701 5.65369 151.136 8.16642C156.989 10.6792 162.215 13.6107 166.814 16.961C171.831 19.8925 175.175 23.0335 176.847 26.3838C178.102 28.4778 179.774 33.5032 181.864 41.4603C183.955 49.4173 185 55.6991 185 60.3059ZM57.0678 385.078C57.0678 391.36 55.3955 398.689 52.0508 407.064C49.1243 415.021 43.0621 419 33.8644 419C32.1921 419 29.4746 418.372 25.7119 417.115C22.3672 415.859 19.4407 413.974 16.9322 411.462C16.096 410.205 15.0508 408.321 13.7966 405.808C12.5424 403.295 11.0791 402.039 9.40678 402.039C7.31639 402.039 5.85311 402.248 5.01695 402.667C4.18079 402.667 4.18079 402.667 5.01695 402.667L8.77966 399.526C7.10735 395.338 4.18079 391.15 0 386.963V363.091C1.67232 361.835 3.97175 361.626 6.8983 362.463C9.82486 363.301 12.3333 363.72 14.4237 363.72C16.096 363.72 19.6497 361.835 25.0847 358.066C30.5198 353.878 34.2825 351.784 36.3729 351.784C38.8814 351.784 40.5537 352.412 41.3898 353.669C42.226 354.925 43.2712 355.763 44.5254 356.181C45.3616 357.438 45.9887 359.322 46.4068 361.835C46.8249 364.348 47.452 367.07 48.2881 370.001C49.5424 370.839 50.5876 371.467 51.4237 371.886C52.678 372.305 53.7232 372.724 54.5593 373.142C54.9774 374.399 55.3955 376.074 55.8136 378.168C56.6497 380.262 57.0678 382.565 57.0678 385.078Z" fill="#C4E86B"/>
</svg>
