<svg width="35" height="16" fill="none" xmlns="http://www.w3.org/2000/svg"><path fill-rule="evenodd" clip-rule="evenodd" d="M28.762 5.76c-.555-.366-1.089-.78-1.67-1.088-.98-.521-1.862-1.201-2.744-1.876-.892-.683-1.03-1.52-.464-2.295.372-.509.999-.656 1.712-.322.47.219.903.529 1.35.802.844.516 1.754.907 2.548 1.52.139.108.298.24.455.253.902.075 1.668.648 2.542.793.556.092 1.025.4 1.513.635.797.383 1.276 2.512.817 3.319-.106.188-.233.397-.426.437-.862.183-1.25.935-1.675 1.617-.905 1.458-1.776 2.941-2.66 4.416-.584.974-1.139 1.24-2.152 1.027-1.171-.244-1.638-1.323-1.045-2.448.253-.481.5-.976.82-1.405.51-.684.73-1.533 1.189-2.242.223-.345.13-.496-.244-.543-.084-.01-.174-.023-.256-.005-1.541.358-3.08-.134-4.62-.012-.665.053-1.313-.145-1.956-.248-.995-.16-2.002.02-2.989-.25-.336-.09-.73.09-1.1.116a20.238 20.238 0 00-5.54 1.154c-1.677.612-3.277 1.42-4.765 2.494-.828.597-1.761 1.027-2.516 1.754-.341.328-.693.645-1.026.984-1.012 1.033-2.365.904-3.42.27-.544-.326-.584-1.2-.116-1.877.152-.22.345-.414.537-.599 1.41-1.354 2.822-2.705 4.446-3.768a28.547 28.547 0 013.815-2.095c1.435-.652 2.91-1.092 4.412-1.478.138-.035.278-.082.42-.088 2.258-.106 4.514-.43 6.774-.17 1.733.198 3.444.576 5.146.977.946.222 1.896.345 2.852.446l.036-.205z" fill="#C4E86B"/></svg>