<svg width="214" height="80" fill="none" xmlns="http://www.w3.org/2000/svg"><g clip-path="url(#clip0_1_159)"><path d="M204.159 49.786c3.302-.367 3.669-.856 3.669-5.015v-5.26c1.835-.612 2.447-2.569 2.447-4.893 0-1.1.122-2.08 0-3.18-.123-1.835-.367-3.67 1.223-4.893.367-.245.489-.979.612-1.59.489-2.57.856-5.016 1.345-7.585.245-2.08-.611-3.425-2.446-3.425-2.08 0-4.159.123-6.116.123-8.93-.123-17.86-.367-26.667-.49-8.807-.244-17.737-.611-26.544-.856a624.568 624.568 0 00-21.407-.367c-11.009 0-70.214 2.447-81.224 2.813-11.009.49-22.14 1.59-33.15 2.57-2.323.244-4.648.61-6.972.978-.856.122-1.59.367-2.324.856-.49.245-.979 1.101-.979 1.713-.122 4.036-.244 8.073 1.101 12.11-2.813.367-2.568 3.058-2.568 5.504 0 1.468-.245 2.691-.612 4.037-.49 1.713-.245 3.792-.367 5.75l-.367 3.669c-.122 1.223-.367 2.691-.122 4.037.122 1.345-.123 2.08-1.101 2.324C.367 58.96 0 59.939.122 61.407c.245 2.691.367 5.382.734 7.951.367 2.324.734 2.569 2.446 2.447 7.951-.49 15.902-.98 23.854-1.346 12.354-.49 72.782-3.425 85.137-3.547 9.052-.123 18.226-.123 27.278.244 8.93.367 17.86 1.101 26.789 1.957 10.398.979 20.796 2.202 31.193 3.303 3.303.367 3.547 0 3.792-4.281.122-1.346.245-2.814.245-4.16 0-1.345-.123-2.69 1.468-3.18.611-.244 1.101-2.324 1.223-3.67.122-1.712 0-3.425-.122-5.137v-2.202zM53.822 29.113c-14.19 1.224-28.379 2.325-42.569 3.548 14.19-2.569 28.257-3.792 42.57-3.548z" fill="#C4E86B"/><path d="M89.053 45.015c.367-5.504 2.813-11.743 6.85-14.19.122 0 .245.123.367.123-2.324 4.77-4.77 9.419-7.217 14.067zM82.325 3.303c-.612 7.706-3.303 14.923-6.483 21.896.978-7.584 3.058-14.924 6.483-21.896zM143.12 33.76c-.978-.733-1.223.49-1.712 1.101-.612.979-8.318 11.988-9.419 10.153-.49-.734-.367-1.957-.245-2.569.122-2.813.245-5.627.245-8.44 0-1.223-.612-2.324-1.958-2.813-2.813-.979-5.749-1.101-8.073 1.345-1.223 1.223-2.202 2.691-3.18 4.16-.49.61-.857 1.222-1.468 2.323.122-.734.122-.978.122-1.223.367-2.324.856-4.648 1.223-6.972.245-1.59-1.223-2.447-2.691-1.835-3.058 1.223-4.159-.123-4.403 1.835-.245 1.345-.367 4.893-.979 5.871-2.324 3.303-4.893 6.483-7.462 9.541-4.77 5.75-3.18-16.88-2.936-17.492-2.324-1.59-5.015-1.59-7.217-.122-2.936 2.08-4.648 5.015-6.238 8.195-.857 1.713-1.713 3.426-2.936 5.016-7.951 12.232-9.908 3.914-8.44-7.34 0-1.957.856-2.69 3.302-6.85 2.814-4.77 5.016-9.908 5.994-15.413.49-2.813.734-5.627.49-8.44C84.894.978 82.203-.49 79.512.611c-1.59.611-3.18 1.712-4.16 3.18-1.834 2.569-3.425 5.505-4.525 8.44-3.548 7.585-4.526 15.902-4.282 24.22.123 2.814.367 5.75 1.224 8.563 1.834 6.239 8.317 7.951 13.455 3.792 1.223-.978 2.202-2.08 3.303-3.18.122.367.245.611.49.978 4.036 6.239 10.03-5.137 10.764-10.03 0 .856 0 1.345.122 1.957.245 2.447.367 5.015.856 7.462.612 2.569 2.447 3.67 5.26 3.425 2.202-.122 3.548-1.59 4.893-3.058 1.101-1.223 2.08-2.691 3.181-4.037-.123 1.468-.123 2.936-.245 4.526-.122 1.223.367 1.957 1.713 1.957.611 0 1.1.367 1.712.612 1.468.734 2.324.49 3.058-1.101 1.101-2.324 2.08-4.77 3.303-7.095.612-1.223 3.792-7.829 5.015-6.85.489.612-.367 10.642-.367 12.232 0 2.202 1.59 3.548 3.915 3.548 1.223 0 2.691-.245 3.669-.856 5.505-3.18 9.052-7.951 11.988-13.211.245-.367-.245-1.835-.734-2.325zM52.478 46.483c.367-3.792.734-7.584 1.1-11.254 2.692.245 5.016 2.447 5.016 4.648.123 3.548-2.324 6.239-6.116 6.606zm7.217-12.477c-1.468-.979-3.058-1.468-4.648-2.202-.367-.122-.856-.245-1.101-.612-1.223-1.223-4.16-1.957-5.627-1.345-1.835.734-2.202 2.324-2.324 4.036-.612 7.34-1.468 14.68-1.957 21.896-.612 7.707-.857 14.435-1.346 22.141-.245 3.67 2.936 1.346 4.77.979 1.958-.367 2.57-.979 2.814-2.936.612-7.462 1.101-14.801 1.713-22.263.122-1.713.367-3.425.611-5.138 2.08.979 3.915.612 5.75-.122 3.302-1.468 5.382-3.792 5.626-7.462 0-3.18-1.59-5.382-4.28-6.972zM20.673 40c-2.08.856-.49 4.893-.49 4.893 5.628-1.59 12.967-1.346 15.17-1.223v-2.936c-3.426-1.59-10.888-2.202-14.68-.734zm172.6-14.312C189.236 8.318 167.585.49 150.215 5.015c-1.835.49.244 3.548 1.1 3.548 1.958-.49 4.037-.857 6.239-.979-3.425 12.477-13.823 49.908 5.015 45.015-1.468-14.067 1.957-29.969 4.037-44.281 10.275 2.08 19.449 8.563 21.407 18.593 2.935 15.78-12.722 30.337-31.682 30.459-4.404.367-3.181 5.872 1.957 5.994 22.263 0 39.511-18.471 34.985-37.676z" fill="#000"/></g><defs><clipPath id="clip0_1_159"><path fill="#fff" d="M0 0h213.578v80H0z"/></clipPath></defs></svg>