<svg width="334" height="329" viewBox="0 0 334 329" fill="none" xmlns="http://www.w3.org/2000/svg">
<path d="M334 85.9023H329.321C328.931 87.4606 328.541 89.2137 328.151 91.1616C327.761 92.7199 328.736 93.8887 331.075 94.6678C326.786 97.7845 323.666 100.901 321.716 104.018C319.767 106.745 316.842 108.108 312.942 108.108C306.313 108.108 298.319 108.108 288.96 108.108C279.991 108.108 270.827 108.303 261.468 108.693C252.109 109.082 243.14 109.667 234.56 110.446C225.981 111.225 219.157 112.394 214.088 113.952C212.528 119.017 210.968 124.471 209.408 130.314C208.238 135.768 206.873 141.612 205.314 147.845C207.263 150.183 210.773 151.741 215.842 152.52C221.302 152.91 226.176 153.105 230.466 153.105C232.806 153.105 234.755 152.715 236.315 151.936C237.875 150.767 239.63 150.183 241.58 150.183C243.14 150.183 248.209 150.573 256.788 151.352C265.757 152.131 273.166 152.91 279.016 153.689C280.966 154.468 283.11 156.027 285.45 158.364C287.79 160.702 288.96 162.844 288.96 164.792C288.96 166.351 288.18 168.104 286.62 170.052C285.45 171.61 284.475 173.168 283.695 174.726V175.311C283.695 175.7 283.695 176.09 283.695 176.48C284.085 176.869 284.28 177.259 284.28 177.648V179.986H277.846C276.286 181.934 273.946 184.076 270.827 186.414C267.707 188.362 264.782 190.115 262.053 191.673C261.273 192.842 259.518 193.426 256.788 193.426C254.448 193.426 252.499 193.231 250.939 192.842L250.354 193.426C249.964 193.816 249.769 194.4 249.769 195.179C245.089 195.959 240.41 196.932 235.73 198.101C231.441 199.27 227.151 200.439 222.862 201.607C218.572 202.387 213.698 202.581 208.238 202.192C203.169 201.802 197.709 201.607 191.86 201.607C186.79 211.347 184.256 218.749 184.256 223.814C184.256 228.878 183.281 237.059 181.331 248.357C180.161 254.59 178.406 262.771 176.067 272.901C173.727 283.03 171.192 290.821 168.462 296.275C166.903 297.054 165.343 299.002 163.783 302.119C162.613 305.625 162.223 308.547 162.613 310.885C161.833 310.105 161.053 310.105 160.273 310.885C159.883 311.664 159.688 312.443 159.688 313.222C158.518 313.222 157.738 312.832 157.349 312.053C157.349 311.274 156.764 310.495 155.594 309.716C151.694 311.664 150.134 314.78 150.914 319.066C151.694 323.741 150.914 327.052 148.574 329C149.354 327.442 149.744 325.689 149.744 323.741C150.134 322.182 149.744 320.819 148.574 319.65C145.065 311.858 142.92 306.015 142.14 302.119C141.75 298.613 141.36 294.912 140.97 291.016C137.851 289.847 136.291 286.536 136.291 281.082C136.291 278.355 136.096 275.238 135.706 271.732C135.316 268.226 135.121 265.499 135.121 263.551C135.121 260.434 135.316 258.681 135.706 258.291C136.096 257.512 136.291 254.201 136.291 248.357C136.291 239.007 136.681 232.384 137.461 228.488C138.63 224.593 139.995 217.97 141.555 208.62C140.385 207.841 139.995 207.256 140.385 206.867C141.165 206.477 140.385 206.282 138.046 206.282C136.486 206.282 131.806 206.867 124.007 208.036C116.598 208.815 109.189 209.399 101.779 209.789C100.999 210.568 100.609 211.152 100.609 211.542C100.999 211.931 100.22 212.126 98.2697 212.126C95.9299 212.126 94.3701 211.931 93.5902 211.542C92.8103 211.152 91.4454 210.957 89.4956 210.957C82.8663 210.957 78.7718 212.516 77.2119 215.632C75.6521 218.749 74.4822 224.203 73.7023 231.995C72.1424 231.995 70.9726 232.579 70.1926 233.748C69.4127 239.591 68.4378 245.63 67.268 251.863C66.0981 257.707 64.7332 262.382 63.1734 265.888C62.0035 267.057 60.8336 268.42 59.6637 269.979C58.4939 271.147 57.324 272.901 56.1541 275.238C54.9842 277.965 54.2043 281.276 53.8144 285.172C53.8144 288.678 53.8144 291.795 53.8144 294.522C52.6445 292.964 52.2545 291.406 52.6445 289.847C53.4244 288.289 52.4495 286.731 49.7198 285.172C48.5499 280.108 47.965 274.459 47.965 268.226C47.965 261.603 47.965 254.785 47.965 247.773V247.188C47.965 247.188 47.575 246.604 46.7951 245.435C47.575 240.371 48.16 235.306 48.5499 230.242C49.3298 224.787 49.7198 219.333 49.7198 213.879C46.2102 212.71 42.1156 212.126 37.4361 212.126C33.1465 212.126 29.8319 212.126 27.4921 212.126C25.5423 212.126 22.0327 210.178 16.9632 206.282C11.8938 202.387 7.21424 199.075 2.92469 196.348C2.92469 195.569 4.09457 194.011 6.43433 191.673C4.87449 190.894 3.70461 189.53 2.92469 187.583C2.14477 185.635 1.16988 183.882 0 182.323V177.064C1.16988 177.064 2.14477 176.48 2.92469 175.311C3.70461 174.142 5.06947 173.558 7.01926 173.558C9.35902 173.558 10.5289 172.389 10.5289 170.052C10.9189 167.324 11.3088 165.961 11.6988 165.961H17.5482C19.108 164.403 18.5231 163.623 15.7933 163.623C16.9632 163.623 17.5482 163.039 17.5482 161.87C17.5482 160.312 18.5231 159.533 20.4729 159.533C22.8126 159.533 23.5925 160.117 22.8126 161.286C22.4227 162.065 23.2026 162.455 25.1524 162.455C27.4921 162.455 31.3917 162.26 36.8511 161.87C42.3106 161.481 47.77 160.702 53.2294 159.533C54.0093 156.806 54.5943 154.274 54.9842 151.936C55.7642 149.599 56.7391 145.898 57.9089 140.833C55.1792 139.664 52.2545 139.469 49.1349 140.249C46.4051 141.028 44.0654 141.417 42.1156 141.417C38.216 141.417 35.4863 141.417 33.9264 141.417C32.3666 141.417 31.0018 141.223 29.8319 140.833C29.052 140.054 27.6871 139.08 25.7373 137.911C23.7875 136.353 20.4729 134.015 15.7933 130.899C12.6737 128.951 10.5289 125.834 9.35902 121.549C8.5791 117.263 6.43433 113.562 2.92469 110.446C3.70461 108.498 5.06947 106.55 7.01926 104.602C9.35902 102.654 11.3088 100.512 12.8687 98.1741C13.6486 98.1741 14.6235 98.1741 15.7933 98.1741C16.9632 98.1741 17.9381 97.7845 18.718 97.0053C21.0578 96.2262 21.6427 94.4731 20.4729 91.746C21.6427 92.9147 23.2026 93.4991 25.1524 93.4991C27.4921 93.4991 29.6369 93.4991 31.5867 93.4991C33.5365 93.4991 35.0963 92.9147 36.2662 91.746C37.826 90.1877 39.3859 89.0189 40.9457 88.2398C46.7951 87.4606 52.2545 87.0711 57.324 87.0711C62.7834 87.0711 67.6579 85.7075 71.9475 82.9805C73.5073 81.8117 75.2621 78.5003 77.2119 73.0462C79.5517 67.2025 81.5015 62.7223 83.0613 59.6057C85.791 53.762 89.1057 47.5287 93.0053 40.9059C96.9048 33.8934 100.609 27.4654 104.119 21.6217C105.289 20.4529 106.654 19.6738 108.214 19.2842C110.163 18.505 111.723 17.1415 112.893 15.1936C114.063 14.0249 114.648 12.4665 114.648 10.5187C115.038 8.18117 116.403 7.01243 118.743 7.01243C120.692 7.01243 121.082 7.40201 119.912 8.18117C119.133 8.57076 119.133 9.34992 119.912 10.5187C121.472 9.34992 122.837 7.98639 124.007 6.42807C125.567 4.86975 126.932 3.50622 128.102 2.33748C129.271 3.8958 130.246 5.45412 131.026 7.01243C131.806 8.57075 132.196 10.5187 132.196 12.8561C132.196 14.804 131.806 16.7519 131.026 18.6998C130.246 20.6477 129.271 22.7904 128.102 25.1279C126.932 26.2966 126.932 28.0497 128.102 30.3872C129.271 32.3351 129.271 33.8934 128.102 35.0622C126.542 38.958 124.397 43.2433 121.667 47.9183C118.938 52.2037 117.573 55.5151 117.573 57.8526V73.6306C118.743 74.7993 119.328 75.5784 119.328 75.968C119.328 75.968 120.302 75.968 122.252 75.968C123.812 75.968 127.127 75.1889 132.196 73.6306C137.656 72.0722 142.53 70.9035 146.82 70.1243C151.109 69.3452 155.789 68.566 160.858 67.7868C165.928 67.0077 170.997 66.6181 176.067 66.6181C181.526 51.8141 185.816 37.5944 188.935 23.9592C191.275 22.4008 193.03 19.8686 194.2 16.3623C195.37 12.4665 196.929 9.15512 198.879 6.42807C200.049 5.25933 201.999 4.48017 204.729 4.09059C207.848 3.70101 208.628 2.33748 207.068 0C208.628 1.16874 210.578 1.7531 212.918 1.7531C215.257 1.7531 217.402 2.33748 219.352 3.50622C220.132 5.06453 220.717 6.62285 221.107 8.18117C221.497 9.73949 222.082 11.2978 222.862 12.8561C223.642 16.3624 224.227 21.0373 224.616 26.881C225.006 32.3351 225.201 37.7892 225.201 43.2433C225.201 48.3079 225.201 52.788 225.201 56.6838C225.591 60.19 226.371 61.9432 227.541 61.9432C229.101 61.9432 233.586 61.7484 240.995 61.3588C248.404 60.5796 253.083 60.1901 255.033 60.1901C259.713 60.1901 265.172 60.3848 271.412 60.7744C278.041 60.7744 284.475 61.3588 290.715 62.5275C296.954 63.6963 302.998 65.0598 308.848 66.6181C314.697 68.1764 319.377 69.9295 322.886 71.8774C324.446 73.0462 326.006 75.3837 327.566 78.8899C329.126 82.0065 331.27 84.344 334 85.9023ZM159.688 127.977V120.964C152.279 122.133 145.065 123.692 138.046 125.639C131.416 127.198 124.982 128.561 118.743 129.73C112.113 130.509 106.654 131.678 102.364 133.236C98.4647 134.795 96.5149 140.833 96.5149 151.352C96.5149 153.689 96.5149 154.858 96.5149 154.858C96.5149 154.858 97.0998 155.442 98.2697 156.611H119.912C121.472 156.611 123.812 156.027 126.932 154.858C130.441 153.689 132.976 153.105 134.536 153.105C136.486 153.105 139.41 152.91 143.31 152.52C147.21 151.741 150.524 150.962 153.254 150.183C154.424 145.898 155.789 141.612 157.349 137.327C159.298 132.652 160.078 129.535 159.688 127.977Z" fill="#C4E86B"/>
</svg>
