<svg width="74" height="73" fill="none" xmlns="http://www.w3.org/2000/svg"><path d="M73.088 18.816h-1.024c-.085.341-.17.725-.256 1.152-.085.341.128.597.64.768-.939.683-1.621 1.365-2.048 2.048-.427.597-1.067.896-1.92.896h-5.248c-1.963 0-3.968.043-6.016.128s-4.01.213-5.888.384c-1.877.17-3.37.427-4.48.768a98.658 98.658 0 00-1.024 3.584 116.847 116.847 0 01-.896 3.84c.427.512 1.195.853 2.304 1.024a45.43 45.43 0 003.2.128c.512 0 .939-.085 1.28-.256a1.872 1.872 0 011.152-.384c.341 0 1.45.085 3.328.256 1.963.17 3.584.341 4.864.512.427.17.896.512 1.408 1.024.512.512.768.981.768 1.408 0 .341-.17.725-.512 1.152-.256.341-.47.683-.64 1.024v.384c.085.085.128.17.128.256v.512H60.8c-.341.427-.853.896-1.536 1.408a56.97 56.97 0 01-1.92 1.152c-.17.256-.555.384-1.152.384-.512 0-.939-.043-1.28-.128l-.128.128c-.085.085-.128.213-.128.384a39.32 39.32 0 00-3.072.64l-2.816.768c-.939.17-2.005.213-3.2.128a46.897 46.897 0 00-3.584-.128c-1.11 2.133-1.664 3.755-1.664 4.864 0 1.11-.213 2.901-.64 5.376-.256 1.365-.64 3.157-1.152 5.376-.512 2.219-1.067 3.925-1.664 5.12-.341.17-.683.597-1.024 1.28-.256.768-.341 1.408-.256 1.92-.17-.17-.341-.17-.512 0-.085.17-.128.341-.128.512-.256 0-.427-.085-.512-.256 0-.17-.128-.341-.384-.512-.853.427-1.195 1.11-1.024 2.048.17 1.024 0 1.75-.512 2.176a2.54 2.54 0 00.256-1.152c.085-.341 0-.64-.256-.896-.768-1.707-1.237-2.987-1.408-3.84a252.04 252.04 0 01-.256-2.432c-.683-.256-1.024-.981-1.024-2.176 0-.597-.043-1.28-.128-2.048s-.128-1.365-.128-1.792c0-.683.043-1.067.128-1.152.085-.17.128-.896.128-2.176 0-2.048.085-3.499.256-4.352.256-.853.555-2.304.896-4.352-.256-.17-.341-.299-.256-.384.17-.085 0-.128-.512-.128-.341 0-1.365.128-3.072.384-1.621.17-3.243.299-4.864.384-.17.17-.256.299-.256.384.085.085-.085.128-.512.128-.512 0-.853-.043-1.024-.128-.17-.085-.47-.128-.896-.128-1.45 0-2.347.341-2.688 1.024-.341.683-.597 1.877-.768 3.584-.341 0-.597.128-.768.384a76.23 76.23 0 01-.64 3.968c-.256 1.28-.555 2.304-.896 3.072a8.359 8.359 0 00-.768.896c-.256.256-.512.64-.768 1.152-.256.597-.427 1.323-.512 2.176v2.048c-.256-.341-.341-.683-.256-1.024.17-.341-.043-.683-.64-1.024-.256-1.11-.384-2.347-.384-3.712v-4.608l-.256-.384c.17-1.11.299-2.219.384-3.328.17-1.195.256-2.39.256-3.584-.768-.256-1.664-.384-2.688-.384H6.016c-.427 0-1.195-.427-2.304-1.28A42.726 42.726 0 00.64 43.008c0-.17.256-.512.768-1.024-.341-.17-.597-.47-.768-.896A5.008 5.008 0 000 39.936v-1.152c.256 0 .47-.128.64-.384.17-.256.47-.384.896-.384.512 0 .768-.256.768-.768.085-.597.17-.896.256-.896h1.28c.341-.341.213-.512-.384-.512.256 0 .384-.128.384-.384 0-.341.213-.512.64-.512.512 0 .683.128.512.384-.085.17.085.256.512.256.512 0 1.365-.043 2.56-.128a25.887 25.887 0 003.584-.512c.17-.597.299-1.152.384-1.664.17-.512.384-1.323.64-2.432-.597-.256-1.237-.299-1.92-.128-.597.17-1.11.256-1.536.256H7.424c-.341 0-.64-.043-.896-.128-.17-.17-.47-.384-.896-.64-.427-.341-1.152-.853-2.176-1.536-.683-.427-1.152-1.11-1.408-2.048-.17-.939-.64-1.75-1.408-2.432.17-.427.47-.853.896-1.28a6.603 6.603 0 001.28-1.408h.64c.256 0 .47-.085.64-.256.512-.17.64-.555.384-1.152.256.256.597.384 1.024.384h1.408c.427 0 .768-.128 1.024-.384a4.013 4.013 0 011.024-.768 27.21 27.21 0 013.584-.256c1.195 0 2.261-.299 3.2-.896.341-.256.725-.981 1.152-2.176.512-1.28.939-2.261 1.28-2.944a49.05 49.05 0 012.176-4.096 146.926 146.926 0 012.432-4.224c.256-.256.555-.427.896-.512a2.08 2.08 0 001.024-.896c.256-.256.384-.597.384-1.024.085-.512.384-.768.896-.768.427 0 .512.085.256.256-.17.085-.17.256 0 .512.341-.256.64-.555.896-.896l.896-.896c.256.341.47.683.64 1.024.17.341.256.768.256 1.28 0 .427-.085.853-.256 1.28-.17.427-.384.896-.64 1.408-.256.256-.256.64 0 1.152.256.427.256.768 0 1.024-.341.853-.81 1.792-1.408 2.816-.597.939-.896 1.664-.896 2.176v3.456c.256.256.384.427.384.512h.64c.341 0 1.067-.17 2.176-.512a33.882 33.882 0 013.2-.768c.939-.17 1.963-.341 3.072-.512 1.11-.17 2.219-.256 3.328-.256 1.195-3.243 2.133-6.357 2.816-9.344.512-.341.896-.896 1.152-1.664.256-.853.597-1.579 1.024-2.176.256-.256.683-.427 1.28-.512.683-.085.853-.384.512-.896.341.256.768.384 1.28.384s.981.128 1.408.384c.17.341.299.683.384 1.024.085.341.213.683.384 1.024.17.768.299 1.792.384 3.072.085 1.195.128 2.39.128 3.584v2.944c.085.768.256 1.152.512 1.152.341 0 1.323-.043 2.944-.128 1.621-.17 2.645-.256 3.072-.256 1.024 0 2.219.043 3.584.128 1.45 0 2.859.128 4.224.384 1.365.256 2.688.555 3.968.896 1.28.341 2.304.725 3.072 1.152.341.256.683.768 1.024 1.536.341.683.81 1.195 1.408 1.536zm-38.144 9.216v-1.536c-1.621.256-3.2.597-4.736 1.024-1.45.341-2.859.64-4.224.896-1.45.17-2.645.427-3.584.768-.853.341-1.28 1.664-1.28 3.968v.768l.384.384h4.736c.341 0 .853-.128 1.536-.384.768-.256 1.323-.384 1.664-.384.427 0 1.067-.043 1.92-.128a27.76 27.76 0 002.176-.512c.256-.939.555-1.877.896-2.816.427-1.024.597-1.707.512-2.048z" fill="#C4E86B"/></svg>