<svg width="398" height="91" fill="none" xmlns="http://www.w3.org/2000/svg"><path d="M74.417 15.77c-4.26.22-8.526.434-12.786.642 4.166-.408 8.455-.608 12.786-.642zm256.166 33.115c7.137-.435 14.271-.898 21.402-1.38a29.092 29.092 0 01-4.955 4.15 4207.712 4207.712 0 01-16.447-2.77zM90.967 7.076c-15.566.61-31.152.956-46.75 1.255C65.12 7.13 86.02 6.024 106.93 5.131c3.979-.022 7.957-.016 11.935-.057-9.332.568-18.648 1.273-27.897 2.002zM2.105 42.61c1.76 7.657 7.939 13.887 16.141 18.004-.527.1-1.062.183-1.59.288-6.795 1.286-8.233 6.821-5.99 11.083-.55.11-1.1.204-1.65.319-11.524 2.43-7.711 16.425 3.494 16.255 113.698-1.721 227.478 6.768 341.032-1.585 9.331-.687 11.601-9.315 7.401-13.888 9.167.475 18.333.962 27.477 1.467 11.52.63 13.236-15.067 1.936-16.46a808.678 808.678 0 01-20.479-2.814c3.126-3.728 5.769-8.059 7.76-13.146.615-1.57.436-3.176-.258-4.636-.429-3.14-2.942-6.22-7.471-7.56-8.477-2.507-17.116-4.327-25.864-5.673.081-1.268-.241-2.53-.852-3.692 3.292-.107 6.606-.2 9.884-.318 13.248-.466 12.311-16.6-.793-16.653-25.782-.108-51.538.424-77.279 1.333-23.536.047-47.072-.175-70.608-.576-44.294-.753-89.023-4.955-133.25-4.285C46.512.443 9.758 8.479 2.64 31.376c-.07.224-.083.44-.148.667-3.38 2.69-3.135 7.29-.387 10.566z" fill="#C4E86B"/></svg>