<svg width="335" height="138" fill="none" xmlns="http://www.w3.org/2000/svg"><path d="M40.774 77.498c-.157 0-.157-.157-.315-.315-.315-.158-.472-.158-.472-.158-.63.631-.472 3.472-2.834 3.472l-26.92 2.526c-7.557 0-4.566-1.736-10.233-8.997.63-.631 1.417-1.578 1.417-2.841 1.889-.158 2.519-2.052 4.25-2.841 1.102.473 1.417 1.578 2.677 1.578.787 0 2.676-.316 4.408-.316 2.519-.473 2.361-.157 4.25-.63 1.89-.632 3.149-1.106 4.25-1.106.788 0 2.047.158 3.307.316 1.26 0 3.148-.947 6.77-.158 2.676.631 6.297 1.105 8.815 4.262-1.26 1.42.158 3.314.63 5.208zm65.875-6.945c0 12.785-12.122 32.831-24.401 39.618-.787.473-3.306.315-4.093.315v-.315c-.63-.632-.787-.316-1.89-.316h-1.259c-2.204-2.999-6.454-9.944-6.454-10.575 0-.79 1.26-2.368 2.676-3.157 0-.789-.315-1.105-1.102-1.105.157 0 .944.632 1.732.632 1.102 0 3.306-2.841 5.195-4.262 8.186-6.787 12.28-16.257 13.696-23.676-2.991-.473-6.612 1.263-10.862 4.893-2.362 1.579-5.668 8.366-6.612 8.366-1.103 0 .157-.316-.473-.947-.787 1.736-2.99 3.946-3.778 6.313-2.204 4.262-5.353 17.52-7.084 25.57-.473 2.525-2.047 6.471-2.834 9.155-2.047 6.155-2.676 12.784-4.093 19.256-.158 1.42-1.26 4.261-2.52 5.682h-1.101c-1.102 0 .315-.947-.787-.947-1.26 0-.787.947-2.047.947-.787 0-1.731-1.421-2.519-1.578 0-.158-.157-.632 0-1.263-1.416-1.421-2.519-2.683-4.25-4.104.63-.789 1.102-2.052 1.574-3.157.157-1.42-.472-3.156-.315-5.682 0-.631.472-1.105 1.102-1.736.63-.789 0-2.999.63-4.735.63-1.421 2.047-6.629 4.093-7.261 2.676-11.522 5.51-25.57 8.186-38.67.473-1.263-.314-2.525-.157-3.946.787-3.314 1.89-6.63 3.148-9.944.473-.789.473-2.84 0-4.103 3.15-9.313 6.612-20.361 8.974-29.674.315-.631.157-1.42-.472-2.525.63 0 .314.473 1.574.473.787 0 .787-1.263 1.89-1.263.786 0 3.148 2.526 5.51 4.262.471 2.841 1.888 8.839 1.888 10.26 0 .63-2.676 13.1-4.723 19.571l.787.632h.63c.158 0 .63-.158.787-.158-.787 1.105-2.676 2.841-3.463 4.577v.316c0 .158.157.158.315.316 1.889-3.157 11.02-12.154 15.428-12.154 1.26 0 5.51 1.105 8.186 1.736 1.102.632 2.676 2.21 3.464 2.841 4.88 2.368 5.824 7.892 5.824 11.523zm51.193 25.255c-1.102 1.262-1.417 2.84-2.834 3.314 0 .158 0 .316.158.632l2.361-.948c-1.102.316-1.259.79-.472 1.579-1.732.789-3.621 4.419-1.259 4.577-1.26.632-1.732 2.683-2.204 3.315-1.732 1.262-4.408 2.525-6.14 3.946-1.102.789-2.204 2.525-3.936 2.999-1.417.631-3.463 1.104-5.195 1.578l-.945-.947c-1.889 1.421-2.361.631-3.463.631-1.26 0-.158.632-1.26.632-.629 0-4.565-1.737-5.982-2.21-10.39-3.946-14.641-18.467-14.641-26.201 0-13.1 3.464-23.992 6.455-35.514.157-1.42 1.574-2.525 1.732-3.63.629-3.63 1.731-8.839 2.991-13.258 1.259-4.42 3.935-11.68 6.612-19.414.629-1.42 2.204-2.841 2.676-4.578 1.889-5.84 4.565-7.892 4.408-11.68.472 0 1.259-.315 2.047-.315 1.102 0 2.361 1.578 3.778 1.736.157 0 .315 0 .315-.158h1.259c.63 1.42 1.732 3.788 2.204 5.209.63 1.105 0 3.156.63 4.261l-15.428 50.193c-1.417 3.63-2.834 7.418-3.464 11.048-1.259 5.209-3.463 17.836-3.463 22.571 0 .79.157 4.735.315 6.629.157.79 1.102 1.894 1.732 2.526 1.416.789 2.676 1.263 3.778 1.263 1.259 0 1.417-.79 2.046-.79 1.102 0 1.26.474 2.519.474.63 0 1.732-.632 5.51-1.894.787-.632 1.575-1.421 2.204-1.421 1.26 0 .315.474 1.417.474.787 0 3.621-2.683 7.242-4.578-.315.158-.315.474 0 .948.157-.474 0-.79.787-.79 1.102 0 4.093-1.42 5.51-2.21z" fill="#C4E86B"/><path d="M219.797 94.545c-.473 1.263-2.362 1.894-2.834 2.999-.787.789-1.102 1.42-.63 2.21-1.259 1.42-3.621 3.472-5.982 5.208 0 .158.787 1.105 1.259 1.105-3.306.474-8.658 5.367-10.075 5.367h-6.612c-6.455 0-12.28-13.101-12.28-14.206 0-1.894 0-5.05-.472-8.05-1.732 3-3.463 5.209-5.353 8.366-1.731 2.525-9.76 14.363-14.483 14.363-.787 0-2.519.631-3.306.631-5.195 0-6.927-3.314-9.918-5.84-.157-1.262-1.259-3.946-1.259-4.735 0-9.628 12.751-31.252 18.104-38.354 1.102-1.42 4.25-4.578 6.297-5.998 1.417-.631 3.149-2.683 4.565-3.946.473-.474-.157-.947.315-1.42 1.417-.632 2.519-.316 3.306-.948.787-.473 1.417-1.262 1.889-2.21h1.26c1.102.948 1.889 1.421 2.676 1.421.787 0 1.732.316 2.519.316 1.889-2.052.63-3.157 2.676-3.157 1.102 0 .315 1.263 1.417 1.263 1.26 0 .158-.474.945-.474 1.889 0 5.667 1.736 6.927 3.157.472.79 1.259 2.999.629 3.63 0 .632.473-.631.473.632 0 1.105-3.306 11.522-4.566 17.52-1.732 8.365-3.463 24.149-3.463 25.096 0 .789.472 3.472.472 4.893 1.732.631 3.463-.158 4.723-.158 2.361 0 19.836-8.208 20.781-8.681zM181.856 67.08l-.944.947c-.63-.631 0-1.263 0-1.736-5.196 6.313-10.076 14.837-13.854 22.255l.944 1.105c5.038-6.156 9.289-14.995 13.854-22.57z" fill="#C4E86B"/><path d="M278.005 92.493c-.63 1.105-.945 2.21-1.102 3.315-.473.473.314 1.262.157 1.42-.472.474-.945.79-1.417 1.42a2.96 2.96 0 001.26.316l-.158.158c-.315.316-.472.474-.63.316-.629.631-.157 1.894-1.259 2.683.472.789 0 1.736.63 2.525-.787.79-2.047 1.421-2.204 2.684-.787 1.42-3.621 2.525-4.881 3.946-1.102.473-2.361 2.683-2.833 3.472-2.047.158-5.195-.316-6.297-.316-1.732 0-9.131-3.788-9.604-5.366-2.361-4.577-4.565-9.786-5.195-14.679-.787-3.157-.787-9.312-.944-13.89-.473-.158.157-.631-.315-.789-4.251 4.893-9.288 12.154-13.696 17.362-.158.158-.158.474 0 1.105-1.417 2.683-2.992 5.524-5.038 8.05-1.417 1.894-4.881 5.366-5.668 5.524-1.102 0-1.889-1.578-2.676-1.42-1.259 0 .157.473-.945.473-3.935.474-4.565-7.418-5.195-8.05a4.123 4.123 0 01-1.574-2.84c0-.79 1.259-5.999 1.417-9.155.787-1.42 1.574-3.473 2.046-4.893.63-2.368.473-5.209 1.102-7.576 2.992-8.681 7.4-21.308 11.65-32.515 0-.631-.157-2.052-.157-3.315 1.417-1.262 3.148-2.998 4.408-3.472.787 1.105 1.731 2.052 2.834 3.472.629-.631.629-1.894.472-2.683 1.102.79 2.204 1.736 3.936 2.21 0 .79-.63 1.894 0 2.683h.157c.472 0 .315-.158.945-.316l.157 1.737c.157 1.105-.787 2.21-1.259 3.63-.473 2.683-.788 6.787-1.417 9.944 0 1.105-.473 1.578-.945 2.21-.787 2.367-1.102 4.735-.944 6.944 2.361-2.367 6.139-8.839 9.288-10.101 1.417-.632 3.148-.158 5.038-1.263 1.102.79 1.416 1.578 1.889 2.367.787-.473 1.102-.947 2.204-1.104.787 0 2.833 2.052 4.093 3.156v.158c0 .158-.158.316-.315.474 0 .473.787.631.945.631 3.778 7.419 2.833 4.577 3.306 8.84.472 1.104-.788 13.73-.315 20.202-.473 2.526.157 5.525.315 8.681.472.316 1.259.474 2.046.316 2.676 0 8.186-4.42 10.863-5.524h-.158c-.315 0-.472.158-.315.315l-.157.316h.63c1.102-.158 3.463-2.525 5.825-3.788zm-27.236-31.725l1.102-.158-.157-.79-1.102.158.157.79z" fill="#C4E86B"/><path d="M335 45.142c0 .631-.63 9.312-1.889 12.942-1.102 3.63-2.834 6.472-4.723 10.102-.63 1.42-.945 3.63-1.732 5.524-1.731 3.946-4.565 8.05-6.612 11.207-2.519 3.314-6.139 7.734-10.075 13.258-1.102 1.263-3.149 2.683-5.195 4.42-1.89 2.051-6.14 6.155-8.029 6.944-.63.158-.473.79-.945 1.263 0-.473.315-.631-.315-1.105-.472.632-.787 2.052-1.889 2.841-1.417 1.263-4.88 3.315-5.982 3.315-.787 0-1.417-.316-2.676-.316l-.788-.789v.158c0 .158-.157.316-.472.316-1.102 0-3.463-2.526-4.88-3.788-.472-.632.157-.79 0-.948-1.26-1.894-3.306-5.682-3.306-6.944 0-.632 1.889-3.946 1.889-5.051s-1.889-2.368-2.361-3.473c-.315-.473-.63-1.105-.788-2.21-.314-.789-.314-1.736.158-3.156 0-.474-.787-.316-.787-1.42 0-1.106.315 0 .787-.474.472-5.051 2.204-11.049 3.621-17.52.629-3 15.9-55.875 15.9-62.346 0-.631-.472-2.526-.63-3.946-.157-.631-1.731-1.894-1.731-2.683 0-.79.314-1.263.944-1.263.787.474 1.26.79 2.047.79.787 0 4.25 1.104 5.982 1.735.157 0 .787 1.263 1.574 1.263s3.936 1.736 5.196 2.526c6.612 3.945 15.9 10.259 20.623 16.573C332.953 30.305 335 38.355 335 45.142zm-12.279-6.63c0-6.155-1.89-14.678-7.714-17.52l.314-.315c-2.518-1.894-5.982-5.051-9.13-6.156 1.259 11.838-5.353 26.832-7.4 37.881-3.148 8.84-4.88 16.257-7.241 24.939-1.26 2.683-3.621 7.102-3.621 9.47-.158.473-.473 0-.63.473-.63 3.63-1.259 7.419-2.361 11.207-.158-.158-.158-.474-.158-1.105-.472.79-.944 1.42-1.259 1.736 0 .632.629 1.105.157 1.579-.472-.474-.944-.632-1.417-.632 0 .474-.472 1.105 0 2.368.787-.474 1.102-1.105 1.575-1.263.472.474-.473.789.314.789.788 0 .315-1.42.788-1.894.629.474-.315.316.787.316 1.731 0 11.807-10.891 12.279-11.365 1.26-1.262 2.834-4.103 3.621-5.366 3.621-1.736 7.557-9.47 9.603-12.785-1.417 1.42-3.148 3.63-4.565 5.682 3.778-6.471 8.186-12.627 11.177-19.098 1.732-3.788 4.881-12.627 4.881-18.94z" fill="#C4E86B"/></svg>