<svg width="1500" height="703" fill="none" xmlns="http://www.w3.org/2000/svg"><mask id="mask0_1_183" style="mask-type:alpha" maskUnits="userSpaceOnUse" x="0" y="0" width="1500" height="703"><path opacity=".9" fill-rule="evenodd" clip-rule="evenodd" d="M1450 0c27.61 0 50 22.386 50 50v149.924c0 .042-.03.076-.08.076-.04 0-.07.038-.07.082.1 1.293.15 2.599.15 3.918v449c0 27.614-22.39 50-50 50H563c-27.614 0-50-22.386-50-50v-49c0-27.614-22.386-50-50-50H50c-27.614 0-50-22.386-50-50V204c0-27.614 22.386-50 50-50h1182c27.61 0 50-22.386 50-50V50c0-27.614 22.39-50 50-50h118z" fill="#D9D9D9"/></mask><g mask="url(#mask0_1_183)"><path fill="#C4E86B" d="M0-397h1500v1513H0z"/></g></svg>