<svg width="216" height="18" fill="none" xmlns="http://www.w3.org/2000/svg"><path fill-rule="evenodd" clip-rule="evenodd" d="M127.434 4.68c-.114-.05-.227-.104-.339-.157-.051.121-.163.272-.129.359.032.086.209.112.322.168l.146-.37zm-5.194-.06c-.021-.31-.124-.481-.34-.488-.216-.008-.346.152-.341.386.005.285.072.588.416.493.127-.035.203-.29.265-.39zm3.414-2.29c-.278.016-.391.19-.406.418-.037.61.359.706.788.699.271-.005.614-.116.527-.468-.111-.46-.536-.583-.909-.65zm44.456 3.33c.261-.058.576-.065.572-.45-.004-.403-.242-.656-.615-.687-.391-.028-.657.25-.668.627-.013.473.376.494.711.51zm-67.323 6.22c-.048.49.112.88.533 1.07.366.169.727-.031.831-.387.241-.828.609-1.019 1.455-.918.761.09 1.596-.313 1.746-1.415.038-.28.226-.554-.022-.803-.232-.239-.551-.216-.723.007-.665.866-1.4.59-2.209.306-.67-.238-1.192-.025-1.287.881-.044.426-.215.84-.324 1.26zM85.971 1.336c.421.012.841.027 1.263.04.107.183.225.21.363.035 1.1-.084 2.2-.193 3.293.075.104.173.183.462.32.504.36.102.434-.234.495-.531 1.493-.255 2.992-.196 4.489-.03.821 1.018 1.23 1.014 2.036-.014 1.905-.157 3.812-.243 5.714.067.103.176.178.465.315.505.359.108.439-.223.499-.519.272.003.546.004.818.004.584.916.686.916 1.222-.042 1.494-.212 2.993-.155 4.49-.026.687 1.039.916 1.043 1.628.018 1.366-.19 2.735-.174 4.104-.082.496.63 1.27.379 1.888.686.675.336 1.154-.143 1.354-.89 1.768-.38 3.554-.292 5.338-.212.107.084.211.242.318.242 2.785.042 5.569.073 8.354.09.387.002.572-.308.671-.678a5.083 5.083 0 012.455-.06c.533 1.002.649 1.005 1.222.033.548-.037 1.096-.077 1.644-.116 1.186.819 2.576.255 3.839.637.352.11.575-.5.637-.95.552-.164 1.099-.16 1.638.052 1.032 1.02 2.264.993 3.524.74.066-.008.094-.25.14-.382.41.006.818.01 1.228.012.889 1.004 1.394 1.024 2.438.095.815.059 1.628.116 2.44.173.24.44.506.526.815.074 2.048.025 4.1-.135 6.141.153.148.644.611.68 1.111.69.811.014 1.689-.143 2.415.14.989.389.342 1.557.608 2.327.058.172.262.392.409.402.279.012.521-.203.585-.506a1.174 1.174 0 00-.058-.632c-.416-1.053.27-1.265.952-1.461.853-.245 1.594.273 2.129 1.45.445.978.927 1.833 1.969 2.31 1.334.613 1.366.924 1.026 2.764-2.315-.31-2.34-.281-1.646 1.765-1.805.327-1.805.327-2.609-.337-.985-.812-1.687-.687-2.424.43-1.011 1.54-1.324 1.575-2.407.231-.238-.293-.446-.564-.834-.404-.415.168-.43.575-.298.91.25.623.312 1.262.286 1.925l-1.228.09c-.272-.397-.688-.51-1.07-.394-2.224.656-4.49.345-6.737.41-.476.015-.951-.003-1.147.609-.278.024-.554.05-.83.077-.054-.256-.126-.53-.423-.512-.291.016-.347.296-.392.552l-.828.127c-.664-.603-1.332-.591-2.007-.02-.278-.02-.558-.037-.84-.055-.081-.377-.249-.724-.638-.73a126.987 126.987 0 00-4.455.007c-.387.01-.54.379-.613.756-1.616.447-3.248.687-4.92.456-.264-.42-.524-.405-.778.015a3.914 3.914 0 01-1.648-.09c-.2-1.166-1-1.507-1.794-.998-.898.573-1.42.17-2.18-.216-1.25-.632-2.616-1.408-3.864.1-.304.365-.722.335-1.128.365-1.191.087-2.342-.652-3.575-.105-.372.164-.712-.341-.901-.742-.5-1.055-1.204-.977-2.036-.494-.414.237-.954.267-1.31.567-.833.702-1.636.694-2.632.396-1.905-.572-3.805-.702-5.742.205-.942.44-2.134.534-3.168.397-1.184-.156-1.608.381-1.862 1.413l-1.236.02c-.577-1.453-1.076-.269-1.6.056-1.624.014-3.249.056-4.873.026-3.18-.059-6.333.661-9.52.417-.532-.041-1.088.114-1.583-.225.095-.827-.158-1.775 1.012-2.083.7-.184.367-.756.098-1.212-.159-.265-.155-.588.17-.714.268-.107.547-.022.688.28.182.385.051.928.414 1.2.356.27.984.825 1.181.175.332-1.107 1.408-.732 1.91-1.434.371-.519.833-.29 1.154.233.263.425.52.87.85 1.233.462.507 1.37.66 1.494.131.144-.608.299-.593.703-.625.65-.05 1.297-.142 2.048-.227-.297.813-.816 1.708.558 1.548.492-.056.975.627 1.468.034-.829-1.958-.83-1.954.982-1.911.065 0 .133-.215.201-.33-.861-.657-.861-.64-1.499-.61-1.17.057-2.306.077-3.389-.647-.673-.45-1.492-.68-2.336-.245-.632.328-1.335.201-2.01.165-.274-.018-.535-.114-.623-.456-.088-.325.024-.568.285-.728.85-.52 1.55-1.23 2.764-.71.823.352 1.794.436 2.559.92.376-.378.487-.966.29-1.062-1.344-.658-1.736-3.077-3.817-2.37-.568.193-1.033-.22-1.43-.65-.346-.373-.856-.85-1.231-.498-.918.866-1.856.553-2.85.409-.573-.084-4.209-.76-4.578-1.068a5.2 5.2 0 00-2.59-1.187c-.828-.13-.984-.621-.957-1.356 1 0 2.002.055 2.998-.018.9-.066 1.873.365 2.694-.374z" fill="#C4E86B"/><path fill-rule="evenodd" clip-rule="evenodd" d="M71.559 3.805c-.114-.056-.252-.176-.334-.142-.082.034-.105.224-.154.348.112.052.25.174.329.138.083-.036.11-.224.159-.344zm7.342 7.03c-.11-.053-.25-.174-.333-.14-.081.035-.105.226-.155.348.112.053.252.174.332.14.082-.037.108-.223.156-.348zM40.207 3.16c-.051-.35-.283-.47-.567-.459-.315.01-.495.26-.48.562.02.417.264.644.673.544.307-.076.404-.328.374-.647zm4.16 6.824c.505.052.76-.179.756-.579 0-.56-.3-.93-.835-1.002-.395-.056-.653.184-.653.589 0 .56.312.907.732.992zM80.28 1.728c-.028.736.13 1.227.957 1.356a5.196 5.196 0 012.59 1.188c.369.308 4.005.983 4.578 1.067.992.144 1.93.457 2.848-.41.376-.35.887.126 1.23.499.4.43.865.843 1.433.65 2.081-.707 2.473 1.711 3.815 2.37.198.096.088.684-.288 1.061-.767-.484-1.738-.566-2.56-.918-1.214-.52-1.914.189-2.763.709-.261.16-.373.403-.285.73.088.34.349.437.622.454.676.037 1.379.162 2.01-.165.845-.435 1.664-.205 2.337.245 1.083.724 2.219.705 3.389.646.638-.03.638-.045 1.499.611-.068.115-.136.33-.201.33-1.812-.042-1.811-.046-.983 1.91-.492.594-.975-.09-1.467-.032-1.374.16-.856-.736-.558-1.55-.752.086-1.4.178-2.048.228-.404.031-.56.017-.703.625-.124.53-1.032.376-1.495-.13-.33-.365-.586-.809-.85-1.234-.32-.523-.782-.752-1.152-.233-.503.702-1.58.326-1.911 1.434-.197.65-.825.095-1.183-.173-.361-.275-.23-.818-.412-1.203-.142-.301-.42-.386-.688-.28-.325.127-.33.45-.172.715.27.456.603 1.028-.096 1.213-1.17.307-.917 1.255-1.013 2.082-1.203-.03-2.404-.06-3.605-.088-.442-1.087-.447-1.087-1.643-.104-.407.011-.815.025-1.225.036-.258-.451-.53-.483-.816-.03-.275-.017-.548-.036-.822-.052-.081-.636-.433-.924-.977-.683-1.103.483-2.073.46-2.92-.56-.228-.274-.581-.485-.885-.214-.808.712-2.1.681-2.551 1.93l-3.265.053c-.274-.469-.551-.476-.83-.006h-.804c-.526-.633-.95-.636-1.23.232-.942.31-1.9.194-2.854.124-.262-.996-.402-2.205-1.766-1.023-.303.264-.64-.077-.96-.077-.604.004-.484.55-.552.95a3.345 3.345 0 01-2.032-.02c-.442-.957-1.012-.755-1.624-.21-2.588.175-5.172.07-7.756-.14-.091-.886-.9-.787-1.378-1.088-1.444-.901-1.673-.724-1.888 1.2-2.148.732-4.337.368-6.517.282.041-.847 1.23-.58 1.233-1.551.004-1.078.804-1.644 1.547-2.159.643-.44 1.24-.922 1.57-1.665.351-.779.045-2.068-.483-2.121-.844-.083-.424.94-.858 1.246-.05.034-.128.02-.326.046-.407-.718-.542-1.74-1.4-2.198-.234-.126-.456-.462-.334-.737.512-1.136-.501-1.907-.548-2.904-.03-.61-.19-1.301-.877-1.207-.61.084-.965.59-1.052 1.383-.132 1.176-.43 2.328-.296 3.5-2.539.125-3.35-2.37-5.019-3.456-.481-.313-.577-1.319-1.482-.877-.767.373-1.42-.508-2.171-.22-.197.076-.432.224-.361.448.296.92-.082 1.733-.368 2.522-.386 1.052.752 1.55.802 2.435-2.025.247-2.913-1.343-4.156-2.503 1.27-1.132 1.378-2.437.503-3.878-.139-.232-.143-.556-.21-.838.42-.036.878.079 1.19-.364l1.66-.11C27.619 2 29.937 1.934 31.73.68c1.765-.372 3.533-.336 5.304-.048.722 1.05 1.564.792 2.434.259l2.048.12c.579.94.678.94 1.239-.016.276-.024.555-.051.833-.08l2.015 1.25c1.241.366 2.44.563 3.267-.873.309-.01.605-.055.79-.372.278.024.556.045.836.067.203.91.892.732 1.474.736 2.092.013 4.184.005 6.28.005.062.639-.271 1.61.25 1.85 1.078.487 2.05 1.445 3.362 1.214.262-.047.566-.039.652-.381.11-.452-.19-.676-.511-.803-.245-.099-.528-.116-.795-.124-1.086-.03-1.368-.743-1.322-1.752.982.11 1.913-.165 2.846-.437-.084 1.257.686 1.686 1.627 1.709.92.021 1.787.135 2.69.888l-.23-2.167c.463-.012.96.072 1.239-.488l1.602-.014c.102 1.034.874 1.12 1.59 1.388 1.416.525 2.94.464 4.349 1.129 1.299.61 2.056-.181 2.233-2.015l.438-.557h1.157c.147.43.47.545.852.56zm84.038 11.315c.026-.663-.036-1.301-.286-1.925-.132-.335-.117-.742.298-.91.388-.16.596.111.834.404 1.083 1.344 1.396 1.308 2.407-.23.737-1.118 1.439-1.243 2.424-.431.804.664.804.664 2.609.337-.694-2.046-.669-2.076 1.646-1.765.34-1.84.308-2.15-1.026-2.764-1.042-.477-1.524-1.332-1.969-2.31-.535-1.177-1.276-1.695-2.129-1.45-.682.196-1.368.408-.952 1.461.074.188.1.434.058.632-.064.303-.306.518-.585.504-.147-.008-.351-.228-.409-.4-.266-.77.381-1.938-.608-2.326-.726-.284-1.604-.127-2.415-.142-.5-.009-.963-.045-1.111-.689 4.754-.257 9.512-.124 14.268-.153 2.855-.016 5.734-.175 8.56.141 3.175.356 6.378.045 9.53.656.661.128 1.356.072 2.036.068 3.737-.021 7.45.335 11.152.852.602.083 1.238.163 1.829.055 1.929-.347 3.375.672 4.852 1.757.681.503.545.976.384 1.672-.167.713-.093 1.624-.989 1.637-1.006.015-1.792.496-2.639.919-.425.21-.925.424-1.369.377-2.416-.25-4.62 1.114-7.01 1.014-.265-.012-.601-.026-.796.126-2.313 1.827-4.97 1.134-7.484 1.055-1.618-.05-3.204-.152-4.822.087-2.266.338-4.594-.098-6.839.484-2.464.634-4.995.508-7.477.693-3.979.296-7.96.956-11.972.564z" fill="#C4E86B"/><path fill-rule="evenodd" clip-rule="evenodd" d="M29.901 6.931c.102-.057.362-.11.398-.24.099-.328-.132-.484-.412-.496-.199-.01-.37.103-.398.33-.027.245.128.358.412.406zm-6.326-5.63c.067.282.07.606.21.838.872 1.441.764 2.745-.503 3.879 1.242 1.16 2.13 2.749 4.154 2.502-.05-.885-1.186-1.384-.802-2.434.288-.79.665-1.602.369-2.523-.07-.224.163-.372.36-.448.753-.288 1.405.593 2.172.219.904-.44 1.001.565 1.482.878 1.668 1.087 2.48 3.58 5.02 3.456-.136-1.172.163-2.324.294-3.501.088-.79.442-1.297 1.052-1.381.69-.095.85.594.878 1.206.047.998 1.06 1.768.548 2.904-.122.275.1.611.334.736.858.459.993 1.482 1.398 2.199.2-.027.28-.012.329-.045.431-.306.012-1.33.857-1.247.528.053.835 1.343.484 2.121-.33.743-.928 1.224-1.57 1.664-.743.516-1.545 1.083-1.547 2.16-.005.971-1.193.704-1.234 1.551-.535.23-1.084.2-1.633.101-.025-.802-.027-1.606-.085-2.405-.025-.315-.275-.483-.585-.465-.336.018-.436.286-.52.572-.166.58.377 1.104.102 1.738-.724.382-1.363.192-2.058-.262-1.053-.694-.869.302-.94.902-.27-.012-.542-.022-.813-.033-.088-.767.192-1.588-.337-2.475-1.359 1.828-3.196 1.063-4.875 1.188-.27.02-.503-.102-.732-.294-1.17-.975-1.239-.95-1.86.329-.175.359-.181.868-.672.976-.863-.837-.887-.884-1.89-.353-.538.288-.858.006-1.296-.2-1.106-.524-2.5.001-3.436 1.201l-2.867.09c-.844-.755-1.938-.285-2.872-.663-.22-.09-.335.374-.38.665-.272-.01-.543-.019-.816-.023-.316-1.186-.933-.962-1.625-.41-.764-.031-1.451-.32-2.092-.754.416-1.892.157-2.464-1.454-3.066-.305-.114-.661-.071-.992-.102-.128-.141-.253-.285-.381-.429.404-.668.443-1.504.913-2.164.492-.69.507-1.533.046-2.239-.387-.589-.79-1.466-1.72-.665-.122.104-.375-.153-.36-.381.013-.192.098-.495.224-.547 1.057-.448 2.092-.997 3.258-1.07.488-.027 1.044-.109 1.108-.703.087-.774-.686-.472-1.016-.747-.093-.076-.13-.23-.197-.359.221-.504 1.064-.388 1.024-1.161.41-.032.82-.06 1.23-.09.627.83 1.87.08 2.462 1.217.422.809.98.614 1.233-.298.116-.417.252-.825.38-1.237.81-.187 1.625-.161 2.443-.05.221 1.302.22 1.302 1.119.7l.511-.34c.272.003.546.003.818.006.257.919.404 1.765-.44 2.519-.514.46-.5 1.192-.136 1.798.333.559.781 1.05 1.496.85.953-.27 2.216.972 2.902-.684.023-.056.371.074.569.07.693-.005 2.337-1.556 2.457-2.304.05-.302.005-.729-.239-.752-1.593-.152-.961-1.29-.883-2.19.527-.198 1.064-.207 1.61-.1 0 .12.003.24.012.36zm81.998 13.929c.254-1.033.678-1.569 1.862-1.414 1.033.137 2.226.044 3.168-.397 1.937-.907 3.837-.776 5.742-.206.995.299 1.798.307 2.632-.396.356-.3.895-.329 1.308-.566.834-.482 1.538-.562 2.038.494.189.4.529.906.9.743 1.233-.547 2.385.19 3.576.104.405-.03.824 0 1.128-.364 1.248-1.51 2.614-.732 3.862-.101.762.385 1.284.789 2.18.216.796-.51 1.595-.168 1.796.997-2.51.044-5.028.003-7.533.156-3.98.239-7.961.305-11.939.48-3.574.156-7.14.447-10.72.253z" fill="#C4E86B"/><path fill-rule="evenodd" clip-rule="evenodd" d="M21.953 1.042c-.078.899-.71 2.038.882 2.19.244.022.288.449.239.753-.12.748-1.763 2.299-2.457 2.304-.196.003-.546-.127-.568-.07-.686 1.655-1.95.413-2.903.682-.715.2-1.161-.29-1.495-.848-.365-.607-.378-1.34.136-1.799.843-.753.698-1.6.439-2.518.396-.022.721-.148.825-.62.528-.263 1.07-.264 1.62-.103.583.941.68.94 1.236-.023.684-.144 1.368-.169 2.046.052zM6.03 1.827c.04.773-.801.657-1.024 1.162.068.128.106.282.198.36.33.272 1.102-.028 1.017.744-.065.595-.621.676-1.108.704-1.167.072-2.203.622-3.26 1.07-.125.052-.21.354-.224.546-.013.228.239.486.36.383.932-.803 1.335.075 1.72.665A1.93 1.93 0 013.664 9.7c-.471.66-.51 1.496-.914 2.164C1.328 10.426.75 8.45.197 6.578c-.705-2.385.539-4.162 2.86-4.409.992-.104 1.943-.663 2.973-.341zm10.199 14.728c.937-1.2 2.33-1.725 3.437-1.201.439.205.757.487 1.294.2 1.006-.53 1.03-.484 1.892.352.49-.107.497-.617.671-.975.622-1.28.692-1.304 1.861-.33.23.193.46.315.732.295 1.678-.125 3.515.64 4.874-1.188.53.887.25 1.708.337 2.475-4.068.872-8.184.355-12.277.47-.939.026-1.88-.063-2.822-.098zm61.604-14.83C77.656 3.56 76.9 4.35 75.6 3.74c-1.41-.665-2.933-.604-4.35-1.13-.716-.266-1.487-.353-1.589-1.387.373-.41.807-.314 1.244-.168.255.893.952.638 1.525.668 1.8.09 3.602-.339 5.403.002zm-15.099-.431c-.933.272-1.864.55-2.847.438l-1.637-.003c-2.095 0-4.187.008-6.279-.007-.581-.002-1.27.175-1.473-.734 4.081-.021 8.163-.039 12.243-.06 0 .121-.002.244-.007.366zm8.581 14.464c.451-1.249 1.743-1.218 2.551-1.93.304-.27.657-.06.887.215.845 1.02 1.816 1.043 2.918.56.544-.242.896.046.978.682-2.024.688-4.146.573-6.22.85-.402.053-.822.02-1.114-.377zm82.822-2.001c.194-.612.67-.593 1.145-.61 2.248-.063 4.515.248 6.739-.409.381-.115.797-.002 1.069.396-1.743.602-3.373 1.6-5.368.886-1.115-.402-2.4.085-3.585-.263zM134.944.578c-.098.37-.284.68-.67.678-2.786-.017-5.57-.048-8.355-.09-.107 0-.211-.158-.317-.242.278-.4.684-.42 1.088-.418 2.753.012 5.505-.17 8.254.072z" fill="#C4E86B"/><path fill-rule="evenodd" clip-rule="evenodd" d="M62.733 1.294a8.97 8.97 0 00.007-.366c.688-.16 1.367-.079 2.042.085.386 1.212 1.344.517 2.036.712.068.621.132 1.243.23 2.168-.903-.755-1.769-.868-2.69-.89-.94-.02-1.71-.451-1.625-1.709zM32.14 16.216c.073-.6-.113-1.596.942-.902.695.454 1.332.644 2.056.264.275-.636-.268-1.16-.101-1.74.084-.286.185-.554.52-.571.309-.019.56.15.584.464.058.799.06 1.603.085 2.405-1.353.638-2.716.551-4.085.08zM77.833 1.725c-1.801-.34-3.602.087-5.402-.002-.574-.03-1.271.225-1.526-.668 2.458-.143 4.918-.462 7.366.113l-.438.557zM49.66.92c-.185.318-.48.363-.79.373-.785.001-1.57.006-2.355.001-.55-.001-.848.29-.912.872-.672-.417-1.342-.835-2.015-1.25C45.612.193 47.635.242 49.66.92zm30.62.808c-.382-.016-.706-.13-.852-.56 2.19-.36 4.377-.602 6.544.167-.823.74-1.795.308-2.695.375-.996.073-1.997.018-2.997.018zM31.73.68C29.936 1.934 27.62 2 26.424.827 28.179.226 29.954.462 31.73.68zm-20.394.739c-.128.412-.266.82-.382 1.237-.253.912-.809 1.108-1.232.297-.592-1.136-1.834-.386-2.462-1.216 1.312-.806 2.718-.218 4.076-.318zM143.109 13.96c.075-.378.227-.747.614-.755 1.482-.03 2.972-.03 4.456-.007.389.004.557.35.637.728-1.901.01-3.805.023-5.707.034zM3.132 12.293c.332.03.686-.012.992.101 1.61.603 1.87 1.175 1.455 3.067-1.32-.604-1.755-1.999-2.447-3.168zm41.245 3.46c.216-1.924.444-2.1 1.888-1.198.479.3 1.287.2 1.379 1.088l-3.267.11zM144.742.122c-.063.449-.287 1.058-.638.95-1.264-.382-2.654.182-3.838-.637 1.452-.765 2.98-.281 4.476-.313zM59.054 16.01c.069-.397-.051-.945.553-.947.321 0 .657.34.959.077 1.365-1.184 1.505.025 1.766 1.021-1.1.136-2.193.103-3.278-.15zM150.042.532c-.045.132-.073.373-.14.384-1.26.252-2.492.279-3.524-.743 1.252-.25 2.477-.17 3.664.359zm-29.781.605c-.2.746-.678 1.225-1.353.889-.617-.307-1.391-.056-1.887-.687 1.043-.773 2.147-.418 3.24-.202zM10.111 16.646c.046-.29.16-.754.38-.665.934.379 2.028-.09 2.872.664-1.084.76-2.169.457-3.252.001z" fill="#C4E86B"/><path fill-rule="evenodd" clip-rule="evenodd" d="M66.82 1.725c-.693-.196-1.651.5-2.037-.712 1.097-.056 2.218-.44 3.275.224-.278.56-.776.476-1.239.488zM39.468.89c-.869.534-1.712.793-2.433-.258.832-.157 1.676-.433 2.434.259zm114.24-.25c-1.044.929-1.549.909-2.438-.095.818-.121 1.633-.172 2.438.095zm-55.478.775c-.807 1.028-1.213 1.03-2.035.014a4.636 4.636 0 012.035-.014zm4.506 13.891c.524-.325 1.023-1.51 1.6-.056-.514.63-1.049.586-1.6.056zm-21.224.024c1.196-.982 1.2-.982 1.642.105-.572.427-1.124.463-1.642-.104zm68.144-1.347c.675-.572 1.343-.584 2.007.02-.673.572-1.344.584-2.007-.02zM15.41 1.729l-.513.34c-.9.601-.897.601-1.12-.699.539-.17 1.086-.159 1.634-.09 0 .149 0 .298-.002.449zm39.988 14.052c.611-.545 1.182-.747 1.623.21-.573.226-1.132.33-1.623-.21zm57.518-14.359c-.712 1.024-.941 1.021-1.628-.019a3.15 3.15 0 011.628.019zM7.669 16.214c.692-.553 1.31-.777 1.625.41-.576.022-1.18.173-1.625-.41z" fill="#C4E86B"/><path fill-rule="evenodd" clip-rule="evenodd" d="M15.41 1.729c.002-.151.002-.3.002-.45.507-.513 1.07-.398 1.64-.165-.104.475-.43.601-.826.621l-.816-.006zM42.755.995c-.561.957-.66.957-1.238.017.412-.168.822-.16 1.238-.017zM19.907.99c-.555.962-.653.963-1.236.022a1.84 1.84 0 011.236-.023zm45.279 15.048c.282-.868.704-.866 1.23-.232-.35.45-.781.395-1.23.232zM138.62.552c-.573.97-.689.969-1.223-.034.411-.108.818-.114 1.223.034zm-31.822.878c-.537.958-.637.96-1.221.043.403-.17.808-.17 1.221-.044zm-83.223-.129a4.33 4.33 0 01-.012-.36c.398-.174.797-.668 1.2-.006-.311.445-.77.33-1.189.366zm128.916 12.574c.046-.256.102-.536.392-.552.299-.017.37.256.423.512a.96.96 0 01-.815.04zM67.22 15.806c.278-.471.555-.463.83.005-.28.377-.556.38-.83-.005zm12.25-.468c.288-.454.558-.422.817.029-.285.399-.556.357-.817-.03zm57.943-.908c.252-.42.513-.434.777-.014-.252.42-.514.419-.777.015zM156.964.886c-.309.45-.576.366-.815-.074.303-.355.572-.326.815.074zm-52.207.582c-.06.296-.14.627-.498.519-.138-.04-.211-.33-.314-.505a.915.915 0 01.812-.014zM91.704 1.46c-.059.296-.135.632-.495.528-.137-.04-.214-.329-.318-.502.27-.007.542-.018.813-.027zm-4.107-.048c-.137.174-.256.148-.363-.035a.379.379 0 01.363.035zm15.19 10.468c.109-.42.28-.833.325-1.258.095-.907.616-1.12 1.286-.881.809.284 1.544.56 2.21-.308.171-.222.49-.244.723-.007.248.25.059.525.021.803-.15 1.104-.985 1.507-1.745 1.417-.847-.101-1.215.09-1.456.916-.103.357-.464.556-.831.39-.42-.193-.58-.583-.533-1.072zm67.322-6.22c-.334-.016-.724-.037-.71-.51.012-.377.277-.655.669-.627.372.03.611.284.615.686.004.386-.312.392-.574.451zm-44.455-3.33c.373.066.799.189.909.649.087.352-.256.463-.526.468-.43.007-.826-.088-.788-.699.014-.228.129-.402.405-.418zm-3.413 2.29c-.064.1-.139.357-.267.39-.342.095-.41-.207-.414-.493-.006-.233.125-.393.341-.384.216.007.319.178.34.487zm5.193.062l-.145.368c-.114-.056-.291-.082-.323-.168-.033-.087.079-.238.129-.359l.339.159zM58.25 1.728l1.636.003c-.045 1.01.236 1.721 1.323 1.752.268.01.549.027.796.125.32.126.62.35.509.803-.085.343-.39.333-.652.381-1.31.231-2.283-.726-3.36-1.216-.521-.237-.188-1.209-.252-1.848zm-12.647.437c.064-.582.363-.873.913-.87.785.004 1.57-.002 2.354-.003-.825 1.436-2.025 1.239-3.267.873zm-1.236 7.819c-.42-.086-.73-.432-.732-.993 0-.404.258-.645.653-.59.535.074.835.445.835 1.003.004.4-.25.633-.756.58zM40.204 3.16c.032.318-.064.572-.37.648-.41.1-.654-.127-.675-.546-.013-.301.167-.55.481-.561.284-.012.515.11.564.459zm38.697 7.677c-.05.122-.075.31-.157.348-.08.033-.219-.088-.33-.143.047-.12.072-.312.154-.347.082-.033.222.088.333.142zm-7.343-7.032c-.049.12-.076.308-.158.344-.079.036-.218-.086-.33-.138.05-.124.072-.314.155-.348.081-.034.22.086.333.142zM29.901 6.931c-.284-.048-.44-.161-.412-.405.027-.228.2-.34.398-.33.28.011.51.167.412.495-.036.13-.296.183-.398.24z" fill="#C4E86B"/></svg>