<svg width="294" height="107" fill="none" xmlns="http://www.w3.org/2000/svg"><path d="M18.847 76.396c4.542-.158 8.656-.441 12.767-.397 2.045.028 2.938 1.798 2.144 3.876-1.25 3.275-2.572 6.525-4.016 9.72-.648 1.43-1.9 2.408-3.194.667a164.177 164.177 0 01-6.87-9.984c-.589-.932-.512-2.281-.831-3.882zM56.54 65.051c4.156.26 7.935.44 11.7.762 1.48.127 2.004 1.013 1.473 2.548-1.255 3.633-2.359 7.324-3.666 10.94-.25.678-1.104 1.392-1.804 1.55-.416.095-1.272-.741-1.584-1.339a312.64 312.64 0 01-5.494-11.023c-.404-.858-.367-1.934-.625-3.438zm-8.512-6.715c-1.52 2.7-3.034 5.408-4.567 8.106-.92 1.62-1.941 3.187-2.79 4.84-1.125 2.2-2.608 2.138-3.775.352-1.32-2.026-2.328-4.301-3.207-6.573-2.523-6.531-4.323-6.622 4.401-7.268 3.068-.226 6.136-.43 9.208-.645.242.395.488.79.73 1.188zM13.983 93.017c-.708 1.892-1.022 3.123-1.608 4.209-1.563 2.878-3.253 5.691-4.872 8.537-.916 1.612-2.26 1.615-2.973.206-1.705-3.371-3.114-6.906-4.514-10.421-.133-.326.578-1.443.966-1.478 4.099-.416 8.21-.688 13.001-1.053zM41.34 79.706c3.914-.448 7.51-.964 11.122-1.241 4.043-.308 4.974 1.211 3.259 4.911-1.323 2.86-2.561 5.76-3.848 8.635-.841 1.882-2.37 2.145-3.446.648-2.494-3.467-4.68-7.158-6.92-10.808-.28-.447-.107-1.176-.166-2.145zm71.132-17.66c4.478 0 8.579-.107 12.666.054 1.704.07 2.26 1.552 1.733 3.018a140.878 140.878 0 01-4.071 10.129c-.473 1.056-1.724 2.089-2.757.642-2.504-3.51-4.828-7.147-7.134-10.79-.361-.573-.232-1.463-.437-3.053zm-30.398-.642c4.157.273 7.936.462 11.702.796 1.474.128 2.003 1.048 1.472 2.647-1.252 3.77-2.358 7.598-3.667 11.352-.246.703-1.104 1.444-1.8 1.611-.417.1-1.273-.769-1.585-1.394a324.65 324.65 0 01-5.495-11.437c-.406-.899-.367-2.01-.627-3.575zm62.619 18.403c-1.527 2.656-2.997 5.219-4.466 7.772-.703 1.22-1.435 2.423-2.119 3.652-1.257 2.247-2.519 2.448-3.755.179-1.663-3.074-2.933-6.374-4.221-9.637-.175-.448.472-1.751.83-1.791 4.022-.418 8.06-.689 12.097-.947.376-.025.777.35 1.634.772zm100.312-25.699c-.709 1.891-1.021 3.126-1.603 4.205-1.569 2.887-3.254 5.695-4.878 8.545-.913 1.608-2.257 1.608-2.971.204-1.705-3.37-3.112-6.904-4.514-10.421-.133-.329.579-1.44.968-1.48 4.095-.416 8.207-.69 12.998-1.053zM122.807 42.063c-.975 1.872-1.989 3.897-3.086 5.872-1.125 2.027-2.381 3.975-3.498 6.002-.885 1.616-2.288 1.895-3.073.438-1.872-3.51-3.369-7.227-4.917-10.902-.128-.303.501-1.332.826-1.358 4.317-.335 8.647-.547 12.976-.774.12-.004.255.23.772.722zm-8.675 1.4a90.24 90.24 0 00-.654-.394c-.361.636-.725 1.273-1.084 1.916.131.084.263.167.397.255a590.2 590.2 0 011.341-1.778zm-36.22 46.039c1.06 0 2.135-.127 3.164.026 2.037.295 2.713 1.663 1.842 3.481-1.48 3.07-2.942 6.147-4.443 9.209-1.053 2.157-2.688 2.348-4.147.366a170.015 170.015 0 01-6.285-9.11c-.92-1.436-.88-2.758 1.456-3.005 2.806-.294 5.597-.725 8.391-1.1.009.043.016.087.022.133zm196.276-63.949c4.626 0 8.346-.053 12.064.017 2.849.048 3.788 1.655 2.685 4.393-1.213 2.998-2.401 6.001-3.628 8.991-.845 2.053-2.165 2.386-3.425.7-2.194-2.938-4.315-5.949-6.245-9.066-.717-1.165-.811-2.722-1.451-5.035zm-46.205-12.908c-.473.951-.67 1.323-.853 1.71-1.484 3.096-2.956 6.2-4.442 9.301-1.049 2.182-2.532 2.533-3.94.683-2.411-3.165-4.646-6.46-6.791-9.804-.753-1.173-.462-2.406 1.313-2.59 3.784-.396 7.569-.888 11.363-1.001 1.086-.037 2.205 1.088 3.35 1.701zm-75.995 62.161c4.522 0 8.44-.08 12.347.03 2.423.063 3.418 1.618 2.534 3.83-1.223 3.044-2.494 6.079-3.886 9.054-.611 1.303-1.802 2.507-3.124.822-2.505-3.213-4.816-6.582-7.065-9.976-.51-.768-.434-1.895-.806-3.76zm107.541-49.88c2.623.133 4.783.217 6.943.353 1.198.07 2.032.42 1.441 1.994-.705 1.878-1.197 3.85-1.932 5.712-.902 2.303-1.981 4.528-2.928 6.809-.742 1.776-1.832 2.11-2.707.546-2.293-4.078-4.438-8.245-6.546-12.43-.761-1.51.097-2.353 1.543-2.561 1.542-.215 3.099-.314 4.186-.423zm-74.103 9.763c4.559 0 8.569-.102 12.577.04 2.125.077 3.128 1.69 2.37 3.715-1.249 3.354-2.599 6.68-4.09 9.932-.676 1.47-2.092 2.161-3.275.552a143.632 143.632 0 01-6.613-9.786c-.612-1.007-.551-2.423-.969-4.453zm32.221 30.348c-.308.696-.746 1.623-1.137 2.57-.951 2.298-1.801 4.632-2.866 6.872-.405.849-1.173 1.728-2.003 2.1-.391.175-1.53-.694-1.988-1.326-2.225-3.07-4.542-6.106-6.434-9.374-1.515-2.628-.806-3.568 2.232-3.689 3.074-.125 6.147-.13 9.224-.178 1.882-.027 3.015.742 2.972 3.025zM130.71 45.03c4.817 0 8.958-.122 13.088.053 1.852.079 2.492 1.638 1.893 3.308-1.243 3.486-2.59 6.936-4.091 10.31-.643 1.447-1.978 2.218-3.19.515-2.291-3.225-4.514-6.502-6.598-9.868-.594-.957-.61-2.289-1.102-4.318zm9.301 5.954c.127.037.248.08.376.119.338-1.005.679-2.01 1.019-3.015-.185-.059-.364-.112-.552-.172-.279 1.02-.558 2.045-.843 3.068zm-36.98 44.22c-2.477-5.11-5.863-9.813-7.582-16.17 4.752.32 8.805.518 12.832.97.486.051 1.307 1.62 1.125 2.245-1.098 3.802-2.422 7.54-3.725 11.279-.305.877-.821 1.683-1.242 2.529-.468-.287-.937-.571-1.408-.853zm76.923-30.106c3.989 0 7.454-.134 10.896.052 2.007.115 3.032 1.22 2.174 3.595-1.223 3.377-2.171 6.86-3.395 10.236-.289.794-1.144 1.786-1.832 1.873-.567.073-1.488-.948-1.877-1.692a236.847 236.847 0 01-5.049-10.389c-.481-1.06-.586-2.304-.917-3.675zm65.052-63.274c4.113.223 7.797.361 11.472.65 1.519.118 2.266 1.04 1.73 2.68-1.196 3.652-2.329 7.328-3.64 10.942-.245.668-1.124 1.27-1.839 1.522-.334.114-1.187-.573-1.448-1.087a410.074 410.074 0 01-5.798-11.699c-.337-.714-.275-1.628-.477-3.008zm4.555 4.913c.198.081.397.157.596.23.402-.825.802-1.65 1.203-2.476-.245-.108-.49-.222-.739-.334-.353.863-.704 1.726-1.06 2.58zM167.187 51.43c-1.089 2.266-1.847 4-2.737 5.657-1.149 2.129-2.441 4.179-3.613 6.296-1.157 2.078-2.27 2.288-3.479.214-1.251-2.145-2.149-4.529-3.053-6.87-1.813-4.7-1.767-4.719 3.064-5.109 2.263-.181 4.519-.417 6.781-.544.79-.044 1.592.179 3.037.355zm67.483 28.444c-1.534 2.76-2.988 5.385-4.444 8.008-.591 1.062-1.205 2.108-1.767 3.184-1.301 2.503-2.543 2.663-3.856.1-1.543-2.995-2.71-6.208-3.892-9.39-.157-.417.503-1.67.878-1.713 3.765-.455 7.543-.76 11.323-1.028.421-.029.874.4 1.758.839zm-6.155 5.327a13.39 13.39 0 01-.284-.152c-.281.575-.564 1.143-.842 1.711.096.049.192.094.291.14.28-.563.556-1.13.835-1.699zM262.637 3.04c4.303.222 8.149.362 11.986.649 1.597.119 2.377 1.045 1.815 2.682-1.251 3.655-2.436 7.33-3.804 10.942-.257.672-1.179 1.275-1.924 1.52-.347.118-1.24-.572-1.514-1.08a397.478 397.478 0 01-6.056-11.7c-.356-.719-.288-1.627-.503-3.013zm4.761 4.915c.21.08.415.153.622.227.42-.82.842-1.65 1.261-2.475a139.83 139.83 0 00-.776-.332c-.367.862-.736 1.721-1.107 2.58zm-24.216 22.234c-1.353 2.287-2.696 4.578-4.059 6.857-.819 1.372-1.731 2.698-2.482 4.096-1 1.862-2.32 1.807-3.353.296-1.172-1.717-2.071-3.637-2.855-5.558-2.24-5.526-3.838-5.597 3.914-6.148 2.728-.191 5.456-.364 8.184-.55.215.34.436.674.651 1.007zM278.443.032c4.645 0 8.596-.094 12.541.04 2.119.069 3.155 1.656 2.426 3.673-1.219 3.367-2.582 6.686-4.01 9.967-.776 1.784-2.321 1.99-3.4.47-2.121-2.987-4.208-6.007-6.104-9.147-.702-1.174-.819-2.724-1.453-5.003z" fill="#0D0D0D"/></svg>