<svg width="342" height="261" fill="none" xmlns="http://www.w3.org/2000/svg"><path d="M312.532 154.637c-.237-.998-.47-2.001-.737-2.997.215-2.258.321-4.329.363-5.991.246-9.401-1.207-18.818-3.781-28.015.479 1.397.94 2.787 1.379 4.168 2.674 8.473 4.529 17.385 5.212 26.351a64.731 64.731 0 01-2.436 6.484zM70.393 40.859a64.266 64.266 0 00-2.867 6.478c-5.89 3.709-11.14 8.003-15.511 12.95-10.981 9.225-21.762 20.597-28.242 32.48a27.521 27.521 0 00-3.684 3.661c8.137-22.599 26.633-41.527 50.304-55.569zm-20.38 128.248c.355.422.686.857 1.038 1.275-.359-.37-.679-.775-1.029-1.153-.004-.039-.006-.081-.009-.122zm279.799-81.08c-11.113-17.25-29.401-33.679-45.43-46.804-10.432-8.54-22.409-15.686-35.254-21.507C222.344 2.673 192.15-1.962 160.046.7a219.721 219.721 0 00-7.294.059c-1.068.026-1.997.259-2.795.63-19.569-.376-39.098 3.072-55.11 13.056C44.512 33.33-1.988 71.315.066 126.205c.974 26.024 9.477 52.366 22.483 75.204 12.299 21.598 32.352 35.918 56.064 45.239 40.871 16.068 87.288 17.752 130.854 9.275 7.324-1.012 14.489-2.667 21.372-5.027a284.522 284.522 0 0020.164-6.397c22.198-7.981 46.439-19.193 60.763-37.795 12.784-16.604 17.232-36.638 16.299-56.898a74 74 0 002.084-9.306c3.413 3.703 11.596 2.426 11.549-3.88-.124-17.315-2.2-33.56-11.886-48.593z" fill="#C4E86B"/></svg>