<svg width="71" height="59" viewBox="0 0 71 59" fill="none" xmlns="http://www.w3.org/2000/svg">
<path d="M68.6747 4.50468C65.9798 1.56144 61.4872 1.77747 58.22 1.56252C53.6347 1.26149 49.0558 0.946365 44.4636 0.838081C34.6048 0.605804 24.7452 0.991852 14.8885 1.22412C11.2841 1.30967 7.67881 1.36489 4.0744 1.37897C3.85599 0.626919 3.46405 -0.0200958 2.84472 0.000480652C1.83474 0.0324249 1.47314 1.83053 1.49836 2.90041C1.50306 3.07692 1.50777 3.25451 1.51161 3.43264C1.4475 3.98653 1.46203 4.5859 1.55264 5.13599C1.84585 17.2262 2.12197 29.4475 0.876045 41.4512C0.452475 45.5265 -1.18111 49.779 1.52444 53.1656C3.6363 55.8084 8.06477 54.7797 10.6353 54.5723C19.3965 53.8657 28.1363 55.4521 36.8847 55.9811C41.5837 56.2654 46.3293 56.3173 51.0138 56.881C54.4925 57.2995 57.9452 58.1317 61.4483 58.116C64.8138 58.1014 67.3159 56.333 68.0541 51.7509C68.3597 49.8494 68.4396 47.8022 68.6345 45.8758C68.9743 42.5053 69.4821 39.1766 69.7804 35.7975C70.3583 29.251 70.9007 22.6964 70.9665 16.0968C71.0079 11.963 71.3302 7.40515 68.6747 4.50468ZM67.4681 29.6132C66.968 35.7016 66.0725 41.7089 65.5545 47.7843C65.4425 49.0968 65.5913 50.7546 64.6416 51.5408C63.255 52.6892 61.2846 52.4488 59.7314 52.3643C56.5552 52.1889 53.4159 51.4368 50.2504 51.0963C45.7792 50.6166 41.2618 50.5435 36.7804 50.2717C28.6103 49.7779 20.3192 48.0464 12.1393 48.7275C9.4231 48.9527 6.1773 49.7367 3.52432 48.6609C3.20846 48.532 2.72547 47.9809 2.73231 48.113C2.69812 47.4048 2.92379 46.598 3.06014 45.918C3.5474 43.4869 3.78291 41.0841 3.96969 38.5799C4.75143 28.1194 4.62962 17.5879 4.39497 7.09004C23.1547 7.01315 41.8777 5.81604 60.6247 7.4436C62.9849 7.6488 68.0917 7.63255 68.2079 11.9738C68.3648 17.8456 67.9468 23.7857 67.4681 29.6132Z" fill="#C4E86B"/>
</svg>
