<svg width="216" height="70" viewBox="0 0 216 70" fill="none" xmlns="http://www.w3.org/2000/svg">
<path d="M210.111 33.8398C199.426 33.0436 188.712 32.4394 177.982 31.9195C187.311 31.2834 196.582 30.3538 205.748 28.977C208.754 28.526 209.648 25.7162 209.587 24.2967C209.503 22.301 207.874 19.7663 203.881 19.5781C194.507 19.1391 185.119 18.852 175.721 18.6326C182.645 18.0022 189.605 17.5607 196.682 17.6807C200.066 17.7381 201.841 15.7501 202.046 13.5707C205.3 12.8504 208.379 11.9049 211.192 10.6481C215.854 8.5682 214.327 2.20485 208.033 1.75251C174.367 -0.670593 140.072 0.0930786 106.214 0.189415C73.8992 0.280014 41.3772 0.721512 9.4293 3.73348C5.46838 4.10671 4.046 6.55087 4.13367 8.60521C4.15466 9.07286 4.32505 9.72298 4.66335 10.3916C0.0579208 11.6791 0.39624 16.6618 3.81883 18.7672C0.650589 21.1048 1.50253 25.9472 6.29317 27.0375C8.58107 27.5575 10.8356 28.1221 13.0704 28.7097C12.6877 31.3459 14.6496 34.319 18.834 34.3177C21.0614 34.3177 23.2876 34.3075 25.515 34.3017C28.0634 34.3094 30.6081 34.3375 33.1516 34.3796C34.1097 34.6469 35.0703 34.911 36.0371 35.1707C25.699 35.2798 15.4225 35.787 5.27701 37.0094C2.1347 37.3877 0.602421 38.8391 0.123357 40.6038C-0.34089 42.3143 0.396238 45.9426 4.21764 46.4485C12.1148 47.4935 20.0453 48.3191 28.0017 48.9756C22.2727 48.929 16.5424 48.8952 10.8109 48.8939C3.93612 48.8914 3.64474 57.468 9.75527 58.3331C11.711 58.6093 13.6742 58.8747 15.6411 59.128C15.7287 59.2926 15.8312 59.4508 15.9374 59.6084C13.0741 59.5976 10.2121 59.5899 7.3513 59.5893C-0.0840675 59.5874 0.257944 69.1771 7.76369 69.1796C74.1708 69.1981 140.937 71.9779 207.059 67.198C214.434 66.6659 214.178 57.5107 206.649 57.609C203.576 57.6485 200.502 57.6536 197.43 57.6345C201.203 56.9372 204.906 56.1116 208.515 55.1227C214.683 53.4326 213.404 46.4064 206.649 45.7244C204.518 45.5087 202.381 45.3091 200.241 45.1196C204.216 44.6506 208.136 44.0382 211.977 43.2375C218.362 41.9073 216.706 34.3311 210.111 33.8398ZM40.7969 24.6285C38.5262 24.6482 36.2519 24.6603 33.9813 24.6744C33.0343 24.4051 32.0898 24.1321 31.1465 23.8584C31.2823 23.852 31.4156 23.8463 31.5514 23.8392C34.6135 24.1519 37.6978 24.4128 40.7969 24.6285Z" fill="black"/>
</svg>
