<svg width="280" height="272" viewBox="0 0 280 272" fill="none" xmlns="http://www.w3.org/2000/svg">
<path d="M195.347 19.3986C180.24 10.6491 163.541 4.87506 145.658 3.06982C129.436 -0.938721 112.622 -1.52985 96.524 4.37152C91.6278 6.16681 86.8948 8.50748 82.3548 11.2561C74.4252 14.4128 66.9714 18.919 60.672 24.5994C55.5986 28.0765 50.8197 31.9776 46.3833 36.2768C37.0366 42.0607 28.5159 49.0787 21.5398 57.0818C6.19621 74.6805 2.90617 96.3155 4.40689 118.424C0.806352 130.848 0.708818 144.339 4.80694 156.334C2.526 160.407 0.67499 164.662 0.149539 169.548C-1.09642 181.138 5.67672 190.994 11.795 200.202C18.817 210.762 25.5762 221.21 33.5515 231.118C49.7947 251.294 70.8148 267.221 96.9679 270.435C110.04 272.041 123.567 270.186 136.892 267.091C165.888 272.891 197.833 267.641 223.88 253.025C232.831 249.417 241.34 244.754 248.658 238.691C264.911 225.23 273.633 204.28 277.425 184.04C288.68 123.971 263.353 32.7718 195.347 19.3986Z" fill="black"/>
</svg>
