<svg width="30" height="30" fill="none" xmlns="http://www.w3.org/2000/svg"><path fill-rule="evenodd" clip-rule="evenodd" d="M0 15c0 8.284 6.716 15 15 15 8.284 0 15-6.716 15-15 0-8.284-6.716-15-15-15C6.716 0 0 6.716 0 15zm12.25 6.875l.255-3.824 6.956-6.277c.305-.27-.067-.403-.472-.157l-8.585 5.416-3.707-1.158c-.801-.245-.807-.795.18-1.19l14.448-5.572c.66-.3 1.297.159 1.045 1.169l-2.46 11.595c-.172.824-.67 1.021-1.36.64l-3.748-2.769L13 21.5l-.017.017c-.202.196-.368.358-.733.358z" fill="#C4E86B"/></svg>