<svg width="189" height="133" fill="none" xmlns="http://www.w3.org/2000/svg"><path d="M81 85.11c12.85-.437 24.487-1.22 36.119-1.097 5.777.078 8.315 4.967 6.069 10.712-3.543 9.05-7.273 18.03-11.35 26.856-1.85 3.952-5.393 6.658-9.048 1.846-6.806-8.964-13.313-18.166-19.423-27.59C81.692 93.262 81.9 89.534 81 85.11zM31 63.995c1.541-1.04 3.351-3.275 5.26-3.362 10.373-.509 20.79-.803 31.171-.528 5.835.143 7.724 4.426 5.901 9.381-3.558 9.634-7.459 19.13-11.756 28.448-1.356 2.908-4.897 6.274-7.976 2.131-7.434-10.029-14.195-20.552-21.154-30.923-.653-.967-.677-2.314-1.446-5.147zM31.27 0c12.554.145 15.017 4.132 10.884 12.927-3.696 7.86-7.222 15.804-10.751 23.752-3.398 7.62-7.602 8.467-12.26 1.906-6.171-8.729-12-17.699-17.654-26.75-2.558-4.107-2.128-7.72 3.725-8.493C14.786 2.1 24.364.876 31.27 0zM19.151 16.933c.521.416 1.017.83 1.53 1.243 1.442-3.053 2.893-6.125 4.348-9.194-.62-.287-1.228-.573-1.852-.865-1.335 2.944-2.67 5.88-4.026 8.816zM164 33.381c-4.271 7.689-8.501 15.397-12.8 23.078-2.582 4.614-5.449 9.074-7.826 13.78-3.15 6.263-7.31 6.084-10.571 1.001-3.706-5.769-6.541-12.244-8.991-18.71-7.065-18.596-12.105-18.853 12.325-20.693 8.595-.644 17.206-1.225 25.805-1.837.688 1.126 1.363 2.252 2.058 3.381zM100 4.93c-3.798 6.678-7.572 13.352-11.407 20.005-2.303 3.996-4.855 7.853-6.968 11.954-2.808 5.405-6.516 5.259-9.422.858-3.301-5.006-5.837-10.605-8.024-16.216C57.885 5.416 53.388 5.19 75.17 3.604c7.67-.572 15.333-1.076 23-1.604.612.967 1.216 1.956 1.829 2.93zm46.001 88.69c11.06-1.266 21.249-2.727 31.476-3.51 11.428-.871 14.051 3.427 9.217 13.895-3.743 8.09-7.252 16.295-10.904 24.428-2.368 5.324-6.697 6.069-9.734 1.835-7.075-9.809-13.255-20.252-19.595-30.579-.78-1.264-.296-3.327-.46-6.07z" fill="#C4E86B"/></svg>