<svg width="30" height="30" fill="none" xmlns="http://www.w3.org/2000/svg"><path fill-rule="evenodd" clip-rule="evenodd" d="M15 0c8.284 0 15 6.716 15 15 0 8.284-6.716 15-15 15-8.284 0-15-6.716-15-15C0 6.716 6.716 0 15 0zm3.996 13.099c-.073-.593-.255-1.058-.578-1.47-.42-.531-.957-.849-1.752-1.037-.518-.126-.727-.112-.915.06-.174.16-.208.481-.075.69.094.15.202.204.503.263.4.074.678.17.93.314.534.309.783.792.81 1.574.012.367.044.48.172.61a.551.551 0 00.84-.093c.066-.107.076-.154.083-.403a3.96 3.96 0 00-.018-.508zm.007-3.636c1.272 1.028 1.982 2.488 2.087 4.304.045.716-.014.948-.267 1.081a.539.539 0 01-.662-.103c-.117-.12-.162-.284-.16-.576.004-.806-.181-1.706-.483-2.331a4.503 4.503 0 00-1.57-1.798c-.595-.397-1.383-.666-2.146-.733-.496-.043-.673-.127-.768-.364-.059-.142-.043-.388.026-.498a.675.675 0 01.315-.243c.11-.032.75.024 1.098.093a5.88 5.88 0 012.53 1.168zm4.405 11.297a1.986 1.986 0 00-.178-.356c-.373-.563-2.377-2.131-3.378-2.644-.571-.294-.994-.392-1.308-.3-.338.095-.515.252-1.08.955-.229.282-.463.546-.525.587-.154.107-.456.193-.669.193-.494-.003-1.391-.323-2.081-.744-.536-.327-1.223-.91-1.75-1.489-.621-.679-1.045-1.278-1.38-1.954-.431-.868-.541-1.4-.36-1.788.044-.097.103-.201.13-.234.026-.03.305-.258.613-.507.604-.48.701-.59.814-.919.142-.418.103-.845-.116-1.275a17.786 17.786 0 00-.93-1.497c-.423-.605-1.477-1.898-1.687-2.073-.379-.308-.864-.361-1.4-.154-.565.22-1.625 1.074-2.078 1.67-.409.54-.566.922-.59 1.426-.02.415.015.587.235 1.117 1.714 4.163 4.271 7.487 7.785 10.126 1.836 1.378 3.74 2.428 5.714 3.145 1.152.418 1.652.44 2.241.095.249-.148.864-.78 1.208-1.24.568-.764.778-1.117.838-1.399.041-.192.009-.527-.068-.74zm-.757-9.385c.36.94.533 1.782.571 2.81.006.202.003.574-.01.826-.027.483-.053.579-.192.706-.224.21-.66.16-.824-.093-.087-.135-.099-.235-.082-.799.048-1.668-.29-2.974-1.102-4.28-.972-1.568-2.425-2.623-4.314-3.14a10.723 10.723 0 00-1.52-.296c-.41-.054-.5-.077-.602-.14-.307-.196-.311-.693-.005-.893.157-.105.274-.11.788-.044 1.508.188 2.854.637 3.96 1.314.792.486 1.291.922 1.935 1.687.68.815 1.04 1.418 1.397 2.342z" fill="#C4E86B"/></svg>