<svg width="38" height="156" viewBox="0 0 38 156" fill="none" xmlns="http://www.w3.org/2000/svg">
<path fill-rule="evenodd" clip-rule="evenodd" d="M11.6384 68.6372C11.3837 67.3305 11.3757 66.0172 11.5757 64.7025C12.2624 64.4465 12.3571 64.1518 11.6264 63.8025C11.4664 63.2225 11.4211 62.6425 11.6184 62.0612C12.6131 61.4212 12.4157 60.6572 11.8131 59.8492C11.8077 59.4172 11.8064 58.9838 11.8024 58.5505C12.4491 57.7158 12.4051 56.8425 11.9291 55.9452C11.7904 54.3105 11.6971 52.6785 12.1237 51.0718C12.8771 50.5878 12.7891 49.9892 12.3211 49.3438C12.3251 49.0345 12.3277 48.7252 12.3317 48.4172C12.3717 48.3772 12.4517 48.3265 12.4464 48.2972C12.4237 48.1945 12.3717 48.1025 12.3331 48.0038C12.2651 47.3865 12.2491 46.7798 12.5917 46.2318C13.2251 45.7812 13.1571 45.3345 12.5837 44.8905C12.5464 44.2705 12.6571 43.6878 12.9691 43.1598C13.5744 42.8345 13.5731 42.3892 13.1771 41.8732C13.1144 40.9785 13.0117 40.0838 13.3104 39.2105C13.8744 38.7718 14.4877 38.3518 13.9077 37.4572C13.8784 36.7052 13.8424 35.9532 14.1811 35.2558C14.5917 35.0732 14.8024 34.8318 14.3891 34.4105C14.4384 34.1038 14.4864 33.7998 14.5331 33.4945C15.0424 33.3278 15.1077 32.9225 15.0224 32.4358C15.0957 31.8958 15.1691 31.3558 15.2424 30.8158C15.3104 30.6358 15.3811 30.4545 15.4491 30.2758C16.1331 26.9385 16.8037 23.6038 18.2691 20.5225C19.2171 18.5318 20.1037 16.5038 20.9197 14.4478C21.7931 12.2478 22.7944 10.1265 23.9624 8.09718C25.5557 5.33318 27.0624 2.46651 29.8251 0.787845C30.1664 0.58118 30.5811 0.507847 30.9624 0.375851C31.8371 2.09718 32.6544 3.8545 31.2477 5.68384C29.9064 7.42651 30.0091 9.52917 29.8277 11.5718L29.8424 11.5638C29.1957 11.6545 28.5877 11.0892 27.9611 11.3092C27.7757 11.9745 28.3371 12.4905 27.8891 13.0798C27.0104 14.2385 26.1757 16.8678 26.1624 18.2332C26.1704 18.3478 26.1397 18.4492 26.0717 18.5372C25.5624 18.6318 25.0877 18.7425 25.6757 19.4118C25.6437 20.3372 25.2171 21.0572 24.6384 21.6932C23.5037 21.3878 22.8264 22.4598 21.9184 22.8225C21.4651 23.0025 22.1584 23.8572 21.9997 24.4318C21.9624 24.5692 21.9531 24.7185 21.9251 24.8612C21.2811 28.0198 20.6424 31.1772 19.9904 34.3345C19.4957 36.7385 18.9517 39.1212 18.6571 41.5825C18.4877 42.9932 18.7077 44.7012 17.4144 45.8265C17.1211 46.0825 17.4104 46.4518 17.6051 46.7745C18.1851 47.7292 18.1464 48.7278 17.4464 49.5772C16.7384 50.4372 15.1184 51.0332 16.9664 52.3825C17.0184 52.4198 16.9757 52.6678 16.9237 52.7932C16.6704 53.3945 16.7944 53.8985 17.1557 54.4158C17.6997 55.1958 17.7051 56.0505 17.2144 56.8612C16.9304 57.3305 16.7251 57.7292 17.1997 58.1958C17.6651 58.6518 17.4744 59.2812 17.5451 59.8465C17.8651 62.4665 17.4637 65.0412 17.1531 67.6238C16.9851 69.0332 17.2131 70.2425 18.5904 70.8572C18.8331 71.5798 18.7637 72.3238 18.7077 73.0638C18.5597 73.9198 17.1384 74.4518 18.1877 75.6412C18.3851 75.8678 18.1037 76.3785 17.8651 76.6078C16.5744 77.8518 17.1784 79.1652 17.8397 80.3372C18.2384 81.0452 18.4957 81.5385 17.9757 82.2665C17.3197 83.1852 17.5997 84.0038 17.9984 85.0478C18.5771 86.5638 19.9664 87.9145 19.2611 89.8518C19.2064 90.0038 19.3091 90.3198 19.4357 90.4385C20.1077 91.0612 19.9784 91.8625 19.9517 92.6652C19.9157 93.6878 18.7277 93.4665 18.4824 94.2118C18.6971 94.8492 19.1091 95.2545 19.5491 95.5758C20.1731 96.0292 20.4437 96.5798 20.4077 97.3972C20.3517 98.7065 20.3371 100.005 20.9824 101.224C21.2624 101.752 20.8944 102.005 20.3864 101.971C20.0277 101.948 19.6371 101.492 19.2691 102.163C19.8664 103.041 19.1664 104.372 19.9677 105.187C20.5704 105.796 20.8397 106.213 20.2237 106.948C19.9877 107.229 19.9184 107.804 20.2184 107.923C21.7744 108.541 21.0797 110.041 21.3224 111.125C21.6624 112.647 21.1771 113.241 19.6237 113.597C19.2491 113.684 19.0024 113.893 18.8344 114.208C18.4437 114.931 17.8024 114.765 17.2077 114.787C17.2024 114.491 17.1971 114.192 17.1917 113.893C17.6877 113.401 17.6331 112.965 17.0771 112.579C16.9931 111.996 16.9091 111.413 16.8237 110.831C17.3544 110.733 18.3824 110.965 17.3997 109.851C17.0824 109.488 17.2077 108.819 16.6491 108.64C16.4317 108.209 16.3651 107.752 16.4411 107.271C16.7651 106.471 17.1437 105.663 16.0944 105.117C15.9757 104.219 15.4477 103.405 15.5984 102.447C16.0371 101.732 16.1811 101.091 15.2277 100.724C15.0277 100.143 15.0784 99.5478 15.1491 98.9505C15.6491 98.5025 15.3997 98.2625 14.9384 98.0812C14.6571 97.2212 14.2384 96.3972 14.3317 95.4358C14.7917 95.0532 14.6317 94.7838 14.1917 94.5692C13.8357 93.8532 13.9264 93.0905 13.9971 92.3305C14.3557 91.9745 14.2331 91.7132 13.8571 91.4998C13.5651 90.4772 13.3557 89.4465 13.5864 88.3732C13.9784 87.9745 13.7904 87.7278 13.3931 87.5385C13.1104 87.1412 13.0437 86.6892 13.1117 86.2038C13.5971 85.6772 13.5784 85.2358 12.9211 84.9025C12.5771 84.1905 12.6211 83.4385 12.7157 82.6812C13.1811 81.8612 13.4371 81.0745 12.4024 80.5052C12.3677 80.0612 12.3331 79.6158 12.2984 79.1692C12.7797 78.6438 12.7611 78.2025 12.1091 77.8678C11.7504 77.1625 11.8451 76.4038 11.8917 75.6518C12.3944 74.7505 12.5011 73.8718 11.7597 73.0438C11.3251 72.0358 11.4317 71.0092 11.6597 69.9772C12.4784 69.5172 12.4731 69.0705 11.6384 68.6372Z" fill="#C4E86B"/>
<path fill-rule="evenodd" clip-rule="evenodd" d="M17.2077 114.787C17.8024 114.765 18.4437 114.932 18.8344 114.208C19.0037 113.895 19.2491 113.684 19.6237 113.597C21.1784 113.243 21.6637 112.647 21.3224 111.125C21.0797 110.041 21.7744 108.54 20.2184 107.923C19.9197 107.804 19.989 107.23 20.225 106.948C20.841 106.212 20.5703 105.795 19.969 105.187C19.1663 104.372 19.8677 103.041 19.2691 102.163C19.6371 101.492 20.0276 101.947 20.3876 101.971C20.8943 102.006 21.2636 101.751 20.9836 101.223C20.3383 100.006 20.3517 98.7065 20.4077 97.3972C20.4437 96.5785 20.1731 96.0305 19.5491 95.5758C19.1091 95.2558 18.6984 94.8478 18.4824 94.2118C18.7291 93.4665 19.9157 93.6865 19.9517 92.6652C19.9784 91.8625 20.1077 91.0625 19.4357 90.4385C19.3104 90.3198 19.2063 90.0042 19.2623 89.8509C19.9663 87.9149 18.5771 86.5652 17.9984 85.0478C17.5997 84.0052 17.3211 83.1852 17.9757 82.2665C18.4971 81.5398 18.2384 81.0438 17.8397 80.3372C17.1784 79.1638 16.5743 77.8509 17.8663 76.6082C18.1036 76.3789 18.3851 75.8678 18.1877 75.6412C17.1384 74.4518 18.5597 73.9198 18.7077 73.0638C18.9891 73.3278 19.0236 73.6789 19.0463 74.0536C19.189 76.5322 19.385 79.0082 19.4783 81.4856C19.5516 83.3936 19.909 85.2309 20.245 87.0962C20.7303 89.8069 20.853 92.5922 21.1703 95.3402C21.3796 97.1442 21.473 98.9709 21.9783 100.727C22.3236 101.926 22.405 103.167 22.4023 104.412C22.3943 106.4 22.6783 108.347 23.225 110.231C23.6983 111.858 23.6996 113.552 23.9023 115.2C24.385 119.094 24.513 123.036 24.8676 126.954C25.085 129.358 25.2303 131.756 25.193 134.171C25.1836 134.77 25.197 135.392 26.0076 135.356L26.1356 135.486C26.1663 136.186 25.8436 137.072 26.9236 137.212C26.0463 138.44 25.5556 138.591 24.0716 138.151C23.269 137.914 22.341 137.266 21.9943 138.795C21.9223 139.126 21.681 139.339 21.4036 139.111C20.3796 138.264 20.1623 139.015 19.969 139.898C19.801 140.66 19.225 141.528 18.6676 141.254C17.425 140.634 15.601 140.935 15.0903 138.974C15.0876 138.596 15.0863 138.218 15.085 137.84C15.8476 138.432 16.573 139.092 17.381 139.599C18.3556 140.211 18.789 139.959 18.7636 138.779C18.7343 137.398 18.485 136.019 18.4703 134.638C18.4143 129.228 17.5143 123.879 17.5196 118.464C17.5223 117.238 16.8864 116.059 17.2077 114.787Z" fill="#C4E86B"/>
<path fill-rule="evenodd" clip-rule="evenodd" d="M15.0903 138.974C15.601 140.935 17.425 140.635 18.6676 141.254C19.225 141.53 19.801 140.659 19.969 139.898C20.1623 139.014 20.3796 138.264 21.4036 139.111C21.681 139.338 21.9223 139.126 21.9943 138.795C22.341 137.264 23.269 137.914 24.0716 138.151C25.5556 138.591 26.0463 138.439 26.9236 137.212C28.001 136.768 28.2224 135.928 27.6477 134.956C27.293 134.353 27.3957 133.744 27.2797 133.14C27.2957 132.816 27.3917 132.533 27.6424 132.331C29.285 132.617 29.4624 130.647 30.589 130.091C31.2464 129.767 30.9544 128.943 30.9797 128.319C31.2037 128.164 31.4264 128.139 31.649 128.327C31.9464 128.805 32.421 129.251 32.5077 129.769C32.7117 130.971 33.2024 131.215 34.1904 130.735C34.5064 130.58 34.8704 130.715 34.9944 131.149C35.101 131.512 35.1064 131.9 34.817 132.159C34.513 132.432 34.1264 132.6 33.8277 132.879C32.6064 134.025 30.849 134.619 30.5144 136.683C30.437 137.159 30.037 137.013 29.6917 136.988C28.7957 136.919 28.9624 137.583 29.093 138.143C29.2077 138.625 30.0864 138.383 29.9637 139.14C29.6144 139.483 29.225 139.787 28.929 140.173C28.437 140.812 28.3357 141.649 28.961 142.127C30.1184 143.011 29.5864 143.815 28.8944 144.403C28.1744 145.016 28.0917 145.668 28.221 146.505C28.5197 148.455 28.305 148.803 26.5837 149.075C26.053 149.157 25.4757 149.041 25.3197 149.84C25.0864 151.052 24.789 150.869 24.3504 149.916C24.1597 149.5 23.7797 149.696 23.501 149.952C22.7157 150.676 22.7344 151.129 23.661 152.445C23.833 152.692 23.997 152.928 23.825 153.207C23.6397 153.508 23.289 153.477 23.1117 153.284C22.445 152.565 21.9464 152.331 21.485 153.521C21.2984 154.007 20.681 153.977 20.525 153.509C20.1677 152.445 19.4464 152.585 18.701 152.659L18.7037 152.668C18.8384 152.192 19.001 151.723 19.0957 151.237C19.1904 150.775 18.933 150.136 18.6237 150.219C17.525 150.513 16.7517 149.224 15.6837 149.635L15.5797 149.679L15.4837 149.616C14.941 147.496 14.941 147.496 13.0677 147.283C13.6824 146.243 12.801 145.317 12.8357 144.281C12.8677 143.464 11.9197 144.481 11.513 144.024C11.237 143.711 10.8904 143.441 10.6984 143.076C10.3877 142.492 10.045 141.792 9.51971 141.621C8.11837 141.168 7.62904 139.668 6.53571 138.896C6.04637 138.549 6.30237 138.14 6.51171 137.773C6.83837 137.199 7.06771 137.523 7.43704 137.816C8.82771 138.921 10.193 140.115 12.049 140.195C11.9397 140.816 11.3504 141.059 11.4557 141.659C11.5064 141.956 11.549 142.261 11.8424 142.351C12.693 142.609 13.1144 141.655 13.845 141.489C14.333 141.379 14.2597 140.828 14.1117 140.391C13.769 139.38 14.3076 139.08 15.0903 138.974Z" fill="#C4E86B"/>
<path fill-rule="evenodd" clip-rule="evenodd" d="M15.0903 138.974C14.3076 139.08 13.769 139.38 14.1117 140.391C14.2597 140.828 14.333 141.379 13.845 141.489C13.1144 141.655 12.693 142.609 11.8424 142.351C11.549 142.261 11.5064 141.956 11.4557 141.659C11.3504 141.059 11.9397 140.816 12.049 140.195C10.193 140.115 8.82771 138.921 7.43704 137.816C7.06771 137.523 6.83837 137.199 6.51171 137.773C6.30237 138.14 6.04637 138.549 6.53571 138.896C7.62904 139.668 8.11837 141.168 9.51971 141.621C10.045 141.792 10.3877 142.492 10.6984 143.076C10.8904 143.441 11.237 143.711 11.513 144.024C11.9197 144.481 12.8677 143.464 12.8357 144.281C12.801 145.317 13.6824 146.243 13.0664 147.283C12.9637 147.3 12.8611 147.301 12.7571 147.287C9.5904 145.331 6.7944 142.785 3.72374 140.671C2.5184 139.841 1.52107 138.723 0.663738 137.495C-0.178929 136.291 -0.020263 134.863 0.0864037 133.48C0.12907 132.925 0.587737 132.644 0.991737 132.368C2.68907 131.205 4.55574 131.12 6.22507 132.096C9.2504 133.865 12.1384 135.909 15.0851 137.839C15.0864 138.217 15.0876 138.596 15.0903 138.974Z" fill="#C4E86B"/>
<path fill-rule="evenodd" clip-rule="evenodd" d="M18.701 152.659C19.4477 152.585 20.1664 152.444 20.525 153.509C20.681 153.977 21.297 154.007 21.485 153.521C21.9464 152.331 22.4464 152.565 23.1117 153.284C23.2904 153.477 23.6384 153.508 23.825 153.207C23.9957 152.928 23.8338 152.691 23.6604 152.444C22.7338 151.129 22.717 150.676 23.501 149.952C23.781 149.696 24.161 149.5 24.3504 149.916C24.789 150.869 25.0864 151.052 25.3197 149.84C25.4744 149.041 26.053 149.157 26.5837 149.075C28.3037 148.801 28.521 148.455 28.221 146.505C28.0917 145.667 28.1744 145.016 28.8944 144.403C29.5864 143.815 30.1197 143.011 28.961 142.127C28.3357 141.649 28.437 140.812 28.929 140.173C29.225 139.787 29.6157 139.483 29.9637 139.14C30.0877 138.383 29.2077 138.625 29.093 138.143C28.9624 137.583 28.797 136.919 29.6917 136.988C30.037 137.013 30.437 137.159 30.5144 136.683C30.8477 134.619 32.6064 134.025 33.8277 132.879C34.1277 132.6 34.513 132.432 34.817 132.159C35.105 131.9 35.1024 131.512 34.9944 131.149C34.8704 130.715 34.5064 130.58 34.1904 130.735C33.2024 131.215 32.713 130.971 32.5077 129.769C32.421 129.249 31.9464 128.805 31.649 128.327C31.649 128.327 31.7004 128.327 31.7031 128.328C32.0004 128.337 32.4124 128.467 32.4164 127.969C32.4204 127.513 31.9818 127.593 31.6964 127.513C32.4658 125.156 34.1564 123.861 35.8578 124.332C37.1711 124.695 37.7018 125.28 37.8578 126.731C38.0551 128.601 37.6404 130.319 36.7738 131.976C34.8151 135.717 33.0191 139.549 31.2098 143.379C29.7844 146.399 28.9151 149.78 26.6458 152.34C25.9804 153.091 25.2938 153.788 24.5098 154.332C22.3138 155.855 20.085 155.177 18.701 152.659Z" fill="#C4E86B"/>
<path fill-rule="evenodd" clip-rule="evenodd" d="M18.5904 70.8572C17.2117 70.2425 16.9851 69.0345 17.1531 67.6238C17.4637 65.0425 17.8651 62.4678 17.5451 59.8465C17.4744 59.2825 17.6637 58.6532 17.1997 58.1958C16.7251 57.7305 16.9291 57.3318 17.2144 56.8612C17.7051 56.0518 17.7011 55.1958 17.1557 54.4158C16.7944 53.8985 16.6704 53.3945 16.9237 52.7932C16.9757 52.6692 17.0176 52.4194 16.967 52.3834C15.119 51.0328 16.739 50.4368 17.447 49.5781C18.147 48.7274 18.1864 47.7305 17.6051 46.7745C17.4104 46.4518 17.1211 46.0825 17.4144 45.8265C18.7064 44.7025 18.4891 42.9932 18.6571 41.5825C18.9531 39.1225 19.4963 36.7394 19.991 34.3354C20.643 31.1768 21.2824 28.0198 21.9251 24.8612C21.9544 24.7185 21.963 24.5701 22.0003 24.4328C22.159 23.8568 21.4637 23.0038 21.9184 22.8225C22.8264 22.4598 23.5037 21.3878 24.6384 21.6932C24.4944 22.4052 24.3163 23.0901 24.0296 23.7661C22.8856 26.4794 21.9003 29.2341 21.3776 32.2048C20.8896 34.9821 20.2403 37.7394 19.591 40.4888C18.7763 43.9474 18.555 47.5328 18.6456 51.1208C18.7176 53.8888 18.3723 56.6594 18.4043 59.4048C18.4496 63.2194 18.2051 67.0478 18.5904 70.8572Z" fill="#C4E86B"/>
<path fill-rule="evenodd" clip-rule="evenodd" d="M29.8277 11.5718C30.0091 9.52917 29.9064 7.42651 31.2477 5.68384C32.6531 3.85451 31.8384 2.09718 30.9624 0.375851C32.6304 0.161184 33.1606 0.502289 33.3993 1.99162C33.6019 3.24895 33.4726 4.46095 32.8526 5.57162C31.8793 7.31962 30.9713 9.09695 30.4446 11.0716C30.3646 11.373 30.1037 11.5038 29.8277 11.5718Z" fill="#C4E86B"/>
<path fill-rule="evenodd" clip-rule="evenodd" d="M26.1624 18.2332C26.1757 16.8678 27.0104 14.2398 27.8891 13.0798C28.3371 12.4905 27.7757 11.9732 27.9611 11.3092C28.5877 11.0892 29.1957 11.6532 29.8424 11.5638C29.7397 11.9732 29.7373 12.4591 29.5213 12.7844C28.4413 14.4111 27.4866 16.1124 26.6613 17.9044C26.5879 18.0644 26.3331 18.1252 26.1624 18.2332Z" fill="#C4E86B"/>
<path fill-rule="evenodd" clip-rule="evenodd" d="M15.6837 149.635C16.7517 149.224 17.525 150.515 18.6237 150.219C18.933 150.137 19.1904 150.773 19.0957 151.237C18.9997 151.721 18.837 152.192 18.7037 152.668C17.061 152.389 16.5904 150.761 15.6837 149.635Z" fill="#C4E86B"/>
<path fill-rule="evenodd" clip-rule="evenodd" d="M30.9797 128.319C30.953 128.944 31.2463 129.766 30.589 130.092C29.4623 130.648 29.285 132.617 27.6424 132.331C28.6357 130.877 29.4917 129.293 30.9797 128.319Z" fill="#C4E86B"/>
<path fill-rule="evenodd" clip-rule="evenodd" d="M27.2797 133.14C27.3957 133.744 27.293 134.353 27.6477 134.956C28.2224 135.928 28.001 136.768 26.9236 137.212C26.825 136.55 27.249 135.612 26.1356 135.486L26.0076 135.356C26.3103 134.535 26.6237 133.723 27.2797 133.14Z" fill="#C4E86B"/>
<path fill-rule="evenodd" clip-rule="evenodd" d="M12.7571 147.287C12.8611 147.301 12.9637 147.3 13.0664 147.283C14.9411 147.496 14.9408 147.496 15.4835 149.617C14.2875 149.229 13.7117 148.001 12.7571 147.287Z" fill="#C4E86B"/>
<path fill-rule="evenodd" clip-rule="evenodd" d="M16.6491 108.64C17.2077 108.819 17.0837 109.489 17.3997 109.851C18.3824 110.965 17.3544 110.733 16.8237 110.831C16.2197 110.151 16.4064 109.399 16.6491 108.64Z" fill="#C4E86B"/>
<path fill-rule="evenodd" clip-rule="evenodd" d="M11.7597 73.0438C12.5024 73.8718 12.3957 74.7505 11.8917 75.6518C11.2397 74.8185 11.5277 73.9292 11.7597 73.0438Z" fill="#C4E86B"/>
<path fill-rule="evenodd" clip-rule="evenodd" d="M11.9291 55.9452C12.4037 56.8425 12.4491 57.7158 11.8024 58.5505C11.3904 57.6558 11.3211 56.7812 11.9291 55.9452Z" fill="#C4E86B"/>
<path fill-rule="evenodd" clip-rule="evenodd" d="M11.8131 59.8492C12.4157 60.6572 12.6136 61.421 11.6189 62.0623C11.4656 61.3037 11.3411 60.5465 11.8131 59.8492Z" fill="#C4E86B"/>
<path fill-rule="evenodd" clip-rule="evenodd" d="M16.0944 105.117C17.1437 105.661 16.7651 106.472 16.4411 107.271C15.8064 106.649 16.0091 105.873 16.0944 105.117Z" fill="#C4E86B"/>
<path fill-rule="evenodd" clip-rule="evenodd" d="M12.7157 82.6812C13.1811 81.8612 13.4371 81.0745 12.4024 80.5052C12.3264 81.2598 12.1344 82.0358 12.7157 82.6812Z" fill="#C4E86B"/>
<path fill-rule="evenodd" clip-rule="evenodd" d="M15.5984 102.447C16.0371 101.732 16.1811 101.091 15.2277 100.724C15.1984 101.337 15.0531 101.979 15.5984 102.447Z" fill="#C4E86B"/>
<path fill-rule="evenodd" clip-rule="evenodd" d="M13.9077 37.4572C14.4891 38.3505 13.8754 38.7711 13.3114 39.2098C13.0874 38.4605 13.4371 37.9345 13.9077 37.4572Z" fill="#C4E86B"/>
<path fill-rule="evenodd" clip-rule="evenodd" d="M12.3211 49.3438C12.7891 49.9892 12.8771 50.5892 12.1237 51.0718C11.9051 50.4585 11.8064 49.8598 12.3211 49.3438Z" fill="#C4E86B"/>
<path fill-rule="evenodd" clip-rule="evenodd" d="M12.5837 44.8905C13.1571 45.3345 13.2245 45.7821 12.5911 46.2328C12.3365 45.7874 12.2504 45.3412 12.5837 44.8905Z" fill="#C4E86B"/>
<path fill-rule="evenodd" clip-rule="evenodd" d="M11.6597 69.9772C12.4784 69.5172 12.4731 69.0705 11.6384 68.6372C11.4984 69.0865 11.5024 69.5332 11.6597 69.9772Z" fill="#C4E86B"/>
<path fill-rule="evenodd" clip-rule="evenodd" d="M12.1091 77.8678C12.7611 78.2012 12.7797 78.6438 12.2984 79.1692C11.8664 78.7985 11.9064 78.3452 12.1091 77.8678Z" fill="#C4E86B"/>
<path fill-rule="evenodd" clip-rule="evenodd" d="M12.9211 84.9025C13.5797 85.2358 13.5971 85.6783 13.1117 86.2049C12.7224 85.8249 12.6677 85.3905 12.9211 84.9025Z" fill="#C4E86B"/>
<path fill-rule="evenodd" clip-rule="evenodd" d="M17.0771 112.579C17.6344 112.965 17.6887 113.401 17.1927 113.893C16.7367 113.498 16.7544 113.053 17.0771 112.579Z" fill="#C4E86B"/>
<path fill-rule="evenodd" clip-rule="evenodd" d="M12.9691 43.1598C13.5744 42.8345 13.5731 42.3892 13.1771 41.8732C12.9064 42.2638 12.6637 42.6612 12.9691 43.1598Z" fill="#C4E86B"/>
<path fill-rule="evenodd" clip-rule="evenodd" d="M31.6964 127.513C31.9804 127.593 32.4218 127.513 32.4164 127.969C32.4138 128.465 32.0011 128.338 31.7038 128.327C31.5531 128.056 31.5951 127.785 31.6964 127.513Z" fill="#C4E86B"/>
<path fill-rule="evenodd" clip-rule="evenodd" d="M15.0224 32.4358C15.1077 32.9225 15.0437 33.3265 14.5331 33.4945C14.3117 32.9345 14.6437 32.6732 15.0224 32.4358Z" fill="#C4E86B"/>
<path fill-rule="evenodd" clip-rule="evenodd" d="M25.6757 19.4118C25.0877 18.7425 25.5637 18.6318 26.0717 18.5372C26.1011 18.9145 26.0024 19.2252 25.6757 19.4118Z" fill="#C4E86B"/>
<path fill-rule="evenodd" clip-rule="evenodd" d="M14.3891 34.4105C14.8024 34.8305 14.5931 35.0732 14.1811 35.2558C14.0077 34.9038 14.0517 34.6145 14.3891 34.4105Z" fill="#C4E86B"/>
<path fill-rule="evenodd" clip-rule="evenodd" d="M13.3931 87.5385C13.7891 87.7278 13.9784 87.9745 13.5864 88.3732C13.2264 88.1745 13.1904 87.8892 13.3931 87.5385Z" fill="#C4E86B"/>
<path fill-rule="evenodd" clip-rule="evenodd" d="M11.6264 63.8025C12.3584 64.1518 12.2637 64.4452 11.5757 64.7025C11.4757 64.3945 11.4784 64.0945 11.6264 63.8025Z" fill="#C4E86B"/>
<path fill-rule="evenodd" clip-rule="evenodd" d="M15.1491 98.9505C15.6491 98.5025 15.3997 98.2625 14.9384 98.0812C14.7731 98.4372 14.8277 98.7318 15.1491 98.9505Z" fill="#C4E86B"/>
<path fill-rule="evenodd" clip-rule="evenodd" d="M14.3317 95.4358C14.7917 95.0532 14.6317 94.7838 14.1917 94.5692C13.9984 94.9038 14.0331 95.1958 14.3317 95.4358Z" fill="#C4E86B"/>
<path fill-rule="evenodd" clip-rule="evenodd" d="M13.9971 92.3305C14.3557 91.9745 14.2331 91.7132 13.8571 91.4998C13.5304 91.8492 13.5944 92.1198 13.9971 92.3305Z" fill="#C4E86B"/>
<path fill-rule="evenodd" clip-rule="evenodd" d="M15.4491 30.2758C15.3811 30.4558 15.3117 30.6372 15.2424 30.8158C15.1597 30.5678 15.2757 30.4078 15.4491 30.2758Z" fill="#C4E86B"/>
<path fill-rule="evenodd" clip-rule="evenodd" d="M12.3331 48.0038C12.3717 48.1025 12.4237 48.1945 12.4464 48.2972C12.4517 48.3265 12.3717 48.3772 12.3317 48.4172C12.2504 48.2785 12.2504 48.1425 12.3331 48.0038Z" fill="#C4E86B"/>
<path fill-rule="evenodd" clip-rule="evenodd" d="M26.1356 135.486C27.249 135.611 26.825 136.551 26.9236 137.212C25.8423 137.072 26.1663 136.186 26.1356 135.486Z" fill="#C4E86B"/>
</svg>
