<svg width="189" height="133" viewBox="0 0 189 133" fill="none" xmlns="http://www.w3.org/2000/svg">
<path d="M81 85.1094C93.8497 84.6734 105.487 83.8902 117.119 84.0129C122.896 84.0907 125.434 88.9803 123.188 94.7248C119.645 103.775 115.915 112.755 111.838 121.581C109.988 125.533 106.445 128.239 102.79 123.427C95.9836 114.463 89.4775 105.261 83.3674 95.8371C81.6918 93.262 81.9003 89.534 81 85.1094Z" fill="#C4E86B"/>
<path d="M31 63.9954C32.5414 62.9541 34.3514 60.7196 36.2605 60.6332C46.6328 60.1243 57.0506 59.8303 67.4312 60.1054C73.2661 60.2475 75.1546 64.531 73.3322 69.4863C69.7743 79.1198 65.8732 88.6157 61.5755 97.9343C60.2201 100.842 56.6787 104.208 53.6001 100.065C46.1659 90.0361 39.4053 79.5133 32.4463 69.1423C31.7934 68.1748 31.7686 66.828 31 63.9954Z" fill="#C4E86B"/>
<path d="M31.2704 0C43.8235 0.144508 46.2869 4.13179 42.1535 12.9265C38.4583 20.7872 34.9325 28.7306 31.4026 36.679C28.0049 44.2994 23.8013 45.1461 19.143 38.5846C12.9719 29.8564 7.14383 20.8861 1.48937 11.8348C-1.06919 7.72789 -0.639314 4.11559 5.21355 3.34155C14.7865 2.10077 24.3635 0.876186 31.2704 0ZM19.1513 16.9333C19.6721 17.3485 20.1681 17.7638 20.6806 18.1757C22.1232 15.1227 23.574 12.0507 25.0289 8.98155C24.4089 8.69461 23.8013 8.4089 23.1772 8.11698C21.8421 11.0611 20.507 13.997 19.1513 16.9333Z" fill="#C4E86B"/>
<path d="M164 33.3813C159.729 41.07 155.499 48.7779 151.2 56.4587C148.618 61.0727 145.751 65.5326 143.374 70.2392C140.224 76.5017 136.064 76.3235 132.803 71.2402C129.097 65.4711 126.262 58.996 123.812 52.5292C116.747 33.9345 111.707 33.6766 136.137 31.8366C144.732 31.1928 153.343 30.6118 161.942 30C162.63 31.126 163.305 32.252 164 33.3813Z" fill="#C4E86B"/>
<path d="M100 4.93032C96.2016 11.6084 92.4279 18.2817 88.5926 24.9346C86.2905 28.9311 83.7377 32.7884 81.6248 36.8895C78.8171 42.2938 75.1092 42.1477 72.2029 37.7472C68.9019 32.7409 66.3656 27.142 64.1786 21.5305C57.885 5.41676 53.3878 5.19037 75.1709 3.6037C82.8416 3.03168 90.5041 2.52781 98.1707 2C98.7832 2.96677 99.3875 3.95585 100 4.93032Z" fill="#C4E86B"/>
<path d="M146.001 93.6197C157.061 92.3539 167.25 90.8935 177.477 90.1094C188.905 89.2389 191.528 93.5368 186.694 104.005C182.951 112.095 179.442 120.3 175.79 128.433C173.422 133.757 169.093 134.502 166.056 130.268C158.981 120.459 152.801 110.016 146.461 99.6891C145.681 98.425 146.165 96.3617 146.001 93.6197Z" fill="#C4E86B"/>
</svg>
