<svg width="50" height="66" viewBox="0 0 50 66" fill="none" xmlns="http://www.w3.org/2000/svg">
<path d="M49.0809 54.656C48.8249 55.0827 48.6969 55.552 48.6969 56.064C48.7822 56.576 48.7822 57.0453 48.6969 57.472C48.3556 57.8987 47.9289 58.3253 47.4169 58.752C46.9902 59.1787 46.6062 59.648 46.2649 60.16C46.1796 60.16 45.8382 60.3307 45.2409 60.672C41.5716 60.928 37.8596 61.2267 34.1049 61.568C30.4356 61.9093 26.8942 62.3787 23.4809 62.976C21.9449 63.232 19.8542 63.744 17.2089 64.512C14.6489 65.28 13.0276 65.664 12.3449 65.664C11.9182 65.664 10.9796 65.536 9.52889 65.28C8.16356 65.1093 6.96889 64.9813 5.94489 64.896C5.68889 64.896 5.39022 64.7253 5.04889 64.384C4.79289 64.128 4.40889 63.872 3.89689 63.616C3.89689 62.7627 3.55556 61.9947 2.87289 61.312C2.27556 61.568 2.27556 62.2507 2.87289 63.36C2.70222 63.1893 2.61689 62.848 2.61689 62.336C2.61689 61.7387 2.57422 61.1413 2.48889 60.544C2.40356 59.8613 2.23289 59.3493 1.97689 59.008C1.72089 58.5813 1.29422 58.368 0.696889 58.368C0.0995556 58.368 -0.113778 58.368 0.0568889 58.368C0.227556 58.368 0.312889 58.496 0.312889 58.752C0.739556 57.8987 0.952889 56.6187 0.952889 54.912C0.952889 53.2053 1.29422 51.7973 1.97689 50.688C2.57422 49.5787 3.47022 48.128 4.66489 46.336C5.94489 44.4587 7.31022 42.496 8.76089 40.448C10.2969 38.4 11.8329 36.3093 13.3689 34.176C14.9049 31.9573 16.2276 29.952 17.3369 28.16C17.5076 27.9893 17.8062 27.7333 18.2329 27.392C18.6596 27.0507 19.2142 26.368 19.8969 25.344C20.7502 23.8933 22.0302 22.1013 23.7369 19.968C25.4436 17.8347 25.7849 15.9147 24.7609 14.208C21.8596 16.6827 19.7689 18.8587 18.4889 20.736C17.2089 22.528 15.6302 23.424 13.7529 23.424C12.8996 23.424 12.3022 23.3387 11.9609 23.168C11.6196 22.912 11.3636 22.5707 11.1929 22.144C11.1076 21.7173 10.9369 21.248 10.6809 20.736C10.5102 20.1387 10.1262 19.584 9.52889 19.072C9.10222 18.4747 8.88889 17.3227 8.88889 15.616C8.80356 15.36 8.63289 15.104 8.37689 14.848C8.20622 14.5067 8.12089 14.208 8.12089 13.952C8.37689 13.952 8.63289 14.0373 8.88889 14.208C9.23022 14.2933 9.52889 14.336 9.78489 14.336C10.3822 12.288 11.7049 10.24 13.7529 8.192C15.8862 6.144 17.5929 4.56533 18.8729 3.456C19.4702 3.02934 20.0676 2.34667 20.6649 1.408C21.2622 0.469334 22.2009 0 23.4809 0C24.0782 0 24.8036 0.0853335 25.6569 0.256001C26.5102 0.341333 27.1929 0.383999 27.7049 0.383999H28.9849C30.2649 1.57867 31.4169 2.09067 32.4409 1.92C33.5502 1.664 34.5316 1.792 35.3849 2.304C36.3236 3.072 37.4756 4.18133 38.8409 5.632C40.2062 7.08267 40.8889 8.36267 40.8889 9.472C40.0356 12.032 38.8836 14.8907 37.4329 18.048C36.0676 21.12 34.3609 24.32 32.3129 27.648C30.3502 30.8907 28.2596 34.0907 26.0409 37.248C23.9076 40.32 22.0729 43.136 20.5369 45.696C20.2809 46.3787 19.8116 47.2747 19.1289 48.384C18.4462 49.408 17.9769 50.2613 17.7209 50.944L18.3609 51.84C19.4702 51.4133 21.0489 51.072 23.0969 50.816C25.2302 50.56 27.2782 50.3893 29.2409 50.304C31.2036 50.1333 33.2089 50.0053 35.2569 49.92C37.3049 49.8347 39.1822 49.792 40.8889 49.792C41.3156 49.792 41.8276 49.8773 42.4249 50.048C43.0222 50.2187 43.5342 50.304 43.9609 50.304C44.3876 50.7307 44.5582 51.1147 44.4729 51.456C44.8996 51.8827 45.5822 52.2667 46.5209 52.608C47.1182 53.2907 47.9716 53.9733 49.0809 54.656Z" fill="#C2E76B"/>
</svg>
