<svg width="37" height="78" viewBox="0 0 37 78" fill="none" xmlns="http://www.w3.org/2000/svg">
<path d="M36.1088 12.16C35.9381 14.5493 35.1701 16.3413 33.8048 17.536C32.4395 18.7307 30.8608 20.4373 29.0688 22.656C27.7035 24.448 25.8688 26.4107 23.5648 28.544C21.3461 30.592 18.9568 32.8107 16.3968 35.2C16.8235 36.1387 17.4208 36.7787 18.1888 37.12C19.6395 37.9733 21.1328 38.9547 22.6688 40.064C24.2901 41.1733 25.6128 42.496 26.6368 44.032C26.8928 44.7147 27.2768 45.6533 27.7888 46.848C28.3008 48.0427 28.7275 49.3227 29.0688 50.688C29.4101 52.0533 29.7088 53.376 29.9648 54.656C30.2208 55.936 30.3061 57.0453 30.2208 57.984C30.0501 59.6053 29.4528 61.5253 28.4288 63.744C27.4048 65.9627 26.0821 68.096 24.4608 70.144C22.9248 72.192 21.0901 73.9413 18.9568 75.392C16.8235 76.8427 14.6475 77.4827 12.4288 77.312C11.8315 77.2267 11.2341 77.184 10.6368 77.184C10.0395 77.2693 9.57013 77.1413 9.2288 76.8C8.80213 76.288 8.16213 75.776 7.3088 75.264C6.5408 74.8373 5.85813 74.24 5.2608 73.472C5.09013 73.216 4.96213 72.6187 4.8768 71.68C4.8768 70.7413 4.70613 69.888 4.3648 69.12C4.8768 68.352 4.79147 67.6267 4.1088 66.944C3.51147 66.2613 3.12747 65.536 2.9568 64.768C3.55413 64.1707 4.1088 63.4453 4.6208 62.592C5.1328 61.824 5.60213 61.0987 6.0288 60.416C5.85813 60.8427 6.11413 61.6107 6.7968 62.72C7.13813 61.952 7.35147 61.2267 7.4368 60.544C7.60747 59.8613 7.86347 59.1787 8.2048 58.496C8.37547 59.264 8.7168 59.9893 9.2288 60.672C9.7408 61.3547 10.2955 61.696 10.8928 61.696L12.5568 61.824C12.9835 61.9093 13.7941 61.2693 14.9888 59.904C16.2688 58.4533 17.3355 57.216 18.1888 56.192C18.4448 55.3387 18.6155 54.5707 18.7008 53.888C18.8715 51.84 18.1461 50.0907 16.5248 48.64C14.9035 47.104 13.0261 45.7813 10.8928 44.672C8.8448 43.5627 6.9248 42.6667 5.1328 41.984C3.42613 41.216 2.48747 40.5333 2.3168 39.936C2.23147 38.9973 2.0608 37.8027 1.8048 36.352C1.5488 34.9013 1.46347 33.8773 1.5488 33.28C1.63413 31.744 2.40213 30.2933 3.8528 28.928C5.30347 27.5627 6.75413 26.112 8.2048 24.576C10.8501 21.5893 13.7088 18.5173 16.7808 15.36C16.0981 15.2747 15.1595 15.4027 13.9648 15.744C12.7701 16.0853 11.4901 16.512 10.1248 17.024C8.75947 17.536 7.52213 18.0053 6.4128 18.432C5.3888 18.7733 4.79147 18.944 4.6208 18.944C4.19413 18.8587 3.68213 18.6027 3.0848 18.176C2.5728 17.664 1.9328 17.152 1.1648 16.64C1.84747 15.9573 1.8048 15.0613 1.0368 13.952C0.2688 12.7573 -0.0725333 11.8187 0.0128 11.136C0.0128 10.5387 0.3968 10.0267 1.1648 9.6C1.9328 9.088 2.78613 8.66133 3.7248 8.32C3.9808 8.14934 4.15147 7.936 4.2368 7.68C4.40747 7.424 4.66347 7.25334 5.0048 7.168C5.43147 6.99734 5.9008 6.912 6.4128 6.912C6.9248 6.912 7.3088 6.74134 7.5648 6.4C8.75947 6.144 9.14347 5.504 8.7168 4.48H8.9728C9.14347 4.56534 9.27147 4.65067 9.3568 4.736C10.3808 5.16267 11.4475 4.90667 12.5568 3.968C12.3861 3.968 12.3008 3.92533 12.3008 3.84C12.1301 3.75467 12.0448 3.66933 12.0448 3.584C12.0448 3.49867 12.0021 3.456 11.9168 3.456C12.3435 3.37067 13.0688 3.15734 14.0928 2.816C15.2021 2.38934 16.3541 1.92 17.5488 1.408C18.8288 0.896002 20.0661 0.55467 21.2608 0.384003C22.4555 0.128001 23.3088 0 23.8208 0C24.4181 0.0853348 24.7595 0.298669 24.8448 0.640003C24.9301 0.981335 25.1435 1.28 25.4848 1.536C27.0208 2.304 28.5568 2.77333 30.0928 2.944C31.7141 3.02934 33.2075 3.968 34.5728 5.76C34.8288 6.016 35.0848 6.44267 35.3408 7.04C35.5968 7.63733 35.8528 8.14933 36.1088 8.576C36.2795 9.00267 36.3221 9.55734 36.2368 10.24C36.2368 10.9227 36.1941 11.5627 36.1088 12.16Z" fill="#C2E76B"/>
</svg>
