<svg width="52" height="75" viewBox="0 0 52 75" fill="none" xmlns="http://www.w3.org/2000/svg">
<path d="M51.456 37.376C51.0293 37.632 50.6453 38.144 50.304 38.912C49.9627 39.5947 49.4507 40.064 48.768 40.32C46.3787 41.344 43.904 41.984 41.344 42.24C38.784 42.4107 36.3947 42.9653 34.176 43.904C33.92 44.0747 33.5787 44.928 33.152 46.464C32.7253 48 32.3413 49.7493 32 51.712C31.6587 53.5893 31.3173 55.3813 30.976 57.088C30.72 58.7093 30.592 59.7333 30.592 60.16C30.592 60.5867 30.6347 61.3973 30.72 62.592C30.8907 63.7013 31.0613 64.6827 31.232 65.536C31.4027 66.2187 31.6587 67.1147 32 68.224C32.4267 69.3333 32.64 70.1013 32.64 70.528C32.64 71.1253 32.4693 71.6373 32.128 72.064C31.7867 72.4907 31.488 73.0453 31.232 73.728C31.232 73.1307 30.9333 72.576 30.336 72.064C30.2507 72.1493 30.208 72.4053 30.208 72.832C30.208 73.2587 30.208 73.6427 30.208 73.984C29.8667 73.984 29.6533 73.856 29.568 73.6C29.568 73.4293 29.2693 73.344 28.672 73.344C28.2453 73.344 28.2027 73.472 28.544 73.728C28.8853 73.984 28.8427 74.112 28.416 74.112C27.904 74.112 27.264 73.8133 26.496 73.216C25.8133 72.704 25.1307 72.448 24.448 72.448C24.6187 72.0213 24.576 71.4667 24.32 70.784C24.1493 70.1867 23.9787 69.6747 23.808 69.248C23.7227 68.992 23.5947 68.9067 23.424 68.992C23.2533 69.0773 23.1253 68.9493 23.04 68.608C22.6987 68.1813 22.528 67.712 22.528 67.2C22.528 66.7733 22.4 66.3893 22.144 66.048C21.7173 64.8533 21.4187 64.0427 21.248 63.616C21.1627 63.1893 21.0773 62.8907 20.992 62.72C20.9067 62.5493 20.9067 62.4213 20.992 62.336C21.0773 62.1653 21.12 61.7387 21.12 61.056C21.12 60.6293 20.864 59.4347 20.352 57.472C19.84 55.5093 19.712 53.76 19.968 52.224C19.968 51.6267 20.0533 51.072 20.224 50.56C20.3947 49.9627 20.3947 49.3227 20.224 48.64C19.1147 48.2133 17.92 48.2987 16.64 48.896C15.36 49.408 14.1653 49.664 13.056 49.664C12.4587 49.664 11.1787 49.4507 9.216 49.024C7.25333 48.5973 5.58933 48.0427 4.224 47.36C3.456 47.0187 2.816 46.336 2.304 45.312C1.87733 44.288 1.536 43.392 1.28 42.624C0.938667 41.6853 0.64 40.5333 0.384 39.168C0.128 37.7173 0 36.7787 0 36.352C0 35.2427 0.256 33.664 0.768 31.616C1.36533 29.568 1.96267 27.9893 2.56 26.88C4.352 22.784 6.31467 18.9867 8.448 15.488C10.6667 11.904 12.9707 7.63733 15.36 2.688C15.616 2.60266 15.8293 2.51733 16 2.432C16.1707 2.26133 16.512 2.176 17.024 2.176C17.6213 2.176 17.8773 2.304 17.792 2.56C17.7067 2.816 17.9627 2.944 18.56 2.944C19.1573 2.944 19.4987 2.90133 19.584 2.816C19.7547 2.64533 19.968 2.432 20.224 2.176C20.0533 2.51733 20.2667 3.15733 20.864 4.096C21.4613 5.03467 22.016 5.504 22.528 5.504C23.1253 5.504 23.3387 5.46133 23.168 5.376C23.0827 5.29067 23.04 5.12 23.04 4.864C23.04 5.12 23.1253 5.46133 23.296 5.888C23.552 6.22933 23.68 6.57066 23.68 6.912C23.68 8.61867 23.2107 10.6667 22.272 13.056C21.3333 15.4453 20.224 17.92 18.944 20.48C17.664 23.04 16.4267 25.5147 15.232 27.904C14.0373 30.2933 13.184 32.3413 12.672 34.048L12.8 34.688C14.5067 34.3467 16.256 33.9627 18.048 33.536C19.9253 33.1093 21.632 32.768 23.168 32.512C25.1307 27.9893 26.8373 23.1253 28.288 17.92C29.824 12.7147 32.2987 7.63733 35.712 2.688C36.1387 2.60266 36.608 2.56 37.12 2.56C37.7173 2.56 38.2293 2.56 38.656 2.56C39.0827 1.87733 39.5947 1.28 40.192 0.767998C40.7893 0.255999 41.3013 0 41.728 0C42.3253 0 42.88 0.426666 43.392 1.28C43.904 2.13333 44.288 2.77333 44.544 3.2C44.288 3.62667 44.288 4.05333 44.544 4.48C44.7147 4.90667 44.928 5.12 45.184 5.12L45.824 5.248C45.9093 5.41867 45.7387 5.84533 45.312 6.528C45.6533 7.552 45.6533 8.832 45.312 10.368C44.9707 11.904 44.5867 13.184 44.16 14.208C42.7093 17.024 41.5573 19.968 40.704 23.04C39.8507 26.0267 38.8693 29.056 37.76 32.128C38.6133 32.384 39.68 32.4693 40.96 32.384C42.3253 32.2133 43.648 32.1707 44.928 32.256C45.3547 32.6827 45.696 32.9813 45.952 33.152C46.5493 33.3227 47.2747 33.4507 48.128 33.536C48.9813 33.536 49.8347 33.7493 50.688 34.176C50.5173 34.5173 50.4747 34.9013 50.56 35.328C50.6453 35.7547 50.6027 36.096 50.432 36.352C50.6027 36.608 50.7307 36.7787 50.816 36.864C50.9867 36.9493 51.2 37.12 51.456 37.376Z" fill="#C2E76B"/>
</svg>
