<svg width="59" height="71" viewBox="0 0 59 71" fill="none" xmlns="http://www.w3.org/2000/svg">
<path d="M58.624 7.168C57.344 7.424 56.4907 7.936 56.064 8.704C56.064 9.13067 56.6187 9.472 57.728 9.728C56.96 10.1547 56.2347 10.7093 55.552 11.392V11.648C55.552 11.7333 55.552 11.8187 55.552 11.904C55.6373 11.9893 55.68 12.1173 55.68 12.288V12.8C54.4853 12.8 53.248 13.0133 51.968 13.44C52.5653 14.0373 52.864 14.3787 52.864 14.464C52.0107 14.464 50.944 14.7627 49.664 15.36C48.4693 15.872 47.616 16.128 47.104 16.128C46.6773 16.128 46.336 16.0853 46.08 16C45.9093 15.8293 45.568 15.744 45.056 15.744C44.8 15.744 44.16 15.872 43.136 16.128C42.1973 16.2987 41.216 16.512 40.192 16.768C39.168 17.024 38.1867 17.28 37.248 17.536C36.3093 17.7067 35.712 17.792 35.456 17.792C35.2 17.792 34.56 17.8347 33.536 17.92C32.512 17.92 31.36 18.048 30.08 18.304C28.8853 18.4747 27.6053 18.7733 26.24 19.2C24.8747 19.6267 23.7653 20.096 22.912 20.608C21.4613 21.7173 20.4373 23.2533 19.84 25.216C19.328 27.0933 18.5173 28.928 17.408 30.72C19.8827 31.4027 22.272 32.0427 24.576 32.64C26.88 33.2373 29.2693 34.0907 31.744 35.2C32 35.456 32.2133 35.9253 32.384 36.608C32.64 37.2907 32.896 37.76 33.152 38.016C34.432 39.9787 35.2427 41.6 35.584 42.88C35.9253 44.16 36.096 45.4827 36.096 46.848C36.096 47.104 36.096 47.6587 36.096 48.512C36.096 49.28 36.0107 50.2187 35.84 51.328C35.6693 52.4373 35.456 53.5467 35.2 54.656C34.944 55.7653 34.6027 56.704 34.176 57.472C33.4933 58.5813 32.7253 59.904 31.872 61.44C31.104 62.8907 30.208 64.256 29.184 65.536C28.16 66.9013 27.0507 68.0107 25.856 68.864C24.7467 69.7173 23.6373 70.144 22.528 70.144C22.016 70.144 21.504 70.144 20.992 70.144C20.48 70.144 19.8827 70.3147 19.2 70.656C18.5173 69.632 17.5787 68.608 16.384 67.584C15.2747 66.56 14.8053 65.536 14.976 64.512C14.8053 64.512 14.72 64.4267 14.72 64.256C14.72 64.0853 14.464 64 13.952 64C13.3547 64 13.056 64.0427 13.056 64.128C13.056 64.2133 13.056 64.384 13.056 64.64C13.056 64.384 13.0987 64.128 13.184 63.872C13.2693 63.616 13.184 63.3173 12.928 62.976C14.0373 62.8907 14.848 61.952 15.36 60.16C15.872 58.2827 16.3413 56.9173 16.768 56.064C17.024 56.064 17.2373 56.192 17.408 56.448C17.5787 56.704 17.792 57.0027 18.048 57.344C20.608 55.1253 22.6133 52.5653 24.064 49.664C25.6 46.6773 26.24 43.904 25.984 41.344C25.5573 41.088 25.1307 40.8747 24.704 40.704C24.3627 40.448 23.8933 40.32 23.296 40.32C22.272 40.32 21.12 40.6187 19.84 41.216C18.6453 41.8133 17.3653 42.5387 16 43.392C14.72 44.16 13.5253 44.8853 12.416 45.568C11.392 46.1653 10.5813 46.464 9.984 46.464C9.472 46.464 8.78933 46.336 7.936 46.08C7.168 45.7387 6.44267 45.568 5.76 45.568C5.16267 45.568 4.608 44.9707 4.096 43.776C3.66933 42.5813 3.41333 41.7707 3.328 41.344C2.98667 40.9173 2.56 40.1493 2.048 39.04C1.87733 38.9547 1.57867 38.784 1.152 38.528C0.810667 38.1867 0.512 37.888 0.256 37.632C0.256 37.4613 0.213333 37.376 0.128 37.376C0.0426667 37.2907 0 36.9493 0 36.352C0 36.2667 0.170667 35.7547 0.512 34.816C0.853333 33.792 1.28 32.64 1.792 31.36C2.38933 30.08 2.98667 28.8 3.584 27.52C4.18133 26.24 4.82133 25.0453 5.504 23.936C6.61333 21.7173 8.14933 19.072 10.112 16C12.0747 12.928 14.0373 10.0267 16 7.296C16.512 6.528 17.28 5.67467 18.304 4.736C19.328 3.712 20.1813 2.85867 20.864 2.176C21.4613 1.664 22.2293 1.45067 23.168 1.536C24.1067 1.536 24.7893 1.024 25.216 0C25.8987 0.341334 26.7093 0.853334 27.648 1.536C28.5867 2.21867 29.3973 2.73067 30.08 3.072C30.2507 3.15733 30.336 3.37067 30.336 3.712C30.4213 3.968 30.6347 4.224 30.976 4.48H57.088C57.4293 4.736 57.5573 4.992 57.472 5.248C57.3867 5.504 57.344 5.80267 57.344 6.144C57.6 6.4 57.856 6.57067 58.112 6.656C58.4533 6.656 58.624 6.82667 58.624 7.168Z" fill="#C2E76B"/>
</svg>
