<svg width="42" height="82" viewBox="0 0 42 82" fill="none" xmlns="http://www.w3.org/2000/svg">
<path d="M41.216 56.32C41.216 58.1973 40.2773 60.7147 38.4 63.872C36.608 67.0293 34.56 69.504 32.256 71.296C32 71.4667 31.744 71.8933 31.488 72.576C31.3173 73.2587 31.0187 73.8133 30.592 74.24C29.9093 75.008 29.0987 75.6907 28.16 76.288C27.2213 76.8853 26.368 77.4827 25.6 78.08C24.32 78.7627 22.656 79.488 20.608 80.256C18.6453 81.024 17.408 81.408 16.896 81.408H13.952C12.2453 81.408 10.368 80.8107 8.32 79.616C6.272 78.4213 4.69333 76.8427 3.584 74.88C3.328 75.2213 3.2 75.648 3.2 76.16C2.60267 75.0507 2.13333 73.856 1.792 72.576C1.536 71.2107 0.938667 70.144 0 69.376V58.88C0 58.4533 0.0853333 57.9413 0.256 57.344C0.512 56.6613 0.768 56.064 1.024 55.552C1.19467 54.784 1.28 53.8453 1.28 52.736C1.36533 51.6267 1.57867 50.56 1.92 49.536C2.176 48.4267 2.64533 46.976 3.328 45.184C4.096 43.3067 4.82133 41.6 5.504 40.064C7.97867 35.0293 11.2213 29.5253 15.232 23.552C19.328 17.4933 24.0213 11.648 29.312 6.016C30.1653 5.58933 31.232 4.94933 32.512 4.096C33.8773 3.15734 35.1573 2.34667 36.352 1.664C36.4373 1.49333 36.608 1.23733 36.864 0.896004C37.2053 0.55467 37.504 0.256002 37.76 0C37.9307 0.682668 37.9733 1.408 37.888 2.176C37.8027 2.944 37.76 3.66933 37.76 4.352L38.272 4.864C38.272 6.48533 38.2293 7.59467 38.144 8.192C38.0587 8.78933 37.8453 9.216 37.504 9.472C37.248 9.728 36.9067 10.1547 36.48 10.752C36.0533 11.264 35.584 12.4587 35.072 14.336C32.6827 18.5173 30.1653 22.8267 27.52 27.264C24.96 31.7013 22.4853 36.096 20.096 40.448C20.7787 40.7893 21.1627 40.7893 21.248 40.448C21.4187 40.0213 21.632 39.808 21.888 39.808C22.3147 39.808 23.2107 40.1067 24.576 40.704C25.9413 41.3013 26.88 41.6 27.392 41.6C27.9893 41.6 28.16 41.5147 27.904 41.344C27.7333 41.1733 27.9467 41.088 28.544 41.088C28.9707 41.088 29.3973 41.3013 29.824 41.728C30.336 42.1547 30.848 42.6667 31.36 43.264C31.872 43.776 32.3413 44.288 32.768 44.8C33.1947 45.312 33.4507 45.6533 33.536 45.824C33.8773 46.08 34.3893 46.336 35.072 46.592C35.7547 46.7627 36.3093 46.976 36.736 47.232C37.8453 47.9147 38.656 48.768 39.168 49.792C39.7653 50.816 40.2347 51.712 40.576 52.48C41.0027 53.76 41.216 55.04 41.216 56.32ZM30.848 56.32C30.848 55.3813 30.08 54.4427 28.544 53.504C27.0933 52.5653 26.0267 52.096 25.344 52.096C24.7467 52.096 23.808 52.3093 22.528 52.736C21.3333 53.1627 20.224 53.6747 19.2 54.272C17.92 55.1253 16.7253 56.064 15.616 57.088C14.5067 58.112 13.3973 59.008 12.288 59.776C11.9467 60.032 11.648 60.416 11.392 60.928C11.2213 61.3547 11.136 61.7813 11.136 62.208V68.992C11.3067 68.992 11.4347 69.0347 11.52 69.12C11.6907 69.2053 11.8613 69.248 12.032 69.248L12.288 69.376C13.9093 68.9493 15.616 68.5653 17.408 68.224C19.2 67.7973 20.6933 67.072 21.888 66.048C22.912 65.3653 23.936 64.512 24.96 63.488C26.0693 62.3787 27.0507 61.3973 27.904 60.544C28.7573 59.6053 29.44 58.752 29.952 57.984C30.5493 57.1307 30.848 56.576 30.848 56.32Z" fill="#C2E76B"/>
</svg>
