<svg width="18" height="20" viewBox="0 0 18 20" fill="none" xmlns="http://www.w3.org/2000/svg">
<path fill-rule="evenodd" clip-rule="evenodd" d="M10.6166 14.6757C10.7145 15.4479 10.8456 15.562 11.4343 15.4475C11.5068 15.4335 11.5715 15.416 11.6021 15.3478C11.6476 15.243 11.579 15.1534 11.499 15.1302C11.1843 15.0393 10.9116 14.8754 10.6166 14.6757ZM11.1043 11.6727C10.9618 11.6745 10.8194 11.6762 10.6769 11.6784C10.3941 11.4175 10.2171 10.9323 9.64982 11.2977C9.55367 11.3598 9.37448 11.3095 9.23375 11.3108C9.24512 10.8327 9.23681 10.3668 9.01567 9.9079C8.94661 9.76411 9.09565 9.54559 8.75868 9.65267C8.59173 9.70555 8.47504 9.62732 8.42609 9.48921C8.38369 9.37164 8.46805 9.27855 8.57512 9.21911C8.82249 9.08144 9.07379 8.94945 9.08997 8.6374C9.47675 8.61599 9.87709 8.70514 10.2407 8.50847C10.6183 9.01064 10.9758 9.00933 11.3958 8.50629C11.6908 8.50716 11.9553 8.42106 12.2511 8.24668C12.0986 8.02204 11.9334 7.80089 11.9653 7.51856C11.9933 7.26288 11.8324 7.13701 11.5711 7.17154C11.1572 7.22574 10.9208 7.06359 10.8639 6.69691C10.7971 6.2651 10.4317 6.12874 10.0912 6.1589C9.78968 6.18469 9.53182 6.06974 9.2508 6.08853C9.19704 6.04658 9.14416 6.00375 9.09084 5.96092C9.23507 5.74239 9.24337 5.50027 9.23375 5.25377C9.2237 4.97974 9.23026 4.72014 9.59476 4.61612C9.87796 4.53483 9.80847 4.30581 9.78968 4.11264C9.76958 3.89892 9.52308 3.73852 9.62098 3.45969C9.91599 3.41555 10.1708 3.40506 10.471 3.60085C10.7245 3.7665 11.0007 3.99027 11.3652 3.96929L11.3814 3.98327C11.4763 4.51647 11.8941 4.62093 12.3823 4.63273C12.6082 4.7315 12.8564 4.79968 12.9766 5.03263C12.9906 5.28961 13.1912 5.2966 13.3931 5.30054C13.446 5.3473 13.4976 5.39407 13.55 5.44127C13.5986 5.6646 13.6471 5.88662 13.9832 5.70743C14.8734 6.09028 15.6588 6.62785 16.3646 7.24453C16.7444 7.57537 17.1754 7.85028 17.5254 8.21784C17.9424 8.65663 18.0818 9.13389 17.9542 9.69025C17.7667 10.5062 17.2982 11.1736 16.8061 11.8685C16.1653 12.7732 15.2725 13.4344 14.5522 14.2513C14.5102 14.2863 14.4674 14.3217 14.425 14.3566C14.3831 14.3776 14.3389 14.3898 14.2913 14.3929C14.0806 14.389 13.9862 14.4864 14.0002 14.6792C13.9521 14.9803 13.665 15.0616 13.4417 15.2019C13.2419 15.1857 13.1322 15.2666 13.123 15.4554L13.1222 15.4562C12.7769 15.3815 12.5619 15.6485 12.2844 15.7464C11.6655 15.9654 11.249 16.3443 11.3823 17.0349L11.3652 17.0563C11.3263 17.093 11.2866 17.1297 11.2468 17.166C11.0527 17.4653 10.8185 17.7197 10.4234 17.7901C10.0781 17.4461 9.77395 18.0191 9.43567 17.8268C9.3417 18.2577 8.72678 18.2245 8.59566 18.6764C8.52136 18.9321 8.16998 18.9837 7.85967 18.832C7.59176 18.7009 7.44448 18.5505 7.57647 18.252C7.62935 18.134 7.62673 17.9937 7.64858 17.8639C8.20844 17.7555 8.23641 17.7503 8.13807 17.3137C8.04411 16.8963 8.3378 16.6039 8.51088 16.3037C8.69881 15.9785 8.99775 16.2914 9.24905 16.3684C9.3806 16.4086 9.54887 16.4151 9.61617 16.2622C9.68828 16.0978 9.56285 16.0301 9.41294 15.9851C9.18218 15.9156 8.96104 15.8317 8.91952 15.5681L8.92214 15.5699C9.13017 15.5406 9.35919 15.4453 9.541 15.496C9.82421 15.5755 9.87709 15.4794 10.0117 15.2762C10.2044 14.9847 10.2783 14.635 10.6153 14.4012C11.3591 13.8855 12.1152 13.3719 12.5466 12.5569C12.6773 12.3095 12.9421 12.1224 12.9093 11.7907C12.6794 11.6932 12.4478 11.5831 12.2066 11.4979C12.0601 11.4459 11.9968 11.5503 11.9701 11.6692C11.8748 11.6635 11.78 11.6583 11.6852 11.6526C11.4159 11.3628 11.3451 11.365 11.1043 11.6727Z" fill="black"/>
<path fill-rule="evenodd" clip-rule="evenodd" d="M11.3661 3.96933C11.0016 3.99031 10.7254 3.76654 10.4715 3.6009C10.1716 3.4051 9.91684 3.41559 9.62184 3.45973C9.5235 3.73857 9.77 3.89896 9.79054 4.11268C9.80933 4.30629 9.87882 4.53487 9.59518 4.61616C9.23068 4.72018 9.22456 4.97979 9.23461 5.25381C9.24423 5.50031 9.23549 5.74244 9.0917 5.96096C8.96626 5.9544 8.85394 5.91463 8.76959 5.83072C8.09872 5.16335 7.31029 4.60917 6.63024 3.95534C5.89556 3.24995 5.62721 2.35924 5.7828 1.38288C5.86147 0.885951 6.19931 0.68185 6.69929 0.869781C7.53886 1.18402 8.38062 1.51574 9.03838 2.12367C9.58469 2.62759 10.2372 3.00345 10.8325 3.44749C11.0353 3.59871 11.2765 3.71715 11.3661 3.96933Z" fill="black"/>
<path fill-rule="evenodd" clip-rule="evenodd" d="M5.92166 11.5519C4.48595 11.6559 3.06117 11.4597 1.63159 11.4059C0.667897 11.3692 0.250516 10.9567 0.0459771 10.0581C-0.125346 9.30417 0.177966 8.86668 1.02584 8.64423C1.21202 8.82298 1.40083 8.82254 1.59182 8.65035C1.78936 8.65253 1.98647 8.65559 2.18358 8.65734C2.27711 8.7819 2.36802 8.77622 2.45543 8.65253C3.0332 8.61363 3.59962 8.41434 4.1892 8.54458C4.19007 8.61931 4.19095 8.69449 4.19182 8.76966C4.19182 8.85882 4.19182 8.94798 4.19095 9.03757C4.15686 9.06773 4.12888 9.11143 4.08868 9.12542C3.4401 9.35443 3.28232 9.62016 3.5227 10.1896C3.62672 10.4366 3.58738 10.6048 3.39945 10.7818C3.31029 10.8653 3.15689 10.9497 3.27664 11.1026C3.413 11.1704 3.53188 11.1048 3.60749 11.0384C4.05677 10.6385 4.5856 10.7486 4.97501 11.0069C5.43435 11.312 5.48417 11.0187 5.63233 10.7766C5.83774 10.7928 5.92035 10.9042 5.91816 11.0878C5.91598 11.242 5.92035 11.3972 5.92166 11.5519Z" fill="black"/>
<path fill-rule="evenodd" clip-rule="evenodd" d="M7.89695 10.3612C8.04555 10.3306 8.19065 10.2633 8.17797 10.0745C8.17273 9.98798 8.09231 9.90407 7.99704 9.89707C7.77589 9.87959 7.74355 10.061 7.70246 10.1978C7.67449 10.2917 7.76671 10.3468 7.89695 10.3612ZM7.73306 9.36562C7.73218 9.25592 7.6793 9.1943 7.56829 9.18512C7.36419 9.16939 7.17757 9.19823 7.12643 9.41719C7.09672 9.54437 7.19855 9.64184 7.31611 9.65407C7.54032 9.67811 7.64521 9.51859 7.73306 9.36562ZM5.92149 11.5522C5.92018 11.3975 5.91625 11.2423 5.91843 11.0876C5.92018 10.9045 5.83758 10.793 5.6326 10.7769C5.56267 10.5998 5.37606 10.4246 5.63916 10.2485C5.8485 10.1077 6.03469 10.1187 6.20426 10.3048C6.35723 10.4718 6.55652 10.5255 6.78466 10.5089C6.86289 10.6484 6.95686 10.7825 7.15353 10.7196C7.26367 10.6842 7.33709 10.5863 7.33491 10.4679C7.33272 10.2506 7.15747 10.2515 6.99313 10.2432C6.92452 10.2402 6.85459 10.2419 6.7851 10.2419C6.41405 10.2214 6.51238 9.87347 6.35286 9.70608C6.61465 9.67899 6.67627 9.54437 6.5775 9.33415C6.47261 9.11082 6.31921 8.90235 6.35548 8.64099C6.54647 8.58636 6.75494 8.89186 6.93588 8.61783C7.12993 8.61259 7.30082 8.48147 7.50448 8.5313C7.54556 8.76468 7.73306 8.81188 7.92055 8.74458C8.30428 8.60691 8.69762 8.64405 9.09009 8.6375C9.07392 8.94999 8.82262 9.08154 8.57525 9.21921C8.46817 9.27865 8.38382 9.37174 8.42622 9.48931C8.47517 9.62741 8.59186 9.70608 8.75881 9.65276C9.09578 9.54569 8.94674 9.76421 9.0158 9.908C9.23694 10.3669 9.24525 10.8328 9.23388 11.3109C9.23345 11.3931 9.23301 11.4748 9.23257 11.5565C9.13729 11.5587 9.04202 11.5609 8.94674 11.5631C8.94936 11.3712 8.93931 11.1868 8.65785 11.1781C8.62726 10.9971 8.7422 10.7581 8.46118 10.6728C8.1417 10.5749 7.99398 10.9254 7.69591 10.9407C7.48001 10.9517 7.51847 11.1628 7.50492 11.3109C7.22783 11.2961 6.9455 11.3516 6.67453 11.2572C6.36029 11.1479 6.24972 11.3092 6.20863 11.5609C6.11248 11.5579 6.01764 11.5552 5.92149 11.5522Z" fill="black"/>
<path fill-rule="evenodd" clip-rule="evenodd" d="M7.64922 17.8639C7.62737 17.9937 7.62999 18.134 7.5771 18.252C7.44512 18.5505 7.59196 18.7009 7.86031 18.832C8.17018 18.9836 8.52157 18.9321 8.5963 18.6764C8.72742 18.2245 9.34234 18.2577 9.43631 17.8268C9.77458 18.0191 10.0788 17.4461 10.424 17.79C10.3646 18.2319 9.91925 18.3626 9.61987 18.5833C9.33972 18.7913 9.03422 18.9841 8.83231 19.248C8.57882 19.5798 8.22568 19.7393 7.85682 19.8866C7.18813 20.1523 6.62609 19.9451 6.34288 19.3267C6.16981 18.9487 5.922 18.5933 6.03913 18.1305C6.12348 17.7997 6.25591 17.5532 6.60992 17.436L6.6475 17.4688C6.72136 17.707 6.42461 17.8394 6.43116 18.0571C6.93639 18.2371 6.93508 18.2354 7.30657 17.9303C7.40447 17.8504 7.53165 17.8696 7.64922 17.8639Z" fill="black"/>
<path fill-rule="evenodd" clip-rule="evenodd" d="M8.91961 15.5684C8.96113 15.8319 9.18228 15.9158 9.4126 15.9849C9.56295 16.0299 9.68838 16.0976 9.61627 16.2624C9.54896 16.4149 9.3807 16.4084 9.24871 16.3686C8.99784 16.2917 8.6989 15.9783 8.51097 16.3035C8.3379 16.6042 8.04421 16.8965 8.13817 17.3135C8.23651 17.7505 8.20854 17.7558 7.64868 17.8637C7.66266 17.6133 7.5805 17.4485 7.26626 17.4625C7.06041 17.4717 6.85368 17.4669 6.6474 17.4686L6.60937 17.4359C6.6592 17.2016 6.84451 17.0495 7.02632 16.9153C7.64999 16.4573 8.2872 16.0159 8.91961 15.5684Z" fill="black"/>
<path fill-rule="evenodd" clip-rule="evenodd" d="M11.9699 11.6692C11.9969 11.5503 12.0599 11.4458 12.2067 11.4974C12.4475 11.5831 12.6796 11.6932 12.9091 11.7907C12.9418 12.1224 12.6774 12.3094 12.5463 12.5568C12.115 13.3719 11.3593 13.8854 10.615 14.4011C10.278 14.635 10.2042 14.9846 10.0114 15.2761C9.87683 15.4793 9.82394 15.5755 9.54074 15.496C9.35892 15.4453 9.12991 15.5401 8.92187 15.5698C9.20989 15.0353 9.79991 14.7927 10.24 14.4051C10.9555 13.774 11.8243 13.281 12.2133 12.3728C12.396 11.9454 12.417 11.9537 11.9699 11.6692Z" fill="black"/>
<path fill-rule="evenodd" clip-rule="evenodd" d="M9.25098 6.0891C9.532 6.06987 9.78942 6.18481 10.091 6.15902C10.4319 6.1293 10.7968 6.26566 10.8641 6.69747C10.9205 7.06415 11.1574 7.22586 11.5713 7.17166C11.8322 7.13757 11.993 7.26344 11.965 7.51868C11.9331 7.80145 12.0988 8.0226 12.2509 8.2468C11.955 8.42162 11.691 8.50772 11.396 8.50641C11.2846 8.4968 11.1731 8.48674 11.0621 8.47713C11.1058 8.36787 11.1871 8.29357 11.2955 8.23457C11.5918 8.07373 11.563 7.90372 11.3099 7.72235C10.723 7.30278 10.2527 6.75122 9.57964 6.42825C9.43279 6.35788 9.30342 6.25037 9.25098 6.0891Z" fill="black"/>
<path fill-rule="evenodd" clip-rule="evenodd" d="M11.3823 17.035C11.249 16.344 11.6655 15.9651 12.2844 15.7466C12.5619 15.6487 12.7769 15.3816 13.1222 15.4564C12.7446 15.9358 12.2009 16.2793 11.8613 16.7929C11.7621 16.9423 11.5991 17.0512 11.3823 17.035Z" fill="black"/>
<path fill-rule="evenodd" clip-rule="evenodd" d="M7.50488 11.3112C7.51843 11.163 7.47953 10.952 7.69587 10.9406C7.99394 10.9257 8.14166 10.5748 8.46114 10.6731C8.74217 10.7583 8.62722 10.9974 8.65782 11.1779C8.60887 11.3016 8.55948 11.4253 8.51053 11.5485C8.22339 11.6014 7.938 11.5822 7.65348 11.5306C7.64386 11.4345 7.6054 11.3549 7.50488 11.3112Z" fill="black"/>
<path fill-rule="evenodd" clip-rule="evenodd" d="M9.09049 8.6376C8.69803 8.64416 8.30468 8.60701 7.92095 8.74468C7.73346 8.81155 7.54597 8.76434 7.50488 8.53096C8.40782 8.30107 9.32912 8.38542 10.2456 8.40072C10.2452 8.43656 10.2434 8.4724 10.2412 8.50867C9.87762 8.70534 9.47728 8.61619 9.09049 8.6376Z" fill="black"/>
<path fill-rule="evenodd" clip-rule="evenodd" d="M4.19043 9.03773C4.1913 8.94813 4.1913 8.85897 4.1913 8.76982C4.42512 8.76938 4.65895 8.7685 4.89189 8.76894C5.05098 8.76894 5.16024 8.70863 5.20089 8.55916C5.39056 8.51108 5.58068 8.49666 5.77255 8.55042C5.77386 8.6234 5.77473 8.69683 5.77517 8.77025C5.27781 9.01282 4.78394 9.28073 4.19043 9.03773Z" fill="black"/>
<path fill-rule="evenodd" clip-rule="evenodd" d="M5.77508 8.77025C5.77465 8.69683 5.77377 8.6234 5.77246 8.55041C5.96389 8.49141 6.15663 8.50409 6.3498 8.5373C6.35111 8.57183 6.35242 8.60636 6.35505 8.64088C6.31877 8.90224 6.47218 9.11071 6.57707 9.33404C6.67584 9.54426 6.61422 9.67931 6.35242 9.70641C6.21825 9.50274 6.04212 9.32181 6.04168 9.05564C6.04125 8.91666 5.91101 8.82881 5.77508 8.77025Z" fill="black"/>
<path fill-rule="evenodd" clip-rule="evenodd" d="M9.23242 11.5567C9.23286 11.4749 9.23373 11.3932 9.23373 11.311C9.3749 11.3097 9.55365 11.3596 9.65024 11.2979C10.2175 10.9326 10.3945 11.4177 10.6769 11.6782C10.183 11.7573 9.7158 11.572 9.23242 11.5567Z" fill="black"/>
<path fill-rule="evenodd" clip-rule="evenodd" d="M10.2412 8.5083C10.2434 8.47246 10.2451 8.43619 10.2456 8.40035C10.5301 8.31731 10.7945 8.42308 11.0633 8.47683C11.1739 8.48645 11.2853 8.4965 11.3963 8.50612C10.9763 9.00916 10.6188 9.01047 10.2412 8.5083Z" fill="black"/>
<path fill-rule="evenodd" clip-rule="evenodd" d="M7.50473 11.3111C7.60525 11.3548 7.64371 11.4343 7.65333 11.5305C7.17301 11.5991 6.69051 11.5702 6.20801 11.5611C6.24909 11.3093 6.35966 11.1476 6.67434 11.2569C6.94487 11.3517 7.22721 11.2958 7.50473 11.3111Z" fill="black"/>
<path fill-rule="evenodd" clip-rule="evenodd" d="M12.3827 4.63285C11.8949 4.62105 11.4771 4.5166 11.3818 3.9834C11.7013 4.21853 12.1532 4.27797 12.3827 4.63285Z" fill="black"/>
<path fill-rule="evenodd" clip-rule="evenodd" d="M5.20166 8.55897C5.16101 8.70844 5.05175 8.76876 4.89266 8.76876C4.65972 8.76876 4.4259 8.76919 4.19208 8.76963C4.1912 8.69489 4.19076 8.61929 4.18945 8.54455C4.52685 8.52182 4.86557 8.49735 5.20166 8.55897Z" fill="black"/>
<path fill-rule="evenodd" clip-rule="evenodd" d="M8.51074 11.5484C8.55969 11.4247 8.60908 11.3014 8.65759 11.1777C8.93905 11.1865 8.9491 11.3709 8.94648 11.5628C8.80138 11.5584 8.65628 11.5532 8.51074 11.5484Z" fill="black"/>
<path fill-rule="evenodd" clip-rule="evenodd" d="M11.1045 11.6731C11.3453 11.3655 11.4157 11.3633 11.6853 11.653C11.4935 11.7002 11.2999 11.7129 11.1045 11.6731Z" fill="black"/>
<path fill-rule="evenodd" clip-rule="evenodd" d="M1.59234 8.65022C1.40135 8.82285 1.21211 8.82285 1.02637 8.6441C1.21736 8.46054 1.40573 8.46884 1.59234 8.65022Z" fill="black"/>
<path fill-rule="evenodd" clip-rule="evenodd" d="M13.9835 5.70757C13.6474 5.88676 13.5993 5.66474 13.5508 5.44141C13.7588 5.44054 13.8904 5.54805 13.9835 5.70757Z" fill="black"/>
<path fill-rule="evenodd" clip-rule="evenodd" d="M6.35539 8.64057C6.35277 8.60604 6.35146 8.57195 6.35059 8.53699C6.556 8.49984 6.7601 8.47056 6.93623 8.61784C6.75529 8.89143 6.54638 8.58637 6.35539 8.64057Z" fill="black"/>
<path fill-rule="evenodd" clip-rule="evenodd" d="M13.3931 5.30063C13.1912 5.29669 12.9905 5.29014 12.9766 5.03271C13.1724 5.04583 13.3297 5.11007 13.3931 5.30063Z" fill="black"/>
<path fill-rule="evenodd" clip-rule="evenodd" d="M2.45587 8.65273C2.36803 8.77642 2.27756 8.7821 2.18359 8.65754C2.27188 8.52424 2.36235 8.52599 2.45587 8.65273Z" fill="black"/>
<path fill-rule="evenodd" clip-rule="evenodd" d="M13.123 15.4556C13.1322 15.2668 13.2419 15.1855 13.4417 15.2017C13.401 15.3569 13.2961 15.4438 13.123 15.4556Z" fill="black"/>
<path fill-rule="evenodd" clip-rule="evenodd" d="M14.0004 14.6794C13.9864 14.4866 14.0812 14.3892 14.2919 14.3927C14.2595 14.5452 14.1647 14.6431 14.0004 14.6794Z" fill="black"/>
<path fill-rule="evenodd" clip-rule="evenodd" d="M11.2471 17.1659C11.2868 17.1296 11.3266 17.0929 11.3655 17.0566C11.3603 17.1248 11.3214 17.162 11.2471 17.1659Z" fill="black"/>
<path fill-rule="evenodd" clip-rule="evenodd" d="M14.4258 14.3568C14.4682 14.3218 14.5106 14.2864 14.5525 14.2515C14.5385 14.3161 14.5023 14.3572 14.4258 14.3568Z" fill="black"/>
<path fill-rule="evenodd" clip-rule="evenodd" d="M10.6172 14.6758C10.9122 14.8755 11.1849 15.0394 11.4996 15.1303C11.5796 15.1535 11.6482 15.2431 11.6027 15.348C11.5721 15.4161 11.5075 15.4336 11.4349 15.4476C10.8462 15.5621 10.7151 15.448 10.6172 14.6758Z" fill="black"/>
<path fill-rule="evenodd" clip-rule="evenodd" d="M3.92188 9.99681C4.20597 10.6174 4.30299 10.631 4.69371 10.1629C4.46164 10.1131 4.24049 10.0654 3.92188 9.99681ZM5.77541 8.77002C5.91133 8.82858 6.04157 8.91643 6.04201 9.05541C6.04244 9.32201 6.21857 9.50295 6.35275 9.70618C6.51227 9.87313 6.41393 10.2215 6.78499 10.2416C6.78499 10.3307 6.78455 10.4199 6.78411 10.509C6.55641 10.5256 6.35668 10.4719 6.20415 10.3049C6.03458 10.1188 5.84839 10.1078 5.63905 10.2481C5.37594 10.4242 5.56256 10.5999 5.63249 10.7765C5.4839 11.0186 5.43407 11.3119 4.97473 11.0068C4.58576 10.7485 4.05693 10.6384 3.60721 11.0383C3.53204 11.1047 3.41316 11.1703 3.27636 11.1025C3.15661 10.9496 3.31002 10.8652 3.39917 10.7818C3.5871 10.6047 3.62644 10.4365 3.52242 10.1896C3.28204 9.62008 3.44026 9.35435 4.0884 9.12534C4.12861 9.11135 4.15702 9.06765 4.19067 9.03749C4.78418 9.28049 5.27805 9.01258 5.77541 8.77002Z" fill="black"/>
<path fill-rule="evenodd" clip-rule="evenodd" d="M7.73293 9.36573C7.64509 9.5187 7.54019 9.67778 7.31599 9.65418C7.19842 9.64151 7.09659 9.54448 7.12631 9.4173C7.17744 9.19834 7.36406 9.1695 7.56817 9.18523C7.67918 9.19441 7.73206 9.25603 7.73293 9.36573Z" fill="black"/>
<path fill-rule="evenodd" clip-rule="evenodd" d="M6.78418 10.5088C6.78462 10.4196 6.78505 10.3305 6.78505 10.2413C6.85454 10.2418 6.92404 10.24 6.99265 10.2431C7.15742 10.2509 7.33268 10.2501 7.33486 10.4673C7.33661 10.5857 7.26362 10.6836 7.15349 10.719C6.95638 10.7824 6.86241 10.6478 6.78418 10.5088Z" fill="black"/>
<path fill-rule="evenodd" clip-rule="evenodd" d="M7.89677 10.3613C7.76653 10.3469 7.67431 10.2918 7.70229 10.1979C7.74337 10.0611 7.77571 9.87969 7.99686 9.89717C8.09213 9.90416 8.17255 9.98808 8.17779 10.0746C8.19047 10.2634 8.04537 10.3307 7.89677 10.3613Z" fill="black"/>
<path fill-rule="evenodd" clip-rule="evenodd" d="M6.64711 17.4688C6.85383 17.467 7.06012 17.4718 7.26641 17.4622C7.58021 17.4487 7.66237 17.6139 7.64883 17.8643C7.53082 17.87 7.40408 17.8507 7.30618 17.9303C6.93469 18.2353 6.93556 18.2371 6.43077 18.0575C6.42422 17.8398 6.72053 17.7069 6.64711 17.4688Z" fill="black"/>
<path fill-rule="evenodd" clip-rule="evenodd" d="M3.92188 9.99707C4.24048 10.0657 4.46163 10.1133 4.6937 10.1631C4.30298 10.6312 4.20596 10.6177 3.92188 9.99707Z" fill="black"/>
</svg>
