<svg width="39" height="156" viewBox="0 0 39 156" fill="none" xmlns="http://www.w3.org/2000/svg">
<path fill-rule="evenodd" clip-rule="evenodd" d="M12.363 69.2514C12.1084 67.9448 12.1004 66.6314 12.3004 65.3168C12.987 65.0608 13.0817 64.7661 12.351 64.4168C12.191 63.8368 12.1457 63.2568 12.343 62.6754C13.3377 62.0354 13.1404 61.2714 12.5377 60.4634C12.5324 60.0314 12.531 59.5981 12.527 59.1648C13.1737 58.3301 13.1297 57.4568 12.6537 56.5594C12.515 54.9248 12.4217 53.2928 12.8484 51.6861C13.6017 51.2021 13.5137 50.6034 13.0457 49.9581C13.0497 49.6488 13.0524 49.3394 13.0564 49.0314C13.0964 48.9914 13.1764 48.9408 13.171 48.9114C13.1484 48.8088 13.0964 48.7168 13.0577 48.6181C12.9897 48.0008 12.9737 47.3941 13.3164 46.8461C13.9497 46.3954 13.8817 45.9488 13.3084 45.5048C13.271 44.8848 13.3817 44.3021 13.6937 43.7741C14.299 43.4488 14.2977 43.0034 13.9017 42.4874C13.839 41.5928 13.7364 40.6981 14.035 39.8248C14.599 39.3861 15.2124 38.9661 14.6324 38.0714C14.603 37.3194 14.567 36.5674 14.9057 35.8701C15.3164 35.6874 15.527 35.4461 15.1137 35.0248C15.163 34.7181 15.211 34.4141 15.2577 34.1088C15.767 33.9421 15.8324 33.5368 15.747 33.0501C15.8204 32.5101 15.8937 31.9701 15.967 31.4301C16.035 31.2501 16.1057 31.0688 16.1737 30.8901C16.8577 27.5528 17.5284 24.2181 18.9937 21.1368C19.9417 19.1461 20.8284 17.1181 21.6444 15.0621C22.5177 12.8621 23.519 10.7408 24.687 8.71144C26.2804 5.94744 27.787 3.08077 30.5497 1.4021C30.891 1.19544 31.3057 1.1221 31.687 0.990108C32.5617 2.71144 33.379 4.46876 31.9724 6.2981C30.631 8.04077 30.7337 10.1434 30.5524 12.1861L30.567 12.1781C29.9204 12.2688 29.3124 11.7034 28.6857 11.9234C28.5004 12.5888 29.0617 13.1048 28.6137 13.6941C27.735 14.8528 26.9004 17.4821 26.887 18.8474C26.895 18.9621 26.8644 19.0634 26.7964 19.1514C26.287 19.2461 25.8124 19.3568 26.4004 20.0261C26.3684 20.9514 25.9417 21.6714 25.363 22.3074C24.2284 22.0021 23.551 23.0741 22.643 23.4368C22.1897 23.6168 22.883 24.4714 22.7244 25.0461C22.687 25.1834 22.6777 25.3328 22.6497 25.4754C22.0057 28.6341 21.367 31.7914 20.715 34.9488C20.2204 37.3528 19.6764 39.7354 19.3817 42.1968C19.2124 43.6074 19.4324 45.3154 18.139 46.4408C17.8457 46.6968 18.135 47.0661 18.3297 47.3888C18.9097 48.3434 18.871 49.3421 18.171 50.1914C17.463 51.0514 15.843 51.6474 17.691 52.9968C17.743 53.0341 17.7004 53.2821 17.6484 53.4074C17.395 54.0088 17.519 54.5128 17.8804 55.0301C18.4244 55.8101 18.4297 56.6648 17.939 57.4754C17.655 57.9448 17.4497 58.3434 17.9244 58.8101C18.3897 59.2661 18.199 59.8954 18.2697 60.4608C18.5897 63.0808 18.1884 65.6554 17.8777 68.2381C17.7097 69.6474 17.9377 70.8568 19.315 71.4714C19.5577 72.1941 19.4884 72.9381 19.4324 73.6781C19.2844 74.5341 17.863 75.0661 18.9124 76.2554C19.1097 76.4821 18.8284 76.9928 18.5897 77.2221C17.299 78.4661 17.903 79.7794 18.5644 80.9514C18.963 81.6594 19.2204 82.1528 18.7004 82.8808C18.0444 83.7994 18.3244 84.6181 18.723 85.6621C19.3017 87.1781 20.691 88.5288 19.9857 90.4661C19.931 90.6181 20.0337 90.9341 20.1604 91.0528C20.8324 91.6754 20.703 92.4768 20.6764 93.2794C20.6404 94.3021 19.4524 94.0808 19.207 94.8261C19.4217 95.4634 19.8337 95.8688 20.2737 96.1901C20.8977 96.6434 21.1684 97.1941 21.1324 98.0114C21.0764 99.3208 21.0617 100.619 21.707 101.838C21.987 102.366 21.619 102.619 21.111 102.585C20.7524 102.562 20.3617 102.106 19.9937 102.777C20.591 103.655 19.891 104.986 20.6924 105.801C21.295 106.41 21.5644 106.827 20.9484 107.562C20.7124 107.843 20.643 108.418 20.943 108.537C22.499 109.155 21.8044 110.655 22.047 111.739C22.387 113.261 21.9017 113.855 20.3484 114.211C19.9737 114.298 19.727 114.507 19.559 114.822C19.1684 115.545 18.527 115.379 17.9324 115.401C17.927 115.105 17.9217 114.806 17.9164 114.507C18.4124 114.015 18.3577 113.579 17.8017 113.193C17.7177 112.61 17.6337 112.027 17.5484 111.445C18.079 111.347 19.107 111.579 18.1244 110.465C17.807 110.102 17.9324 109.433 17.3737 109.254C17.1564 108.823 17.0897 108.366 17.1657 107.885C17.4897 107.085 17.8684 106.277 16.819 105.731C16.7004 104.833 16.1724 104.019 16.323 103.061C16.7617 102.346 16.9057 101.705 15.9524 101.338C15.7524 100.757 15.803 100.162 15.8737 99.5648C16.3737 99.1168 16.1244 98.8768 15.663 98.6954C15.3817 97.8354 14.963 97.0114 15.0564 96.0501C15.5164 95.6674 15.3564 95.3981 14.9164 95.1834C14.5604 94.4674 14.651 93.7048 14.7217 92.9448C15.0804 92.5888 14.9577 92.3274 14.5817 92.1141C14.2897 91.0914 14.0804 90.0608 14.311 88.9874C14.703 88.5888 14.515 88.3421 14.1177 88.1528C13.835 87.7554 13.7684 87.3034 13.8364 86.8181C14.3217 86.2914 14.303 85.8501 13.6457 85.5168C13.3017 84.8048 13.3457 84.0528 13.4404 83.2954C13.9057 82.4754 14.1617 81.6888 13.127 81.1194C13.0924 80.6754 13.0577 80.2301 13.023 79.7834C13.5044 79.2581 13.4857 78.8168 12.8337 78.4821C12.475 77.7768 12.5697 77.0181 12.6164 76.2661C13.119 75.3648 13.2257 74.4861 12.4844 73.6581C12.0497 72.6501 12.1564 71.6234 12.3844 70.5914C13.203 70.1314 13.1977 69.6848 12.363 69.2514Z" fill="#C4E86B"/>
<path fill-rule="evenodd" clip-rule="evenodd" d="M17.9324 115.401C18.527 115.379 19.1684 115.546 19.559 114.822C19.7284 114.509 19.9737 114.298 20.3484 114.211C21.903 113.857 22.3884 113.261 22.047 111.739C21.8044 110.655 22.499 109.154 20.943 108.537C20.6444 108.418 20.7136 107.844 20.9496 107.562C21.5656 106.826 21.2949 106.409 20.6936 105.801C19.8909 104.987 20.5924 103.655 19.9937 102.777C20.3617 102.106 20.7522 102.561 21.1122 102.585C21.6189 102.62 21.9882 102.365 21.7082 101.837C21.0629 100.62 21.0764 99.3208 21.1324 98.0114C21.1684 97.1928 20.8977 96.6448 20.2737 96.1901C19.8337 95.8701 19.423 95.4621 19.207 94.8261C19.4537 94.0808 20.6404 94.3008 20.6764 93.2794C20.703 92.4768 20.8324 91.6768 20.1604 91.0528C20.035 90.9341 19.9309 90.6185 19.9869 90.4652C20.6909 88.5292 19.3017 87.1794 18.723 85.6621C18.3244 84.6194 18.0457 83.7994 18.7004 82.8808C19.2217 82.1541 18.963 81.6581 18.5644 80.9514C17.903 79.7781 17.2989 78.4652 18.5909 77.2225C18.8282 76.9932 19.1097 76.4821 18.9124 76.2554C17.863 75.0661 19.2844 74.5341 19.4324 73.6781C19.7137 73.9421 19.7482 74.2932 19.7709 74.6678C19.9136 77.1465 20.1096 79.6225 20.2029 82.0998C20.2762 84.0078 20.6336 85.8452 20.9696 87.7105C21.4549 90.4212 21.5776 93.2065 21.8949 95.9545C22.1042 97.7585 22.1976 99.5852 22.7029 101.341C23.0482 102.54 23.1296 103.781 23.1269 105.027C23.1189 107.015 23.4029 108.961 23.9496 110.845C24.4229 112.472 24.4242 114.167 24.6269 115.815C25.1096 119.708 25.2376 123.65 25.5922 127.568C25.8096 129.972 25.9549 132.37 25.9176 134.785C25.9082 135.384 25.9216 136.007 26.7322 135.971L26.8602 136.1C26.8909 136.8 26.5682 137.687 27.6482 137.827C26.7709 139.055 26.2802 139.205 24.7962 138.765C23.9936 138.528 23.0656 137.88 22.7189 139.409C22.6469 139.74 22.4056 139.953 22.1282 139.725C21.1042 138.879 20.8869 139.629 20.6936 140.512C20.5256 141.275 19.9496 142.143 19.3922 141.868C18.1496 141.248 16.3256 141.549 15.8149 139.588C15.8122 139.21 15.8109 138.832 15.8096 138.454C16.5722 139.046 17.2976 139.706 18.1056 140.213C19.0802 140.825 19.5136 140.573 19.4882 139.393C19.4589 138.012 19.2096 136.633 19.1949 135.252C19.1389 129.842 18.2389 124.493 18.2442 119.079C18.2469 117.852 17.611 116.673 17.9324 115.401Z" fill="#C4E86B"/>
<path fill-rule="evenodd" clip-rule="evenodd" d="M15.8149 139.588C16.3256 141.549 18.1496 141.249 19.3922 141.868C19.9496 142.144 20.5256 141.273 20.6936 140.512C20.8869 139.628 21.1042 138.879 22.1282 139.725C22.4056 139.952 22.6469 139.74 22.7189 139.409C23.0656 137.878 23.9936 138.528 24.7962 138.765C26.2802 139.205 26.7709 139.053 27.6482 137.827C28.7256 137.383 28.947 136.542 28.3723 135.57C28.0176 134.967 28.1203 134.358 28.0043 133.754C28.0203 133.43 28.1163 133.147 28.367 132.945C30.0096 133.231 30.187 131.261 31.3136 130.705C31.971 130.381 31.679 129.557 31.7043 128.933C31.9283 128.778 32.151 128.753 32.3736 128.941C32.671 129.419 33.1456 129.865 33.2323 130.383C33.4363 131.585 33.927 131.829 34.915 131.349C35.231 131.194 35.595 131.329 35.719 131.763C35.8256 132.126 35.831 132.514 35.5416 132.773C35.2376 133.046 34.851 133.214 34.5523 133.493C33.331 134.639 31.5736 135.233 31.239 137.297C31.1616 137.773 30.7616 137.627 30.4163 137.602C29.5203 137.533 29.687 138.197 29.8176 138.757C29.9323 139.239 30.811 138.997 30.6883 139.754C30.339 140.097 29.9496 140.401 29.6536 140.787C29.1616 141.426 29.0603 142.263 29.6856 142.741C30.843 143.625 30.311 144.429 29.619 145.017C28.899 145.63 28.8163 146.282 28.9456 147.119C29.2443 149.069 29.0296 149.417 27.3083 149.689C26.7776 149.771 26.2003 149.655 26.0443 150.454C25.811 151.666 25.5136 151.483 25.075 150.53C24.8843 150.114 24.5043 150.31 24.2256 150.566C23.4403 151.29 23.459 151.743 24.3856 153.059C24.5576 153.306 24.7216 153.542 24.5496 153.821C24.3643 154.122 24.0136 154.091 23.8363 153.898C23.1696 153.179 22.671 152.945 22.2096 154.135C22.023 154.621 21.4056 154.591 21.2496 154.123C20.8923 153.059 20.171 153.199 19.4256 153.273L19.4283 153.282C19.563 152.806 19.7256 152.337 19.8203 151.851C19.915 151.389 19.6576 150.75 19.3483 150.833C18.2496 151.127 17.4763 149.838 16.4083 150.249L16.3043 150.293L16.2083 150.23C15.6656 148.11 15.6656 148.11 13.7923 147.897C14.407 146.857 13.5256 145.931 13.5603 144.895C13.5923 144.078 12.6443 145.095 12.2376 144.638C11.9616 144.325 11.615 144.055 11.423 143.69C11.1123 143.106 10.7696 142.406 10.2443 142.235C8.84298 141.782 8.35365 140.282 7.26032 139.51C6.77098 139.163 7.02698 138.754 7.23632 138.387C7.56298 137.813 7.79232 138.137 8.16165 138.43C9.55231 139.535 10.9176 140.729 12.7736 140.809C12.6643 141.43 12.075 141.673 12.1803 142.273C12.231 142.57 12.2736 142.875 12.567 142.965C13.4176 143.223 13.839 142.269 14.5696 142.103C15.0576 141.993 14.9843 141.442 14.8363 141.005C14.4936 139.994 15.0322 139.694 15.8149 139.588Z" fill="#C4E86B"/>
<path fill-rule="evenodd" clip-rule="evenodd" d="M15.8149 139.588C15.0322 139.694 14.4936 139.994 14.8363 141.005C14.9843 141.442 15.0576 141.993 14.5696 142.103C13.839 142.269 13.4176 143.223 12.567 142.965C12.2736 142.875 12.231 142.57 12.1803 142.273C12.075 141.673 12.6643 141.43 12.7736 140.809C10.9176 140.729 9.55231 139.535 8.16165 138.43C7.79232 138.137 7.56298 137.813 7.23632 138.387C7.02698 138.754 6.77098 139.163 7.26032 139.51C8.35365 140.282 8.84298 141.782 10.2443 142.235C10.7696 142.406 11.1123 143.106 11.423 143.69C11.615 144.055 11.9616 144.325 12.2376 144.638C12.6443 145.095 13.5923 144.078 13.5603 144.895C13.5256 145.931 14.407 146.857 13.791 147.897C13.6883 147.914 13.5857 147.916 13.4817 147.901C10.315 145.945 7.51901 143.4 4.44835 141.285C3.24301 140.456 2.24568 139.337 1.38835 138.109C0.54568 136.905 0.704346 135.477 0.811013 134.094C0.85368 133.54 1.31235 133.258 1.71635 132.982C3.41368 131.82 5.28035 131.734 6.94968 132.71C9.97501 134.48 12.863 136.524 15.8097 138.453C15.811 138.832 15.8122 139.21 15.8149 139.588Z" fill="#C4E86B"/>
<path fill-rule="evenodd" clip-rule="evenodd" d="M19.4256 153.273C20.1723 153.199 20.891 153.058 21.2496 154.123C21.4056 154.591 22.0216 154.621 22.2096 154.135C22.671 152.945 23.171 153.179 23.8363 153.898C24.015 154.091 24.363 154.122 24.5496 153.821C24.7203 153.542 24.5584 153.305 24.385 153.058C23.4584 151.744 23.4416 151.29 24.2256 150.566C24.5056 150.31 24.8856 150.114 25.075 150.53C25.5136 151.483 25.811 151.666 26.0443 150.454C26.199 149.655 26.7776 149.771 27.3083 149.689C29.0283 149.415 29.2456 149.069 28.9456 147.119C28.8163 146.281 28.899 145.63 29.619 145.017C30.311 144.429 30.8443 143.625 29.6856 142.741C29.0603 142.263 29.1616 141.426 29.6536 140.787C29.9496 140.401 30.3403 140.097 30.6883 139.754C30.8123 138.997 29.9323 139.239 29.8176 138.757C29.687 138.197 29.5216 137.533 30.4163 137.602C30.7616 137.627 31.1616 137.773 31.239 137.297C31.5723 135.233 33.331 134.639 34.5523 133.493C34.8523 133.214 35.2376 133.046 35.5416 132.773C35.8296 132.514 35.827 132.126 35.719 131.763C35.595 131.329 35.231 131.194 34.915 131.349C33.927 131.829 33.4376 131.585 33.2323 130.383C33.1456 129.863 32.671 129.419 32.3736 128.941C32.3736 128.941 32.425 128.941 32.4277 128.942C32.725 128.952 33.137 129.081 33.141 128.584C33.1451 128.128 32.7064 128.208 32.421 128.128C33.1904 125.77 34.881 124.476 36.5824 124.946C37.8957 125.309 38.4264 125.894 38.5824 127.345C38.7797 129.216 38.365 130.933 37.4984 132.59C35.5397 136.332 33.7437 140.164 31.9344 143.993C30.509 147.013 29.6397 150.394 27.3704 152.954C26.705 153.705 26.0184 154.402 25.2344 154.946C23.0384 156.469 20.8096 155.791 19.4256 153.273Z" fill="#C4E86B"/>
<path fill-rule="evenodd" clip-rule="evenodd" d="M19.315 71.4714C17.9364 70.8568 17.7097 69.6488 17.8777 68.2381C18.1884 65.6568 18.5897 63.0821 18.2697 60.4608C18.199 59.8968 18.3884 59.2674 17.9244 58.8101C17.4497 58.3448 17.6537 57.9461 17.939 57.4754C18.4297 56.6661 18.4257 55.8101 17.8804 55.0301C17.519 54.5128 17.395 54.0088 17.6484 53.4074C17.7004 53.2834 17.7422 53.0337 17.6916 52.9977C15.8436 51.647 17.4636 51.051 18.1716 50.1924C18.8716 49.3417 18.911 48.3448 18.3297 47.3888C18.135 47.0661 17.8457 46.6968 18.139 46.4408C19.431 45.3168 19.2137 43.6074 19.3817 42.1968C19.6777 39.7368 20.2209 37.3537 20.7156 34.9497C21.3676 31.791 22.007 28.6341 22.6497 25.4754C22.679 25.3328 22.6876 25.1844 22.7249 25.047C22.8836 24.471 22.1884 23.6181 22.643 23.4368C23.551 23.0741 24.2284 22.0021 25.363 22.3074C25.219 23.0194 25.0409 23.7044 24.7542 24.3804C23.6102 27.0937 22.6249 29.8484 22.1022 32.819C21.6142 35.5964 20.9649 38.3537 20.3156 41.103C19.5009 44.5617 19.2796 48.147 19.3702 51.735C19.4422 54.503 19.0969 57.2737 19.1289 60.019C19.1742 63.8337 18.9297 67.6621 19.315 71.4714Z" fill="#C4E86B"/>
<path fill-rule="evenodd" clip-rule="evenodd" d="M30.5524 12.1861C30.7337 10.1434 30.631 8.04077 31.9724 6.2981C33.3777 4.46877 32.563 2.71144 31.687 0.990108C33.355 0.775442 33.8852 1.11655 34.1239 2.60588C34.3266 3.86321 34.1972 5.07521 33.5772 6.18588C32.6039 7.93388 31.6959 9.71121 31.1692 11.6859C31.0892 11.9872 30.8284 12.1181 30.5524 12.1861Z" fill="#C4E86B"/>
<path fill-rule="evenodd" clip-rule="evenodd" d="M26.887 18.8474C26.9004 17.4821 27.735 14.8541 28.6137 13.6941C29.0617 13.1048 28.5004 12.5874 28.6857 11.9234C29.3124 11.7034 29.9204 12.2674 30.567 12.1781C30.4644 12.5874 30.4619 13.0733 30.2459 13.3987C29.1659 15.0253 28.2112 16.7267 27.3859 18.5187C27.3125 18.6787 27.0577 18.7394 26.887 18.8474Z" fill="#C4E86B"/>
<path fill-rule="evenodd" clip-rule="evenodd" d="M16.4083 150.249C17.4763 149.838 18.2496 151.129 19.3483 150.833C19.6576 150.751 19.915 151.387 19.8203 151.851C19.7243 152.335 19.5616 152.806 19.4283 153.282C17.7856 153.003 17.315 151.375 16.4083 150.249Z" fill="#C4E86B"/>
<path fill-rule="evenodd" clip-rule="evenodd" d="M31.7043 128.933C31.6776 129.558 31.9709 130.381 31.3136 130.706C30.1869 131.262 30.0096 133.231 28.367 132.945C29.3603 131.491 30.2163 129.907 31.7043 128.933Z" fill="#C4E86B"/>
<path fill-rule="evenodd" clip-rule="evenodd" d="M28.0043 133.754C28.1203 134.358 28.0176 134.967 28.3723 135.57C28.947 136.542 28.7256 137.383 27.6482 137.827C27.5496 137.164 27.9736 136.227 26.8602 136.1L26.7322 135.971C27.0349 135.149 27.3483 134.337 28.0043 133.754Z" fill="#C4E86B"/>
<path fill-rule="evenodd" clip-rule="evenodd" d="M13.4817 147.901C13.5857 147.916 13.6883 147.914 13.791 147.897C15.6657 148.11 15.6654 148.11 16.2081 150.231C15.0121 149.843 14.4363 148.616 13.4817 147.901Z" fill="#C4E86B"/>
<path fill-rule="evenodd" clip-rule="evenodd" d="M17.3737 109.254C17.9324 109.433 17.8084 110.103 18.1244 110.465C19.107 111.579 18.079 111.347 17.5484 111.445C16.9444 110.765 17.131 110.013 17.3737 109.254Z" fill="#C4E86B"/>
<path fill-rule="evenodd" clip-rule="evenodd" d="M12.4844 73.6581C13.227 74.4861 13.1204 75.3648 12.6164 76.2661C11.9644 75.4328 12.2524 74.5434 12.4844 73.6581Z" fill="#C4E86B"/>
<path fill-rule="evenodd" clip-rule="evenodd" d="M12.6537 56.5594C13.1284 57.4568 13.1737 58.3301 12.527 59.1648C12.115 58.2701 12.0457 57.3954 12.6537 56.5594Z" fill="#C4E86B"/>
<path fill-rule="evenodd" clip-rule="evenodd" d="M12.5377 60.4634C13.1404 61.2714 13.3382 62.0353 12.3435 62.6766C12.1902 61.9179 12.0657 61.1608 12.5377 60.4634Z" fill="#C4E86B"/>
<path fill-rule="evenodd" clip-rule="evenodd" d="M16.819 105.731C17.8684 106.275 17.4897 107.086 17.1657 107.885C16.531 107.263 16.7337 106.487 16.819 105.731Z" fill="#C4E86B"/>
<path fill-rule="evenodd" clip-rule="evenodd" d="M13.4404 83.2954C13.9057 82.4754 14.1617 81.6888 13.127 81.1194C13.051 81.8741 12.859 82.6501 13.4404 83.2954Z" fill="#C4E86B"/>
<path fill-rule="evenodd" clip-rule="evenodd" d="M16.323 103.061C16.7617 102.346 16.9057 101.705 15.9524 101.338C15.923 101.951 15.7777 102.593 16.323 103.061Z" fill="#C4E86B"/>
<path fill-rule="evenodd" clip-rule="evenodd" d="M14.6324 38.0714C15.2137 38.9648 14.6 39.3854 14.036 39.8241C13.812 39.0747 14.1617 38.5488 14.6324 38.0714Z" fill="#C4E86B"/>
<path fill-rule="evenodd" clip-rule="evenodd" d="M13.0457 49.9581C13.5137 50.6034 13.6017 51.2034 12.8484 51.6861C12.6297 51.0728 12.531 50.4741 13.0457 49.9581Z" fill="#C4E86B"/>
<path fill-rule="evenodd" clip-rule="evenodd" d="M13.3084 45.5048C13.8817 45.9488 13.9491 46.3963 13.3157 46.847C13.0611 46.4017 12.975 45.9554 13.3084 45.5048Z" fill="#C4E86B"/>
<path fill-rule="evenodd" clip-rule="evenodd" d="M12.3844 70.5914C13.203 70.1314 13.1977 69.6848 12.363 69.2514C12.223 69.7008 12.227 70.1474 12.3844 70.5914Z" fill="#C4E86B"/>
<path fill-rule="evenodd" clip-rule="evenodd" d="M12.8337 78.4821C13.4857 78.8154 13.5044 79.2581 13.023 79.7834C12.591 79.4128 12.631 78.9594 12.8337 78.4821Z" fill="#C4E86B"/>
<path fill-rule="evenodd" clip-rule="evenodd" d="M13.6457 85.5168C14.3044 85.8501 14.3217 86.2925 13.8363 86.8192C13.447 86.4392 13.3924 86.0048 13.6457 85.5168Z" fill="#C4E86B"/>
<path fill-rule="evenodd" clip-rule="evenodd" d="M17.8017 113.193C18.359 113.579 18.4133 114.015 17.9173 114.507C17.4613 114.112 17.479 113.667 17.8017 113.193Z" fill="#C4E86B"/>
<path fill-rule="evenodd" clip-rule="evenodd" d="M13.6937 43.7741C14.299 43.4488 14.2977 43.0034 13.9017 42.4874C13.631 42.8781 13.3884 43.2754 13.6937 43.7741Z" fill="#C4E86B"/>
<path fill-rule="evenodd" clip-rule="evenodd" d="M32.421 128.128C32.705 128.208 33.1464 128.128 33.141 128.584C33.1384 129.08 32.7257 128.952 32.4284 128.941C32.2777 128.67 32.3197 128.4 32.421 128.128Z" fill="#C4E86B"/>
<path fill-rule="evenodd" clip-rule="evenodd" d="M15.747 33.0501C15.8324 33.5368 15.7684 33.9408 15.2577 34.1088C15.0364 33.5488 15.3684 33.2874 15.747 33.0501Z" fill="#C4E86B"/>
<path fill-rule="evenodd" clip-rule="evenodd" d="M26.4004 20.0261C25.8124 19.3568 26.2884 19.2461 26.7964 19.1514C26.8257 19.5288 26.727 19.8394 26.4004 20.0261Z" fill="#C4E86B"/>
<path fill-rule="evenodd" clip-rule="evenodd" d="M15.1137 35.0248C15.527 35.4448 15.3177 35.6874 14.9057 35.8701C14.7324 35.5181 14.7764 35.2288 15.1137 35.0248Z" fill="#C4E86B"/>
<path fill-rule="evenodd" clip-rule="evenodd" d="M14.1177 88.1528C14.5137 88.3421 14.703 88.5888 14.311 88.9874C13.951 88.7888 13.915 88.5034 14.1177 88.1528Z" fill="#C4E86B"/>
<path fill-rule="evenodd" clip-rule="evenodd" d="M12.351 64.4168C13.083 64.7661 12.9884 65.0594 12.3004 65.3168C12.2004 65.0088 12.203 64.7088 12.351 64.4168Z" fill="#C4E86B"/>
<path fill-rule="evenodd" clip-rule="evenodd" d="M15.8737 99.5648C16.3737 99.1168 16.1244 98.8768 15.663 98.6954C15.4977 99.0514 15.5524 99.3461 15.8737 99.5648Z" fill="#C4E86B"/>
<path fill-rule="evenodd" clip-rule="evenodd" d="M15.0564 96.0501C15.5164 95.6674 15.3564 95.3981 14.9164 95.1834C14.723 95.5181 14.7577 95.8101 15.0564 96.0501Z" fill="#C4E86B"/>
<path fill-rule="evenodd" clip-rule="evenodd" d="M14.7217 92.9448C15.0804 92.5888 14.9577 92.3274 14.5817 92.1141C14.255 92.4634 14.319 92.7341 14.7217 92.9448Z" fill="#C4E86B"/>
<path fill-rule="evenodd" clip-rule="evenodd" d="M16.1737 30.8901C16.1057 31.0701 16.0364 31.2514 15.967 31.4301C15.8844 31.1821 16.0004 31.0221 16.1737 30.8901Z" fill="#C4E86B"/>
<path fill-rule="evenodd" clip-rule="evenodd" d="M13.0577 48.6181C13.0964 48.7168 13.1484 48.8088 13.171 48.9114C13.1764 48.9408 13.0964 48.9914 13.0564 49.0314C12.975 48.8928 12.975 48.7568 13.0577 48.6181Z" fill="#C4E86B"/>
<path fill-rule="evenodd" clip-rule="evenodd" d="M26.8602 136.1C27.9736 136.225 27.5496 137.165 27.6482 137.827C26.5669 137.687 26.8909 136.8 26.8602 136.1Z" fill="#C4E86B"/>
</svg>
