<svg width="35" height="16" viewBox="0 0 35 16" fill="none" xmlns="http://www.w3.org/2000/svg">
<path fill-rule="evenodd" clip-rule="evenodd" d="M28.7616 5.76019C28.2067 5.39371 27.673 4.9796 27.0916 4.67159C26.1118 4.15084 25.23 3.47094 24.3476 2.79645C23.4561 2.1133 23.318 1.27533 23.8837 0.501244C24.2561 -0.00759983 24.883 -0.154839 25.5959 0.178617C26.0658 0.397852 26.4988 0.708029 26.946 0.980855C27.7904 1.49673 28.6999 1.88757 29.4945 2.50143C29.6326 2.60861 29.7917 2.74015 29.9492 2.75369C30.8511 2.82947 31.6171 3.40219 32.4907 3.54726C33.0472 3.63929 33.5155 3.9473 34.0037 4.18224C34.8011 4.56495 35.2802 6.69397 34.8211 7.50054C34.715 7.68892 34.5884 7.89787 34.3946 7.93847C33.5328 8.12144 33.1447 8.87333 32.7203 9.5554C31.8146 11.0132 30.9436 12.4964 30.0591 13.971C29.4756 14.9453 28.9213 15.2117 27.9084 14.9984C26.737 14.7537 26.2704 13.6754 26.8626 12.55C27.116 12.0688 27.3633 11.574 27.6838 11.1447C28.1926 10.461 28.4124 9.61224 28.872 8.90311C29.095 8.55828 29.0025 8.40671 28.6284 8.35962C28.544 8.34933 28.4536 8.33688 28.3718 8.35529C26.8307 8.71256 25.2917 8.22104 23.7516 8.34338C23.0869 8.39589 22.4395 8.19831 21.7958 8.09545C20.8014 7.93576 19.794 8.1144 18.8072 7.8459C18.471 7.7555 18.0764 7.93522 17.7072 7.96067C15.8153 8.09275 13.9586 8.46247 12.1679 9.11476C10.4898 9.727 8.88963 10.5341 7.40154 11.6086C6.57439 12.2063 5.64061 12.6361 4.88601 13.3625C4.54498 13.6911 4.19312 14.0083 3.8602 14.3472C2.84793 15.38 1.49517 15.2512 0.439588 14.6173C-0.103899 14.2909 -0.144499 13.4172 0.323745 12.74C0.475857 12.5191 0.668568 12.3259 0.860737 12.1413C2.27034 10.7875 3.68265 9.43577 5.30716 8.37315C6.53109 7.57362 7.79562 6.88127 9.12186 6.27824C10.5569 5.62594 12.0325 5.18639 13.5336 4.80043C13.6722 4.7647 13.8124 4.7176 13.9537 4.71165C16.2116 4.60555 18.4683 4.28184 20.7278 4.54113C22.4606 4.74034 24.1717 5.11764 25.8736 5.51876C26.8199 5.74124 27.7699 5.86358 28.7264 5.96535C28.7383 5.8966 28.7497 5.8284 28.7616 5.76019Z" fill="#C4E86B"/>
</svg>
