<svg width="74" height="73" viewBox="0 0 74 73" fill="none" xmlns="http://www.w3.org/2000/svg">
<path d="M73.088 18.816H72.064C71.9787 19.1573 71.8933 19.5413 71.808 19.968C71.7227 20.3093 71.936 20.5653 72.448 20.736C71.5093 21.4187 70.8267 22.1013 70.4 22.784C69.9733 23.3813 69.3333 23.68 68.48 23.68C67.0293 23.68 65.28 23.68 63.232 23.68C61.2693 23.68 59.264 23.7227 57.216 23.808C55.168 23.8933 53.2053 24.0213 51.328 24.192C49.4507 24.3627 47.9573 24.6187 46.848 24.96C46.5067 26.0693 46.1653 27.264 45.824 28.544C45.568 29.7387 45.2693 31.0187 44.928 32.384C45.3547 32.896 46.1227 33.2373 47.232 33.408C48.4267 33.4933 49.4933 33.536 50.432 33.536C50.944 33.536 51.3707 33.4507 51.712 33.28C52.0533 33.024 52.4373 32.896 52.864 32.896C53.2053 32.896 54.3147 32.9813 56.192 33.152C58.1547 33.3227 59.776 33.4933 61.056 33.664C61.4827 33.8347 61.952 34.176 62.464 34.688C62.976 35.2 63.232 35.6693 63.232 36.096C63.232 36.4373 63.0613 36.8213 62.72 37.248C62.464 37.5893 62.2507 37.9307 62.08 38.272V38.4C62.08 38.4853 62.08 38.5707 62.08 38.656C62.1653 38.7413 62.208 38.8267 62.208 38.912V39.424H60.8C60.4587 39.8507 59.9467 40.32 59.264 40.832C58.5813 41.2587 57.9413 41.6427 57.344 41.984C57.1733 42.24 56.7893 42.368 56.192 42.368C55.68 42.368 55.2533 42.3253 54.912 42.24L54.784 42.368C54.6987 42.4533 54.656 42.5813 54.656 42.752C53.632 42.9227 52.608 43.136 51.584 43.392C50.6453 43.648 49.7067 43.904 48.768 44.16C47.8293 44.3307 46.7627 44.3733 45.568 44.288C44.4587 44.2027 43.264 44.16 41.984 44.16C40.8747 46.2933 40.32 47.9147 40.32 49.024C40.32 50.1333 40.1067 51.9253 39.68 54.4C39.424 55.7653 39.04 57.5573 38.528 59.776C38.016 61.9947 37.4613 63.7013 36.864 64.896C36.5227 65.0667 36.1813 65.4933 35.84 66.176C35.584 66.944 35.4987 67.584 35.584 68.096C35.4133 67.9253 35.2427 67.9253 35.072 68.096C34.9867 68.2667 34.944 68.4373 34.944 68.608C34.688 68.608 34.5173 68.5227 34.432 68.352C34.432 68.1813 34.304 68.0107 34.048 67.84C33.1947 68.2667 32.8533 68.9493 33.024 69.888C33.1947 70.912 33.024 71.6373 32.512 72.064C32.6827 71.7227 32.768 71.3387 32.768 70.912C32.8533 70.5707 32.768 70.272 32.512 70.016C31.744 68.3093 31.2747 67.0293 31.104 66.176C31.0187 65.408 30.9333 64.5973 30.848 63.744C30.1653 63.488 29.824 62.7627 29.824 61.568C29.824 60.9707 29.7813 60.288 29.696 59.52C29.6107 58.752 29.568 58.1547 29.568 57.728C29.568 57.0453 29.6107 56.6613 29.696 56.576C29.7813 56.4053 29.824 55.68 29.824 54.4C29.824 52.352 29.9093 50.9013 30.08 50.048C30.336 49.1947 30.6347 47.744 30.976 45.696C30.72 45.5253 30.6347 45.3973 30.72 45.312C30.8907 45.2267 30.72 45.184 30.208 45.184C29.8667 45.184 28.8427 45.312 27.136 45.568C25.5147 45.7387 23.8933 45.8667 22.272 45.952C22.1013 46.1227 22.016 46.2507 22.016 46.336C22.1013 46.4213 21.9307 46.464 21.504 46.464C20.992 46.464 20.6507 46.4213 20.48 46.336C20.3093 46.2507 20.0107 46.208 19.584 46.208C18.1333 46.208 17.2373 46.5493 16.896 47.232C16.5547 47.9147 16.2987 49.1093 16.128 50.816C15.7867 50.816 15.5307 50.944 15.36 51.2C15.1893 52.48 14.976 53.8027 14.72 55.168C14.464 56.448 14.1653 57.472 13.824 58.24C13.568 58.496 13.312 58.7947 13.056 59.136C12.8 59.392 12.544 59.776 12.288 60.288C12.032 60.8853 11.8613 61.6107 11.776 62.464C11.776 63.232 11.776 63.9147 11.776 64.512C11.52 64.1707 11.4347 63.8293 11.52 63.488C11.6907 63.1467 11.4773 62.8053 10.88 62.464C10.624 61.3547 10.496 60.1173 10.496 58.752C10.496 57.3013 10.496 55.808 10.496 54.272V54.144C10.496 54.144 10.4107 54.016 10.24 53.76C10.4107 52.6507 10.5387 51.5413 10.624 50.432C10.7947 49.2373 10.88 48.0427 10.88 46.848C10.112 46.592 9.216 46.464 8.192 46.464C7.25333 46.464 6.528 46.464 6.016 46.464C5.58933 46.464 4.82133 46.0373 3.712 45.184C2.60267 44.3307 1.57867 43.6053 0.64 43.008C0.64 42.8373 0.896 42.496 1.408 41.984C1.06667 41.8133 0.810667 41.5147 0.64 41.088C0.469333 40.6613 0.256 40.2773 0 39.936V38.784C0.256 38.784 0.469333 38.656 0.64 38.4C0.810667 38.144 1.10933 38.016 1.536 38.016C2.048 38.016 2.304 37.76 2.304 37.248C2.38933 36.6507 2.47467 36.352 2.56 36.352H3.84C4.18133 36.0107 4.05333 35.84 3.456 35.84C3.712 35.84 3.84 35.712 3.84 35.456C3.84 35.1147 4.05333 34.944 4.48 34.944C4.992 34.944 5.16267 35.072 4.992 35.328C4.90667 35.4987 5.07733 35.584 5.504 35.584C6.016 35.584 6.86933 35.5413 8.064 35.456C9.25867 35.3707 10.4533 35.2 11.648 34.944C11.8187 34.3467 11.9467 33.792 12.032 33.28C12.2027 32.768 12.416 31.9573 12.672 30.848C12.0747 30.592 11.4347 30.5493 10.752 30.72C10.1547 30.8907 9.64267 30.976 9.216 30.976C8.36267 30.976 7.76533 30.976 7.424 30.976C7.08267 30.976 6.784 30.9333 6.528 30.848C6.35733 30.6773 6.05867 30.464 5.632 30.208C5.20533 29.8667 4.48 29.3547 3.456 28.672C2.77333 28.2453 2.304 27.5627 2.048 26.624C1.87733 25.6853 1.408 24.8747 0.64 24.192C0.810667 23.7653 1.10933 23.3387 1.536 22.912C2.048 22.4853 2.47467 22.016 2.816 21.504C2.98667 21.504 3.2 21.504 3.456 21.504C3.712 21.504 3.92533 21.4187 4.096 21.248C4.608 21.0773 4.736 20.6933 4.48 20.096C4.736 20.352 5.07733 20.48 5.504 20.48C6.016 20.48 6.48533 20.48 6.912 20.48C7.33867 20.48 7.68 20.352 7.936 20.096C8.27733 19.7547 8.61867 19.4987 8.96 19.328C10.24 19.1573 11.4347 19.072 12.544 19.072C13.7387 19.072 14.8053 18.7733 15.744 18.176C16.0853 17.92 16.4693 17.1947 16.896 16C17.408 14.72 17.8347 13.7387 18.176 13.056C18.7733 11.776 19.4987 10.4107 20.352 8.96C21.2053 7.424 22.016 6.016 22.784 4.736C23.04 4.48 23.3387 4.30933 23.68 4.224C24.1067 4.05333 24.448 3.75467 24.704 3.328C24.96 3.072 25.088 2.73067 25.088 2.304C25.1733 1.792 25.472 1.536 25.984 1.536C26.4107 1.536 26.496 1.62133 26.24 1.792C26.0693 1.87733 26.0693 2.048 26.24 2.304C26.5813 2.048 26.88 1.74933 27.136 1.408C27.4773 1.06667 27.776 0.768 28.032 0.512001C28.288 0.853335 28.5013 1.19467 28.672 1.536C28.8427 1.87733 28.928 2.304 28.928 2.816C28.928 3.24267 28.8427 3.66933 28.672 4.096C28.5013 4.52267 28.288 4.992 28.032 5.504C27.776 5.76 27.776 6.144 28.032 6.656C28.288 7.08267 28.288 7.424 28.032 7.68C27.6907 8.53333 27.2213 9.472 26.624 10.496C26.0267 11.4347 25.728 12.16 25.728 12.672V16.128C25.984 16.384 26.112 16.5547 26.112 16.64C26.112 16.64 26.3253 16.64 26.752 16.64C27.0933 16.64 27.8187 16.4693 28.928 16.128C30.1227 15.7867 31.1893 15.5307 32.128 15.36C33.0667 15.1893 34.0907 15.0187 35.2 14.848C36.3093 14.6773 37.4187 14.592 38.528 14.592C39.7227 11.3493 40.6613 8.23467 41.344 5.248C41.856 4.90667 42.24 4.352 42.496 3.584C42.752 2.73067 43.0933 2.00533 43.52 1.408C43.776 1.152 44.2027 0.981335 44.8 0.896C45.4827 0.810668 45.6533 0.512001 45.312 0C45.6533 0.255999 46.08 0.383999 46.592 0.383999C47.104 0.383999 47.5733 0.512 48 0.768002C48.1707 1.10933 48.2987 1.45067 48.384 1.792C48.4693 2.13333 48.5973 2.47467 48.768 2.816C48.9387 3.584 49.0667 4.608 49.152 5.888C49.2373 7.08267 49.28 8.27733 49.28 9.472C49.28 10.5813 49.28 11.5627 49.28 12.416C49.3653 13.184 49.536 13.568 49.792 13.568C50.1333 13.568 51.1147 13.5253 52.736 13.44C54.3573 13.2693 55.3813 13.184 55.808 13.184C56.832 13.184 58.0267 13.2267 59.392 13.312C60.8427 13.312 62.2507 13.44 63.616 13.696C64.9813 13.952 66.304 14.2507 67.584 14.592C68.864 14.9333 69.888 15.3173 70.656 15.744C70.9973 16 71.3387 16.512 71.68 17.28C72.0213 17.9627 72.4907 18.4747 73.088 18.816ZM34.944 28.032V26.496C33.3227 26.752 31.744 27.0933 30.208 27.52C28.7573 27.8613 27.3493 28.16 25.984 28.416C24.5333 28.5867 23.3387 28.8427 22.4 29.184C21.5467 29.5253 21.12 30.848 21.12 33.152C21.12 33.664 21.12 33.92 21.12 33.92C21.12 33.92 21.248 34.048 21.504 34.304H26.24C26.5813 34.304 27.0933 34.176 27.776 33.92C28.544 33.664 29.0987 33.536 29.44 33.536C29.8667 33.536 30.5067 33.4933 31.36 33.408C32.2133 33.2373 32.9387 33.0667 33.536 32.896C33.792 31.9573 34.0907 31.0187 34.432 30.08C34.8587 29.056 35.0293 28.3733 34.944 28.032Z" fill="#C4E86B"/>
</svg>
