<svg width="398" height="91" viewBox="0 0 398 91" fill="none" xmlns="http://www.w3.org/2000/svg">
<path d="M74.4173 15.77C70.1573 15.9902 65.8907 16.2043 61.6307 16.4122C65.7968 16.0038 70.0858 15.8044 74.4173 15.77ZM330.583 48.8851C337.72 48.4496 344.854 47.987 351.985 47.5047C350.507 49.0635 348.843 50.4416 347.03 51.6547C341.542 50.743 336.063 49.8178 330.583 48.8851ZM90.9674 7.07626C75.4012 7.68529 59.8149 8.03225 44.2175 8.33123C65.1192 7.12917 86.0187 6.0243 106.929 5.13106C110.908 5.10891 114.886 5.11507 118.864 5.07446C109.532 5.64165 100.216 6.34666 90.9674 7.07626ZM2.1054 42.6091C3.86529 50.2656 10.0439 56.4962 18.2463 60.6129C17.7185 60.7138 17.1841 60.7963 16.6563 60.9008C9.86054 62.1866 8.42266 67.722 10.6656 71.9839C10.1155 72.0947 9.56536 72.1882 9.01525 72.3026C-2.50787 74.7338 1.30485 88.7279 12.5104 88.5581C126.208 86.8368 239.988 95.3263 353.542 86.9734C362.873 86.2856 365.143 77.6584 360.943 73.0851C370.11 73.56 379.276 74.0472 388.42 74.5517C399.94 75.1816 401.656 59.4847 390.356 58.0919C383.507 57.2467 376.686 56.2956 369.877 55.2781C373.003 51.5501 375.646 47.2192 377.637 42.1317C378.252 40.5618 378.073 38.9561 377.379 37.4957C376.95 34.3558 374.437 31.2762 369.908 29.9351C361.431 27.4289 352.792 25.6092 344.044 24.2632C344.125 22.9947 343.803 21.7335 343.192 20.5709C346.484 20.4638 349.798 20.3703 353.076 20.2534C366.324 19.7871 365.387 3.6534 352.283 3.60049C326.501 3.49222 300.745 4.02374 275.004 4.93298C251.468 4.97973 227.932 4.75826 204.396 4.35716C160.102 3.60418 115.373 -0.597504 71.1457 0.0718155C46.5118 0.443382 9.75767 8.47887 2.63986 31.3759C2.57054 31.5998 2.55712 31.8151 2.49227 32.0427C-0.888863 34.7323 -0.642883 39.3326 2.1054 42.6091Z" fill="#C4E86B"/>
</svg>
