<svg width="65" height="65" viewBox="0 0 65 65" fill="none" xmlns="http://www.w3.org/2000/svg">
<path fill-rule="evenodd" clip-rule="evenodd" d="M32.5 0C14.5507 0 0 14.5507 0 32.5C0 50.4493 14.5507 65 32.5 65C50.4493 65 65 50.4493 65 32.5C65 14.5507 50.4493 0 32.5 0ZM25.3544 15.2714C27.2033 15.1873 27.7941 15.1667 32.5016 15.1667H32.4962C37.2051 15.1667 37.7938 15.1873 39.6427 15.2714C41.488 15.3559 42.7483 15.648 43.8533 16.0767C44.9944 16.519 45.9586 17.1113 46.9227 18.0754C47.8869 19.0389 48.4791 20.006 48.9233 21.146C49.3494 22.2481 49.6419 23.5077 49.7286 25.353C49.8117 27.2019 49.8333 27.7927 49.8333 32.5002C49.8333 37.2077 49.8117 37.797 49.7286 39.6459C49.6419 41.4905 49.3494 42.7504 48.9233 43.8529C48.4791 44.9926 47.8869 45.9597 46.9227 46.9231C45.9596 47.8873 44.994 48.481 43.8544 48.9237C42.7515 49.3523 41.4905 49.6445 39.6452 49.729C37.7963 49.8131 37.2073 49.8337 32.4995 49.8337C27.7923 49.8337 27.2019 49.8131 25.353 49.729C23.5081 49.6445 22.2481 49.3523 21.1453 48.9237C20.006 48.481 19.0389 47.8873 18.0758 46.9231C17.112 45.9597 16.5198 44.9926 16.0767 43.8526C15.6484 42.7504 15.3563 41.4909 15.2714 39.6456C15.1876 37.7967 15.1667 37.2077 15.1667 32.5002C15.1667 27.7927 15.1883 27.2015 15.271 25.3526C15.3541 23.5081 15.6466 22.2481 16.0763 21.1456C16.5205 20.006 17.1127 19.0389 18.0769 18.0754C19.0403 17.1116 20.0074 16.5194 21.1475 16.0767C22.2496 15.648 23.5091 15.3559 25.3544 15.2714Z" fill="#C4E86B"/>
<path fill-rule="evenodd" clip-rule="evenodd" d="M30.9469 18.2903C31.2488 18.2898 31.5736 18.29 31.9241 18.2901L32.5019 18.2903C37.1299 18.2903 37.6784 18.3069 39.506 18.39C41.1961 18.4673 42.1133 18.7497 42.7243 18.9869C43.5332 19.3011 44.1099 19.6766 44.7162 20.2833C45.3229 20.89 45.6984 21.4678 46.0133 22.2767C46.2506 22.8869 46.5333 23.8042 46.6103 25.4942C46.6933 27.3214 46.7114 27.8703 46.7114 32.4962C46.7114 37.1221 46.6933 37.671 46.6103 39.4982C46.533 41.1882 46.2506 42.1055 46.0133 42.7158C45.6992 43.5247 45.3229 44.1006 44.7162 44.7069C44.1095 45.3136 43.5336 45.6892 42.7243 46.0034C42.114 46.2417 41.1961 46.5234 39.506 46.6006C37.6788 46.6837 37.1299 46.7017 32.5019 46.7017C27.8735 46.7017 27.3249 46.6837 25.4977 46.6006C23.8077 46.5226 22.8904 46.2402 22.2791 46.003C21.4702 45.6888 20.8924 45.3133 20.2857 44.7066C19.679 44.0999 19.3035 43.5236 18.9886 42.7143C18.7513 42.104 18.4686 41.1868 18.3917 39.4968C18.3086 37.6695 18.292 37.1206 18.292 32.4919C18.292 27.8631 18.3086 27.3171 18.3917 25.4899C18.4689 23.7998 18.7513 22.8826 18.9886 22.2716C19.3028 21.4627 19.679 20.8849 20.2857 20.2783C20.8924 19.6716 21.4702 19.296 22.2791 18.9811C22.8901 18.7428 23.8077 18.4611 25.4977 18.3835C27.0967 18.3113 27.7164 18.2896 30.9469 18.286V18.2903ZM41.7543 21.1684C40.606 21.1684 39.6743 22.099 39.6743 23.2477C39.6743 24.396 40.606 25.3277 41.7543 25.3277C42.9027 25.3277 43.8344 24.396 43.8344 23.2477C43.8344 22.0994 42.9027 21.1677 41.7543 21.1677V21.1684ZM23.6004 32.5002C23.6004 27.5843 27.586 23.5987 32.5019 23.5987H32.5015C37.4174 23.5987 41.4019 27.5843 41.4019 32.5002C41.4019 37.416 37.4177 41.3999 32.5019 41.3999C27.586 41.3999 23.6004 37.416 23.6004 32.5002Z" fill="#C4E86B"/>
<path d="M32.5015 26.7224C35.6923 26.7224 38.2793 29.309 38.2793 32.5002C38.2793 35.691 35.6923 38.278 32.5015 38.278C29.3103 38.278 26.7236 35.691 26.7236 32.5002C26.7236 29.309 29.3103 26.7224 32.5015 26.7224Z" fill="#C4E86B"/>
</svg>
