<svg width="335" height="138" viewBox="0 0 335 138" fill="none" xmlns="http://www.w3.org/2000/svg">
<path d="M40.7741 77.4984C40.6166 77.4984 40.6166 77.3405 40.4592 77.1827C40.1444 77.0249 39.9869 77.0249 39.9869 77.0249C39.3572 77.6562 39.5146 80.4973 37.1532 80.4973L10.2329 83.0227C2.67629 83.0227 5.66744 81.2865 0 74.0259C0.629716 73.3946 1.41686 72.4476 1.41686 71.1849C3.30601 71.027 3.93572 69.133 5.66744 68.3438C6.76944 68.8173 7.0843 69.9222 8.34373 69.9222C9.13087 69.9222 11.02 69.6065 12.7517 69.6065C15.2706 69.133 15.1132 69.4486 17.0023 68.9751C18.8915 68.3438 20.1509 67.8703 21.2529 67.8703C22.04 67.8703 23.2995 68.0281 24.5589 68.1859C25.8183 68.1859 27.7075 67.2389 31.3283 68.0281C34.0046 68.6595 37.6255 69.133 40.1444 72.2897C38.8849 73.7103 40.3018 75.6043 40.7741 77.4984Z" fill="#C4E86B"/>
<path d="M106.649 70.5535C106.649 83.3384 94.5274 103.384 82.248 110.171C81.4608 110.644 78.942 110.486 78.1548 110.486V110.171C77.5251 109.539 77.3677 109.855 76.2657 109.855H75.0062C72.8022 106.856 68.5517 99.9113 68.5517 99.28C68.5517 98.4908 69.8111 96.9124 71.2279 96.1232C71.2279 95.3341 70.9131 95.0184 70.1259 95.0184C70.2834 95.0184 71.0705 95.6497 71.8577 95.6497C72.9597 95.6497 75.1637 92.8086 77.0528 91.3881C85.2391 84.6011 89.3323 75.1308 90.7491 67.7124C87.758 67.2389 84.1371 68.9751 79.8865 72.6054C77.5251 74.1838 74.2191 80.9708 73.2745 80.9708C72.1725 80.9708 73.4319 80.6551 72.8022 80.0238C72.0151 81.76 69.8111 83.9697 69.0239 86.3373C66.8199 90.5989 63.6714 103.857 61.9396 111.907C61.4674 114.432 59.8931 118.378 59.1059 121.062C57.0593 127.217 56.4296 133.846 55.0128 140.318C54.8553 141.738 53.7533 144.579 52.4939 146H51.3919C50.2899 146 51.7068 145.053 50.6048 145.053C49.3453 145.053 49.8176 146 48.5582 146C47.771 146 46.8265 144.579 46.0393 144.422C46.0393 144.264 45.8819 143.79 46.0393 143.159C44.6225 141.738 43.5205 140.476 41.7887 139.055C42.4185 138.266 42.8908 137.003 43.363 135.898C43.5205 134.478 42.8908 132.742 43.0482 130.216C43.0482 129.585 43.5205 129.111 44.1502 128.48C44.7799 127.691 44.1502 125.481 44.7799 123.745C45.4096 122.324 46.8265 117.116 48.873 116.484C51.5493 104.962 54.3831 90.9146 57.0593 77.814C57.5316 76.5513 56.7445 75.2887 56.9019 73.8681C57.6891 70.5535 58.7911 67.2389 60.0505 63.9243C60.5228 63.1351 60.5228 61.0832 60.0505 59.8205C63.1991 50.5081 66.6625 39.4595 69.0239 30.147C69.3388 29.5157 69.1814 28.7265 68.5517 27.6216C69.1814 27.6216 68.8665 28.0951 70.1259 28.0951C70.9131 28.0951 70.9131 26.8324 72.0151 26.8324C72.8022 26.8324 75.1637 29.3578 77.5251 31.094C77.9974 33.9351 79.4142 39.933 79.4142 41.3535C79.4142 41.9849 76.7379 54.454 74.6914 60.9254L75.4785 61.5567H76.1082C76.2657 61.5567 76.7379 61.3989 76.8954 61.3989C76.1082 62.5038 74.2191 64.24 73.4319 65.9762V66.2919C73.4319 66.4497 73.5894 66.4497 73.7468 66.6076C75.6359 63.4508 84.7668 54.4541 89.1748 54.4541C90.4343 54.4541 94.6848 55.5589 97.3611 56.1903C98.4631 56.8216 100.037 58.4 100.825 59.0313C105.705 61.3989 106.649 66.9232 106.649 70.5535Z" fill="#C4E86B"/>
<path d="M157.842 95.8076C156.74 97.0703 156.425 98.6486 155.008 99.1222C155.008 99.28 155.008 99.4378 155.166 99.7535L157.527 98.8065C156.425 99.1222 156.268 99.5957 157.055 100.385C155.323 101.174 153.434 104.804 155.796 104.962C154.536 105.594 154.064 107.645 153.592 108.277C151.86 109.539 149.184 110.802 147.452 112.223C146.35 113.012 145.248 114.748 143.516 115.222C142.099 115.853 140.053 116.326 138.321 116.8L137.376 115.853C135.487 117.274 135.015 116.484 133.913 116.484C132.653 116.484 133.755 117.116 132.653 117.116C132.024 117.116 128.088 115.379 126.671 114.906C116.281 110.96 112.03 96.4389 112.03 88.7049C112.03 75.6043 115.494 64.7135 118.485 53.1913C118.642 51.7708 120.059 50.6659 120.217 49.5611C120.846 45.9308 121.948 40.7222 123.208 36.3027C124.467 31.8832 127.143 24.6227 129.82 16.8887C130.449 15.4681 132.024 14.0476 132.496 12.3113C134.385 6.47134 137.061 4.41946 136.904 0.631347C137.376 0.631347 138.163 0.315678 138.951 0.315678C140.053 0.315678 141.312 1.89405 142.729 2.05189C142.886 2.05189 143.044 2.05189 143.044 1.89405H144.303C144.933 3.31459 146.035 5.68216 146.507 7.1027C147.137 8.20757 146.507 10.2595 147.137 11.3643L131.709 61.5567C130.292 65.187 128.875 68.9751 128.245 72.6054C126.986 77.814 124.782 90.4411 124.782 95.1762C124.782 95.9654 124.939 99.9113 125.097 101.805C125.254 102.595 126.199 103.699 126.829 104.331C128.245 105.12 129.505 105.594 130.607 105.594C131.866 105.594 132.024 104.804 132.653 104.804C133.755 104.804 133.913 105.278 135.172 105.278C135.802 105.278 136.904 104.646 140.682 103.384C141.469 102.752 142.257 101.963 142.886 101.963C144.146 101.963 143.201 102.437 144.303 102.437C145.09 102.437 147.924 99.7535 151.545 97.8595C151.23 98.0173 151.23 98.333 151.545 98.8065C151.702 98.333 151.545 98.0173 152.332 98.0173C153.434 98.0173 156.425 96.5967 157.842 95.8076Z" fill="#C4E86B"/>
<path d="M219.797 94.5449C219.324 95.8076 217.435 96.4389 216.963 97.5438C216.176 98.333 215.861 98.9643 216.333 99.7535C215.074 101.174 212.712 103.226 210.351 104.962C210.351 105.12 211.138 106.067 211.61 106.067C208.304 106.541 202.952 111.434 201.535 111.434H194.923C188.468 111.434 182.643 98.333 182.643 97.2281C182.643 95.3341 182.643 92.1773 182.171 89.1784C180.439 92.1773 178.708 94.387 176.818 97.5438C175.087 100.069 167.058 111.907 162.335 111.907C161.548 111.907 159.816 112.538 159.029 112.538C153.834 112.538 152.102 109.224 149.111 106.698C148.954 105.436 147.852 102.752 147.852 101.963C147.852 92.3351 160.603 70.7113 165.956 63.6087C167.058 62.1881 170.206 59.0314 172.253 57.6108C173.67 56.9795 175.402 54.9276 176.818 53.6649C177.291 53.1913 176.661 52.7178 177.133 52.2443C178.55 51.613 179.652 51.9286 180.439 51.2973C181.226 50.8238 181.856 50.0346 182.328 49.0876H183.588C184.69 50.0346 185.477 50.5081 186.264 50.5081C187.051 50.5081 187.996 50.8238 188.783 50.8238C190.672 48.7719 189.413 47.667 191.459 47.667C192.561 47.667 191.774 48.9297 192.876 48.9297C194.136 48.9297 193.034 48.4562 193.821 48.4562C195.71 48.4562 199.488 50.1924 200.748 51.613C201.22 52.4022 202.007 54.6119 201.377 55.2432C201.377 55.8746 201.85 54.6119 201.85 55.8746C201.85 56.9795 198.544 67.3968 197.284 73.3946C195.552 81.76 193.821 97.5438 193.821 98.4908C193.821 99.28 194.293 101.963 194.293 103.384C196.025 104.015 197.756 103.226 199.016 103.226C201.377 103.226 218.852 95.0184 219.797 94.5449ZM181.856 67.0811L180.912 68.0281C180.282 67.3968 180.912 66.7654 180.912 66.2919C175.716 72.6054 170.836 81.1286 167.058 88.547L168.002 89.6519C173.04 83.4962 177.291 74.6573 181.856 67.0811Z" fill="#C4E86B"/>
<path d="M278.005 92.493C277.375 93.5978 277.06 94.7027 276.903 95.8076C276.43 96.2811 277.217 97.0703 277.06 97.2281C276.588 97.7016 276.115 98.0173 275.643 98.6487C275.958 98.8065 276.43 98.9643 276.903 98.9643L276.745 99.1222C276.43 99.4378 276.273 99.5957 276.115 99.4378C275.486 100.069 275.958 101.332 274.856 102.121C275.328 102.91 274.856 103.857 275.486 104.646C274.699 105.436 273.439 106.067 273.282 107.33C272.495 108.75 269.661 109.855 268.401 111.276C267.299 111.749 266.04 113.959 265.568 114.748C263.521 114.906 260.373 114.432 259.271 114.432C257.539 114.432 250.14 110.644 249.667 109.066C247.306 104.489 245.102 99.28 244.472 94.387C243.685 91.2303 243.685 85.0746 243.528 80.4973C243.055 80.3394 243.685 79.866 243.213 79.7081C238.962 84.6011 233.925 91.8616 229.517 97.0703C229.359 97.2281 229.359 97.5438 229.517 98.1751C228.1 100.858 226.525 103.699 224.479 106.225C223.062 108.119 219.598 111.591 218.811 111.749C217.709 111.749 216.922 110.171 216.135 110.329C214.876 110.329 216.292 110.802 215.19 110.802C211.255 111.276 210.625 103.384 209.995 102.752C209.366 102.279 208.578 101.332 208.421 99.9113C208.421 99.1222 209.68 93.9135 209.838 90.7568C210.625 89.3362 211.412 87.2843 211.884 85.8638C212.514 83.4962 212.357 80.6551 212.986 78.2876C215.978 69.6065 220.386 56.9795 224.636 45.773C224.636 45.1416 224.479 43.7211 224.479 42.4584C225.896 41.1957 227.627 39.4595 228.887 38.9859C229.674 40.0908 230.618 41.0378 231.721 42.4584C232.35 41.827 232.35 40.5643 232.193 39.7751C233.295 40.5643 234.397 41.5114 236.129 41.9849C236.129 42.7741 235.499 43.8789 236.129 44.6681H236.286C236.758 44.6681 236.601 44.5103 237.231 44.3524L237.388 46.0886C237.545 47.1935 236.601 48.2984 236.129 49.7189C235.656 52.4022 235.341 56.5059 234.712 59.6627C234.712 60.7676 234.239 61.2411 233.767 61.8724C232.98 64.24 232.665 66.6076 232.823 68.8173C235.184 66.4497 238.962 59.9784 242.111 58.7157C243.528 58.0843 245.259 58.5578 247.149 57.453C248.251 58.2422 248.565 59.0313 249.038 59.8205C249.825 59.347 250.14 58.8735 251.242 58.7157C252.029 58.7157 254.075 60.7676 255.335 61.8724V62.0303C255.335 62.1881 255.177 62.346 255.02 62.5038C255.02 62.9773 255.807 63.1351 255.965 63.1351C259.743 70.5535 258.798 67.7124 259.271 71.9741C259.743 73.0789 258.483 85.7059 258.956 92.1773C258.483 94.7027 259.113 97.7016 259.271 100.858C259.743 101.174 260.53 101.332 261.317 101.174C263.993 101.174 269.503 96.7546 272.18 95.6497H272.022C271.707 95.6497 271.55 95.8076 271.707 95.9654L271.55 96.2811H272.18C273.282 96.1232 275.643 93.7557 278.005 92.493ZM250.769 60.7676L251.871 60.6097L251.714 59.8205L250.612 59.9784L250.769 60.7676Z" fill="#C4E86B"/>
<path d="M335 45.1416C335 45.773 334.37 54.454 333.111 58.0843C332.009 61.7146 330.277 64.5557 328.388 68.1859C327.758 69.6065 327.443 71.8162 326.656 73.7103C324.925 77.6562 322.091 81.76 320.044 84.9168C317.525 88.2314 313.905 92.6508 309.969 98.1751C308.867 99.4378 306.82 100.858 304.774 102.595C302.884 104.646 298.634 108.75 296.745 109.539C296.115 109.697 296.272 110.329 295.8 110.802C295.8 110.329 296.115 110.171 295.485 109.697C295.013 110.329 294.698 111.749 293.596 112.538C292.179 113.801 288.716 115.853 287.614 115.853C286.827 115.853 286.197 115.537 284.938 115.537L284.15 114.748V114.906C284.15 115.064 283.993 115.222 283.678 115.222C282.576 115.222 280.215 112.696 278.798 111.434C278.326 110.802 278.955 110.644 278.798 110.486C277.538 108.592 275.492 104.804 275.492 103.542C275.492 102.91 277.381 99.5957 277.381 98.4908C277.381 97.3859 275.492 96.1232 275.02 95.0184C274.705 94.5449 274.39 93.9135 274.232 92.8086C273.918 92.0195 273.918 91.0724 274.39 89.6519C274.39 89.1784 273.603 89.3362 273.603 88.2314C273.603 87.1265 273.918 88.2314 274.39 87.7578C274.862 82.707 276.594 76.7092 278.011 70.2378C278.64 67.2389 293.911 14.3632 293.911 7.89189C293.911 7.26054 293.439 5.36649 293.281 3.94594C293.124 3.31459 291.55 2.05189 291.55 1.2627C291.55 0.473515 291.864 0 292.494 0C293.281 0.473507 293.754 0.78919 294.541 0.78919C295.328 0.78919 298.791 1.89405 300.523 2.52541C300.68 2.52541 301.31 3.78811 302.097 3.78811C302.884 3.78811 306.033 5.52432 307.293 6.31351C313.905 10.2595 323.193 16.573 327.916 22.8865C332.953 30.3049 335 38.3546 335 45.1416ZM322.721 38.5124C322.721 32.3568 320.831 23.8335 315.007 20.9924L315.321 20.6768C312.803 18.7827 309.339 15.6259 306.191 14.5211C307.45 26.3589 300.838 41.3535 298.791 52.4022C295.643 61.2411 293.911 68.6595 291.55 77.3405C290.29 80.0238 287.929 84.4432 287.929 86.8108C287.771 87.2843 287.456 86.8108 287.299 87.2843C286.669 90.9146 286.04 94.7027 284.938 98.4908C284.78 98.333 284.78 98.0173 284.78 97.3859C284.308 98.1751 283.836 98.8065 283.521 99.1222C283.521 99.7535 284.15 100.227 283.678 100.701C283.206 100.227 282.734 100.069 282.261 100.069C282.261 100.543 281.789 101.174 282.261 102.437C283.048 101.963 283.363 101.332 283.836 101.174C284.308 101.648 283.363 101.963 284.15 101.963C284.938 101.963 284.465 100.543 284.938 100.069C285.567 100.543 284.623 100.385 285.725 100.385C287.456 100.385 297.532 89.494 298.004 89.0205C299.264 87.7578 300.838 84.9168 301.625 83.6541C305.246 81.9178 309.182 74.1838 311.228 70.8692C309.811 72.2897 308.08 74.4995 306.663 76.5514C310.441 70.08 314.849 63.9243 317.84 57.453C319.572 53.6649 322.721 44.8259 322.721 38.5124Z" fill="#C4E86B"/>
</svg>
