<svg width="175" height="66" viewBox="0 0 175 66" fill="none" xmlns="http://www.w3.org/2000/svg">
<g clip-path="url(#clip0_1_1164)">
<path d="M72.8001 36.8C73.1001 32.3 75.1001 27.2 78.4001 25.2C78.5001 25.2 78.6001 25.3 78.7001 25.3C76.8001 29.2 74.8001 33 72.8001 36.8ZM67.3001 2.70001C66.8001 9.00001 64.6001 14.9 62.0001 20.6C62.8001 14.4 64.5001 8.40001 67.3001 2.70001ZM117 27.6C116.2 27 116 28 115.6 28.5C115.1 29.3 108.8 38.3 107.9 36.8C107.5 36.2 107.6 35.2 107.7 34.7C107.8 32.4 107.9 30.1 107.9 27.8C107.9 26.8 107.4 25.9 106.3 25.5C104 24.7 101.6 24.6 99.7001 26.6C98.7001 27.6 97.9001 28.8 97.1001 30C96.7001 30.5 96.4001 31 95.9001 31.9C96.0001 31.3 96.0001 31.1 96.0001 30.9C96.3001 29 96.7001 27.1 97.0001 25.2C97.2001 23.9 96.0001 23.2 94.8001 23.7C92.3001 24.7 91.4001 23.6 91.2001 25.2C91.0001 26.3 90.9001 29.2 90.4001 30C88.5001 32.7 86.4001 35.3 84.3001 37.8C80.4001 42.5 81.7001 24 81.9001 23.5C80.0001 22.2 77.8001 22.2 76.0001 23.4C73.6001 25.1 72.2001 27.5 70.9001 30.1C70.2001 31.5 69.5001 32.9 68.5001 34.2C62.0001 44.2 60.4001 37.4 61.6001 28.2C61.6001 26.6 62.3001 26 64.3001 22.6C66.6001 18.7 68.4001 14.5 69.2001 10C69.6001 7.70001 69.8001 5.40001 69.6001 3.10001C69.4001 0.800009 67.2001 -0.399992 65.0001 0.500008C63.7001 1.00001 62.4001 1.90001 61.6001 3.10001C60.1001 5.20001 58.8001 7.60001 57.9001 10C55.0001 16.2 54.2001 23 54.4001 29.8C54.5001 32.1 54.7001 34.5 55.4001 36.8C56.9001 41.9 62.2001 43.3 66.4001 39.9C67.4001 39.1 68.2001 38.2 69.1001 37.3C69.2001 37.6 69.3001 37.8 69.5001 38.1C72.8001 43.2 77.7001 33.9 78.3001 29.9C78.3001 30.6 78.3001 31 78.4001 31.5C78.6001 33.5 78.7001 35.6 79.1001 37.6C79.6001 39.7 81.1001 40.6 83.4001 40.4C85.2001 40.3 86.3001 39.1 87.4001 37.9C88.3001 36.9 89.1001 35.7 90.0001 34.6C89.9001 35.8 89.9001 37 89.8001 38.3C89.7001 39.3 90.1001 39.9 91.2001 39.9C91.7001 39.9 92.1001 40.2 92.6001 40.4C93.8001 41 94.5001 40.8 95.1001 39.5C96.0001 37.6 96.8001 35.6 97.8001 33.7C98.3001 32.7 100.9 27.3 101.9 28.1C102.3 28.6 101.6 36.8 101.6 38.1C101.6 39.9 102.9 41 104.8 41C105.8 41 107 40.8 107.8 40.3C112.3 37.7 115.2 33.8 117.6 29.5C117.8 29.2 117.4 28 117 27.6Z" fill="white"/>
<path d="M42.8996 38C43.1996 34.9 43.4996 31.8 43.7996 28.8C45.9996 29 47.8996 30.8 47.8996 32.6C47.9996 35.5 45.9996 37.7 42.8996 38ZM48.7996 27.8C47.5996 27 46.2996 26.6 44.9996 26C44.6996 25.9 44.2996 25.8 44.0996 25.5C43.0996 24.5 40.6996 23.9 39.4996 24.4C37.9996 25 37.6996 26.3 37.5996 27.7C37.0996 33.7 36.3996 39.7 35.9996 45.6C35.4996 51.9 35.2996 57.4 34.8996 63.7C34.6996 66.7 37.2996 64.8 38.7996 64.5C40.3996 64.2 40.8996 63.7 41.0996 62.1C41.5996 56 41.9996 50 42.4996 43.9C42.5996 42.5 42.7996 41.1 42.9996 39.7C44.6996 40.5 46.1996 40.2 47.6996 39.6C50.3996 38.4 52.0996 36.5 52.2996 33.5C52.2996 30.9 50.9996 29.1 48.7996 27.8Z" fill="white"/>
<path d="M16.8997 32.7C15.1997 33.4 16.4997 36.7 16.4997 36.7C21.0997 35.4 27.0997 35.6 28.8997 35.7V33.3C26.0997 32 19.9997 31.5 16.8997 32.7Z" fill="white"/>
<path d="M157.999 21C154.699 6.8 136.999 0.399997 122.799 4.1C121.299 4.5 122.999 7 123.699 7C125.299 6.6 126.999 6.3 128.799 6.2C125.999 16.4 117.499 47 132.899 43C131.699 31.5 134.499 18.5 136.199 6.8C144.599 8.5 152.099 13.8 153.699 22C156.099 34.9 143.299 46.8 127.799 46.9C124.199 47.2 125.199 51.7 129.399 51.8C147.599 51.8 161.699 36.7 157.999 21Z" fill="white"/>
</g>
<defs>
<clipPath id="clip0_1_1164">
<rect width="174.6" height="65.4" fill="white"/>
</clipPath>
</defs>
</svg>
