<svg width="1500" height="703" viewBox="0 0 1500 703" fill="none" xmlns="http://www.w3.org/2000/svg">
<mask id="mask0_1_183" style="mask-type:alpha" maskUnits="userSpaceOnUse" x="0" y="0" width="1500" height="703">
<path opacity="0.9" fill-rule="evenodd" clip-rule="evenodd" d="M1450 0C1477.61 0 1500 22.3858 1500 50V199.924C1500 199.966 1499.97 200 1499.92 200C1499.88 200 1499.85 200.038 1499.85 200.082C1499.95 201.375 1500 202.681 1500 204V653C1500 680.614 1477.61 703 1450 703H563C535.386 703 513 680.614 513 653V604C513 576.386 490.614 554 463 554H50C22.3858 554 0 531.614 0 504V204C0 176.386 22.3858 154 50 154H1232C1259.61 154 1282 131.614 1282 104V50C1282 22.3858 1304.39 0 1332 0H1450Z" fill="#D9D9D9"/>
</mask>
<g mask="url(#mask0_1_183)">
<rect y="-397" width="1500" height="1513" fill="#C4E86B"/>
</g>
</svg>
