<svg width="216" height="18" viewBox="0 0 216 18" fill="none" xmlns="http://www.w3.org/2000/svg">
<path fill-rule="evenodd" clip-rule="evenodd" d="M127.434 4.68018C127.32 4.62951 127.207 4.57618 127.095 4.52285C127.044 4.64418 126.932 4.79485 126.966 4.88151C126.998 4.96818 127.175 4.99351 127.288 5.04951C127.338 4.92551 127.386 4.80418 127.434 4.68018ZM122.24 4.62018C122.219 4.31085 122.116 4.13885 121.9 4.13218C121.684 4.12418 121.554 4.28418 121.559 4.51751C121.564 4.80285 121.631 5.10551 121.975 5.01085C122.102 4.97618 122.178 4.72018 122.24 4.62018ZM125.654 2.32951C125.376 2.34551 125.263 2.52018 125.248 2.74818C125.211 3.35885 125.607 3.45351 126.036 3.44685C126.307 3.44151 126.65 3.33085 126.563 2.97885C126.452 2.51885 126.027 2.39618 125.654 2.32951ZM170.11 5.66018C170.371 5.60151 170.686 5.59485 170.682 5.20951C170.678 4.80685 170.44 4.55351 170.067 4.52285C169.676 4.49485 169.41 4.77351 169.399 5.14951C169.386 5.62285 169.775 5.64418 170.11 5.66018ZM102.787 11.8802C102.739 12.3695 102.899 12.7602 103.32 12.9508C103.686 13.1188 104.047 12.9188 104.151 12.5628C104.392 11.7348 104.76 11.5442 105.606 11.6455C106.367 11.7348 107.202 11.3322 107.352 10.2295C107.39 9.95085 107.578 9.67618 107.33 9.42685C107.098 9.18818 106.779 9.21085 106.607 9.43351C105.942 10.3002 105.207 10.0242 104.398 9.74018C103.728 9.50151 103.206 9.71485 103.111 10.6215C103.067 11.0468 102.896 11.4602 102.787 11.8802ZM85.9711 1.33618C86.3925 1.34818 86.8125 1.36285 87.2338 1.37618C87.3405 1.55885 87.4591 1.58551 87.5965 1.41085C88.6965 1.32685 89.7965 1.21751 90.8898 1.48551C90.9938 1.65885 91.0725 1.94818 91.2098 1.98951C91.5698 2.09218 91.6445 1.75618 91.7045 1.45885C93.1978 1.20418 94.6965 1.26285 96.1938 1.42951C97.0151 2.44685 97.4231 2.44285 98.2298 1.41485C100.135 1.25751 102.042 1.17218 103.944 1.48151C104.047 1.65751 104.122 1.94685 104.259 1.98685C104.618 2.09485 104.698 1.76418 104.758 1.46818C105.03 1.47085 105.304 1.47218 105.576 1.47218C106.16 2.38818 106.262 2.38818 106.798 1.42951C108.292 1.21751 109.791 1.27485 111.288 1.40418C111.975 2.44285 112.204 2.44685 112.916 1.42151C114.282 1.23218 115.651 1.24818 117.02 1.34018C117.516 1.96951 118.29 1.71885 118.908 2.02551C119.583 2.36151 120.062 1.88285 120.262 1.13618C122.03 0.756179 123.816 0.84418 125.6 0.92418C125.707 1.00818 125.811 1.16551 125.918 1.16551C128.703 1.20818 131.487 1.23885 134.272 1.25618C134.659 1.25751 134.844 0.948179 134.943 0.577513C135.758 0.362846 136.575 0.330846 137.398 0.517513C137.931 1.52018 138.047 1.52285 138.62 0.550847C139.168 0.513514 139.716 0.473513 140.264 0.434846C141.45 1.25351 142.84 0.689513 144.103 1.07218C144.455 1.18151 144.678 0.57218 144.74 0.121513C145.292 -0.0424871 145.839 -0.0384874 146.378 0.173512C147.41 1.19351 148.642 1.16685 149.902 0.914846C149.968 0.905514 149.996 0.664179 150.042 0.532179C150.452 0.537513 150.86 0.541513 151.27 0.54418C152.159 1.54818 152.664 1.56818 153.708 0.638847C154.523 0.697514 155.336 0.754846 156.148 0.81218C156.388 1.25218 156.654 1.33751 156.963 0.885513C159.011 0.910847 161.063 0.750846 163.104 1.03885C163.252 1.68285 163.715 1.71885 164.215 1.72818C165.026 1.74285 165.904 1.58551 166.63 1.86951C167.619 2.25751 166.972 3.42551 167.238 4.19618C167.296 4.36818 167.5 4.58818 167.647 4.59751C167.926 4.60951 168.168 4.39485 168.232 4.09218C168.274 3.89351 168.248 3.64818 168.174 3.46018C167.758 2.40685 168.444 2.19485 169.126 1.99885C169.979 1.75351 170.72 2.27218 171.255 3.44951C171.7 4.42685 172.182 5.28151 173.224 5.75885C174.558 6.37218 174.59 6.68285 174.25 8.52285C171.935 8.21218 171.91 8.24151 172.604 10.2882C170.799 10.6148 170.799 10.6148 169.995 9.95085C169.01 9.13885 168.308 9.26418 167.571 10.3815C166.56 11.9202 166.247 11.9562 165.164 10.6122C164.926 10.3188 164.718 10.0482 164.33 10.2082C163.915 10.3762 163.9 10.7828 164.032 11.1175C164.282 11.7415 164.344 12.3802 164.318 13.0428C163.907 13.0722 163.498 13.1042 163.09 13.1335C162.818 12.7362 162.402 12.6228 162.02 12.7388C159.796 13.3948 157.53 13.0842 155.283 13.1482C154.807 13.1642 154.332 13.1455 154.136 13.7575C153.858 13.7815 153.582 13.8082 153.306 13.8348C153.252 13.5788 153.18 13.3055 152.883 13.3228C152.592 13.3388 152.536 13.6188 152.491 13.8748C152.215 13.9175 151.94 13.9602 151.663 14.0015C150.999 13.3988 150.331 13.4108 149.656 13.9828C149.378 13.9628 149.098 13.9455 148.816 13.9268C148.735 13.5495 148.567 13.2028 148.178 13.1975C146.694 13.1748 145.206 13.1748 143.723 13.2042C143.336 13.2135 143.183 13.5828 143.11 13.9602C141.494 14.4068 139.862 14.6468 138.19 14.4162C137.926 13.9962 137.666 14.0108 137.412 14.4308C136.859 14.5188 136.31 14.4868 135.764 14.3402C135.564 13.1748 134.764 12.8335 133.97 13.3428C133.072 13.9162 132.55 13.5122 131.79 13.1268C130.54 12.4948 129.174 11.7188 127.926 13.2268C127.622 13.5922 127.204 13.5615 126.798 13.5922C125.607 13.6788 124.456 12.9402 123.223 13.4868C122.851 13.6508 122.511 13.1455 122.322 12.7455C121.822 11.6895 121.118 11.7682 120.286 12.2508C119.872 12.4882 119.332 12.5175 118.976 12.8175C118.143 13.5202 117.34 13.5122 116.344 13.2135C114.439 12.6415 112.539 12.5122 110.602 13.4188C109.66 13.8588 108.468 13.9535 107.434 13.8162C106.25 13.6602 105.826 14.1975 105.572 15.2295C105.16 15.2362 104.748 15.2428 104.336 15.2495C103.759 13.7962 103.26 14.9802 102.736 15.3055C101.112 15.3188 99.4871 15.3615 97.8631 15.3308C94.6831 15.2722 91.5298 15.9922 88.3431 15.7482C87.8111 15.7068 87.2551 15.8615 86.7605 15.5228C86.8551 14.6962 86.6018 13.7482 87.7725 13.4402C88.4711 13.2562 88.1391 12.6842 87.8698 12.2282C87.7111 11.9628 87.7151 11.6402 88.0405 11.5135C88.3085 11.4068 88.5871 11.4922 88.7285 11.7935C88.9098 12.1788 88.7791 12.7215 89.1418 12.9948C89.4978 13.2642 90.1258 13.8188 90.3231 13.1695C90.6551 12.0615 91.7311 12.4375 92.2338 11.7348C92.6045 11.2162 93.0658 11.4455 93.3871 11.9682C93.6498 12.3935 93.9071 12.8375 94.2365 13.2015C94.6991 13.7082 95.6071 13.8615 95.7311 13.3322C95.8751 12.7242 96.0298 12.7388 96.4338 12.7068C97.0831 12.6575 97.7311 12.5655 98.4818 12.4802C98.1845 13.2935 97.6658 14.1882 99.0405 14.0282C99.5325 13.9722 100.015 14.6548 100.508 14.0615C99.6791 12.1042 99.6778 12.1082 101.49 12.1508C101.555 12.1508 101.623 11.9362 101.691 11.8215C100.83 11.1642 100.83 11.1802 100.192 11.2108C99.0218 11.2682 97.8858 11.2882 96.8031 10.5642C96.1298 10.1148 95.3111 9.88418 94.4671 10.3188C93.8351 10.6468 93.1325 10.5202 92.4565 10.4842C92.1831 10.4655 91.9218 10.3695 91.8338 10.0282C91.7458 9.70285 91.8578 9.46018 92.1191 9.30018C92.9685 8.78018 93.6685 8.07085 94.8831 8.59085C95.7058 8.94151 96.6765 9.02551 97.4418 9.50951C97.8178 9.13218 97.9285 8.54418 97.7311 8.44818C96.3885 7.78951 95.9965 5.37085 93.9151 6.07885C93.3471 6.27085 92.8818 5.85885 92.4845 5.42818C92.1391 5.05485 91.6285 4.57751 91.2538 4.92951C90.3365 5.79618 89.3978 5.48285 88.4045 5.33885C87.8311 5.25485 84.1951 4.57885 83.8258 4.27085C83.0551 3.62018 82.1738 3.22818 81.2365 3.08418C80.4085 2.95485 80.2525 2.46285 80.2791 1.72818C81.2791 1.72818 82.2805 1.78285 83.2765 1.70951C84.1778 1.64418 85.1498 2.07485 85.9711 1.33618Z" fill="#C4E86B"/>
<path fill-rule="evenodd" clip-rule="evenodd" d="M71.5586 3.80519C71.4452 3.74919 71.3066 3.62919 71.2252 3.66252C71.1426 3.69719 71.1199 3.88652 71.0706 4.01052C71.1826 4.06252 71.3212 4.18519 71.3999 4.14919C71.4826 4.11319 71.5092 3.92519 71.5586 3.80519ZM78.9012 10.8345C78.7906 10.7825 78.6506 10.6612 78.5679 10.6959C78.4866 10.7305 78.4626 10.9212 78.4132 11.0425C78.5252 11.0959 78.6652 11.2172 78.7452 11.1839C78.8266 11.1465 78.8532 10.9599 78.9012 10.8345ZM40.2066 3.15986C40.1559 2.80919 39.9239 2.68919 39.6399 2.70119C39.3253 2.71186 39.1452 2.96119 39.1599 3.26252C39.1799 3.67986 39.4239 3.90652 39.8332 3.80652C40.1399 3.73052 40.2372 3.47852 40.2066 3.15986ZM44.3666 9.98386C44.8719 10.0359 45.1266 9.80519 45.1226 9.40519C45.1226 8.84519 44.8226 8.47452 44.2879 8.40252C43.8932 8.34652 43.6346 8.58652 43.6346 8.99186C43.6359 9.55186 43.9466 9.89852 44.3666 9.98386ZM80.2799 1.72786C80.2519 2.46385 80.4092 2.95452 81.2372 3.08386C82.1732 3.22786 83.0559 3.61985 83.8266 4.27186C84.1959 4.57985 87.8319 5.25452 88.4053 5.33852C89.3972 5.48252 90.3359 5.79585 91.2532 4.92919C91.6292 4.57852 92.1399 5.05452 92.4839 5.42786C92.8826 5.85852 93.3479 6.27052 93.9159 6.07852C95.9972 5.37052 96.3892 7.78919 97.7306 8.44786C97.9292 8.54386 97.8186 9.13186 97.4426 9.50919C96.6759 9.02519 95.7052 8.94252 94.8839 8.59052C93.6692 8.07052 92.9692 8.77986 92.1199 9.29986C91.8586 9.45986 91.7466 9.70252 91.8346 10.0292C91.9226 10.3692 92.1839 10.4665 92.4572 10.4839C93.1332 10.5212 93.8359 10.6465 94.4679 10.3185C95.3119 9.88386 96.1306 10.1145 96.8039 10.5639C97.8866 11.2879 99.0226 11.2692 100.193 11.2105C100.831 11.1799 100.831 11.1652 101.692 11.8212C101.624 11.9359 101.556 12.1505 101.491 12.1505C99.6786 12.1092 99.6799 12.1052 100.508 14.0612C100.016 14.6545 99.5332 13.9719 99.0412 14.0292C97.6666 14.1892 98.1852 13.2932 98.4826 12.4799C97.7306 12.5652 97.0839 12.6572 96.4346 12.7065C96.0306 12.7385 95.8759 12.7239 95.7319 13.3319C95.6079 13.8612 94.6999 13.7079 94.2373 13.2012C93.9079 12.8372 93.6506 12.3932 93.3879 11.9679C93.0666 11.4452 92.6052 11.2159 92.2346 11.7345C91.7319 12.4372 90.6559 12.0612 90.3239 13.1692C90.1266 13.8185 89.4986 13.2639 89.1412 12.9959C88.7799 12.7212 88.9106 12.1785 88.7292 11.7932C88.5866 11.4919 88.3092 11.4065 88.0412 11.5132C87.7159 11.6399 87.7119 11.9625 87.8692 12.2279C88.1399 12.6839 88.4719 13.2559 87.7732 13.4412C86.6026 13.7479 86.8559 14.6959 86.7599 15.5225C85.5572 15.4932 84.3559 15.4639 83.1546 15.4345C82.7132 14.3479 82.7079 14.3479 81.5119 15.3305C81.1052 15.3425 80.6973 15.3559 80.2866 15.3665C80.0292 14.9159 79.7572 14.8839 79.4706 15.3372C79.1959 15.3199 78.9226 15.3012 78.6492 15.2852C78.5679 14.6492 78.2159 14.3612 77.6719 14.6025C76.5692 15.0852 75.5986 15.0612 74.7519 14.0425C74.5239 13.7679 74.1706 13.5572 73.8666 13.8279C73.0586 14.5399 71.7666 14.5092 71.3159 15.7585C70.2266 15.7759 69.1399 15.7932 68.0506 15.8105C67.7772 15.3425 67.4999 15.3345 67.2212 15.8052H66.4172C65.8906 15.1719 65.4679 15.1692 65.1866 16.0372C64.2452 16.3479 63.2879 16.2305 62.3332 16.1612C62.0706 15.1652 61.9306 13.9559 60.5666 15.1385C60.2639 15.4025 59.9279 15.0612 59.6079 15.0612C59.0026 15.0652 59.1226 15.6119 59.0546 16.0105C58.3759 16.2119 57.6972 16.2119 57.0226 15.9919C56.5812 15.0345 56.0106 15.2359 55.3986 15.7812C52.8106 15.9559 50.2266 15.8505 47.6426 15.6412C47.5519 14.7545 46.7439 14.8545 46.2652 14.5532C44.8212 13.6519 44.5919 13.8292 44.3772 15.7532C42.2292 16.4852 40.0399 16.1212 37.8599 16.0345C37.9012 15.1879 39.0892 15.4545 39.0932 14.4839C39.0972 13.4065 39.8973 12.8399 40.6399 12.3252C41.2826 11.8852 41.8799 11.4025 42.2106 10.6599C42.5612 9.88119 42.2546 8.59186 41.7266 8.53852C40.8826 8.45586 41.3026 9.47986 40.8692 9.78519C40.8199 9.81852 40.7413 9.80519 40.5426 9.83052C40.1359 9.11319 40.0012 8.09052 39.1426 7.63319C38.9092 7.50652 38.6866 7.17052 38.8092 6.89586C39.3212 5.75986 38.3079 4.98919 38.2612 3.99185C38.2319 3.38119 38.0719 2.69052 37.3839 2.78519C36.7746 2.86919 36.4186 3.37586 36.3319 4.16786C36.1999 5.34385 35.9012 6.49586 36.0359 7.66786C33.4972 7.79319 32.6852 5.29852 31.0172 4.21185C30.5359 3.89852 30.4399 2.89319 29.5346 3.33452C28.7679 3.70786 28.1159 2.82652 27.3639 3.11452C27.1666 3.19052 26.9319 3.33852 27.0026 3.56252C27.2986 4.48386 26.9212 5.29586 26.6346 6.08519C26.2492 7.13719 27.3866 7.63452 27.4373 8.51986C25.4119 8.76652 24.5239 7.17719 23.2812 6.01719C24.5506 4.88519 24.6586 3.57986 23.7839 2.13852C23.6452 1.90652 23.6413 1.58252 23.5746 1.30119C23.9933 1.26519 24.4519 1.37986 24.7639 0.937189C25.3172 0.90119 25.8706 0.862523 26.4239 0.827856C27.6186 1.99986 29.9372 1.93319 31.7306 0.679856C33.4959 0.307857 35.2639 0.343856 37.0346 0.631856C37.7572 1.68252 38.5986 1.42386 39.4692 0.890523C40.1519 0.930523 40.8346 0.971856 41.5172 1.01186C42.0959 1.95186 42.1946 1.95186 42.7559 0.994523C43.0319 0.970523 43.3106 0.943856 43.5893 0.914522C44.2612 1.33052 44.9319 1.74786 45.6039 2.16519C46.8452 2.53052 48.0439 2.72786 48.8706 1.29186C49.1799 1.28252 49.4759 1.23719 49.6612 0.919855C49.9386 0.943855 50.2172 0.965189 50.4972 0.986523C50.6999 1.89719 51.3892 1.71852 51.9706 1.72252C54.0626 1.73586 56.1546 1.72786 58.2506 1.72786C58.3132 2.36652 57.9799 3.33852 58.5012 3.57719C59.5786 4.06519 60.5519 5.02252 61.8626 4.79186C62.1252 4.74519 62.4292 4.75319 62.5146 4.41052C62.6252 3.95852 62.3252 3.73452 62.0039 3.60786C61.7586 3.50919 61.4759 3.49186 61.2092 3.48386C60.1226 3.45319 59.8412 2.74119 59.8866 1.73186C60.8692 1.84252 61.7999 1.56652 62.7332 1.29452C62.6493 2.55186 63.4186 2.98119 64.3599 3.00386C65.2799 3.02519 66.1466 3.13852 67.0492 3.89186C66.9519 2.96786 66.8866 2.34652 66.8199 1.72519C67.2826 1.71319 67.7799 1.79719 68.0586 1.23719C68.5932 1.23186 69.1266 1.22652 69.6612 1.22252C69.7626 2.25719 70.5346 2.34386 71.2506 2.61052C72.6666 3.13586 74.1906 3.07452 75.5999 3.73986C76.8986 4.34919 77.6559 3.55852 77.8332 1.72519C77.9799 1.53852 78.1252 1.35452 78.2706 1.16786H79.4279C79.5746 1.59852 79.8986 1.71319 80.2799 1.72786Z" fill="#C4E86B"/>
<path fill-rule="evenodd" clip-rule="evenodd" d="M164.318 13.043C164.344 12.3803 164.282 11.7417 164.032 11.1177C163.9 10.783 163.915 10.3763 164.33 10.2083C164.718 10.0483 164.926 10.319 165.164 10.6123C166.247 11.9563 166.56 11.9203 167.571 10.3817C168.308 9.26434 169.01 9.13901 169.995 9.95101C170.799 10.615 170.799 10.615 172.604 10.2883C171.91 8.24168 171.935 8.21234 174.25 8.52301C174.59 6.68301 174.558 6.37234 173.224 5.75901C172.182 5.28168 171.7 4.42701 171.255 3.44968C170.72 2.27234 169.979 1.75368 169.126 1.99901C168.444 2.19501 167.758 2.40701 168.174 3.46034C168.248 3.64834 168.274 3.89368 168.232 4.09234C168.168 4.39501 167.926 4.60968 167.647 4.59634C167.5 4.58834 167.296 4.36834 167.238 4.19634C166.972 3.42568 167.619 2.25768 166.63 1.86968C165.904 1.58568 165.026 1.74301 164.215 1.72834C163.715 1.71901 163.252 1.68301 163.104 1.03901C167.858 0.781676 172.616 0.91501 177.372 0.885676C180.227 0.869677 183.106 0.71101 185.932 1.02701C189.107 1.38301 192.31 1.07234 195.462 1.68301C196.123 1.81101 196.818 1.75501 197.498 1.75101C201.235 1.72968 204.948 2.08568 208.65 2.60301C209.252 2.68568 209.888 2.76568 210.479 2.65768C212.408 2.31101 213.854 3.32968 215.331 4.41501C216.012 4.91768 215.876 5.39101 215.715 6.08701C215.548 6.80034 215.622 7.71101 214.726 7.72434C213.72 7.73901 212.934 8.22034 212.087 8.64301C211.662 8.85368 211.162 9.06701 210.718 9.02034C208.302 8.76968 206.098 10.1337 203.708 10.0337C203.443 10.0217 203.107 10.0083 202.912 10.1603C200.599 11.987 197.942 11.2937 195.428 11.215C193.81 11.1643 192.224 11.063 190.606 11.3017C188.34 11.6403 186.012 11.2043 183.767 11.7857C181.303 12.4203 178.772 12.2937 176.29 12.479C172.311 12.775 168.33 13.435 164.318 13.043Z" fill="#C4E86B"/>
<path fill-rule="evenodd" clip-rule="evenodd" d="M29.9015 6.93097C30.0029 6.87364 30.2629 6.82031 30.2989 6.69097C30.3975 6.36297 30.1669 6.20697 29.8869 6.19497C29.6882 6.18564 29.5162 6.29764 29.4895 6.52564C29.4615 6.76964 29.6175 6.88297 29.9015 6.93097ZM23.5749 1.30164C23.6415 1.58297 23.6455 1.90697 23.7842 2.13897C24.6575 3.58031 24.5495 4.88431 23.2815 6.01764C24.5242 7.17764 25.4122 8.76697 27.4362 8.52031C27.3855 7.63497 26.2495 7.13631 26.6335 6.08564C26.9215 5.29631 27.2989 4.48431 27.0029 3.56297C26.9322 3.33897 27.1655 3.19097 27.3629 3.11497C28.1162 2.82697 28.7682 3.70831 29.5349 3.33364C30.4389 2.89364 30.5362 3.89897 31.0175 4.21231C32.6855 5.29897 33.4962 7.79231 36.0362 7.66831C35.9015 6.49631 36.2002 5.34431 36.3309 4.16697C36.4189 3.37631 36.7735 2.86964 37.3829 2.78564C38.0722 2.69097 38.2322 3.38031 38.2615 3.99231C38.3082 4.98964 39.3215 5.76031 38.8095 6.89631C38.6869 7.17097 38.9095 7.50697 39.1429 7.63231C40.0015 8.09097 40.1362 9.11364 40.5415 9.83097C40.7415 9.80431 40.8202 9.81897 40.8695 9.78564C41.3015 9.48031 40.8815 8.45631 41.7269 8.53897C42.2549 8.59231 42.5615 9.88164 42.2109 10.6603C41.8802 11.403 41.2829 11.8843 40.6402 12.3243C39.8975 12.8403 39.0962 13.407 39.0935 14.4843C39.0895 15.455 37.9015 15.1883 37.8602 16.035C37.3255 16.2656 36.7762 16.235 36.2269 16.1363C36.2015 15.3336 36.2002 14.5296 36.1415 13.731C36.1175 13.4163 35.8669 13.2483 35.5575 13.2656C35.2215 13.2843 35.1215 13.5523 35.0375 13.8376C34.8708 14.4176 35.4135 14.9416 35.1389 15.5763C34.4149 15.9576 33.7762 15.7683 33.0815 15.3136C32.0282 14.6203 32.2122 15.6163 32.1415 16.2163C31.8709 16.2043 31.5989 16.1936 31.3282 16.183C31.2402 15.4163 31.5202 14.595 30.9909 13.7083C29.6322 15.5363 27.7948 14.771 26.1162 14.8963C25.8455 14.9163 25.6135 14.7936 25.3842 14.6016C24.2149 13.627 24.1455 13.6523 23.5242 14.931C23.3495 15.2896 23.3429 15.799 22.8522 15.907C21.9895 15.0696 21.9655 15.023 20.9615 15.5536C20.4242 15.8416 20.1042 15.5603 19.6655 15.3536C18.5602 14.8296 17.1655 15.355 16.2295 16.555C15.2749 16.5856 14.3189 16.6136 13.3629 16.6456C12.5189 15.8896 11.4255 16.3603 10.4909 15.9816C10.2709 15.8923 10.1562 16.3563 10.1109 16.647C9.83885 16.6363 9.56818 16.6283 9.29485 16.6243C8.97885 15.4376 8.36152 15.6616 7.66952 16.2136C6.90552 16.183 6.21885 15.8936 5.57752 15.4603C5.99352 13.5683 5.73485 12.9963 4.12418 12.3936C3.81885 12.2803 3.46285 12.323 3.13218 12.2923C3.00418 12.151 2.87885 12.007 2.75085 11.863C3.15485 11.195 3.19352 10.359 3.66418 9.69897C4.15618 9.00831 4.17085 8.16564 3.70952 7.46031C3.32285 6.87097 2.92018 5.99364 1.98952 6.79497C1.86818 6.89897 1.61485 6.64164 1.62952 6.41364C1.64285 6.22164 1.72818 5.91897 1.85352 5.86697C2.91085 5.41897 3.94552 4.86964 5.11219 4.79764C5.60019 4.76964 6.15618 4.68831 6.22018 4.09364C6.30685 3.32031 5.53352 3.62164 5.20418 3.34697C5.11085 3.27097 5.07485 3.11764 5.00685 2.98831C5.22818 2.48431 6.07085 2.60031 6.03085 1.82697C6.44018 1.79497 6.85085 1.76697 7.26152 1.73764C7.88818 2.56697 9.13085 1.81764 9.72285 2.95364C10.1455 3.76297 10.7029 3.56831 10.9562 2.65631C11.0722 2.23897 11.2082 1.83097 11.3362 1.41897C12.1469 1.23231 12.9615 1.25764 13.7789 1.36964C14.0002 2.67097 13.9989 2.67097 14.8975 2.06831C15.0695 1.95631 15.2389 1.84297 15.4095 1.72831C15.6815 1.73231 15.9549 1.73231 16.2269 1.73497C16.4842 2.65364 16.6309 3.50031 15.7868 4.25364C15.2735 4.71364 15.2869 5.44564 15.6509 6.05231C15.9842 6.61097 16.4322 7.10164 17.1469 6.90164C18.1002 6.63231 19.3629 7.87364 20.0495 6.21764C20.0722 6.16164 20.4202 6.29231 20.6175 6.28831C21.3109 6.28297 22.9549 4.73231 23.0749 3.98431C23.1242 3.68164 23.0802 3.25497 22.8362 3.23231C21.2429 3.08031 21.8749 1.94164 21.9535 1.04164C22.4802 0.844306 23.0175 0.834973 23.5629 0.94164C23.5629 1.06164 23.5655 1.18164 23.5749 1.30164Z" fill="#C4E86B"/>
<path fill-rule="evenodd" clip-rule="evenodd" d="M105.573 15.2293C105.827 14.1973 106.251 13.6613 107.435 13.816C108.468 13.9533 109.661 13.86 110.603 13.4186C112.54 12.512 114.44 12.6426 116.345 13.2133C117.34 13.512 118.143 13.52 118.977 12.8173C119.333 12.5173 119.872 12.488 120.285 12.2506C121.119 11.7693 121.823 11.6893 122.323 12.7453C122.512 13.1453 122.852 13.6506 123.223 13.488C124.456 12.9413 125.608 13.6786 126.799 13.592C127.204 13.5626 127.623 13.592 127.927 13.228C129.175 11.7186 130.541 12.496 131.789 13.1266C132.551 13.512 133.073 13.916 133.969 13.3426C134.765 12.8333 135.564 13.1746 135.765 14.34C133.255 14.384 130.737 14.3426 128.232 14.496C124.252 14.7346 120.271 14.8013 116.293 14.976C112.719 15.132 109.153 15.4226 105.573 15.2293Z" fill="#C4E86B"/>
<path fill-rule="evenodd" clip-rule="evenodd" d="M21.9526 1.04229C21.8753 1.94096 21.2433 3.07963 22.8353 3.23163C23.0793 3.25429 23.1233 3.68096 23.074 3.98496C22.954 4.73296 21.3113 6.28363 20.6166 6.28896C20.4206 6.29163 20.0713 6.16229 20.0486 6.21829C19.3633 7.87429 18.0993 6.63163 17.146 6.90096C16.4313 7.10096 15.9846 6.61029 15.6513 6.05296C15.286 5.44629 15.2726 4.71296 15.7873 4.25429C16.63 3.50096 16.4846 2.65429 16.226 1.73563C16.622 1.71429 16.9473 1.58763 17.0513 1.11563C17.5793 0.85296 18.1206 0.851626 18.6713 1.01296C19.254 1.95429 19.3513 1.95296 19.9073 0.990293C20.5913 0.846293 21.2753 0.82096 21.9526 1.04229Z" fill="#C4E86B"/>
<path fill-rule="evenodd" clip-rule="evenodd" d="M6.03025 1.82679C6.07025 2.60013 5.22891 2.48413 5.00625 2.98946C5.07425 3.11746 5.11158 3.27079 5.20358 3.34813C5.53425 3.62146 6.30625 3.32146 6.22091 4.09346C6.15558 4.68813 5.59958 4.76946 5.11291 4.79746C3.94625 4.86946 2.91025 5.41879 1.85291 5.86679C1.72758 5.91879 1.64358 6.22146 1.62891 6.41346C1.61558 6.64146 1.86758 6.89879 1.98891 6.79613C2.92091 5.99346 3.32358 6.87079 3.70891 7.46146C4.17025 8.16546 4.15558 9.00813 3.66358 9.69879C3.19291 10.3588 3.15425 11.1948 2.75025 11.8628C1.32758 10.4255 0.750248 8.44946 0.196915 6.57746C-0.508419 4.19213 0.735581 2.41479 3.05691 2.16813C4.04891 2.06413 4.99958 1.50546 6.03025 1.82679Z" fill="#C4E86B"/>
<path fill-rule="evenodd" clip-rule="evenodd" d="M16.2285 16.5552C17.1658 15.3552 18.5592 14.8299 19.6658 15.3539C20.1045 15.5592 20.4232 15.8405 20.9605 15.5539C21.9658 15.0232 21.9898 15.0699 22.8525 15.9059C23.3418 15.7992 23.3485 15.2885 23.5232 14.9312C24.1445 13.6512 24.2152 13.6272 25.3845 14.6019C25.6138 14.7939 25.8445 14.9165 26.1165 14.8965C27.7938 14.7712 29.6312 15.5365 30.9898 13.7085C31.5192 14.5952 31.2392 15.4165 31.3272 16.1832C27.2592 17.0552 23.1432 16.5379 19.0498 16.6525C18.1112 16.6792 17.1698 16.5899 16.2285 16.5552Z" fill="#C4E86B"/>
<path fill-rule="evenodd" clip-rule="evenodd" d="M77.8331 1.72546C77.6558 3.55879 76.8985 4.34946 75.5998 3.74012C74.1891 3.07479 72.6665 3.13612 71.2505 2.61079C70.5345 2.34412 69.7625 2.25746 69.6611 1.22279C70.0345 0.813455 70.4678 0.909455 70.9051 1.05479C71.1598 1.94812 71.8571 1.69346 72.4305 1.72279C74.2305 1.81212 76.0318 1.38412 77.8331 1.72546Z" fill="#C4E86B"/>
<path fill-rule="evenodd" clip-rule="evenodd" d="M62.734 1.2945C61.8007 1.5665 60.87 1.84383 59.8874 1.73183C59.3407 1.7305 58.794 1.72917 58.25 1.72917C56.1554 1.72917 54.0634 1.73717 51.9714 1.7225C51.39 1.71983 50.7007 1.89717 50.498 0.987834C54.5794 0.966501 58.6607 0.949168 62.7407 0.927834C62.7407 1.04917 62.7394 1.17183 62.734 1.2945Z" fill="#C4E86B"/>
<path fill-rule="evenodd" clip-rule="evenodd" d="M71.3154 15.7585C71.7661 14.5091 73.0581 14.5398 73.8661 13.8278C74.1701 13.5571 74.5234 13.7678 74.7528 14.0425C75.5981 15.0625 76.5688 15.0865 77.6714 14.6025C78.2154 14.3611 78.5674 14.6491 78.6488 15.2851C76.6248 15.9731 74.5034 15.8585 72.4288 16.1358C72.0274 16.1878 71.6074 16.1545 71.3154 15.7585Z" fill="#C4E86B"/>
<path fill-rule="evenodd" clip-rule="evenodd" d="M154.137 13.7571C154.331 13.1451 154.807 13.1638 155.282 13.1478C157.53 13.0838 159.797 13.3945 162.021 12.7385C162.402 12.6225 162.818 12.7358 163.09 13.1345C161.347 13.7358 159.717 14.7345 157.722 14.0198C156.607 13.6185 155.322 14.1051 154.137 13.7571Z" fill="#C4E86B"/>
<path fill-rule="evenodd" clip-rule="evenodd" d="M134.944 0.577677C134.846 0.948343 134.66 1.25768 134.274 1.25634C131.488 1.23901 128.704 1.20834 125.919 1.16568C125.812 1.16568 125.708 1.00834 125.602 0.924343C125.88 0.524343 126.286 0.504343 126.69 0.505677C129.443 0.517677 132.195 0.336343 134.944 0.577677Z" fill="#C4E86B"/>
<path fill-rule="evenodd" clip-rule="evenodd" d="M62.7328 1.2944C62.7382 1.17173 62.7395 1.04907 62.7395 0.927733C63.4275 0.767733 64.1075 0.849066 64.7822 1.01307C65.1675 2.22507 66.1262 1.5304 66.8182 1.72507C66.8862 2.3464 66.9502 2.96773 67.0475 3.89307C66.1448 3.1384 65.2795 3.02507 64.3582 3.00373C63.4182 2.9824 62.6488 2.55173 62.7328 1.2944Z" fill="#C4E86B"/>
<path fill-rule="evenodd" clip-rule="evenodd" d="M32.1406 16.2163C32.2126 15.6163 32.0273 14.6203 33.082 15.3136C33.7766 15.7683 34.414 15.9576 35.138 15.5776C35.4126 14.9416 34.87 14.4176 35.0366 13.8376C35.1206 13.5523 35.222 13.2843 35.5566 13.267C35.866 13.2483 36.1166 13.4163 36.1406 13.731C36.1993 14.5296 36.2006 15.3336 36.226 16.1363C34.8726 16.7736 33.51 16.687 32.1406 16.2163Z" fill="#C4E86B"/>
<path fill-rule="evenodd" clip-rule="evenodd" d="M77.8333 1.72545C76.0319 1.38412 74.2306 1.81212 72.4306 1.72278C71.8573 1.69345 71.1599 1.94812 70.9053 1.05478C73.3626 0.912115 75.8226 0.593448 78.2706 1.16812C78.1253 1.35478 77.9799 1.53878 77.8333 1.72545Z" fill="#C4E86B"/>
<path fill-rule="evenodd" clip-rule="evenodd" d="M49.6599 0.920682C49.4746 1.23802 49.1799 1.28335 48.8692 1.29268C48.0852 1.29402 47.2999 1.29935 46.5146 1.29402C45.9652 1.29268 45.6666 1.58335 45.6026 2.16602C44.9306 1.74868 44.2612 1.33135 43.5879 0.915349C45.6119 0.194016 47.6346 0.243349 49.6599 0.920682Z" fill="#C4E86B"/>
<path fill-rule="evenodd" clip-rule="evenodd" d="M80.2797 1.72845C79.8984 1.71245 79.5744 1.59778 79.4277 1.16845C81.6184 0.808448 83.8051 0.565781 85.9717 1.33511C85.1491 2.07511 84.1771 1.64311 83.2771 1.70978C82.2811 1.78311 81.2797 1.72845 80.2797 1.72845Z" fill="#C4E86B"/>
<path fill-rule="evenodd" clip-rule="evenodd" d="M31.7305 0.680469C29.9358 1.9338 27.6185 1.99914 26.4238 0.827136C28.1785 0.225802 29.9545 0.461802 31.7305 0.680469Z" fill="#C4E86B"/>
<path fill-rule="evenodd" clip-rule="evenodd" d="M11.3358 1.41873C11.2078 1.83073 11.0704 2.23873 10.9544 2.65606C10.7011 3.56806 10.1451 3.76406 9.72243 2.95339C9.13043 1.81739 7.88777 2.56673 7.25977 1.73739C8.57177 0.930727 9.97843 1.51873 11.3358 1.41873Z" fill="#C4E86B"/>
<path fill-rule="evenodd" clip-rule="evenodd" d="M143.109 13.9595C143.184 13.5821 143.336 13.2128 143.723 13.2048C145.205 13.1741 146.695 13.1741 148.179 13.1981C148.568 13.2021 148.736 13.5488 148.816 13.9261C146.915 13.9368 145.011 13.9488 143.109 13.9595Z" fill="#C4E86B"/>
<path fill-rule="evenodd" clip-rule="evenodd" d="M3.13184 12.2929C3.46384 12.3236 3.8185 12.2809 4.12384 12.3943C5.7345 12.9969 5.99317 13.5689 5.5785 15.4609C4.25984 14.8569 3.82384 13.4623 3.13184 12.2929Z" fill="#C4E86B"/>
<path fill-rule="evenodd" clip-rule="evenodd" d="M44.377 15.7534C44.593 13.8294 44.821 13.6521 46.265 14.5548C46.7436 14.8548 47.5516 14.7548 47.6436 15.6428C46.5556 15.6788 45.4663 15.7161 44.377 15.7534Z" fill="#C4E86B"/>
<path fill-rule="evenodd" clip-rule="evenodd" d="M144.742 0.121696C144.679 0.57103 144.455 1.18036 144.104 1.07236C142.84 0.689696 141.45 1.2537 140.266 0.43503C141.718 -0.330304 143.246 0.153696 144.742 0.121696Z" fill="#C4E86B"/>
<path fill-rule="evenodd" clip-rule="evenodd" d="M59.0537 16.0107C59.123 15.6133 59.003 15.0653 59.607 15.0627C59.9284 15.0627 60.2644 15.4027 60.5657 15.14C61.931 13.956 62.071 15.1653 62.3324 16.1613C61.2324 16.2973 60.139 16.264 59.0537 16.0107Z" fill="#C4E86B"/>
<path fill-rule="evenodd" clip-rule="evenodd" d="M150.042 0.53192C149.997 0.66392 149.969 0.905253 149.902 0.91592C148.642 1.16792 147.41 1.19459 146.378 0.173253C147.63 -0.0760803 148.855 0.00258636 150.042 0.53192Z" fill="#C4E86B"/>
<path fill-rule="evenodd" clip-rule="evenodd" d="M120.261 1.13661C120.061 1.88328 119.583 2.36195 118.908 2.02595C118.291 1.71928 117.517 1.96995 117.021 1.33928C118.064 0.565945 119.168 0.920612 120.261 1.13661Z" fill="#C4E86B"/>
<path fill-rule="evenodd" clip-rule="evenodd" d="M10.1113 16.6463C10.1567 16.3569 10.2713 15.8916 10.4913 15.9809C11.4247 16.3596 12.5193 15.8903 13.3633 16.6449C12.2793 17.4049 11.194 17.1023 10.1113 16.6463Z" fill="#C4E86B"/>
<path fill-rule="evenodd" clip-rule="evenodd" d="M66.8192 1.72547C66.1272 1.52947 65.1685 2.22414 64.7832 1.01347C65.8805 0.957472 67.0005 0.573472 68.0579 1.23747C67.7805 1.79747 67.2819 1.71347 66.8192 1.72547Z" fill="#C4E86B"/>
<path fill-rule="evenodd" clip-rule="evenodd" d="M39.4685 0.890802C38.5992 1.42414 37.7565 1.6828 37.0352 0.632135C37.8672 0.474802 38.7112 0.198802 39.4685 0.890802Z" fill="#C4E86B"/>
<path fill-rule="evenodd" clip-rule="evenodd" d="M153.708 0.639567C152.664 1.5689 152.159 1.5489 151.27 0.5449C152.088 0.423567 152.903 0.3729 153.708 0.639567Z" fill="#C4E86B"/>
<path fill-rule="evenodd" clip-rule="evenodd" d="M98.23 1.41529C97.4233 2.44329 97.0166 2.44595 96.1953 1.42862C96.8713 1.26729 97.55 1.27529 98.23 1.41529Z" fill="#C4E86B"/>
<path fill-rule="evenodd" clip-rule="evenodd" d="M102.736 15.3059C103.26 14.9805 103.759 13.7965 104.336 15.2499C103.822 15.8805 103.287 15.8365 102.736 15.3059Z" fill="#C4E86B"/>
<path fill-rule="evenodd" clip-rule="evenodd" d="M81.5117 15.3309C82.7077 14.3483 82.7117 14.3483 83.1544 15.4349C82.5824 15.8616 82.0304 15.8976 81.5117 15.3309Z" fill="#C4E86B"/>
<path fill-rule="evenodd" clip-rule="evenodd" d="M149.656 13.9826C150.331 13.4106 150.999 13.3986 151.663 14.0026C150.99 14.5746 150.319 14.5866 149.656 13.9826Z" fill="#C4E86B"/>
<path fill-rule="evenodd" clip-rule="evenodd" d="M15.4093 1.72872C15.2387 1.84339 15.068 1.95539 14.8973 2.06872C13.9973 2.67006 14 2.67006 13.7773 1.37006C14.316 1.20072 14.8627 1.21139 15.4107 1.27939C15.4107 1.42872 15.4107 1.57806 15.4093 1.72872Z" fill="#C4E86B"/>
<path fill-rule="evenodd" clip-rule="evenodd" d="M55.3984 15.7811C56.0091 15.2357 56.5798 15.0344 57.0211 15.9917C56.4478 16.2171 55.8891 16.3211 55.3984 15.7811Z" fill="#C4E86B"/>
<path fill-rule="evenodd" clip-rule="evenodd" d="M112.916 1.42184C112.204 2.44584 111.975 2.44317 111.288 1.40317C111.832 1.2725 112.375 1.26717 112.916 1.42184Z" fill="#C4E86B"/>
<path fill-rule="evenodd" clip-rule="evenodd" d="M7.66895 16.2143C8.36095 15.6609 8.97828 15.4369 9.29428 16.6236C8.71828 16.6463 8.11428 16.7969 7.66895 16.2143Z" fill="#C4E86B"/>
<path fill-rule="evenodd" clip-rule="evenodd" d="M15.4102 1.72868C15.4115 1.57802 15.4115 1.42868 15.4115 1.27935C15.9195 0.766018 16.4822 0.880685 17.0515 1.11402C16.9475 1.58868 16.6222 1.71535 16.2262 1.73535C15.9542 1.73268 15.6808 1.73135 15.4102 1.72868Z" fill="#C4E86B"/>
<path fill-rule="evenodd" clip-rule="evenodd" d="M42.7553 0.994662C42.1939 1.952 42.0953 1.952 41.5166 1.012C41.9286 0.843996 42.3393 0.851996 42.7553 0.994662Z" fill="#C4E86B"/>
<path fill-rule="evenodd" clip-rule="evenodd" d="M19.9069 0.989482C19.3522 1.95215 19.2536 1.95348 18.6709 1.01215C19.0802 0.858815 19.4936 0.857482 19.9069 0.989482Z" fill="#C4E86B"/>
<path fill-rule="evenodd" clip-rule="evenodd" d="M65.1865 16.0378C65.4679 15.1698 65.8905 15.1725 66.4159 15.8058C66.0665 16.2565 65.6345 16.2005 65.1865 16.0378Z" fill="#C4E86B"/>
<path fill-rule="evenodd" clip-rule="evenodd" d="M138.62 0.551512C138.047 1.52218 137.931 1.52085 137.397 0.518179C137.808 0.410179 138.215 0.403512 138.62 0.551512Z" fill="#C4E86B"/>
<path fill-rule="evenodd" clip-rule="evenodd" d="M106.798 1.42919C106.261 2.38786 106.161 2.38919 105.577 1.47319C105.98 1.30386 106.385 1.30386 106.798 1.42919Z" fill="#C4E86B"/>
<path fill-rule="evenodd" clip-rule="evenodd" d="M23.5745 1.30127C23.5652 1.18127 23.5625 1.06127 23.5625 0.94127C23.9612 0.766603 24.3598 0.27327 24.7638 0.934603C24.4518 1.37994 23.9932 1.26527 23.5745 1.30127Z" fill="#C4E86B"/>
<path fill-rule="evenodd" clip-rule="evenodd" d="M152.491 13.8751C152.537 13.6191 152.593 13.3391 152.883 13.3231C153.182 13.3057 153.253 13.5791 153.306 13.8351C153.039 13.9751 152.767 13.9777 152.491 13.8751Z" fill="#C4E86B"/>
<path fill-rule="evenodd" clip-rule="evenodd" d="M67.2207 15.8056C67.498 15.3349 67.7754 15.3429 68.05 15.8109C67.77 16.1882 67.494 16.1909 67.2207 15.8056Z" fill="#C4E86B"/>
<path fill-rule="evenodd" clip-rule="evenodd" d="M79.4697 15.3377C79.7577 14.8844 80.0284 14.9164 80.2871 15.367C80.0017 15.7657 79.7311 15.7244 79.4697 15.3377Z" fill="#C4E86B"/>
<path fill-rule="evenodd" clip-rule="evenodd" d="M137.413 14.4307C137.665 14.0107 137.926 13.9961 138.19 14.4161C137.938 14.8361 137.676 14.8347 137.413 14.4307Z" fill="#C4E86B"/>
<path fill-rule="evenodd" clip-rule="evenodd" d="M156.964 0.886202C156.655 1.33687 156.388 1.25154 156.149 0.811535C156.452 0.456868 156.721 0.486202 156.964 0.886202Z" fill="#C4E86B"/>
<path fill-rule="evenodd" clip-rule="evenodd" d="M104.757 1.46822C104.697 1.76422 104.617 2.09489 104.259 1.98689C104.121 1.94689 104.048 1.65755 103.945 1.48155C104.215 1.34822 104.485 1.34822 104.757 1.46822Z" fill="#C4E86B"/>
<path fill-rule="evenodd" clip-rule="evenodd" d="M91.704 1.45916C91.6453 1.7565 91.5693 2.0925 91.2093 1.9885C91.072 1.9485 90.9946 1.65916 90.8906 1.48583C91.1613 1.47916 91.4333 1.4685 91.704 1.45916Z" fill="#C4E86B"/>
<path fill-rule="evenodd" clip-rule="evenodd" d="M87.597 1.41165C87.4597 1.58631 87.341 1.55965 87.2344 1.37698C87.361 1.32765 87.481 1.33698 87.597 1.41165Z" fill="#C4E86B"/>
<path fill-rule="evenodd" clip-rule="evenodd" d="M102.787 11.8795C102.896 11.4608 103.067 11.0475 103.112 10.6221C103.207 9.71548 103.728 9.50215 104.398 9.74081C105.207 10.0248 105.942 10.3008 106.608 9.43281C106.779 9.21148 107.098 9.18881 107.331 9.42615C107.579 9.67681 107.39 9.95148 107.352 10.2288C107.202 11.3328 106.367 11.7355 105.607 11.6461C104.76 11.5448 104.392 11.7355 104.151 12.5621C104.048 12.9195 103.687 13.1181 103.32 12.9515C102.9 12.7595 102.74 12.3688 102.787 11.8795Z" fill="#C4E86B"/>
<path fill-rule="evenodd" clip-rule="evenodd" d="M170.109 5.66016C169.775 5.64416 169.385 5.62282 169.399 5.14949C169.411 4.77349 169.676 4.49482 170.068 4.52282C170.44 4.55349 170.679 4.80682 170.683 5.20949C170.687 5.59482 170.371 5.60149 170.109 5.66016Z" fill="#C4E86B"/>
<path fill-rule="evenodd" clip-rule="evenodd" d="M125.654 2.32962C126.027 2.39628 126.453 2.51895 126.563 2.97895C126.65 3.33095 126.307 3.44162 126.037 3.44695C125.607 3.45362 125.211 3.35895 125.249 2.74828C125.263 2.52028 125.378 2.34562 125.654 2.32962Z" fill="#C4E86B"/>
<path fill-rule="evenodd" clip-rule="evenodd" d="M122.241 4.61996C122.177 4.71996 122.102 4.97729 121.974 5.01063C121.632 5.10529 121.564 4.80263 121.56 4.51729C121.554 4.28396 121.685 4.12396 121.901 4.13329C122.117 4.13996 122.22 4.31063 122.241 4.61996Z" fill="#C4E86B"/>
<path fill-rule="evenodd" clip-rule="evenodd" d="M127.434 4.6818C127.386 4.80447 127.338 4.9258 127.289 5.0498C127.175 4.9938 126.998 4.96847 126.966 4.8818C126.933 4.79514 127.045 4.64447 127.095 4.52314C127.207 4.57647 127.321 4.6298 127.434 4.6818Z" fill="#C4E86B"/>
<path fill-rule="evenodd" clip-rule="evenodd" d="M58.2499 1.72835C58.7939 1.72835 59.3392 1.72969 59.8859 1.73102C59.8406 2.74035 60.1219 3.45235 61.2086 3.48302C61.4766 3.49235 61.7579 3.50969 62.0046 3.60835C62.3246 3.73369 62.6246 3.95769 62.5139 4.41102C62.4286 4.75369 62.1246 4.74435 61.8619 4.79235C60.5512 5.02302 59.5792 4.06569 58.5019 3.57635C57.9806 3.33902 58.3139 2.36702 58.2499 1.72835Z" fill="#C4E86B"/>
<path fill-rule="evenodd" clip-rule="evenodd" d="M45.6035 2.16521C45.6675 1.58254 45.9662 1.29187 46.5155 1.29454C47.3008 1.29854 48.0862 1.29321 48.8702 1.29187C48.0448 2.72787 46.8448 2.53054 45.6035 2.16521Z" fill="#C4E86B"/>
<path fill-rule="evenodd" clip-rule="evenodd" d="M44.3668 9.98447C43.9468 9.8978 43.6361 9.55247 43.6348 8.99113C43.6348 8.58713 43.8934 8.3458 44.2881 8.4018C44.8228 8.47513 45.1228 8.8458 45.1228 9.40447C45.1268 9.80447 44.8721 10.0365 44.3668 9.98447Z" fill="#C4E86B"/>
<path fill-rule="evenodd" clip-rule="evenodd" d="M40.2042 3.15959C40.2362 3.47825 40.1402 3.73159 39.8336 3.80759C39.4242 3.90759 39.1802 3.68092 39.1589 3.26225C39.1456 2.96092 39.3256 2.71292 39.6402 2.70092C39.9242 2.68892 40.1549 2.81025 40.2042 3.15959Z" fill="#C4E86B"/>
<path fill-rule="evenodd" clip-rule="evenodd" d="M78.9011 10.8367C78.8518 10.9594 78.8264 11.1474 78.7438 11.1847C78.6638 11.2181 78.5251 11.0967 78.4131 11.0421C78.4611 10.9221 78.4864 10.7301 78.5678 10.6954C78.6504 10.6621 78.7904 10.7834 78.9011 10.8367Z" fill="#C4E86B"/>
<path fill-rule="evenodd" clip-rule="evenodd" d="M71.5583 3.80525C71.509 3.92525 71.4823 4.11325 71.3996 4.14925C71.321 4.18525 71.1823 4.06258 71.0703 4.01058C71.1196 3.88658 71.1423 3.69725 71.225 3.66258C71.3063 3.62925 71.445 3.74925 71.5583 3.80525Z" fill="#C4E86B"/>
<path fill-rule="evenodd" clip-rule="evenodd" d="M29.9015 6.93115C29.6175 6.88315 29.4615 6.76982 29.4895 6.52582C29.5162 6.29782 29.6882 6.18582 29.8869 6.19515C30.1669 6.20715 30.3975 6.36315 30.2989 6.69115C30.2629 6.82049 30.0029 6.87382 29.9015 6.93115Z" fill="#C4E86B"/>
</svg>
