<svg width="294" height="107" viewBox="0 0 294 107" fill="none" xmlns="http://www.w3.org/2000/svg">
<path d="M18.8467 76.3958C23.3887 76.2381 27.5027 75.9546 31.6138 75.999C33.659 76.0272 34.552 77.7966 33.7577 79.8754C32.5082 83.1505 31.1865 86.4002 29.7425 89.5941C29.0941 91.0242 27.8416 92.0034 26.5479 90.2622C24.1417 87.0182 21.8371 83.6884 19.6785 80.278C19.0891 79.3461 19.1657 77.997 18.8467 76.3958Z" fill="#0D0D0D"/>
<path d="M56.54 65.0511C60.6961 65.3114 64.4751 65.4913 68.24 65.813C69.7198 65.9404 70.2443 66.8258 69.7127 68.3614C68.4583 71.9942 67.354 75.6849 66.0471 79.3014C65.7976 79.9795 64.9429 80.6929 64.2427 80.8504C63.8273 80.9459 62.9712 80.1098 62.6593 79.512C60.7627 75.8736 58.9186 72.2025 57.1652 68.4888C56.7612 67.6308 56.798 66.5554 56.54 65.0511Z" fill="#0D0D0D"/>
<path d="M48.0281 58.3355C46.5083 61.0363 44.9943 63.7437 43.4614 66.4417C42.5402 68.0625 41.5197 69.6291 40.6715 71.2823C39.5459 73.4821 38.0626 73.4195 36.8961 71.6339C35.5763 69.6075 34.5675 67.333 33.6886 65.0614C31.1659 58.5298 29.3658 58.4392 38.0903 57.7929C41.1576 57.5668 44.2264 57.3627 47.2981 57.1478C47.5404 57.5433 47.7857 57.9388 48.0281 58.3355Z" fill="#0D0D0D"/>
<path d="M13.983 93.017C13.2752 94.9085 12.961 96.1403 12.375 97.2255C10.8123 100.104 9.12218 102.917 7.50286 105.763C6.58705 107.375 5.24233 107.378 4.53035 105.969C2.82469 102.598 1.41628 99.0632 0.0163634 95.5476C-0.116692 95.2215 0.593891 94.1051 0.981734 94.0705C5.08098 93.6544 9.19154 93.3821 13.983 93.017Z" fill="#0D0D0D"/>
<path d="M41.3408 79.7056C45.2538 79.2582 48.8506 78.742 52.4619 78.4648C56.5054 78.1571 57.4365 79.6762 55.7208 83.3763C54.3981 86.2359 53.1595 89.1362 51.8731 92.0107C51.0319 93.8925 49.5032 94.1561 48.4271 92.6592C45.9326 89.1923 43.7469 85.5009 41.5062 81.8509C41.2277 81.404 41.4003 80.6748 41.3408 79.7056Z" fill="#0D0D0D"/>
<path d="M112.472 62.0462C116.95 62.0462 121.051 61.9393 125.138 62.1001C126.842 62.1696 127.398 63.6524 126.871 65.1184C125.641 68.5435 124.291 71.929 122.8 75.2467C122.327 76.3033 121.076 77.3359 120.043 75.8888C117.539 72.3792 115.215 68.7416 112.909 65.0995C112.548 64.5259 112.677 63.6357 112.472 62.0462Z" fill="#0D0D0D"/>
<path d="M82.0742 61.4035C86.2315 61.6772 90.0102 61.8656 93.7763 62.1997C95.2504 62.3285 95.779 63.2477 95.2475 64.8466C93.996 68.6161 92.8904 72.4448 91.5807 76.1992C91.3355 76.9016 90.4766 77.6427 89.7806 77.8104C89.3639 77.9101 88.5078 77.0413 88.196 76.4161C86.2995 72.6397 84.4512 68.833 82.7007 64.9787C82.2953 64.0804 82.3336 62.9687 82.0742 61.4035Z" fill="#0D0D0D"/>
<path d="M144.693 79.8072C143.166 82.4627 141.696 85.0258 140.227 87.5787C139.524 88.7984 138.792 90.002 138.108 91.2308C136.851 93.4781 135.589 93.6793 134.353 91.4097C132.69 88.3361 131.42 85.0362 130.132 81.7728C129.957 81.3251 130.604 80.0217 130.962 79.982C134.984 79.5635 139.022 79.2934 143.059 79.0353C143.435 79.0101 143.836 79.3846 144.693 79.8072Z" fill="#0D0D0D"/>
<path d="M245.005 54.108C244.296 55.9991 243.984 57.2337 243.402 58.313C241.833 61.1997 240.148 64.0078 238.524 66.8577C237.611 68.4662 236.267 68.4662 235.553 67.062C233.848 63.6919 232.441 60.1576 231.039 56.641C230.906 56.3121 231.618 55.2004 232.007 55.1614C236.102 54.7454 240.214 54.4714 245.005 54.108Z" fill="#0D0D0D"/>
<path d="M122.807 42.0628C121.832 43.9351 120.818 45.9596 119.721 47.935C118.596 49.9623 117.34 51.9102 116.223 53.9375C115.338 55.5528 113.935 55.8319 113.15 54.3746C111.278 50.8642 109.781 47.1482 108.233 43.4731C108.105 43.17 108.734 42.141 109.059 42.1153C113.376 41.7797 117.706 41.5676 122.035 41.341C122.155 41.3368 122.29 41.5711 122.807 42.0628ZM114.132 43.4625C113.916 43.3308 113.7 43.2015 113.478 43.0687C113.117 43.7055 112.753 44.3425 112.394 44.9852C112.525 45.0692 112.657 45.1524 112.791 45.2404C113.236 44.6467 113.685 44.0528 114.132 43.4625Z" fill="#0D0D0D"/>
<path d="M77.9123 89.5023C78.9714 89.5023 80.0466 89.375 81.0761 89.5278C83.1129 89.8235 83.7894 91.1906 82.918 93.009C81.438 96.0797 79.9757 99.1562 78.475 102.218C77.4219 104.375 75.7869 104.566 74.3276 102.584C72.1401 99.6104 70.0279 96.5764 68.0428 93.4731C67.1226 92.0382 67.1639 90.7165 69.4991 90.4688C72.3055 90.1745 75.0956 89.7443 77.8901 89.3693C77.899 89.4117 77.9064 89.4556 77.9123 89.5023Z" fill="#0D0D0D"/>
<path d="M274.188 25.5534C278.814 25.5534 282.534 25.5005 286.252 25.5696C289.101 25.618 290.04 27.2246 288.937 29.9635C287.724 32.9608 286.536 35.964 285.309 38.954C284.464 41.0069 283.144 41.3403 281.884 39.6542C279.69 36.7159 277.569 33.7054 275.639 30.5876C274.922 29.423 274.828 27.8664 274.188 25.5534Z" fill="#0D0D0D"/>
<path d="M227.983 12.6452C227.51 13.5962 227.313 13.9684 227.13 14.3548C225.646 17.4505 224.174 20.5547 222.688 23.6561C221.639 25.8378 220.156 26.1886 218.748 24.3392C216.337 21.1736 214.102 17.8783 211.957 14.5345C211.204 13.3624 211.495 12.129 213.27 11.945C217.054 11.5486 220.839 11.0567 224.633 10.944C225.719 10.907 226.838 12.032 227.983 12.6452Z" fill="#0D0D0D"/>
<path d="M151.988 74.8058C156.51 74.8058 160.428 74.7269 164.335 74.8366C166.758 74.8985 167.753 76.4536 166.869 78.6659C165.646 81.7095 164.375 84.7448 162.983 87.7198C162.372 89.0234 161.181 90.2272 159.859 88.5416C157.354 85.3291 155.043 81.9597 152.794 78.566C152.284 77.7979 152.36 76.6708 151.988 74.8058Z" fill="#0D0D0D"/>
<path d="M259.529 24.9262C262.152 25.0585 264.312 25.1433 266.472 25.2786C267.67 25.3485 268.504 25.6994 267.913 27.2728C267.208 29.1509 266.716 31.1228 265.981 32.9846C265.079 35.2881 264 37.5128 263.053 39.7938C262.311 41.5695 261.221 41.9041 260.346 40.3398C258.053 36.2621 255.908 32.0953 253.8 27.9092C253.039 26.3999 253.897 25.5567 255.343 25.3485C256.885 25.1344 258.442 25.0347 259.529 24.9262Z" fill="#0D0D0D"/>
<path d="M185.426 34.6886C189.985 34.6886 193.995 34.5875 198.003 34.7282C200.128 34.8059 201.131 36.4197 200.373 38.444C199.124 41.7978 197.774 45.1237 196.283 48.3764C195.607 49.8466 194.191 50.537 193.008 48.9275C190.678 45.7614 188.459 42.4926 186.395 39.1417C185.783 38.1347 185.844 36.7188 185.426 34.6886Z" fill="#0D0D0D"/>
<path d="M217.647 65.0369C217.339 65.7327 216.901 66.6605 216.51 67.6074C215.559 69.9049 214.709 72.2385 213.644 74.4789C213.239 75.3277 212.471 76.2073 211.641 76.5798C211.25 76.7535 210.111 75.8846 209.653 75.2531C207.428 72.1824 205.111 69.1475 203.219 65.879C201.704 63.2514 202.413 62.3107 205.451 62.1902C208.525 62.0653 211.598 62.0597 214.675 62.0121C216.557 61.9851 217.69 62.7539 217.647 65.0369Z" fill="#0D0D0D"/>
<path d="M130.71 45.0298C135.527 45.0298 139.668 44.9081 143.798 45.0832C145.65 45.1616 146.29 46.7207 145.691 48.3912C144.448 51.8765 143.101 55.3272 141.6 58.7006C140.957 60.1484 139.622 60.9193 138.41 59.2163C136.119 55.9907 133.896 52.7141 131.812 49.3476C131.218 48.3912 131.202 47.0594 130.71 45.0298ZM140.011 50.984C140.138 51.0211 140.259 51.064 140.387 51.1027C140.725 50.0976 141.066 49.0935 141.406 48.0884C141.221 48.0292 141.042 47.9759 140.854 47.916C140.575 48.9363 140.296 49.9607 140.011 50.984Z" fill="#0D0D0D"/>
<path d="M103.031 95.2037C100.554 90.0943 97.168 85.3906 95.4492 79.034C100.201 79.3548 104.254 79.5519 108.281 80.0036C108.767 80.0553 109.588 81.6247 109.406 82.249C108.308 86.0508 106.984 89.7894 105.681 93.5279C105.376 94.4054 104.86 95.2109 104.439 96.0568C103.971 95.7705 103.502 95.4857 103.031 95.2037Z" fill="#0D0D0D"/>
<path d="M179.954 65.0979C183.943 65.0979 187.408 64.9637 190.85 65.1496C192.857 65.2646 193.882 66.3705 193.024 68.7448C191.801 72.122 190.853 75.6049 189.629 78.981C189.34 79.775 188.485 80.7674 187.797 80.8543C187.23 80.9267 186.309 79.9062 185.92 79.1623C184.154 75.7455 182.471 72.278 180.871 68.7731C180.39 67.7138 180.285 66.4694 179.954 65.0979Z" fill="#0D0D0D"/>
<path d="M245.006 1.82392C249.119 2.04749 252.803 2.18507 256.478 2.47456C257.997 2.59208 258.744 3.51357 258.208 5.15449C257.012 8.80608 255.879 12.482 254.568 16.0964C254.323 16.7642 253.444 17.3661 252.729 17.6183C252.395 17.7316 251.542 17.0451 251.281 16.5306C249.291 12.6626 247.351 8.76595 245.483 4.83204C245.146 4.11834 245.208 3.20401 245.006 1.82392ZM249.561 6.73666C249.759 6.81835 249.958 6.8943 250.157 6.96739C250.559 6.14191 250.959 5.31786 251.36 4.49095C251.115 4.38347 250.87 4.26883 250.621 4.15704C250.268 5.01978 249.917 5.88252 249.561 6.73666Z" fill="#0D0D0D"/>
<path d="M167.187 51.4292C166.098 53.6957 165.34 55.4299 164.45 57.0869C163.301 59.2159 162.009 61.2659 160.837 63.3834C159.68 65.4615 158.567 65.6706 157.358 63.5971C156.107 61.4522 155.209 59.0685 154.305 56.7271C152.492 52.0261 152.538 52.0084 157.369 51.6182C159.632 51.4366 161.888 51.2012 164.15 51.0738C164.94 51.0298 165.742 51.2527 167.187 51.4292Z" fill="#0D0D0D"/>
<path d="M234.67 79.8739C233.136 82.6337 231.682 85.2585 230.226 87.8824C229.635 88.9444 229.021 89.9904 228.459 91.0656C227.158 93.5692 225.916 93.7289 224.603 91.1669C223.06 88.1707 221.893 84.9582 220.711 81.7766C220.554 81.3588 221.214 80.1067 221.589 80.0627C225.354 79.6083 229.132 79.3039 232.912 79.0355C233.333 79.0064 233.786 79.4344 234.67 79.8739ZM228.515 85.2014C228.422 85.1534 228.326 85.1018 228.231 85.0492C227.95 85.6237 227.667 86.1918 227.389 86.7601C227.485 86.8087 227.581 86.854 227.68 86.9009C227.96 86.3367 228.236 85.7702 228.515 85.2014Z" fill="#0D0D0D"/>
<path d="M262.637 3.03974C266.94 3.2619 270.786 3.40237 274.623 3.68903C276.22 3.80799 277 4.7339 276.438 6.37073C275.187 10.0257 274.002 13.7007 272.634 17.3126C272.377 17.9848 271.455 18.5882 270.71 18.8333C270.363 18.9508 269.47 18.2614 269.196 17.7526C267.112 13.8827 265.092 9.98409 263.14 6.05254C262.784 5.33446 262.852 4.42574 262.637 3.03974ZM267.398 7.95454C267.608 8.0348 267.813 8.1079 268.02 8.18243C268.44 7.36115 268.862 6.5327 269.281 5.70711C269.022 5.59532 268.765 5.48496 268.505 5.37459C268.138 6.23744 267.769 7.09599 267.398 7.95454Z" fill="#0D0D0D"/>
<path d="M243.182 30.1886C241.829 32.4761 240.486 34.7665 239.123 37.0457C238.304 38.4182 237.392 39.7436 236.641 41.1423C235.641 43.0044 234.321 42.9491 233.288 41.4383C232.116 39.7213 231.217 37.8008 230.433 35.8803C228.193 30.3541 226.595 30.2831 234.347 29.7325C237.075 29.5406 239.803 29.3681 242.531 29.1818C242.746 29.5211 242.967 29.8562 243.182 30.1886Z" fill="#0D0D0D"/>
<path d="M278.443 0.0321226C283.088 0.0321226 287.039 -0.0619326 290.984 0.0717812C293.103 0.140842 294.139 1.72778 293.41 3.74525C292.191 7.11162 290.828 10.431 289.4 13.7121C288.624 15.496 287.079 15.7017 286 14.1823C283.879 11.195 281.792 8.17546 279.896 5.03538C279.194 3.86134 279.077 2.31114 278.443 0.0321226Z" fill="#0D0D0D"/>
</svg>
