<svg width="342" height="261" viewBox="0 0 342 261" fill="none" xmlns="http://www.w3.org/2000/svg">
<path d="M312.532 154.637C312.295 153.639 312.062 152.636 311.795 151.64C312.01 149.382 312.116 147.311 312.158 145.649C312.404 136.248 310.951 126.831 308.377 117.634C308.856 119.031 309.317 120.421 309.756 121.802C312.43 130.275 314.285 139.187 314.968 148.153C314.263 150.383 313.45 152.543 312.532 154.637ZM70.3932 40.8593C69.3164 42.9802 68.3528 45.138 67.5262 47.3372C61.6357 51.046 56.3868 55.3399 52.0146 60.2864C41.034 69.5116 30.2535 80.8837 23.7735 92.767C22.4074 93.8829 21.1871 95.1163 20.0886 96.428C28.2262 73.8294 46.7222 54.9005 70.3932 40.8593ZM50.0134 169.107C50.3679 169.529 50.6986 169.964 51.051 170.382C50.6921 170.012 50.3723 169.607 50.0221 169.229C50.0177 169.19 50.0156 169.148 50.0134 169.107ZM329.812 88.0272C318.699 70.7776 300.411 54.348 284.382 41.2226C273.95 32.6826 261.973 25.537 249.128 19.716C222.344 2.67303 192.15 -1.96237 160.046 0.700104C157.603 0.687073 155.164 0.691406 152.752 0.75885C151.684 0.784943 150.755 1.0177 149.957 1.38968C130.388 1.01334 110.859 4.46109 94.8472 14.4454C44.5122 33.3287 -1.98786 71.3149 0.0655617 126.205C1.04007 152.229 9.54307 178.571 22.5488 201.409C34.8476 223.007 54.9011 237.327 78.6134 246.648C119.484 262.716 165.901 264.4 209.467 255.923C216.791 254.911 223.956 253.256 230.839 250.896C237.684 248.999 244.414 246.865 251.003 244.499C273.201 236.518 297.442 225.306 311.766 206.704C324.55 190.1 328.998 170.066 328.065 149.806C328.966 146.748 329.651 143.635 330.149 140.5C333.562 144.203 341.745 142.926 341.698 136.62C341.574 119.305 339.498 103.06 329.812 88.0272Z" fill="#C4E86B"/>
</svg>
