<svg width="591" height="167" viewBox="0 0 591 167" fill="none" xmlns="http://www.w3.org/2000/svg">
<path d="M84.9958 2.36879C84.9958 2.59439 84.8832 2.93279 84.6579 3.38399C84.4326 3.72239 84.4326 4.00439 84.6579 4.22999H84.3199C84.0946 4.22999 83.8693 4.17359 83.644 4.06079C83.5314 4.28638 83.1934 4.56838 82.6302 4.90679C82.1796 5.13239 82.4049 5.41439 83.3061 5.75278C83.3061 5.75278 82.8555 6.31678 81.9542 7.44478C81.9542 7.55758 81.8979 7.83958 81.7853 8.29077C81.6726 8.62918 81.9543 8.79838 82.6302 8.79838C81.2783 9.70078 80.0955 10.3212 79.0816 10.6596C78.0678 10.998 76.9976 11.3364 75.871 11.6748C74.8572 11.9004 73.1111 12.2952 70.6327 12.8592C68.1544 13.4232 65.845 13.8744 63.7046 14.2128C61.5643 14.4384 59.5365 14.5512 57.6214 14.5512C57.5088 14.5512 56.8329 14.5512 55.5937 14.5512C54.4672 14.4384 52.2705 14.382 49.0036 14.382C45.8493 14.382 43.7653 14.4948 42.7514 14.7204L42.2445 15.3972C41.4559 20.0219 40.611 24.8723 39.7098 29.9483C38.9212 34.9115 38.1327 39.3671 37.3441 43.3151C36.7808 45.7967 36.1613 48.5039 35.4853 51.4367C34.8094 54.3695 34.0209 57.5843 33.1197 61.0811C32.5564 63.6754 31.7678 66.2134 30.754 68.695C29.7401 71.1766 29.1768 73.7146 29.0642 76.309C30.6413 74.8426 32.5564 73.7146 34.8094 72.925C37.1751 72.0226 39.1465 71.1766 40.7237 70.387C42.9767 69.0334 44.9481 68.3002 46.6379 68.1874C48.3277 68.0746 49.9048 68.0182 51.3693 68.0182C52.9464 68.0182 54.9178 68.1874 57.2835 68.5258C59.6492 68.8642 61.9585 69.5974 64.2116 70.7254C66.4646 71.7406 68.3234 73.1506 69.7878 74.9554C71.365 76.6474 72.1535 78.7906 72.1535 81.385C72.1535 83.5282 71.6466 86.1226 70.6327 89.1682C69.6189 92.101 68.3797 95.0902 66.9152 98.1358C65.5634 101.181 64.0426 104.114 62.3528 106.934C60.663 109.641 59.1986 111.841 57.9594 113.533C57.1708 114.548 56.0443 115.733 54.5798 117.086C53.228 118.327 51.9325 119.511 50.6934 120.639C49.6795 121.655 48.2713 122.895 46.4689 124.362C44.7791 125.715 43.0894 127.012 41.3996 128.253C39.8224 129.381 38.4143 130.34 37.1751 131.13C35.936 132.032 35.2037 132.483 34.9784 132.483C34.5278 132.483 33.9645 132.314 33.2886 131.976C32.7254 131.75 32.1621 131.524 31.5989 131.299C31.3736 131.186 30.8666 131.13 30.0781 131.13C29.4021 131.13 28.8389 130.904 28.3883 130.453C27.7124 130.227 26.8675 129.72 25.8536 128.93C24.8397 128.028 24.2765 127.52 24.1638 127.407C24.0512 127.294 23.9949 126.956 23.9949 126.392C22.8683 125.264 21.9108 123.967 21.1222 122.501C20.4463 120.921 20.1647 119.793 20.2773 119.117C20.5026 118.44 21.0096 118.609 21.7981 119.624C22.0234 120.301 22.7557 120.809 23.9949 121.147C25.234 121.485 26.1916 121.655 26.8675 121.655C27.3181 121.655 27.4307 121.598 27.2054 121.485C27.0928 121.373 27.1491 121.203 27.3744 120.978C27.4871 120.865 27.8813 120.752 28.5573 120.639C29.2332 120.414 29.9654 120.301 30.754 120.301C30.9793 120.301 31.1482 120.075 31.2609 119.624C31.4862 119.173 31.8805 118.835 32.4437 118.609C33.1197 118.045 33.9082 117.425 34.8094 116.748C35.7107 116.071 36.3302 115.507 36.6682 115.056C37.1188 114.605 37.7384 113.984 38.5269 113.195C39.4282 112.292 41.2869 110.149 44.1032 106.765C46.9195 103.268 49.4542 99.433 51.7072 95.2594C53.9603 90.973 55.4247 88.0966 56.1006 86.6302C56.4386 85.615 56.7766 84.3178 57.1145 82.7386C57.4525 81.1594 57.6214 80.1442 57.6214 79.693C57.6214 78.3394 57.3961 77.6626 56.9455 77.6626C56.4949 77.6626 55.8753 77.6626 55.0868 77.6626C53.059 77.6626 50.5244 78.4522 47.4828 80.0314C44.4412 81.4978 41.5122 83.5282 38.6959 86.1226C35.8796 88.6042 33.1197 91.4242 30.416 94.5826C27.825 97.6282 25.4593 100.674 23.3189 103.719C21.1786 106.652 19.3761 109.416 17.9117 112.01C16.5598 114.492 15.6023 116.522 15.039 118.101C14.8137 118.44 14.2505 118.891 13.3492 119.455C12.5607 120.019 11.8848 120.301 11.3215 120.301C10.8709 120.301 10.3076 120.188 9.63174 119.963C9.06848 119.624 8.44889 119.455 7.77298 119.455C7.43502 119.455 6.92809 119.004 6.25218 118.101C5.57627 117.199 4.78771 116.522 3.88649 116.071C3.88649 115.845 3.94282 115.676 4.05547 115.563C4.16812 115.338 4.3371 115.112 4.5624 114.887C4.67505 114.774 4.44975 114.153 3.88649 113.025C3.54853 113.025 3.32323 113.195 3.21058 113.533C3.21058 113.759 3.09793 113.984 2.87262 114.21C2.42202 113.42 2.08406 112.518 1.85876 111.503C1.7461 110.375 1.68978 109.529 1.68978 108.965C1.68978 108.513 1.7461 108.006 1.85876 107.442C2.08406 106.765 2.19671 106.088 2.19671 105.411C2.30936 105.073 2.53467 104.847 2.87262 104.735C3.21058 104.622 3.49221 104.453 3.71751 104.227C5.18199 100.166 6.75911 96.1054 8.44889 92.0446C10.2513 87.871 11.7721 83.8102 13.0113 79.8622C14.0252 77.0422 15.0954 73.207 16.2219 68.3566C17.461 63.5062 18.6439 58.8815 19.7704 54.4823C20.4463 51.4367 21.2349 47.7707 22.1361 43.4843C23.15 39.1979 23.9949 35.1935 24.6708 31.4711C25.4593 27.6359 26.0789 24.3083 26.5295 21.4883C27.0928 18.6684 27.3744 17.0892 27.3744 16.7508V14.2128L26.8675 13.536C25.8536 13.8744 24.8961 14.0436 23.9949 14.0436C23.0936 14.0436 22.1924 14.0436 21.2912 14.0436C20.39 14.0436 19.4325 14.1 18.4186 14.2128C17.4047 14.3256 16.0529 14.2692 14.3631 14.0436C9.29378 15.0588 6.42116 15.5664 5.74525 15.5664C5.18199 15.5664 4.95668 15.51 5.06933 15.3972C5.29464 15.2844 5.12566 15.228 4.5624 15.228C3.99914 15.228 3.71751 15.2844 3.71751 15.3972C3.71751 15.2844 3.71751 14.8332 3.71751 14.0436C3.71751 13.254 3.54853 12.5208 3.21058 11.844C2.64732 12.1824 2.25304 12.69 2.02773 13.3668C1.80243 13.9308 1.46447 14.5512 1.01387 15.228C1.01387 14.8896 0.844889 14.382 0.506934 13.7052C0.168978 13.0284 0 12.408 0 11.844C0 10.2648 0.675911 9.02398 2.02773 8.12158C3.49221 7.21918 4.39342 6.65518 4.73138 6.42958C5.06933 6.09118 5.51994 5.92198 6.0832 5.92198C6.64646 5.80918 7.32237 5.75278 8.11094 5.75278C8.8995 5.63998 9.35011 5.58358 9.46276 5.58358C9.57541 5.47079 10.364 5.30159 11.8284 5.07598C13.2929 4.73759 14.5321 4.45559 15.546 4.22999C16.6725 4.00439 17.4047 3.89159 17.7427 3.89159C18.1933 3.89159 19.0382 3.77879 20.2773 3.55319C21.5165 3.32759 22.4177 3.21479 22.981 3.21479C23.5442 3.21479 24.4455 3.04559 25.6846 2.70719C27.0365 2.36879 28.332 2.14319 29.5711 2.03039C29.9091 1.5792 30.585 0.958799 31.5989 0.169197C32.0495 0.281996 32.1621 0.394794 31.9368 0.507592C31.7115 0.620397 31.9368 0.6768 32.6127 0.6768C32.9507 0.6768 33.345 0.563998 33.7956 0.338395C34.3588 0.112798 34.6968 0 34.8094 0C35.1474 0.225597 35.598 0.958795 36.1613 2.1996C37.4004 2.87639 38.358 3.21479 39.0339 3.21479C39.4845 3.21479 40.4984 3.27119 42.0755 3.38399C43.6526 3.38399 45.455 3.38399 47.4828 3.38399C49.5105 3.38399 51.3693 3.44039 53.059 3.55319C54.7488 3.55319 55.65 3.55319 55.7627 3.55319C56.3259 3.55319 57.9594 3.49679 60.663 3.38399C63.4793 3.27119 65.2254 3.21479 65.9014 3.21479C66.1267 3.21479 66.8589 3.21479 68.0981 3.21479C69.4499 3.21479 70.858 3.10199 72.3225 2.87639C73.8996 2.65079 75.3641 2.42519 76.7159 2.1996C78.0678 1.97399 78.8563 1.86119 79.0816 1.86119C79.5322 1.86119 80.3771 1.97399 81.6163 2.1996C82.8555 2.31239 83.982 2.36879 84.9958 2.36879Z" fill="#C4E86B"/>
<path d="M133.255 114.717L130.213 116.24C130.326 116.353 130.495 116.409 130.72 116.409C130.833 116.409 130.945 116.409 131.058 116.409C131.283 116.297 131.509 116.24 131.734 116.24C131.396 116.353 131.058 116.635 130.72 117.086C130.495 117.537 130.157 117.876 129.706 118.101L130.044 118.44C129.932 118.44 129.875 118.383 129.875 118.271C129.875 118.158 129.594 118.101 129.03 118.101C128.017 118.101 127.172 118.383 126.496 118.947C125.82 119.511 125.144 120.188 124.468 120.978C123.905 121.655 123.285 122.444 122.609 123.347C121.933 124.136 121.088 124.813 120.075 125.377C116.92 127.294 114.273 128.704 112.133 129.607C110.105 130.622 108.302 131.355 106.725 131.806C105.148 132.37 103.74 132.652 102.501 132.652C101.262 132.765 99.9099 132.822 98.4454 132.822C96.5303 132.822 94.1647 132.652 91.3484 132.314C88.6447 132.088 85.9974 131.13 83.4064 129.438C80.8154 127.858 78.5624 125.32 76.6473 121.824C74.8449 118.327 73.9436 113.364 73.9436 106.934C73.9436 105.806 74.1689 104.283 74.6196 102.366C75.0702 100.448 75.5771 98.5306 76.1404 96.613C76.7036 94.5826 77.2669 92.7214 77.8301 91.0294C78.3934 89.3374 78.7877 88.2094 79.013 87.6454C79.4636 86.6302 79.9705 85.8406 80.5338 85.2766C81.097 84.5998 81.6603 83.7538 82.2236 82.7386C82.8995 81.4978 83.4627 80.3698 83.9133 79.3546C84.4766 78.2266 85.0399 77.155 85.6031 76.1398C86.1664 75.0118 86.786 73.8838 87.4619 72.7558C88.2504 71.515 89.2643 70.2178 90.5035 68.8642L95.4038 63.2806C96.7556 61.7015 97.9948 60.2915 99.1213 59.0507C100.361 57.8099 101.149 57.1895 101.487 57.1895C101.825 57.1895 102.445 57.3587 103.346 57.6971C104.36 57.9227 105.205 58.1483 105.88 58.3739C105.993 58.2611 106.049 58.0919 106.049 57.8663C106.049 57.6407 105.993 57.4715 105.88 57.3587C105.88 57.2459 105.88 57.1331 105.88 57.0203C108.584 58.7123 110.668 60.1787 112.133 61.4194C113.71 62.5474 114.836 63.7318 115.512 64.9726C116.301 66.2134 116.808 67.5106 117.033 68.8642C117.258 70.2178 117.371 71.9098 117.371 73.9402C117.484 75.0682 117.089 76.5346 116.188 78.3394C115.4 80.1442 114.498 82.0054 113.484 83.923L110.105 90.691C106.387 95.4286 102.783 99.715 99.2903 103.55C95.9108 107.273 92.2496 111.615 88.3068 116.579C88.6447 117.255 89.3206 117.763 90.3345 118.101C91.461 118.44 92.7002 118.665 94.052 118.778C95.4038 118.891 96.7557 118.947 98.1075 118.947C99.4593 118.947 100.586 118.947 101.487 118.947C101.825 118.947 101.938 119.06 101.825 119.286C101.712 119.511 101.881 119.624 102.332 119.624C103.571 119.624 105.148 119.399 107.063 118.947C108.978 118.383 110.893 117.819 112.809 117.255C114.724 116.691 116.47 116.184 118.047 115.733C119.624 115.169 120.751 114.887 121.426 114.887C121.877 114.887 122.159 114.943 122.271 115.056C122.497 115.169 122.835 115.225 123.285 115.225C123.623 115.225 123.905 115.056 124.13 114.717C124.355 114.379 124.524 114.21 124.637 114.21C124.975 114.21 125.144 114.266 125.144 114.379C125.031 114.379 124.975 114.435 124.975 114.548H125.482C125.82 114.548 126.946 114.21 128.861 113.533C130.777 112.743 132.466 112.067 133.931 111.503C134.156 111.503 134.269 111.615 134.269 111.841C134.269 112.405 133.931 113.364 133.255 114.717ZM103.853 71.7406C102.05 73.0942 100.304 74.8426 98.6144 76.9858C96.9246 79.129 95.3475 81.385 93.883 83.7538C92.5312 86.1226 91.3484 88.435 90.3345 90.691C89.3206 92.947 88.5884 94.921 88.1378 96.613C91.5173 94.2442 94.6153 91.1422 97.4316 87.307C100.361 83.359 102.501 78.1702 103.853 71.7406Z" fill="#C4E86B"/>
<path d="M206.538 107.78C205.299 108.683 204.173 109.416 203.159 109.98C202.258 110.431 201.469 110.826 200.793 111.164C200.117 111.503 199.498 111.897 198.934 112.349C198.484 112.687 198.033 113.251 197.583 114.041C195.893 114.717 194.597 115.338 193.696 115.902C192.908 116.466 192.344 116.804 192.006 116.917C191.218 117.481 190.542 117.819 189.979 117.932C189.528 117.932 189.134 118.045 188.796 118.271C188.458 118.496 188.12 118.891 187.782 119.455C187.557 120.019 187.275 120.978 186.937 122.331C185.923 126.279 184.177 130.509 181.699 135.021C179.22 139.646 176.122 143.989 172.405 148.05C170.377 150.306 167.955 152.562 165.139 154.818C162.435 157.074 159.563 159.104 156.521 160.909C153.479 162.714 150.381 164.18 147.227 165.308C144.073 166.436 141.088 167 138.271 167C137.821 167 137.145 166.887 136.244 166.662C135.455 166.436 134.667 166.098 133.878 165.646C133.089 165.195 132.413 164.575 131.85 163.785C131.287 162.996 131.005 161.98 131.005 160.74C130.893 160.514 130.667 160.288 130.329 160.063C129.991 159.95 129.766 159.781 129.654 159.555C129.428 158.54 129.147 157.356 128.809 156.002C128.583 154.761 128.358 152.562 128.133 149.403V144.496C128.133 144.045 128.527 143.425 129.316 142.635C130.104 141.958 130.949 141.225 131.85 140.436C132.751 139.759 133.54 139.138 134.216 138.574C134.892 138.123 135.117 137.898 134.892 137.898C135.117 137.898 135.286 137.954 135.399 138.067C136.638 137.052 137.821 136.318 138.947 135.867C140.186 135.416 141.2 134.739 141.989 133.837C143.228 133.386 144.749 132.483 146.551 131.13C148.354 129.776 149.762 128.761 150.776 128.084C154.381 125.602 158.154 123.29 162.097 121.147C166.153 118.891 170.096 116.522 173.926 114.041C173.7 113.477 173.419 113.025 173.081 112.687C172.855 112.349 172.743 111.841 172.743 111.164C172.743 110.713 172.349 110.149 171.56 109.472C170.884 108.683 170.039 107.949 169.025 107.273C168.011 106.596 167.054 105.975 166.153 105.411C165.252 104.847 164.632 104.453 164.294 104.227C162.717 103.663 161.421 103.381 160.407 103.381C159.506 103.381 159.225 103.381 159.563 103.381C155.732 103.381 152.297 104.001 149.255 105.242C146.213 106.37 143.566 107.667 141.313 109.134C139.173 110.487 137.483 111.785 136.244 113.025C135.004 114.153 134.329 114.717 134.216 114.717H132.864C132.413 114.717 131.963 114.323 131.512 113.533C130.836 113.759 130.498 113.871 130.498 113.871C130.16 113.871 129.879 113.815 129.654 113.702C129.541 113.589 129.372 113.533 129.147 113.533L130.329 112.518C129.991 112.179 129.766 111.897 129.654 111.672C129.541 111.446 129.259 111.333 128.809 111.333C128.358 111.333 128.133 111.503 128.133 111.841C128.133 112.067 128.02 112.179 127.795 112.179V112.01C127.232 112.01 126.95 111.446 126.95 110.318C126.95 109.077 126.894 108.457 126.781 108.457C126.556 108.457 126.443 108.401 126.443 108.288C126.443 107.837 126.781 107.216 127.457 106.427C127.457 106.201 127.119 106.088 126.443 106.088C126.443 106.201 126.556 105.919 126.781 105.242C126.443 104.791 126.274 104.227 126.274 103.55C126.274 102.873 126.894 101.971 128.133 100.843C129.485 99.715 131.062 98.4742 132.864 97.1206C134.779 95.6542 136.694 94.1314 138.609 92.5522C140.637 90.973 142.383 89.4502 143.848 87.9838C147.79 83.8102 152.071 79.1854 156.69 74.1094C156.239 73.8838 155.845 73.771 155.507 73.771C155.282 73.771 155 73.8274 154.662 73.9402C154.324 73.9402 154.043 73.9402 153.817 73.9402C153.029 73.9402 151.902 74.335 150.438 75.1246C149.086 75.9142 147.678 76.7602 146.213 77.6626C144.862 78.565 143.679 79.411 142.665 80.2006C141.651 80.9902 141.088 81.385 140.975 81.385C140.637 81.6106 140.074 81.7798 139.285 81.8926C138.609 82.0054 137.99 82.0618 137.426 82.0618C137.089 82.0618 136.469 81.8926 135.568 81.5542C134.779 81.103 134.16 80.7082 133.709 80.3698C133.709 80.1442 133.765 79.8058 133.878 79.3546C133.991 78.9034 134.103 78.4522 134.216 78.001C134.103 77.7754 133.822 77.4934 133.371 77.155C133.033 76.7038 132.751 76.3654 132.526 76.1398C132.526 75.9142 132.526 75.745 132.526 75.6322C132.639 75.5194 132.695 75.4066 132.695 75.2938C132.695 74.8426 132.413 74.5042 131.85 74.2786C131.287 73.9402 130.611 73.7146 129.823 73.6018C130.048 73.3762 130.16 73.0942 130.16 72.7558C130.16 72.3046 130.104 71.9098 129.991 71.5714C129.879 71.1202 129.766 70.7818 129.654 70.5562C130.442 70.105 131.4 69.3154 132.526 68.1874C132.301 67.849 132.076 67.6798 131.85 67.6798C131.85 67.567 132.47 67.2286 133.709 66.6646C134.948 65.9878 136.3 65.311 137.764 64.6342C139.342 63.9574 140.75 63.337 141.989 62.773C143.341 62.209 144.017 61.927 144.017 61.927C144.017 61.927 144.298 61.8706 144.862 61.7579C145.425 61.5322 146.044 61.3067 146.72 61.0811C147.396 60.8554 148.072 60.6299 148.748 60.4043C149.537 60.1787 150.212 60.0095 150.776 59.8967C153.254 59.6711 155.845 59.3891 158.549 59.0507C161.252 58.7123 162.998 58.5431 163.787 58.5431C164.463 58.5431 165.421 58.7687 166.66 59.2199C167.899 59.6711 169.082 60.1787 170.208 60.7426C171.447 61.1939 172.461 61.6451 173.25 62.0962C174.038 62.4346 174.376 62.6038 174.264 62.6038H174.095V62.2654C174.095 62.7166 174.489 63.337 175.278 64.1266C176.066 64.8034 176.46 65.9878 176.46 67.6798C176.46 69.7102 175.953 71.7406 174.94 73.771C174.038 75.8014 172.799 77.8318 171.222 79.8622C169.645 81.8926 167.843 83.923 165.815 85.9534C163.9 87.9838 161.928 90.0142 159.901 92.0446C160.013 92.7214 161.14 93.2854 163.28 93.7366C165.533 94.075 167.955 94.8082 170.546 95.9362C172.011 96.2746 173.475 97.0078 174.94 98.1358C176.404 99.151 177.756 100.279 178.995 101.52C180.347 102.648 181.417 103.719 182.206 104.735C183.107 105.75 183.67 106.314 183.895 106.427L184.064 106.765C184.29 106.991 184.402 107.442 184.402 108.119C184.515 108.683 184.853 108.965 185.416 108.965C185.867 108.965 186.486 108.852 187.275 108.626C188.176 108.288 189.134 108.006 190.148 107.78C191.161 107.442 192.232 107.16 193.358 106.934C194.485 106.596 195.555 106.427 196.569 106.427H199.272C199.047 106.652 198.822 106.765 198.596 106.765C198.371 106.765 198.146 106.878 197.921 107.103C198.033 107.216 198.315 107.273 198.765 107.273C199.554 107.273 200.399 107.16 201.3 106.934C202.201 106.709 202.765 106.596 202.99 106.596C202.877 106.596 202.877 106.709 202.99 106.934C203.103 107.16 203.441 107.442 204.004 107.78C204.454 107.555 204.849 107.442 205.187 107.442C205.412 107.442 205.863 107.555 206.538 107.78ZM142.327 61.927V62.4347C142.44 62.4347 142.496 62.3783 142.496 62.2654C142.383 62.1526 142.327 62.0398 142.327 61.927ZM169.532 128.592C167.167 129.607 164.407 131.186 161.252 133.329C158.211 135.585 155.282 137.898 152.466 140.266C149.762 142.635 147.453 144.835 145.537 146.865C143.622 148.896 142.665 150.249 142.665 150.926C143.679 150.249 144.749 149.629 145.875 149.065C147.002 148.614 148.241 148.106 149.593 147.542L150.269 147.373C152.297 145.906 154.155 144.553 155.845 143.312C157.535 142.071 159.112 140.774 160.576 139.42C162.154 138.067 163.618 136.544 164.97 134.852C166.434 133.16 167.955 131.073 169.532 128.592Z" fill="#C4E86B"/>
<path d="M267.508 24.3647C267.282 24.7031 267.057 24.8723 266.832 24.8723C266.607 24.8723 266.325 24.9851 265.987 25.2107C266.212 25.4363 266.438 25.7747 266.663 26.2259C266.888 26.5643 267.001 27.0155 267.001 27.5795C267.001 27.9179 266.832 28.2563 266.494 28.5947C266.269 28.9331 266.156 29.0459 266.156 28.9331C266.156 29.1587 266.212 29.3843 266.325 29.6099C266.55 29.8355 266.663 30.1739 266.663 30.6251C265.987 31.3019 265.367 31.7531 264.804 31.9787C264.353 32.2043 263.959 32.8811 263.621 34.0091C263.283 33.7835 262.833 33.5579 262.269 33.3323C261.819 32.9939 261.368 32.8247 260.918 32.8247C260.354 32.8247 260.073 32.9375 260.073 33.1631V33.3323C260.185 33.5579 260.242 33.6707 260.242 33.6707C259.678 32.5427 258.552 31.1891 256.862 29.6099C255.285 27.9179 254.046 26.6771 253.145 25.8875C252.807 25.5491 252.131 25.1543 251.117 24.7031C250.103 24.2519 248.92 23.8007 247.568 23.3495C246.329 22.8983 244.977 22.5035 243.513 22.1651C242.161 21.8267 240.978 21.6576 239.964 21.6576C237.711 21.6576 236.191 21.9959 235.402 22.6727C234.613 23.3495 234.106 23.6879 233.881 23.6879H233.712C232.36 24.9287 231.234 26.5643 230.333 28.5947C229.544 30.5123 229.037 32.7119 228.812 35.1935C228.812 36.4343 228.812 37.3367 228.812 37.9007C228.924 38.3519 229.037 38.8031 229.15 39.2543C229.262 39.5927 229.375 40.0439 229.488 40.6079C229.713 41.0591 229.938 41.9051 230.164 43.1459C230.502 44.3867 230.783 46.1351 231.009 48.3911C231.346 50.5343 231.741 53.5235 232.191 57.3587C232.191 57.1331 232.473 58.2611 233.036 60.7426C233.712 63.2242 234.444 66.4954 235.233 70.5562C236.022 74.617 236.697 79.129 237.261 84.0922C237.937 89.0554 238.275 93.8494 238.275 98.4742C238.275 100.956 237.88 104.114 237.092 107.949C236.303 111.785 234.839 115.563 232.698 119.286C230.558 122.895 227.629 125.997 223.911 128.592C220.307 131.186 215.575 132.483 209.717 132.483C207.69 132.483 206 132.145 204.648 131.468C203.296 130.791 202.17 130.058 201.268 129.268C200.48 128.479 199.917 127.802 199.579 127.238C199.241 126.674 199.072 126.505 199.072 126.73C197.382 124.249 195.692 121.598 194.002 118.778C192.313 115.845 191.468 112.461 191.468 108.626V102.873V99.997C191.468 98.9818 191.524 97.9102 191.637 96.7822C191.862 95.5414 192.144 94.4134 192.482 93.3982C192.82 92.2702 193.157 91.3678 193.495 90.691C193.946 89.9014 194.34 89.5066 194.678 89.5066C195.467 88.2658 195.861 86.9122 195.861 85.4458C195.974 83.8666 196.481 83.077 197.382 83.077H197.551C199.015 80.3698 200.593 78.283 202.282 76.8166C203.972 75.2374 205.606 74.053 207.183 73.2634C208.76 72.361 210.168 71.7406 211.407 71.4022C212.759 71.0638 213.716 70.7254 214.28 70.387C214.843 70.387 215.519 70.1614 216.307 69.7102C217.096 69.259 218.054 68.7514 219.18 68.1874V68.8642C219.18 69.3154 219.067 69.541 218.842 69.541C219.067 69.6538 219.18 69.7102 219.18 69.7102C219.405 69.7102 219.969 69.5974 220.87 69.3718C221.771 69.0334 222.222 68.5822 222.222 68.0182C222.222 67.9054 222.165 67.7926 222.053 67.6798C222.053 67.567 222.053 67.3978 222.053 67.1722L221.546 64.9726C220.757 60.2351 220.025 56.2871 219.349 53.1287C218.786 49.9703 218.223 47.3759 217.659 45.3455C217.209 43.2023 216.814 41.4539 216.476 40.1003C216.251 38.7467 216.138 37.5059 216.138 36.3779C216.138 34.4603 216.251 32.4863 216.476 30.4559C216.814 28.3127 217.265 26.5643 217.828 25.2107C217.828 24.5339 218.11 23.4623 218.673 21.9959C219.236 20.5295 220.757 18.894 223.236 17.0892C225.714 15.2844 228.08 13.9308 230.333 13.0284C232.698 12.0132 234.839 11.3364 236.754 10.998L240.978 11.1672C241.091 10.9416 241.147 10.8288 241.147 10.8288C241.147 10.6032 241.091 10.434 240.978 10.3212C240.978 10.2084 240.978 10.0392 240.978 9.81357C243.231 9.81357 244.752 9.70077 245.541 9.47518C246.329 9.13677 246.78 8.96757 246.892 8.96757C247.568 8.96757 248.695 9.19317 250.272 9.64437C251.962 10.0956 253.764 10.8288 255.679 11.844C257.594 12.8592 259.566 14.2128 261.594 15.9048C263.621 17.5968 265.311 19.6835 266.663 22.1651C266.888 22.3907 267.001 22.7855 267.001 23.3495C267.001 23.8007 267.17 24.1391 267.508 24.3647ZM223.236 93.229V84.2614L223.067 78.5086C218.335 81.667 214.28 85.5022 210.9 90.0142C207.521 94.5262 205.831 99.2638 205.831 104.227C205.831 107.047 206 109.416 206.338 111.333C206.676 113.138 207.07 114.605 207.521 115.733C208.084 116.748 208.647 117.481 209.21 117.932C209.886 118.383 210.45 118.609 210.9 118.609C211.689 118.609 212.421 118.553 213.097 118.44C213.773 118.214 214.505 117.594 215.294 116.579C216.082 115.563 216.983 113.928 217.997 111.672C219.011 109.416 220.25 106.145 221.715 101.858L222.56 97.2898C223.01 95.0338 223.236 93.6802 223.236 93.229Z" fill="#C4E86B"/>
<path d="M298.589 89.1682C298.589 92.2138 298.026 95.3158 296.899 98.4742C295.773 101.52 294.196 104.565 292.168 107.611C290.14 110.657 287.775 113.646 285.071 116.579C282.367 119.399 279.495 122.162 276.453 124.869C276.115 125.095 275.833 125.49 275.608 126.054C275.495 126.618 275.326 127.069 275.101 127.407C271.158 129.776 267.666 130.96 264.625 130.96C262.034 130.96 259.893 130.284 258.203 128.93C256.626 127.689 254.993 126.392 253.303 125.038C252.965 124.813 252.683 124.418 252.458 123.854C252.233 123.29 251.951 122.726 251.613 122.162C251.388 121.598 251.05 121.09 250.599 120.639C250.261 120.188 249.867 119.963 249.417 119.963C249.191 118.947 248.91 117.707 248.572 116.24C248.234 114.661 248.065 113.646 248.065 113.195C248.065 111.39 248.403 109.247 249.079 106.765C249.755 104.171 250.543 101.689 251.444 99.3202C252.458 96.9514 253.416 94.8646 254.317 93.0598C255.218 91.1422 255.838 89.9014 256.176 89.3374C256.401 89.1118 256.514 88.717 256.514 88.153C256.514 87.4762 256.683 86.9686 257.021 86.6302C257.696 85.3894 258.541 84.0358 259.555 82.5694C260.682 81.103 261.583 80.257 262.259 80.0314C262.597 79.9186 262.766 79.693 262.766 79.3546C262.766 78.9034 262.935 78.4522 263.273 78.001C263.723 77.2114 264.399 76.591 265.3 76.1398C266.202 75.5758 266.934 74.899 267.497 74.1094C267.835 73.6582 268.004 73.1506 268.004 72.5866C268.004 71.9098 268.173 71.2894 268.511 70.7254C268.286 70.7254 268.06 70.669 267.835 70.5562C267.61 70.4434 267.385 70.387 267.159 70.387C266.934 70.387 266.652 70.6126 266.314 71.0638C266.314 70.6126 266.202 70.2742 265.976 70.0486C265.638 70.2742 265.469 70.7254 265.469 71.4022C265.469 70.6126 265.075 70.2178 264.287 70.2178L264.625 70.0486C264.737 70.0486 264.962 69.8794 265.3 69.541V68.8642C265.3 67.3978 265.864 66.157 266.99 65.1418C268.117 64.1266 269.412 63.2242 270.877 62.4347C272.341 61.6451 273.749 61.0247 275.101 60.5735C276.453 60.0095 277.354 59.5019 277.805 59.0507C278.255 59.9531 278.819 60.3479 279.495 60.2351C280.171 60.0095 280.959 60.1223 281.86 60.5735C282.424 61.0247 283.099 61.7015 283.888 62.6038C284.677 63.3934 285.353 64.183 285.916 64.9726C286.592 65.6494 287.155 66.2698 287.606 66.8338C288.056 67.3978 288.225 67.6234 288.112 67.5106C288.338 67.6234 288.619 67.6798 288.957 67.6798C289.295 67.6798 289.577 67.7926 289.802 68.0182C292.393 71.6278 294.477 75.181 296.054 78.6778C297.744 82.0618 298.589 85.5586 298.589 89.1682ZM280.677 76.1398V73.6018H279.833V76.1398H280.677ZM284.564 83.7538C284.564 83.077 284.339 82.1182 283.888 80.8774C283.437 79.5238 282.987 78.3958 282.536 77.4934C281.635 79.2982 280.339 81.2158 278.65 83.2462C277.073 85.1638 275.946 86.743 275.27 87.9838C274.256 89.6758 273.13 91.7062 271.891 94.075C270.764 96.4438 269.638 98.7562 268.511 101.012C267.385 103.155 266.427 105.073 265.638 106.765C264.962 108.457 264.625 109.472 264.625 109.811V111.333C266.652 110.882 268.624 109.811 270.539 108.119C272.454 106.427 274.144 104.678 275.608 102.873C277.185 101.069 278.424 99.433 279.326 97.9666C280.227 96.5002 280.677 95.6542 280.677 95.4286C280.903 95.0902 281.241 94.3006 281.691 93.0598C282.142 91.819 282.536 90.5218 282.874 89.1682C283.325 87.8146 283.719 86.6302 284.057 85.615C284.395 84.487 284.564 83.8666 284.564 83.7538Z" fill="#C4E86B"/>
<path d="M379.965 121.147C379.289 122.049 378.557 123.008 377.768 124.023C376.98 124.926 376.248 125.997 375.572 127.238C375.572 127.464 375.684 127.633 375.91 127.746C376.135 127.746 376.36 127.746 376.586 127.746C375.008 128.535 373.488 129.55 372.023 130.791C370.559 132.032 368.531 132.652 365.94 132.652C364.588 132.652 362.898 132.37 360.871 131.806C358.956 131.242 357.266 130.284 355.801 128.93C355.576 128.93 355.463 129.099 355.463 129.438C355.463 129.663 355.52 129.832 355.632 129.945C353.83 129.381 352.084 128.14 350.394 126.223C348.704 124.193 347.127 121.937 345.663 119.455C344.311 116.861 343.128 114.21 342.114 111.503C341.1 108.795 340.424 106.427 340.086 104.396C338.284 106.314 336.256 109.021 334.003 112.518C331.863 116.015 329.497 119.511 326.906 123.008C324.315 126.505 321.555 129.55 318.626 132.145C315.697 134.739 312.656 136.036 309.501 136.036C309.163 136.036 308.319 135.98 306.967 135.867C305.615 135.754 304.488 135.529 303.587 135.19C303.249 135.078 302.968 134.739 302.742 134.175C302.63 133.611 302.461 133.273 302.235 133.16C300.546 132.709 299.194 131.976 298.18 130.96C297.279 129.945 296.546 128.817 295.983 127.576C295.533 126.336 295.195 125.095 294.969 123.854C294.744 122.501 294.406 121.26 293.955 120.132C293.392 118.778 293.054 117.199 292.942 115.394C292.829 113.589 292.773 111.954 292.773 110.487C292.773 109.247 292.829 108.288 292.942 107.611C292.942 106.821 293.28 106.257 293.955 105.919C294.181 106.257 294.293 106.539 294.293 106.765C294.406 106.991 294.744 107.385 295.307 107.949C295.758 107.611 295.983 107.103 295.983 106.427C295.983 105.75 296.265 105.073 296.828 104.396C297.053 104.396 297.222 104.565 297.335 104.904C297.448 105.129 297.673 105.355 298.011 105.581L298.687 105.073C300.264 106.314 301.447 107.667 302.235 109.134C303.137 110.487 303.756 111.954 304.094 113.533C304.545 114.999 304.939 116.522 305.277 118.101C305.615 119.568 306.065 120.978 306.629 122.331C308.319 122.331 309.952 121.655 311.529 120.301C313.106 118.947 314.683 117.255 316.26 115.225C317.838 113.195 319.358 111.051 320.823 108.795C322.287 106.427 323.752 104.283 325.216 102.366C327.582 99.2074 330.004 95.485 332.482 91.1986C334.961 86.7994 337.439 82.231 339.917 77.4934C340.368 76.591 340.819 75.0118 341.269 72.7558C341.72 70.387 342.283 68.0182 342.959 65.6494C343.635 63.1678 344.423 61.0247 345.325 59.2199C346.226 57.3023 347.409 56.3435 348.873 56.3435C349.324 56.3435 349.718 56.4563 350.056 56.6819C350.394 56.9075 350.788 57.0203 351.239 57.0203H351.408C351.408 56.9075 351.352 56.8511 351.239 56.8511C351.239 56.7383 351.239 56.6255 351.239 56.5127C351.239 56.3999 351.352 56.3435 351.577 56.3435C351.915 56.3435 352.478 56.5127 353.267 56.8511C354.168 57.1895 355.069 57.6407 355.97 58.2047C356.984 58.7687 357.829 59.4455 358.505 60.2351C359.294 60.9119 359.688 61.5886 359.688 62.2654C359.688 62.491 359.519 63.2806 359.181 64.6342C358.843 65.9878 358.449 67.6234 357.998 69.541C357.547 71.3458 357.04 73.2634 356.477 75.2938C356.027 77.3242 355.689 79.0726 355.463 80.539C354.9 83.4718 354.337 86.2354 353.774 88.8298C353.323 91.4242 353.154 94.5262 353.267 98.1358C353.267 98.4742 353.323 99.8842 353.436 102.366C353.661 104.847 353.999 107.555 354.449 110.487C355.013 113.307 355.801 115.902 356.815 118.271C357.829 120.527 359.181 121.655 360.871 121.655C363.462 121.655 365.489 121.147 366.954 120.132C368.418 119.117 369.207 118.553 369.32 118.44C369.995 118.214 371.066 118.045 372.53 117.932C374.107 117.707 375.29 116.973 376.079 115.733H377.262C376.924 116.748 376.248 117.763 375.234 118.778C375.459 119.004 375.628 119.173 375.741 119.286C375.853 119.286 376.191 119.286 376.755 119.286C377.768 119.286 378.613 119.117 379.289 118.778C379.064 119.229 378.951 119.511 378.951 119.624C378.951 119.963 379.289 120.47 379.965 121.147Z" fill="#C4E86B"/>
<path d="M407.065 39.5927C406.389 40.6079 406.164 41.7359 406.389 42.9767C406.614 44.2175 406.783 45.4019 406.896 46.5299C407.009 47.5451 406.84 48.4475 406.389 49.2371C405.938 49.9139 404.699 50.3087 402.672 50.4215C401.432 50.5343 400.193 50.3087 398.954 49.7447C397.828 49.1807 396.814 48.6731 395.912 48.2219C395.8 47.9963 395.743 47.8271 395.743 47.7143C395.743 47.4887 395.631 47.2631 395.405 47.0375C394.166 46.3607 393.152 45.1763 392.364 43.4843C391.575 41.6795 390.956 40.0439 390.505 38.5775C390.167 37.9007 389.998 36.9983 389.998 35.8703C390.111 34.6295 389.942 33.6143 389.491 32.8247C391.406 32.9375 392.927 32.9375 394.054 32.8247C395.18 32.7119 396.194 32.5427 397.095 32.3171C397.996 32.0915 398.785 31.8659 399.461 31.6403C400.137 31.3019 401.038 31.0763 402.165 30.9635C402.728 31.7531 403.347 32.4299 404.023 32.9939C404.699 33.4451 405.15 33.9527 405.375 34.5167C405.826 34.9679 405.938 35.7011 405.713 36.7163C405.6 37.7315 406.051 38.6903 407.065 39.5927ZM413.148 100.166C412.585 100.617 412.303 101.351 412.303 102.366C412.303 103.268 412.303 104.283 412.303 105.411C412.416 106.427 412.303 107.442 411.965 108.457C411.74 109.472 411.177 110.375 410.276 111.164C410.501 111.277 410.782 111.333 411.12 111.333C411.458 111.333 411.74 111.503 411.965 111.841C411.853 112.292 411.571 112.743 411.12 113.195C410.67 113.646 410.276 113.984 409.938 114.21C409.487 114.887 409.318 115.845 409.431 117.086C408.079 117.876 406.502 119.06 404.699 120.639C403.009 122.218 401.658 123.629 400.644 124.869C400.644 125.095 400.644 125.49 400.644 126.054C400.644 126.505 400.306 126.9 399.63 127.238C398.616 127.802 397.377 128.31 395.912 128.761C394.448 129.212 393.434 129.438 392.871 129.438C389.942 129.663 387.407 129.043 385.267 127.576C383.239 126.11 381.437 124.305 379.86 122.162C378.395 120.019 377.269 117.707 376.48 115.225C375.691 112.631 375.241 110.431 375.128 108.626C375.016 107.611 375.072 105.919 375.297 103.55C375.522 101.069 375.86 99.0382 376.311 97.459C376.762 95.767 377.156 94.3006 377.494 93.0598C377.832 91.7062 378.057 90.8038 378.17 90.3526C379.747 83.1334 381.606 77.2114 383.746 72.5866C383.746 72.1354 383.802 71.3458 383.915 70.2178C384.253 69.9922 384.535 69.5974 384.76 69.0334C384.985 68.3566 385.379 67.7362 385.943 67.1722C386.619 67.1722 387.238 67.0594 387.801 66.8338C388.477 66.6082 389.153 66.439 389.829 66.3262C391.97 66.2134 394.223 67.1158 396.588 69.0334C399.067 70.951 400.419 72.9814 400.644 75.1246C400.644 75.5758 400.531 76.0834 400.306 76.6474C400.081 77.0986 399.912 77.6626 399.799 78.3394C399.236 80.3698 398.672 83.4154 398.109 87.4762C397.546 91.4242 396.701 94.357 395.574 96.2746C395.237 97.0642 394.955 98.0794 394.73 99.3202C394.504 100.561 394.279 101.576 394.054 102.366C393.04 105.863 392.251 108.457 391.688 110.149C391.125 111.728 391.125 113.533 391.688 115.563C395.631 113.759 399.461 111.446 403.178 108.626C407.009 105.806 410.332 102.986 413.148 100.166Z" fill="#C4E86B"/>
<path d="M465.745 98.6434C465.295 99.0946 464.9 99.7714 464.562 100.674C464.224 101.576 463.717 102.027 463.042 102.027C462.704 102.027 462.478 101.971 462.366 101.858C462.253 101.858 462.197 101.802 462.197 101.689C462.084 101.802 461.971 101.971 461.859 102.197C461.746 102.309 461.69 102.479 461.69 102.704V102.873H462.197C462.76 102.873 462.985 102.873 462.872 102.873C462.872 102.761 463.042 102.704 463.379 102.704C463.154 102.93 462.873 103.325 462.535 103.889C462.309 104.453 462.197 104.96 462.197 105.411C462.197 105.637 462.253 105.806 462.366 105.919C461.352 106.821 460.225 107.724 458.986 108.626C457.747 109.529 456.677 110.431 455.775 111.333C455.775 111.785 456.057 112.01 456.62 112.01V113.702C454.593 114.83 452.396 116.127 450.03 117.594C447.777 119.06 445.13 120.696 442.088 122.501C441.75 122.839 441.412 123.347 441.074 124.023C440.849 124.587 440.511 125.038 440.061 125.377C439.61 125.602 438.765 125.941 437.526 126.392C436.287 126.843 434.935 127.294 433.47 127.746C432.119 128.197 430.71 128.592 429.246 128.93C427.781 129.268 426.599 129.438 425.697 129.438C422.656 129.438 420.065 128.704 417.924 127.238C415.784 125.772 413.982 123.967 412.517 121.824C411.165 119.681 410.151 117.425 409.476 115.056C408.912 112.574 408.631 110.375 408.631 108.457C408.631 107.329 408.743 105.863 408.969 104.058C409.194 102.14 409.476 100.166 409.813 98.1358C410.264 96.1054 410.771 94.1314 411.334 92.2138C412.01 90.2962 412.742 88.6606 413.531 87.307C413.756 87.1942 413.869 86.9122 413.869 86.461C413.869 86.0098 413.925 85.5586 414.038 85.1074C414.827 83.5282 415.615 81.8926 416.404 80.2006C417.192 78.5086 418.206 77.0422 419.445 75.8014C420.121 75.0118 420.797 74.335 421.473 73.771C422.262 73.0942 422.881 72.2482 423.332 71.233C423.332 71.0074 423.275 70.8382 423.163 70.7254C422.712 71.1766 422.487 71.4586 422.487 71.5714C423.501 70.3306 424.571 68.695 425.697 66.6646C426.937 64.6342 428.232 62.8858 429.584 61.4194C429.697 61.3067 430.091 61.0811 430.767 60.7426C431.443 60.2915 432.175 59.8967 432.963 59.5583C433.865 59.1071 434.653 58.7123 435.329 58.3739C436.005 58.0355 436.343 57.8663 436.343 57.8663C437.47 57.8663 438.878 58.1483 440.567 58.7123C442.37 59.1635 444.06 60.0095 445.637 61.2503C447.327 62.3783 448.735 63.901 449.861 65.8186C451.1 67.6234 451.72 69.8794 451.72 72.5866C451.72 73.0378 451.607 73.8838 451.382 75.1246C451.157 76.3654 450.875 77.719 450.537 79.1854C450.199 80.6518 449.805 82.0054 449.354 83.2462C448.904 84.3742 448.453 85.051 448.003 85.2766C447.439 85.615 446.594 85.7842 445.468 85.7842C444.567 85.7842 443.722 85.4458 442.933 84.769C442.145 83.9794 441.469 83.1334 440.905 82.231C440.342 81.2158 439.892 80.257 439.554 79.3546C439.216 78.3394 439.047 77.5498 439.047 76.9858C439.047 76.5346 439.103 76.1962 439.216 75.9706L438.709 75.8014C435.554 79.7494 432.794 83.8102 430.429 87.9838C428.063 92.0446 426.148 95.6542 424.684 98.8126C424.233 99.8278 423.726 101.125 423.163 102.704C422.712 104.171 422.262 105.693 421.811 107.273C421.36 108.739 420.966 110.093 420.628 111.333C420.29 112.461 420.121 113.138 420.121 113.364V115.733C420.91 116.071 421.811 116.353 422.825 116.579C423.839 116.804 424.571 116.917 425.021 116.917C425.472 116.917 426.486 116.579 428.063 115.902C429.64 115.112 431.105 114.435 432.457 113.871C435.498 112.631 438.878 111.333 442.595 109.98C446.425 108.626 450.312 106.878 454.255 104.735C455.269 104.171 456.902 103.268 459.155 102.027C461.521 100.674 463.717 99.5458 465.745 98.6434Z" fill="#C4E86B"/>
<path d="M551.829 107.78C551.153 108.683 550.815 109.359 550.815 109.811C550.815 110.262 551.04 110.939 551.491 111.841C550.702 112.405 549.914 113.082 549.125 113.871C548.337 114.661 547.604 115.394 546.928 116.071V116.409C546.928 116.748 546.759 117.086 546.422 117.425C543.38 119.568 540.845 121.429 538.818 123.008C536.79 124.474 534.931 125.715 533.241 126.73C531.551 127.746 529.805 128.479 528.003 128.93C526.201 129.381 523.947 129.607 521.244 129.607C517.301 129.607 514.09 128.817 511.612 127.238C509.246 125.546 507.388 123.516 506.036 121.147C504.684 118.665 503.783 116.071 503.332 113.364C502.882 110.544 502.656 108.062 502.656 105.919C502.656 104.565 502.882 102.761 503.332 100.505C503.783 98.2486 504.064 96.5002 504.177 95.2594C504.064 95.1466 504.008 95.0902 504.008 95.0902C504.121 94.9774 504.008 94.921 503.67 94.921C503.22 94.921 502.431 95.3722 501.304 96.2746C500.291 97.0642 499.446 97.6282 498.77 97.9666C497.08 98.9818 495.616 99.5458 494.376 99.6586C493.137 99.6586 491.898 100.223 490.659 101.351C489.42 102.366 488.012 104.453 486.434 107.611C484.97 110.657 483.111 115.62 480.858 122.501C480.52 122.839 479.788 123.798 478.661 125.377C477.648 126.843 476.408 128.423 474.944 130.114C473.592 131.806 472.128 133.329 470.55 134.683C469.086 136.149 467.734 136.882 466.495 136.882C465.481 136.882 464.298 136.488 462.946 135.698C461.595 135.021 460.299 134.006 459.06 132.652C457.933 131.299 456.92 129.72 456.018 127.915C455.23 126.11 454.836 124.192 454.836 122.162V121.824H455.004L455.173 121.485C455.061 120.809 454.948 119.963 454.836 118.947C454.723 117.932 454.667 117.199 454.667 116.748C454.667 116.297 454.948 115.112 455.511 113.195C456.187 111.277 456.92 109.585 457.708 108.119L459.229 105.919C459.68 104.791 460.13 103.945 460.581 103.381C461.031 102.817 461.482 102.422 461.933 102.197C462.383 101.858 462.777 101.633 463.115 101.52C463.566 101.294 464.017 101.012 464.467 100.674C465.706 99.5458 467.34 98.3614 469.368 97.1206C471.508 95.8798 473.198 95.2594 474.437 95.2594H474.775V95.4286H475.113C475.789 95.4286 476.296 95.1466 476.634 94.5826C476.972 93.9058 477.253 93.1162 477.479 92.2138C477.704 91.3114 477.873 90.4654 477.986 89.6758C478.098 88.7734 478.211 88.0402 478.323 87.4762C478.887 84.769 479.619 81.667 480.52 78.1702C481.534 74.6734 482.154 71.5714 482.379 68.8642C482.604 67.849 482.773 66.6082 482.886 65.1418C482.998 63.6754 483.224 62.209 483.562 60.7426C483.562 60.0659 483.167 59.2199 482.379 58.2047C483.055 57.5279 483.674 57.1895 484.238 57.1895C484.688 57.1895 484.914 57.2459 484.914 57.3587C484.914 57.4715 485.026 57.6971 485.252 58.0355C485.815 57.4715 486.096 57.0767 486.096 56.8511C487.561 57.1895 488.631 57.4151 489.307 57.5279C490.096 57.6407 490.715 57.8099 491.166 58.0355C491.616 58.1483 491.954 58.3739 492.18 58.7123C492.518 59.0507 492.968 59.5019 493.531 60.0659C493.757 61.1939 493.926 62.6602 494.038 64.465C494.151 66.157 494.207 67.2286 494.207 67.6798C494.207 70.4998 493.926 73.489 493.362 76.6474C492.799 79.8058 492.18 83.077 491.504 86.461L491.842 86.7994C492.292 86.7994 493.362 86.1226 495.052 84.769C496.855 83.4154 498.77 81.8362 500.798 80.0314C502.825 78.2266 504.74 76.4218 506.543 74.617C508.458 72.6994 509.753 71.233 510.429 70.2178C510.992 69.4282 511.612 68.5822 512.288 67.6798C513.077 66.6646 513.752 65.6494 514.316 64.6342V63.4498C514.541 62.8858 516.231 60.6299 519.385 56.6819L520.061 57.1895C520.512 56.8511 520.85 56.4563 521.075 56.0051C521.3 55.4411 521.807 54.9899 522.596 54.6515C523.384 55.3283 524.342 55.8923 525.468 56.3435C526.595 56.7947 527.158 57.8099 527.158 59.3891C527.496 59.5019 527.834 59.7275 528.172 60.0659C528.51 60.2915 528.679 60.6299 528.679 61.0811C528.679 61.1939 528.454 61.9271 528.003 63.2806C527.552 64.5214 526.933 66.1006 526.144 68.0182C525.468 69.823 524.68 71.797 523.779 73.9402C522.99 75.9706 522.201 77.7754 521.413 79.3546C520.624 81.7234 519.779 84.487 518.878 87.6454C518.09 90.8038 517.357 93.9622 516.681 97.1206C516.005 100.279 515.442 103.268 514.992 106.088C514.541 108.795 514.316 110.882 514.316 112.349C514.316 113.815 514.992 114.887 516.343 115.563C517.808 116.24 519.667 116.579 521.92 116.579C522.821 116.579 523.722 116.522 524.623 116.409C525.525 116.297 526.088 116.24 526.313 116.24C526.426 116.24 526.482 116.297 526.482 116.409C526.482 116.409 526.538 116.409 526.651 116.409C526.989 116.409 527.665 116.184 528.679 115.733C529.693 115.281 530.876 114.717 532.227 114.041C533.692 113.251 535.213 112.405 536.79 111.503C538.48 110.487 540.113 109.472 541.69 108.457C542.704 107.78 544.112 107.103 545.915 106.427C547.717 105.637 549.407 104.791 550.984 103.889C550.533 104.001 550.195 104.227 549.97 104.565C549.745 104.904 549.407 105.355 548.956 105.919C548.956 106.032 549.013 106.088 549.125 106.088C549.238 106.088 549.294 106.201 549.294 106.427C549.294 106.652 549.069 106.991 548.618 107.442C548.844 107.667 548.956 107.949 548.956 108.288C548.956 108.513 549.182 108.626 549.632 108.626C550.195 108.626 550.928 108.344 551.829 107.78ZM511.443 72.2482C508.514 75.0682 505.585 77.8318 502.656 80.539C499.727 83.2462 496.967 85.7842 494.376 88.153C496.066 87.1378 497.869 85.8406 499.784 84.2614C501.811 82.5694 503.67 80.9338 505.36 79.3546C507.05 77.7754 508.458 76.3654 509.584 75.1246C510.824 73.771 511.443 72.8122 511.443 72.2482ZM470.55 110.657C469.311 111.108 468.185 112.123 467.171 113.702C466.27 115.169 465.819 116.297 465.819 117.086C466.27 116.973 466.72 116.635 467.171 116.071C467.734 115.507 468.241 114.887 468.692 114.21C469.142 113.533 469.537 112.856 469.875 112.179C470.212 111.503 470.438 110.995 470.55 110.657Z" fill="#C4E86B"/>
<path d="M591 89.1682C591 92.2138 590.437 95.3158 589.31 98.4742C588.184 101.52 586.607 104.565 584.579 107.611C582.551 110.657 580.185 113.646 577.482 116.579C574.778 119.399 571.905 122.162 568.864 124.869C568.526 125.095 568.244 125.49 568.019 126.054C567.906 126.618 567.737 127.069 567.512 127.407C563.569 129.776 560.077 130.96 557.035 130.96C554.444 130.96 552.304 130.284 550.614 128.93C549.037 127.689 547.404 126.392 545.714 125.038C545.376 124.813 545.094 124.418 544.869 123.854C544.644 123.29 544.362 122.726 544.024 122.162C543.799 121.598 543.461 121.09 543.01 120.639C542.672 120.188 542.278 119.963 541.827 119.963C541.602 118.947 541.32 117.707 540.983 116.24C540.645 114.661 540.476 113.646 540.476 113.195C540.476 111.39 540.814 109.247 541.489 106.765C542.165 104.171 542.954 101.689 543.855 99.3202C544.869 96.9514 545.827 94.8646 546.728 93.0598C547.629 91.1422 548.249 89.9014 548.587 89.3374C548.812 89.1118 548.924 88.717 548.924 88.153C548.924 87.4762 549.094 86.9686 549.431 86.6302C550.107 85.3894 550.952 84.0358 551.966 82.5694C553.093 81.103 553.994 80.257 554.67 80.0314C555.008 79.9186 555.177 79.693 555.177 79.3546C555.177 78.9034 555.346 78.4522 555.684 78.001C556.134 77.2114 556.81 76.591 557.711 76.1398C558.613 75.5758 559.345 74.899 559.908 74.1094C560.246 73.6582 560.415 73.1506 560.415 72.5866C560.415 71.9098 560.584 71.2894 560.922 70.7254C560.697 70.7254 560.471 70.669 560.246 70.5562C560.021 70.4434 559.795 70.387 559.57 70.387C559.345 70.387 559.063 70.6126 558.725 71.0638C558.725 70.6126 558.613 70.2742 558.387 70.0486C558.049 70.2742 557.88 70.7254 557.88 71.4022C557.88 70.6126 557.486 70.2178 556.697 70.2178L557.035 70.0486C557.148 70.0486 557.373 69.8794 557.711 69.541V68.8642C557.711 67.3978 558.275 66.157 559.401 65.1418C560.528 64.1266 561.823 63.2242 563.288 62.4347C564.752 61.6451 566.16 61.0247 567.512 60.5735C568.864 60.0095 569.765 59.5019 570.216 59.0507C570.666 59.9531 571.23 60.3479 571.905 60.2351C572.581 60.0095 573.37 60.1223 574.271 60.5735C574.834 61.0247 575.51 61.7015 576.299 62.6038C577.087 63.3934 577.763 64.183 578.327 64.9726C579.003 65.6494 579.566 66.2698 580.016 66.8338C580.467 67.3978 580.636 67.6234 580.523 67.5106C580.749 67.6234 581.03 67.6798 581.368 67.6798C581.706 67.6798 581.988 67.7926 582.213 68.0182C584.804 71.6278 586.888 75.181 588.465 78.6778C590.155 82.0618 591 85.5586 591 89.1682ZM573.088 76.1398V73.6018H572.243V76.1398H573.088ZM576.975 83.7538C576.975 83.077 576.75 82.1182 576.299 80.8774C575.848 79.5238 575.398 78.3958 574.947 77.4934C574.046 79.2982 572.75 81.2158 571.061 83.2462C569.483 85.1638 568.357 86.743 567.681 87.9838C566.667 89.6758 565.541 91.7062 564.302 94.075C563.175 96.4438 562.048 98.7562 560.922 101.012C559.795 103.155 558.838 105.073 558.049 106.765C557.373 108.457 557.035 109.472 557.035 109.811V111.333C559.063 110.882 561.035 109.811 562.95 108.119C564.865 106.427 566.555 104.678 568.019 102.873C569.596 101.069 570.835 99.433 571.737 97.9666C572.638 96.5002 573.088 95.6542 573.088 95.4286C573.314 95.0902 573.652 94.3006 574.102 93.0598C574.553 91.819 574.947 90.5218 575.285 89.1682C575.736 87.8146 576.13 86.6302 576.468 85.615C576.806 84.487 576.975 83.8666 576.975 83.7538Z" fill="#C4E86B"/>
</svg>
