<svg width="730" height="388" viewBox="0 0 730 388" fill="none" xmlns="http://www.w3.org/2000/svg">
<mask id="path-1-inside-1_1_1386" fill="white">
<path fill-rule="evenodd" clip-rule="evenodd" d="M602 388H680C707.614 388 730 365.614 730 338V277C730 249.386 707.614 227 680 227H652C624.386 227 602 204.614 602 177V50C602 22.3858 579.614 0 552 0H50C22.3857 0 0 22.3857 0 50V338C0 365.614 22.3857 388 50 388H514H602Z"/>
</mask>
<path fill-rule="evenodd" clip-rule="evenodd" d="M602 388H680C707.614 388 730 365.614 730 338V277C730 249.386 707.614 227 680 227H652C624.386 227 602 204.614 602 177V50C602 22.3858 579.614 0 552 0H50C22.3857 0 0 22.3857 0 50V338C0 365.614 22.3857 388 50 388H514H602Z" fill="white"/>
<path d="M680 387H602V389H680V387ZM729 277V338H731V277H729ZM652 228H680V226H652V228ZM601 50V177H603V50H601ZM50 1H552V-1H50V1ZM1 338V50H-1V338H1ZM514 387H50V389H514V387ZM602 387H514V389H602V387ZM-1 338C-1 366.167 21.8335 389 50 389V387C22.938 387 1 365.062 1 338H-1ZM603 50C603 21.8335 580.167 -1 552 -1V1C579.062 1 601 22.938 601 50H603ZM652 226C624.938 226 603 204.062 603 177H601C601 205.167 623.833 228 652 228V226ZM731 277C731 248.833 708.167 226 680 226V228C707.062 228 729 249.938 729 277H731ZM50 -1C21.8335 -1 -1 21.8335 -1 50H1C1 22.938 22.938 1 50 1V-1ZM680 389C708.167 389 731 366.167 731 338H729C729 365.062 707.062 387 680 387V389Z" fill="black" mask="url(#path-1-inside-1_1_1386)"/>
</svg>
