<svg width="554" height="478" viewBox="0 0 554 478" fill="none" xmlns="http://www.w3.org/2000/svg">
<path d="M208.131 40.0446C207.133 40.4528 206.105 40.7802 205.034 41.019C205.535 40.7533 206.001 40.4182 206.436 40.0215C207.002 39.9945 207.565 40.033 208.131 40.0446ZM536.577 150.341C494.118 48.1944 381.28 0.793671 276.495 0.000244141C274.1 -0.0151672 272.028 0.458588 270.248 1.27512C269.039 1.20578 267.826 1.15958 266.608 1.16342C265.888 1.16727 265.222 1.41376 264.602 1.76041C262.784 1.745 260.97 1.70261 259.16 1.78735C255.2 1.97992 253.001 6.68265 255.905 9.64062C257.141 10.9039 258.493 11.9554 259.899 13.0107C257.835 14.2586 256.625 17.1703 258.166 19.308C260.458 22.4893 265.049 25.9942 269.705 27.192C271.604 28.2165 273.838 28.8713 276.495 28.8867C358.19 29.5068 444.202 59.3061 492.308 128.784C540.051 197.738 533.824 298.678 486.4 366.138C441.945 429.376 357.847 446.011 285.589 447.548C239.94 448.514 197.346 442.841 156.694 420.926C115.898 398.934 83.3066 363.973 60.5903 323.948C27.7522 266.075 16.1167 179.497 46.8788 118.196C73.0808 65.9885 135.626 51.63 189.073 45.3058C197.87 45.4021 207.984 46.4689 215.017 40.1601C216.065 39.2204 215.518 37.3524 214.185 37.025C212.468 36.5975 210.738 36.4203 209.013 36.3355C209.91 34.3905 210.476 32.1797 210.738 30.1461C211.524 24.0338 208.774 21.1567 204.684 19.3773C202.388 16.8276 198.899 15.3139 194.173 15.8377C129.19 23.0208 58.7839 39.5323 23.6849 100.371C-15.747 168.724 -1.28837 266.919 33.0595 333.743C73.1886 411.802 152.599 468.073 240.322 475.36C314.491 481.526 397.799 472.078 460.899 429.881C548.063 371.584 575.794 244.699 536.577 150.341Z" fill="#C4E86B"/>
</svg>
