<svg width="30" height="30" viewBox="0 0 30 30" fill="none" xmlns="http://www.w3.org/2000/svg">
<path fill-rule="evenodd" clip-rule="evenodd" d="M15 0C23.2843 0 30 6.71573 30 15C30 23.2843 23.2843 30 15 30C6.71573 30 0 23.2843 0 15C0 6.71573 6.71573 0 15 0ZM18.9963 13.099C18.9234 12.5063 18.7412 12.0409 18.4177 11.6287C17.9976 11.0979 17.4607 10.7801 16.6659 10.5915C16.148 10.4658 15.9387 10.4803 15.7514 10.6514C15.5769 10.8117 15.5428 11.1331 15.6761 11.3412C15.7699 11.4923 15.8781 11.5464 16.179 11.6055C16.5797 11.6792 16.8566 11.7749 17.1085 11.9189C17.6432 12.2276 17.8921 12.7107 17.9188 13.4928C17.9313 13.86 17.963 13.9729 18.0912 14.1031C18.329 14.3412 18.752 14.2949 18.9315 14.01C18.9973 13.9026 19.0074 13.8559 19.0143 13.6065C19.0189 13.4522 19.0123 13.2224 18.9963 13.099ZM19.0034 9.4626C20.2746 10.4905 20.9848 11.9514 21.0904 13.7673C21.1348 14.4825 21.0758 14.7154 20.8235 14.8481C20.5958 14.9711 20.3378 14.9306 20.1608 14.7455C20.0436 14.6251 19.9986 14.4605 20.0003 14.1689C20.0054 13.3628 19.8197 12.4626 19.5178 11.838C19.1683 11.1109 18.6281 10.4923 17.9485 10.0399C17.3532 9.64265 16.5654 9.3743 15.8016 9.30748C15.3061 9.26413 15.1292 9.18022 15.0341 8.9427C14.9752 8.80062 14.9908 8.55499 15.0598 8.44498C15.1252 8.34353 15.2717 8.23135 15.3753 8.20169C15.4851 8.16966 16.1251 8.22565 16.4727 8.29473C17.4216 8.48787 18.2873 8.88503 19.0034 9.4626ZM23.4076 20.7602C23.3721 20.6564 23.2893 20.4963 23.23 20.4044C22.857 19.8411 20.8528 18.2726 19.8522 17.7597C19.2808 17.4662 18.8575 17.3684 18.5437 17.4602C18.2062 17.5552 18.0286 17.7123 17.4631 18.415C17.2352 18.6966 17.0013 18.9605 16.9391 19.002C16.7852 19.1087 16.4832 19.1948 16.2701 19.1948C15.7757 19.1917 14.8787 18.8716 14.1889 18.4505C13.653 18.1244 12.9663 17.5403 12.4393 16.9622C11.8176 16.2832 11.3943 15.6843 11.0597 15.0083C10.6275 14.1396 10.518 13.6088 10.6985 13.2204C10.743 13.1226 10.8022 13.0188 10.8288 12.9862C10.8554 12.9566 11.1337 12.7283 11.4416 12.4792C12.0455 11.9989 12.1432 11.8892 12.2557 11.5601C12.3978 11.142 12.3594 10.7151 12.1403 10.2852C11.9715 9.95902 11.5304 9.24745 11.2107 8.7879C10.7874 8.18308 9.73345 6.89038 9.52322 6.7154C9.14429 6.40708 8.65883 6.35367 8.12294 6.56126C7.55755 6.78067 6.49768 7.63455 6.04473 8.23051C5.63619 8.77011 5.47933 9.15257 5.45563 9.65661C5.43492 10.0717 5.47043 10.2436 5.68951 10.7744C7.4036 14.9371 9.96137 18.2608 13.4754 20.8996C15.3109 22.2782 17.2144 23.3278 19.189 24.0454C20.3406 24.4634 20.841 24.4841 21.4301 24.1402C21.6787 23.992 22.2945 23.3604 22.6379 22.9009C23.2063 22.1359 23.4165 21.7831 23.4757 21.5014C23.5172 21.3087 23.4846 20.9737 23.4076 20.7602ZM22.6507 11.3753C23.0113 12.3147 23.1842 13.1572 23.2222 14.1843C23.2282 14.3873 23.2254 14.759 23.2123 15.0108C23.1849 15.4936 23.1587 15.5895 23.0197 15.7172C22.7963 15.9268 22.3609 15.8769 22.1958 15.6243C22.1095 15.4888 22.0974 15.3895 22.1141 14.8255C22.162 13.1571 21.8246 11.8507 21.0117 10.5445C20.0403 8.97731 18.5874 7.92159 16.698 7.4051C16.2162 7.27364 15.8101 7.19352 15.1786 7.1085C14.7673 7.05466 14.6772 7.03189 14.5756 6.9694C14.2689 6.77296 14.2649 6.27554 14.5706 6.07611C14.7284 5.97084 14.8447 5.96614 15.359 6.032C16.867 6.22045 18.2126 6.66854 19.3183 7.34566C20.1108 7.83165 20.6105 8.26824 21.2539 9.03288C21.9344 9.8484 22.2947 10.4513 22.6507 11.3753Z" fill="#C4E86B"/>
</svg>
